<svg id="Grupo_1112544" data-name="Grupo 1112544" xmlns="http://www.w3.org/2000/svg" width="85" height="85" viewBox="0 0 85 85">
  <g id="Grupo_1112537" data-name="Grupo 1112537" transform="translate(1.371 1.371)">
    <g id="Grupo_1112518" data-name="Grupo 1112518" transform="translate(16.452 41.129)">
      <path id="Trazado_900621" data-name="Trazado 900621" d="M22.6,31H26.71v4.2a16.452,16.452,0,1,0,21.935,0V31h7.485l3.839,3.852-1.056,1.069A2.737,2.737,0,0,0,60.847,40.6h1.508v13.71H60.847a2.737,2.737,0,0,0-1.933,4.675l1.056,1.069-9.693,9.693-1.069-1.056a2.737,2.737,0,0,0-4.675,1.933v1.508H30.823V70.621a2.737,2.737,0,0,0-4.675-1.933l-1.069,1.056-9.693-9.693,1.056-1.069a2.737,2.737,0,0,0-1.933-4.675H13V40.6h1.508a2.737,2.737,0,0,0,1.933-4.675l-1.056-1.069L19.224,31Z" transform="translate(-13 -31)" fill="#fcd770"/>
    </g>
    <g id="Grupo_1112519" data-name="Grupo 1112519" transform="translate(41.129 41.129)">
      <path id="Trazado_900622" data-name="Trazado 900622" d="M41.968,35.2v11.3a2.538,2.538,0,0,1-.178.96H31V39.226a1.9,1.9,0,0,0,1.81-1.3L35.113,31h6.855Z" transform="translate(-31 -31)" fill="#b4dd7f"/>
    </g>
    <g id="Grupo_1112520" data-name="Grupo 1112520" transform="translate(30.161 41.129)">
      <path id="Trazado_900623" data-name="Trazado 900623" d="M33.968,39.226v8.226H23.178a2.538,2.538,0,0,1-.178-.96V31h6.855l2.3,6.923a1.9,1.9,0,0,0,1.81,1.3Z" transform="translate(-23 -31)" fill="#ff826e"/>
    </g>
    <g id="Grupo_1112521" data-name="Grupo 1112521" transform="translate(30.34 57.581)">
      <path id="Trazado_900624" data-name="Trazado 900624" d="M33.92,43h10.79a2.425,2.425,0,0,1-.425.754L33.92,56.71,23.555,43.754A2.425,2.425,0,0,1,23.13,43Z" transform="translate(-23.13 -43)" fill="#ccd1d9"/>
    </g>
    <g id="Grupo_1112522" data-name="Grupo 1112522" transform="translate(67.328 10.968)">
      <path id="Trazado_900625" data-name="Trazado 900625" d="M56.252,9H62.3a2.75,2.75,0,0,1,2.742,2.742V36.419A2.75,2.75,0,0,1,62.3,39.161H54.072l-.644-1.6a10.943,10.943,0,0,0-2.989-4.223c-.11-.1-.219-.192-.329-.274a12.044,12.044,0,0,0,6.7-10.79V13.113A14.544,14.544,0,0,0,56.238,9Z" transform="translate(-50.11 -9)" fill="#e6e9ed"/>
    </g>
    <g id="Grupo_1112523" data-name="Grupo 1112523" transform="translate(26.336 10.968)">
      <path id="Trazado_900626" data-name="Trazado 900626" d="M44.449,33.06c-.11.082-.219.178-.329.274a10.942,10.942,0,0,0-2.989,4.223l-.644,1.6H39.116l-2.3,6.923a1.908,1.908,0,0,1-3.619,0l-2.3-6.923H29.519l-.644-1.6a10.942,10.942,0,0,0-2.989-4.223,11.113,11.113,0,0,0-4.593-2.4L20.21,27.7a9.553,9.553,0,0,0,6.457-7.732h2.852a2.762,2.762,0,0,0,2.742-2.742,2.75,2.75,0,0,0-2.742-2.742L31.507,11.5a4.409,4.409,0,0,0,.754-2.481V9h6.06a14.544,14.544,0,0,0-.576,4.113v9.158a12.044,12.044,0,0,0,6.7,10.79Z" transform="translate(-20.21 -9)" fill="#e6e9ed"/>
    </g>
    <g id="Grupo_1112524" data-name="Grupo 1112524" transform="translate(0 10.968)">
      <path id="Trazado_900627" data-name="Trazado 900627" d="M21.277,27.7l-1.083,3.235a11.113,11.113,0,0,0-4.593,2.4,10.942,10.942,0,0,0-2.989,4.223l-.644,1.6H3.742A2.75,2.75,0,0,1,1,36.419V11.742A2.75,2.75,0,0,1,3.742,9H9.473a8.584,8.584,0,0,0,.685,1.878l1.81,3.606a2.75,2.75,0,0,0-2.742,2.742,2.762,2.762,0,0,0,2.742,2.742h2.852A9.551,9.551,0,0,0,21.277,27.7Z" transform="translate(-1 -9)" fill="#e6e9ed"/>
    </g>
    <g id="Grupo_1112525" data-name="Grupo 1112525" transform="translate(43.871)">
      <path id="Trazado_900628" data-name="Trazado 900628" d="M63.161,16.081v9.158a12.044,12.044,0,0,1-6.7,10.79A10.955,10.955,0,0,0,52.194,33.9L51.11,30.668a9.567,9.567,0,0,0,6.567-9.1V16.492a2.754,2.754,0,0,0-1.631-2.509L45.339,9.226l-5.827,4.661a2.751,2.751,0,0,0-1.028,2.139v5.539a9.54,9.54,0,0,0,2.81,6.786,9.422,9.422,0,0,0,3.756,2.317L43.968,33.9A10.955,10.955,0,0,0,39.7,36.028,12.044,12.044,0,0,1,33,25.239V16.081a14.544,14.544,0,0,1,.576-4.113,15.072,15.072,0,0,1,29.01,0,14.544,14.544,0,0,1,.576,4.113Z" transform="translate(-33 -1)" fill="#656d78"/>
    </g>
    <g id="Grupo_1112526" data-name="Grupo 1112526" transform="translate(8.226 0)">
      <path id="Trazado_900629" data-name="Trazado 900629" d="M28.84,10.076a2.5,2.5,0,0,1-2.44,1.892H15.226a2.75,2.75,0,0,0-2.742,2.742v2.742H9.742l-1.81-3.606a8.584,8.584,0,0,1-.685-1.878A8.888,8.888,0,0,1,15.87,1h17.9a3.37,3.37,0,0,1,3.386,3.386,3.381,3.381,0,0,1-1.878,3.03l-.864.439.274.137a4.449,4.449,0,0,1,2.468,3.976v.014a4.409,4.409,0,0,1-.754,2.481l-1.988,2.989H31.677V13.435a2.715,2.715,0,0,0-1.22-2.276l-1.6-1.083Z" transform="translate(-7 -1)" fill="#b27946"/>
    </g>
    <g id="Grupo_1112527" data-name="Grupo 1112527" transform="translate(24.677 32.903)">
      <path id="Trazado_900630" data-name="Trazado 900630" d="M21.742,25a11.113,11.113,0,0,1,4.593,2.4,10.942,10.942,0,0,1,2.989,4.223l.644,1.6h-9.6L19,27.742Z" transform="translate(-19 -25)" fill="#b4dd7f"/>
    </g>
    <g id="Grupo_1112528" data-name="Grupo 1112528" transform="translate(10.968 32.903)">
      <path id="Trazado_900631" data-name="Trazado 900631" d="M19.968,27.742,18.6,33.226H9l.644-1.6A10.942,10.942,0,0,1,12.633,27.4,11.113,11.113,0,0,1,17.226,25Z" transform="translate(-9 -25)" fill="#b4dd7f"/>
    </g>
    <g id="Grupo_1112529" data-name="Grupo 1112529" transform="translate(20.565 35.645)">
      <path id="Trazado_900632" data-name="Trazado 900632" d="M20.113,27l1.371,5.484H16L17.371,27Z" transform="translate(-16 -27)" fill="#ff826e"/>
    </g>
    <g id="Grupo_1112530" data-name="Grupo 1112530" transform="translate(46.613 32.903)">
      <path id="Trazado_900633" data-name="Trazado 900633" d="M47.969,33.226H35l.644-1.6A10.942,10.942,0,0,1,38.633,27.4c.11-.1.219-.192.329-.274A10.955,10.955,0,0,1,43.226,25l.151.439a16.283,16.283,0,0,0,3.962,6.416A16.283,16.283,0,0,0,51.3,25.439L51.452,25a10.955,10.955,0,0,1,4.264,2.125c.11.082.219.178.329.274a10.942,10.942,0,0,1,2.989,4.223l.644,1.6Z" transform="translate(-35 -25)" fill="#ff826e"/>
    </g>
    <g id="Grupo_1112531" data-name="Grupo 1112531" transform="translate(54.839 29.668)">
      <path id="Trazado_900634" data-name="Trazado 900634" d="M41,25.875l1.083-3.235,3.03.494a9.178,9.178,0,0,0,3.03-.494l1.083,3.235-.151.439a16.283,16.283,0,0,1-3.962,6.416,16.283,16.283,0,0,1-3.962-6.416Z" transform="translate(-41 -22.64)" fill="#f0d0b4"/>
    </g>
    <g id="Grupo_1112532" data-name="Grupo 1112532" transform="translate(49.355 8.226)">
      <path id="Trazado_900635" data-name="Trazado 900635" d="M56.194,14.266v5.073a9.567,9.567,0,0,1-6.567,9.1,9.178,9.178,0,0,1-3.03.494l-3.03-.494a9.422,9.422,0,0,1-3.756-2.317A9.54,9.54,0,0,1,37,19.339V13.8a2.751,2.751,0,0,1,1.028-2.139L43.855,7l10.707,4.757A2.754,2.754,0,0,1,56.194,14.266Z" transform="translate(-37 -7)" fill="#f0d0b4"/>
    </g>
    <g id="Grupo_1112533" data-name="Grupo 1112533" transform="translate(32.794 16.452)">
      <path id="Trazado_900636" data-name="Trazado 900636" d="M27.772,13a2.75,2.75,0,0,1,2.742,2.742,2.762,2.762,0,0,1-2.742,2.742H24.92a7.6,7.6,0,0,0,.11-1.371V13Z" transform="translate(-24.92 -13)" fill="#f0d0b4"/>
    </g>
    <g id="Grupo_1112534" data-name="Grupo 1112534" transform="translate(19.194 29.668)">
      <path id="Trazado_900637" data-name="Trazado 900637" d="M16.083,22.64l3.03.494a9.178,9.178,0,0,0,3.03-.494l1.083,3.235-2.742,2.742H17.742L15,25.875Z" transform="translate(-15 -22.64)" fill="#f0d0b4"/>
    </g>
    <g id="Grupo_1112535" data-name="Grupo 1112535" transform="translate(13.71 9.076)">
      <path id="Trazado_900638" data-name="Trazado 900638" d="M24.915,9.512a2.5,2.5,0,0,0,2.44-1.892h.014l1.6,1.083a2.715,2.715,0,0,1,1.22,2.276v8.13a7.6,7.6,0,0,1-.11,1.371,9.554,9.554,0,0,1-6.457,7.732,9.178,9.178,0,0,1-3.03.494l-3.03-.494A9.551,9.551,0,0,1,11.11,20.48,7.6,7.6,0,0,1,11,19.109V12.254a2.75,2.75,0,0,1,2.742-2.742Z" transform="translate(-11 -7.62)" fill="#f0d0b4"/>
    </g>
    <g id="Grupo_1112536" data-name="Grupo 1112536" transform="translate(8.226 16.452)">
      <path id="Trazado_900639" data-name="Trazado 900639" d="M12.484,17.113a7.6,7.6,0,0,0,.11,1.371H9.742A2.762,2.762,0,0,1,7,15.742,2.75,2.75,0,0,1,9.742,13h2.742Z" transform="translate(-7 -13)" fill="#f0d0b4"/>
    </g>
  </g>
  <g id="Grupo_1112543" data-name="Grupo 1112543" transform="translate(0)">
    <g id="Grupo_1112538" data-name="Grupo 1112538" transform="translate(19.879 17.137)">
      <circle id="Elipse_12178" data-name="Elipse 12178" cx="0.685" cy="0.685" r="0.685" fill="#fff"/>
    </g>
    <g id="Grupo_1112539" data-name="Grupo 1112539" transform="translate(28.105 17.137)">
      <circle id="Elipse_12179" data-name="Elipse 12179" cx="0.685" cy="0.685" r="0.685" fill="#fff"/>
    </g>
    <g id="Grupo_1112540" data-name="Grupo 1112540" transform="translate(55.524 17.137)">
      <circle id="Elipse_12180" data-name="Elipse 12180" cx="0.685" cy="0.685" r="0.685" fill="#fff"/>
    </g>
    <g id="Grupo_1112541" data-name="Grupo 1112541" transform="translate(63.75 17.137)">
      <circle id="Elipse_12181" data-name="Elipse 12181" cx="0.685" cy="0.685" r="0.685" fill="#fff"/>
    </g>
    <g id="Grupo_1112542" data-name="Grupo 1112542">
      <circle id="Elipse_12182" data-name="Elipse 12182" cx="1.5" cy="1.5" r="1.5" transform="translate(19 16)"/>
      <circle id="Elipse_12183" data-name="Elipse 12183" cx="1.5" cy="1.5" r="1.5" transform="translate(27 16)"/>
      <path id="Trazado_900640" data-name="Trazado 900640" d="M22.186,16.843a3.066,3.066,0,0,1-5.484,0l-.144-.289L14.106,17.78l.144.289a5.808,5.808,0,0,0,10.389,0l.144-.289L22.33,16.552Z" transform="translate(5.233 6.14)"/>
      <path id="Trazado_900641" data-name="Trazado 900641" d="M80.887,10.968H75.815a16.425,16.425,0,0,0-30.984,0H40.944a5.761,5.761,0,0,0-1.422-2.639A4.762,4.762,0,0,0,36.369,0H18.47A10.256,10.256,0,0,0,8.226,10.244c0,.241.025.483.043.724H4.113A4.118,4.118,0,0,0,0,15.081V39.758a4.118,4.118,0,0,0,4.113,4.113h16.63L18.264,46.35,20.3,48.386a1.371,1.371,0,0,1-.968,2.34h-2.88V67.177h2.88a1.371,1.371,0,0,1,.969,2.34l-2.036,2.036L29.9,83.186l2.036-2.036a1.371,1.371,0,0,1,2.34.969V85H50.726V82.12a1.371,1.371,0,0,1,2.34-.969L55.1,83.186,66.735,71.554,64.7,69.518a1.371,1.371,0,0,1,.969-2.34h2.88V50.726h-2.88a1.371,1.371,0,0,1-.969-2.34l2.036-2.036-2.477-2.479h16.63A4.118,4.118,0,0,0,85,39.758V15.081a4.118,4.118,0,0,0-4.113-4.113ZM46.613,16.452a13.71,13.71,0,1,1,27.419,0V25.6a10.716,10.716,0,0,1-5.265,9.162,12.363,12.363,0,0,0-3.26-1.612l-.447-1.341a10.973,10.973,0,0,0,6.23-9.878V16.863A4.119,4.119,0,0,0,68.849,13.1l-11.472-5.1L50.9,13.187A4.089,4.089,0,0,0,49.355,16.4v5.537a10.968,10.968,0,0,0,6.231,9.876l-.447,1.341a12.342,12.342,0,0,0-3.26,1.612A10.71,10.71,0,0,1,46.613,25.6ZM24.677,30.161a8.234,8.234,0,0,1-8.226-8.226V15.081a1.371,1.371,0,0,1,1.371-1.371H28.99a3.9,3.9,0,0,0,2.913-1.3l.389.259a1.368,1.368,0,0,1,.61,1.141v8.13A8.234,8.234,0,0,1,24.677,30.161Zm0,2.742a11.01,11.01,0,0,0,2.14-.212l.4,1.213-1.741,1.741H23.874L22.133,33.9l.4-1.213A11.01,11.01,0,0,0,24.677,32.9Zm-4.5,2.926,1.608,1.608-.923,3.692H14.384a9.692,9.692,0,0,1,5.8-5.3Zm3.51,5.3.685-2.742h.6l.685,2.742Zm4.8,0-.923-3.692,1.608-1.608a9.7,9.7,0,0,1,5.8,5.3Zm8.91,2.742,2,5.99a3.262,3.262,0,0,0,1.734,1.928v5.792H32.9V43.871Zm1.372,21.935h7.457L42.5,70.466Zm9.65-2.742H36.577l-2.194-2.742h16.23Zm-17.359-2.5L41.813,74A15.047,15.047,0,0,1,30.161,50.3v7.686a4.12,4.12,0,0,0,.9,2.569Zm22.875,0a4.113,4.113,0,0,0,.9-2.569V50.3A15.048,15.048,0,0,1,43.187,74ZM52.1,57.581H43.871V51.788a3.265,3.265,0,0,0,1.734-1.929l2-5.988h4.5ZM50.028,41.129a9.708,9.708,0,0,1,5.358-5.153,17.856,17.856,0,0,0,3.105,5.153ZM60.323,30.161A8.234,8.234,0,0,1,52.1,21.935V16.4a1.36,1.36,0,0,1,.515-1.069l5.173-4.14,9.949,4.42a1.375,1.375,0,0,1,.814,1.254v5.073a8.234,8.234,0,0,1-8.226,8.226Zm0,2.742a11.01,11.01,0,0,0,2.14-.212l.528,1.582h0a15.155,15.155,0,0,1-2.667,4.818,15.179,15.179,0,0,1-2.668-4.816l.528-1.585A10.985,10.985,0,0,0,60.323,32.9Zm4.935,3.071a9.709,9.709,0,0,1,5.359,5.155H62.154A17.871,17.871,0,0,0,65.258,35.974ZM40.149,15.595a5.823,5.823,0,0,0,.806-1.885h3.163a16.578,16.578,0,0,0-.247,2.742V25.6A13.506,13.506,0,0,0,49.7,36.658a12.4,12.4,0,0,0-2.35,3.726l-.3.744H45.624L43,48.99a.553.553,0,0,1-1.009,0l-2.62-7.862H37.944l-.3-.744a12.459,12.459,0,0,0-7.786-7.23l-.447-1.341a11,11,0,0,0,5.87-7.135h1.732a4.1,4.1,0,0,0,2.147-7.6Zm-4.5,3.6h1.371a1.371,1.371,0,1,1,0,2.742H35.645ZM18.47,2.742h17.9a2.019,2.019,0,0,1,.9,3.824L33.948,8.224l2.727,1.364a3.1,3.1,0,0,1,1.193,4.486l-1.585,2.377h-.638V13.806a4.1,4.1,0,0,0-1.832-3.422l-.91-.606A3.889,3.889,0,0,0,30.74,6.3L29.4,5.629,28.176,8.082l1.337.668a1.171,1.171,0,0,1-.522,2.218H17.823a4.118,4.118,0,0,0-4.113,4.113v1.371h-.524L11.76,13.6A7.5,7.5,0,0,1,18.47,2.742ZM12.339,19.194H13.71v2.742H12.339a1.371,1.371,0,0,1,0-2.742Zm-9.6,20.565V15.081A1.371,1.371,0,0,1,4.113,13.71H8.832a10.119,10.119,0,0,0,.476,1.115L10.38,16.97a4.1,4.1,0,0,0,1.959,7.708H14.07a11,11,0,0,0,5.87,7.135l-.447,1.341a12.466,12.466,0,0,0-7.786,7.23l-.3.746h-7.3a1.371,1.371,0,0,1-1.371-1.371ZM62.859,46.35l-.1.1a4.113,4.113,0,0,0,2.906,7.021h.138V64.435h-.138a4.114,4.114,0,0,0-2.908,7.022l.1.1L55.1,79.31l-.1-.1a4.113,4.113,0,0,0-7.021,2.906v.138H37.016V82.12a4.114,4.114,0,0,0-7.022-2.908l-.1.1-7.756-7.756.1-.1a4.113,4.113,0,0,0-2.906-7.021h-.138V53.468h.138a4.114,4.114,0,0,0,2.908-7.022l-.1-.1,2.477-2.477h5.541v2.251a17.822,17.822,0,1,0,24.677,0v-2.25H60.38Zm19.4-6.592a1.371,1.371,0,0,1-1.371,1.371h-7.3l-.3-.744a12.379,12.379,0,0,0-2.35-3.726A13.508,13.508,0,0,0,76.774,25.6V16.452a16.431,16.431,0,0,0-.248-2.742h4.361a1.371,1.371,0,0,1,1.371,1.371Z" transform="translate(0)"/>
      <circle id="Elipse_12184" data-name="Elipse 12184" cx="1.5" cy="1.5" r="1.5" transform="translate(55 16)"/>
      <circle id="Elipse_12185" data-name="Elipse 12185" cx="1.5" cy="1.5" r="1.5" transform="translate(63 16)"/>
      <path id="Trazado_900642" data-name="Trazado 900642" d="M48.186,16.843a3.066,3.066,0,0,1-5.484,0l-.144-.289L40.106,17.78l.144.289a5.808,5.808,0,0,0,10.389,0l.144-.289L48.33,16.552Z" transform="translate(14.878 6.14)"/>
    </g>
  </g>
</svg>
