<svg xmlns="http://www.w3.org/2000/svg" width="47" height="47" viewBox="0 0 47 47">
  <g id="Grupo_1113564" data-name="Grupo 1113564" transform="translate(-306.051 -3421)">
    <rect id="Rectángulo_400898" data-name="Rectángulo 400898" width="47" height="47" rx="23.5" transform="translate(306.051 3421)" fill="#01d2b5"/>
    <g id="Grupo_1112662" data-name="Grupo 1112662" transform="translate(303.459 3417.89)">
      <g id="Grupo_1112661" data-name="Grupo 1112661" transform="translate(11.316 11.334)">
        <g id="Grupo_1112659" data-name="Grupo 1112659" transform="translate(0 14.657)">
          <g id="Grupo_1112658" data-name="Grupo 1112658">
            <path id="Trazado_900784" data-name="Trazado 900784" d="M60.807,250.355l6.9-3.447c2.438-1.219,3.636-.436,4.211.356a.975.975,0,0,1-.3,1.422L61.8,254.348a8.924,8.924,0,0,1-4.659,1.248H54.906a3.412,3.412,0,0,0-3.026,1.747l-1.6,2.771-6.995-4.038,2.951-5.112c2.01-3.481,4.911-3.135,7.262-2.355h5.56A1.752,1.752,0,0,1,60.807,250.355Z" transform="translate(-41.549 -246.276)" fill="#ffdec2" fill-rule="evenodd"/>
            <path id="Trazado_900785" data-name="Trazado 900785" d="M199.615,312.106H203.8a1.752,1.752,0,0,0,1.747-1.747h-7.681A1.752,1.752,0,0,0,199.615,312.106Z" transform="translate(-186.292 -306.28)" fill="#ffd4b1" fill-rule="evenodd"/>
            <path id="Trazado_900786" data-name="Trazado 900786" d="M18.754,369.887l7,4.043a1.3,1.3,0,0,1,.473,1.766l-.815,1.411a1.3,1.3,0,0,1-1.766.473l-7-4.043a1.3,1.3,0,0,1-.473-1.766l.815-1.411A1.3,1.3,0,0,1,18.754,369.887Z" transform="translate(-16 -361.857)" fill="#f2eeee" fill-rule="evenodd"/>
          </g>
        </g>
        <g id="Grupo_1112660" data-name="Grupo 1112660" transform="translate(12.213 0)">
          <path id="Trazado_900787" data-name="Trazado 900787" d="M226.068,150.451l-1.1-.634a.173.173,0,0,0-.236.063l-2.83,4.9a.173.173,0,0,0,.194.253l1.4-.375a.173.173,0,0,1,.211.122l.375,1.4a.173.173,0,0,0,.316.042l2.83-4.9a.173.173,0,0,0-.063-.236Zm2.487,0,1.1-.634a.173.173,0,0,1,.236.063l2.83,4.9a.173.173,0,0,1-.194.253l-1.4-.375a.173.173,0,0,0-.211.122l-.375,1.4a.173.173,0,0,1-.316.042l-2.83-4.9a.173.173,0,0,1,.063-.236Z" transform="translate(-220.989 -141.278)" fill="#f79595" fill-rule="evenodd"/>
          <path id="Trazado_900788" data-name="Trazado 900788" d="M214.9,16.281l.322.3a1.014,1.014,0,0,0,.942.253l.435-.1a1.04,1.04,0,0,1,1.228.711l.129.42a1.014,1.014,0,0,0,.689.69l.427.132a1.04,1.04,0,0,1,.708,1.229l-.1.428a1.015,1.015,0,0,0,.251.942l.3.327a1.04,1.04,0,0,1,0,1.419l-.3.322a1.015,1.015,0,0,0-.253.942l.1.435a1.04,1.04,0,0,1-.711,1.228l-.42.129a1.014,1.014,0,0,0-.69.689l-.132.427a1.04,1.04,0,0,1-1.229.708l-.428-.1a1.014,1.014,0,0,0-.942.251l-.327.3a1.04,1.04,0,0,1-1.419,0l-.322-.3a1.015,1.015,0,0,0-.942-.253l-.435.1a1.04,1.04,0,0,1-1.228-.711l-.129-.42a1.014,1.014,0,0,0-.689-.69l-.427-.132a1.04,1.04,0,0,1-.708-1.229l.1-.428a1.014,1.014,0,0,0-.251-.942l-.3-.327a1.04,1.04,0,0,1,0-1.419l.3-.322a1.014,1.014,0,0,0,.253-.942l-.1-.435a1.04,1.04,0,0,1,.711-1.228l.42-.129a1.014,1.014,0,0,0,.69-.689l.132-.427a1.04,1.04,0,0,1,1.229-.708l.428.1a1.015,1.015,0,0,0,.942-.251l.327-.3A1.04,1.04,0,0,1,214.9,16.281Z" transform="translate(-207.868 -16.001)" fill="#fece85" fill-rule="evenodd"/>
          <circle id="Elipse_12191" data-name="Elipse 12191" cx="4.216" cy="4.216" r="4.216" transform="translate(2.107 2.107)" fill="#fdba53"/>
          <path id="Trazado_900789" data-name="Trazado 900789" d="M270.707,73.441l.484,1.5a.146.146,0,0,0,.141.1l1.577,0a.148.148,0,0,1,.087.267l-1.277.924a.146.146,0,0,0-.054.165l.49,1.5a.148.148,0,0,1-.227.165l-1.274-.929a.146.146,0,0,0-.174,0l-1.274.929a.148.148,0,0,1-.227-.165l.49-1.5a.146.146,0,0,0-.054-.165l-1.277-.924a.148.148,0,0,1,.087-.267l1.577,0a.145.145,0,0,0,.141-.1l.484-1.5a.148.148,0,0,1,.281,0Z" transform="translate(-264.244 -69.689)" fill="#fea219" fill-rule="evenodd"/>
        </g>
      </g>
      <path id="Trazado_900790" data-name="Trazado 900790" d="M29.085,17.005h0a.464.464,0,0,0,.443-.323l.322-1,.322,1a.465.465,0,0,0,.443.323h0l1.049,0-.849.615a.464.464,0,0,0-.17.522l.326,1-.847-.618a.465.465,0,0,0-.549,0l-.847.618.326-1a.464.464,0,0,0-.169-.522L28.037,17Zm.6-1.824h0Zm-2.454,2.027,1.177.851-.451,1.381a.466.466,0,0,0,.717.521l1.173-.856,1.174.856a.466.466,0,0,0,.717-.521L31.29,18.06l1.177-.851a.466.466,0,0,0-.273-.843h0l-1.452,0-.446-1.382a.466.466,0,0,0-.887,0l-.446,1.382-1.452,0h0a.466.466,0,0,0-.273.843Zm2.616-3.452a3.9,3.9,0,1,0,3.9,3.9A3.9,3.9,0,0,0,29.851,13.757Zm0,8.432a4.534,4.534,0,1,0-4.534-4.534A4.539,4.539,0,0,0,29.851,22.189Zm-5.81-5.026a.718.718,0,0,0,0,.985l.3.328a1.323,1.323,0,0,1,.329,1.23l-.1.428a.718.718,0,0,0,.492.853l.427.132a1.324,1.324,0,0,1,.9.9l.129.42a.717.717,0,0,0,.853.493l.436-.1a1.438,1.438,0,0,1,.318-.036,1.32,1.32,0,0,1,.911.367l.321.3a.719.719,0,0,0,.986,0l.327-.3a1.323,1.323,0,0,1,1.23-.328l.428.1a.719.719,0,0,0,.854-.491l.132-.427a1.323,1.323,0,0,1,.9-.9l.42-.129a.717.717,0,0,0,.493-.853l-.1-.435a1.323,1.323,0,0,1,.33-1.229l.3-.321a.719.719,0,0,0,0-.986l-.3-.327a1.326,1.326,0,0,1-.329-1.23l.1-.428a.719.719,0,0,0-.492-.854l-.426-.132a1.325,1.325,0,0,1-.9-.9l-.128-.42a.718.718,0,0,0-.854-.493l-.435.1a1.323,1.323,0,0,1-1.229-.33l-.321-.3a.718.718,0,0,0-.985,0l-.328.3a1.325,1.325,0,0,1-1.23.329l-.428-.1a.717.717,0,0,0-.854.492l-.132.426a1.326,1.326,0,0,1-.9.9l-.42.129a.718.718,0,0,0-.493.854l.1.435a1.324,1.324,0,0,1-.331,1.229Zm9.541,7.2a.319.319,0,0,0-.39.225l-.328,1.225-1.37-2.372a.752.752,0,0,1,.265.014l.428.1a1.367,1.367,0,0,0,1.533-.744l1.086,1.882Zm-6.744,1.45-.328-1.225a.319.319,0,0,0-.39-.225l-1.225.328,1.088-1.883a1.365,1.365,0,0,0,1.531.747l.435-.1a.753.753,0,0,1,.257-.014Zm-2.961-6.9a.7.7,0,0,1,.175.654l-.1.428a1.365,1.365,0,0,0,.924,1.6l.427.132a.7.7,0,0,1,.4.3l-1.74,3.013a.318.318,0,0,0,.358.466l1.66-.444.445,1.659a.318.318,0,0,0,.266.233l.041,0a.319.319,0,0,0,.276-.159l1.747-3.026.173.161a1.366,1.366,0,0,0,1.852,0l.173-.161L32.7,26.8a.318.318,0,0,0,.275.159.306.306,0,0,0,.042,0,.319.319,0,0,0,.266-.233l.444-1.659,1.66.444a.318.318,0,0,0,.358-.466L34,22.027a.691.691,0,0,1,.4-.3l.42-.129a1.364,1.364,0,0,0,.927-1.6l-.1-.435a.7.7,0,0,1,.176-.654l.3-.321a1.366,1.366,0,0,0,0-1.852l-.3-.327a.694.694,0,0,1-.174-.654l.1-.428a1.365,1.365,0,0,0-.924-1.6l-.427-.132a.694.694,0,0,1-.479-.479l-.128-.42a1.366,1.366,0,0,0-1.6-.928l-.435.1a.7.7,0,0,1-.654-.176l-.322-.3a1.366,1.366,0,0,0-1.852,0l-.328.3a.694.694,0,0,1-.654.174l-.428-.1a1.366,1.366,0,0,0-1.6.924l-.132.426a.693.693,0,0,1-.479.479l-.42.129a1.365,1.365,0,0,0-.927,1.6l.1.435a.7.7,0,0,1-.176.654l-.3.322a1.365,1.365,0,0,0,0,1.852Zm17.66,8.781a.667.667,0,0,1-.317.434l-9.807,5.661a8.651,8.651,0,0,1-4.5,1.206h-2.24a3.726,3.726,0,0,0-3.3,1.906l-.42.728L14.508,33.9l1.772-3.069c1.931-3.344,4.695-2.939,6.887-2.212a.324.324,0,0,0,.1.016h5.56a1.43,1.43,0,0,1,1.429,1.423.038.038,0,0,0,0,.012A1.431,1.431,0,0,1,28.827,31.5H24.639a.318.318,0,0,0,0,.637h4.188a2.068,2.068,0,0,0,2.055-1.864l6.729-3.364c1.765-.882,3.049-.795,3.812.258a.661.661,0,0,1,.114.526ZM21.269,39.668a.977.977,0,0,0-.357-1.331l-7-4.043a.976.976,0,0,0-1.331.357l-.815,1.411a.976.976,0,0,0,.357,1.331l7,4.042a.976.976,0,0,0,1.331-.356ZM41.938,26.79a2.589,2.589,0,0,0-1.6-1.057,4.7,4.7,0,0,0-3.013.6l-6.492,3.245A2.069,2.069,0,0,0,28.827,28H23.318c-2.23-.732-5.42-1.242-7.589,2.514l-1.787,3.1a1.613,1.613,0,0,0-1.913.72l-.815,1.411a1.613,1.613,0,0,0,.589,2.2l7,4.042a1.593,1.593,0,0,0,.8.216,1.644,1.644,0,0,0,.421-.056,1.6,1.6,0,0,0,.979-.75l.815-1.411a1.615,1.615,0,0,0-.334-2.017l.436-.754a3.1,3.1,0,0,1,2.75-1.588h2.24a9.265,9.265,0,0,0,4.818-1.291l9.807-5.661a1.291,1.291,0,0,0,.4-1.885Z" transform="translate(0)" fill-rule="evenodd"/>
    </g>
  </g>
</svg>
