<svg xmlns="http://www.w3.org/2000/svg" width="47" height="47" viewBox="0 0 47 47">
  <g id="Grupo_1113566" data-name="Grupo 1113566" transform="translate(-306.051 -3545)">
    <rect id="Rectángulo_400898" data-name="Rectángulo 400898" width="47" height="47" rx="23.5" transform="translate(306.051 3545)" fill="#01d2b5"/>
    <g id="Grupo_1112694" data-name="Grupo 1112694" transform="translate(306.051 3520.416)">
      <g id="Grupo_1112693" data-name="Grupo 1112693" transform="translate(6.419 37.123)">
        <path id="Trazado_900839" data-name="Trazado 900839" d="M12.121,161.846H41.51v13.845a2.214,2.214,0,0,1-2.265,2.142H14.394a2.222,2.222,0,0,1-2.273-2.142Z" transform="translate(-12.121 -157.546)" fill="#f2b633" fill-rule="evenodd"/>
        <path id="Trazado_900840" data-name="Trazado 900840" d="M24.94,110.2H28.7l12.811-4.44v-5.2a1.6,1.6,0,0,0-1.6-1.6H13.73a1.609,1.609,0,0,0-1.609,1.6v5.2Z" transform="translate(-12.121 -98.958)" fill="#ffd15b" fill-rule="evenodd"/>
        <path id="Trazado_900841" data-name="Trazado 900841" d="M186.148,227.256h5.6v2.914a2.8,2.8,0,0,1-5.6,0Z" transform="translate(-174.248 -218.483)" fill="#daa42e" fill-rule="evenodd"/>
        <path id="Trazado_900842" data-name="Trazado 900842" d="M268.132,232.141l1.2-1.2,1.822,1.822-1.2,1.2a6.705,6.705,0,0,1,1.042,2.5h1.682v2.577H271a6.669,6.669,0,0,1-1.042,2.495l1.2,1.2-1.822,1.822-1.2-1.19a6.792,6.792,0,0,1-2.495,1.034v1.69h-2.585V244.4a6.791,6.791,0,0,1-2.495-1.034l-1.2,1.19-1.822-1.822,1.19-1.2a6.791,6.791,0,0,1-1.034-2.495H256v-2.577h1.69a6.829,6.829,0,0,1,1.034-2.5l-1.19-1.2,1.822-1.822,1.2,1.2a6.653,6.653,0,0,1,2.495-1.034v-1.69h2.585v1.69A6.653,6.653,0,0,1,268.132,232.141Z" transform="translate(-239.325 -220.495)" fill="#26a6fe" fill-rule="evenodd"/>
        <path id="Trazado_900843" data-name="Trazado 900843" d="M316.225,278.281l3.833,6.64a.706.706,0,0,1,0,.739.721.721,0,0,1-.64.369h-7.673a.722.722,0,0,1-.641-.369.7.7,0,0,1,0-.739l3.833-6.64a.738.738,0,0,1,1.288,0Z" transform="translate(-290.561 -265.667)" fill="#fd4755" fill-rule="evenodd"/>
      </g>
      <path id="Trazado_900844" data-name="Trazado 900844" d="M39.772,52.675H38.426a7.474,7.474,0,0,0-.846-2.027l.96-.96a.416.416,0,0,0,0-.591l-1.822-1.822a.423.423,0,0,0-.492-.066V38.723A2.018,2.018,0,0,0,34.208,36.7H28v-2.38a1.741,1.741,0,0,0-1.74-1.74H15.972a1.741,1.741,0,0,0-1.74,1.74V36.7h-6.2A2.035,2.035,0,0,0,6,38.723V55.268a2.652,2.652,0,0,0,2.692,2.56H25.131c.049.09.1.189.156.279l-.952.96a.416.416,0,0,0,0,.591l1.822,1.822a.416.416,0,0,0,.591,0l.96-.952a7.3,7.3,0,0,0,2.019.837V62.72a.42.42,0,0,0,.418.419H32.73a.42.42,0,0,0,.419-.419V61.366a7.3,7.3,0,0,0,2.019-.837l.96.952a.416.416,0,0,0,.591,0l1.822-1.822a.416.416,0,0,0,0-.591l-.96-.96a7.174,7.174,0,0,0,.846-2.019h1.346a.42.42,0,0,0,.419-.419V53.093a.42.42,0,0,0-.419-.418Zm-7.042-7.05h-.55l3.209-1.108v3.5l-.222.222a7.017,7.017,0,0,0-2.019-.837V46.044a.42.42,0,0,0-.419-.418Zm-8.4,3.184v-.468l1.149-.394L24.335,49.1c-.008.008-.008.016-.016.025C24.326,49.015,24.335,48.916,24.335,48.809ZM15.069,34.324a.9.9,0,0,1,.9-.9H26.263a.9.9,0,0,1,.9.9V36.7h-12.1ZM6.837,38.731a1.2,1.2,0,0,1,1.19-1.19h26.18a1.182,1.182,0,0,1,1.182,1.182v4.908L24.334,47.455V45.9a.42.42,0,0,0-.419-.419h-5.6a.42.42,0,0,0-.419.419v1.559L6.837,43.631v-4.9Zm22.89,7.747V47.4a7.015,7.015,0,0,0-2.019.837l-.788-.788ZM23.5,46.314v2.495a2.38,2.38,0,0,1-4.76,0V46.314ZM8.692,56.992a1.814,1.814,0,0,1-1.855-1.724V44.517L17.9,48.341v.468a3.217,3.217,0,0,0,6.344.747.469.469,0,0,0,.09.131l.952.96a7.341,7.341,0,0,0-.837,2.027H23.1a.42.42,0,0,0-.418.418V55.67a.42.42,0,0,0,.418.419h1.354a8.342,8.342,0,0,0,.287.9H8.692Zm30.661-1.74H38.09a.421.421,0,0,0-.41.337,6.2,6.2,0,0,1-.977,2.339.421.421,0,0,0,.049.533l.9.9-1.231,1.231-.9-.894a.421.421,0,0,0-.533-.049,6.338,6.338,0,0,1-2.339.968.421.421,0,0,0-.337.411V62.3H30.564V61.03a.421.421,0,0,0-.337-.411,6.336,6.336,0,0,1-2.339-.968.424.424,0,0,0-.534.049l-.9.894-1.231-1.231.894-.9a.421.421,0,0,0,.049-.533,6.475,6.475,0,0,1-.968-2.339.421.421,0,0,0-.411-.337H23.514v-1.74h1.272a.421.421,0,0,0,.411-.336,6.544,6.544,0,0,1,.968-2.347.422.422,0,0,0-.049-.533l-.894-.9,1.231-1.231.9.9a.423.423,0,0,0,.534.049,6.157,6.157,0,0,1,2.339-.968.408.408,0,0,0,.337-.411V46.462h1.748v1.272a.415.415,0,0,0,.345.411,6.178,6.178,0,0,1,2.331.968.411.411,0,0,0,.533-.049l.9-.9,1.231,1.231-.9.9a.421.421,0,0,0-.049.533,6.371,6.371,0,0,1,.977,2.347.421.421,0,0,0,.41.336h1.264Zm-6.91-5.737a1.153,1.153,0,0,0-1.01-.574,1.141,1.141,0,0,0-1,.583L26.6,56.163a1.154,1.154,0,0,0,1,1.74h7.665a1.135,1.135,0,0,0,1.009-.574,1.108,1.108,0,0,0,0-1.157ZM35.554,56.9a.3.3,0,0,1-.287.164H27.6a.32.32,0,0,1-.279-.476l3.832-6.639a.305.305,0,0,1,.279-.172.324.324,0,0,1,.288.164L35.562,56.6A.283.283,0,0,1,35.554,56.9Zm-4.538-2.4V51.665a.418.418,0,1,1,.837,0V54.5a.418.418,0,1,1-.837,0Zm.714.763a.417.417,0,0,1,0,.591.391.391,0,0,1-.3.123.42.42,0,0,1-.418-.419.438.438,0,0,1,.123-.3A.431.431,0,0,1,31.729,55.26Z"/>
    </g>
  </g>
</svg>
