<svg xmlns="http://www.w3.org/2000/svg" width="75.812" height="75.812" viewBox="0 0 75.812 75.812">
  <g id="Grupo_1112701" data-name="Grupo 1112701" transform="translate(0)">
    <path id="Trazado_900849" data-name="Trazado 900849" d="M329.119,96v3.668l6.077,1.517a4.9,4.9,0,0,1,3.7,4.744v20.64H334.01v-6.114H316.891v6.114H312v-20.64a4.9,4.9,0,0,1,3.7-4.744l6.077-1.517V96a6.114,6.114,0,0,0,7.337,0Zm0,0" transform="translate(-264.312 -81.327)" fill="#fcd770"/>
    <path id="Trazado_900850" data-name="Trazado 900850" d="M352.559,291.46H344V256h17.119v35.46Zm0,0" transform="translate(-291.421 -216.871)" fill="#838f9b"/>
    <path id="Trazado_900851" data-name="Trazado 900851" d="M104.559,291.46H96V274.342h3.668V262.114H96V256h17.119v35.46Zm0,0" transform="translate(-81.327 -216.871)" fill="#838f9b"/>
    <path id="Trazado_900852" data-name="Trazado 900852" d="M25.119,296v12.228H8V296l6.4,5.331a3.384,3.384,0,0,0,4.329,0Zm0,0" transform="translate(-6.777 -250.757)" fill="#dfb28b"/>
    <path id="Trazado_900853" data-name="Trazado 900853" d="M25.119,296l-6.4,5.331a3.384,3.384,0,0,1-4.329,0L8,296Zm0,0" transform="translate(-6.777 -250.757)" fill="#cf9e76"/>
    <path id="Trazado_900854" data-name="Trazado 900854" d="M76.228,122.446l-1.223,11,2.446,2.446,2.446-2.446-1.223-11L81.119,120l6.077,1.517a4.9,4.9,0,0,1,3.7,4.744V146.9H86.01v-6.114H68.891V146.9H64v-20.64a4.9,4.9,0,0,1,3.7-4.744L73.782,120Zm0,0" transform="translate(-54.218 -101.658)" fill="#5cd6b3"/>
    <path id="Trazado_900855" data-name="Trazado 900855" d="M139.668,136l1.223,11-2.446,2.446L136,147l1.223-11Zm0,0" transform="translate(-115.213 -115.213)" fill="#ff826e"/>
    <path id="Trazado_900856" data-name="Trazado 900856" d="M233.223,8h12.228a1.227,1.227,0,0,1,1.223,1.223v11l-3.057-2.446H233.223A1.227,1.227,0,0,1,232,16.559V9.223A1.227,1.227,0,0,1,233.223,8Zm0,0" transform="translate(-196.54 -6.777)" fill="#e6e9ed"/>
    <g id="Grupo_1112700" data-name="Grupo 1112700" transform="translate(17.119 1.223)">
      <path id="Trazado_900857" data-name="Trazado 900857" d="M372.228,14.114v2.446a6.126,6.126,0,0,1-2.446,4.891,6.114,6.114,0,0,1-7.337,0A6.126,6.126,0,0,1,360,16.559V14.114a6.114,6.114,0,1,1,12.228,0Zm0,0" transform="translate(-322.094 -8)" fill="#f0d0b4"/>
      <path id="Trazado_900858" data-name="Trazado 900858" d="M135.337,96v3.668l-2.446,2.446h-2.446L128,99.668V96a6.114,6.114,0,0,0,7.337,0Zm0,0" transform="translate(-125.554 -82.549)" fill="#f0d0b4"/>
      <path id="Trazado_900859" data-name="Trazado 900859" d="M124.228,14.114v2.446a6.126,6.126,0,0,1-2.446,4.891,6.114,6.114,0,0,1-7.337,0A6.126,6.126,0,0,1,112,16.559V14.114a6.114,6.114,0,1,1,12.228,0Zm0,0" transform="translate(-112 -8)" fill="#f0d0b4"/>
    </g>
    <path id="Trazado_900860" data-name="Trazado 900860" d="M33.275,18.674l-5.151-1.287V15.236a7.312,7.312,0,0,0,2.446-5.454V7.337a7.337,7.337,0,0,0-14.673,0V9.782a7.315,7.315,0,0,0,2.446,5.454v2.151L13.19,18.676a6.1,6.1,0,0,0-4.631,5.931V44.02H0V58.693H13.45V75.812H33.015V24.456H30.569V37.906H15.9V24.456H13.45V44.02H11V24.606a3.666,3.666,0,0,1,2.778-3.56l5.406-1.35,1.541,1.541-1.223,11,3.726,3.724,3.726-3.726-1.223-11L27.277,19.7l5.406,1.35a3.668,3.668,0,0,1,2.778,3.561V45.243h2.446V24.606a6.106,6.106,0,0,0-4.631-5.932ZM14.964,46.466l-3.8,3.169a2.21,2.21,0,0,1-2.757,0L4.6,46.466ZM2.445,47.853l4.391,3.659a4.6,4.6,0,0,0,5.891,0l4.392-3.66v8.395H2.445Zm13.451-7.5H30.569V73.367H24.455V45.243H22.01V73.367H15.9V58.693h3.668V44.02H15.9ZM18.342,7.337a4.891,4.891,0,1,1,9.782,0V9.782a4.891,4.891,0,1,1-9.782,0Zm4.891,9.782a7.3,7.3,0,0,0,2.446-.428v1.145l-2.446,2.446-2.446-2.446V16.691A7.3,7.3,0,0,0,23.233,17.119Zm0,15.39-1.165-1.165,1.165-10.487L24.4,31.343Zm0,0" transform="translate(0 0)"/>
    <path id="Trazado_900861" data-name="Trazado 900861" d="M328.716,18.674l-5.151-1.287V15.236a7.312,7.312,0,0,0,2.446-5.454V7.337a7.337,7.337,0,1,0-14.673,0V9.782a7.315,7.315,0,0,0,2.446,5.454v2.151l-5.151,1.288A6.1,6.1,0,0,0,304,24.606V45.243h2.446V24.606a3.666,3.666,0,0,1,2.778-3.56l7-1.75V16.691a7.2,7.2,0,0,0,4.891,0V19.3l7,1.75a3.666,3.666,0,0,1,2.778,3.56V45.243h2.446V24.606A6.106,6.106,0,0,0,328.716,18.674ZM313.782,9.782V7.337a4.891,4.891,0,1,1,9.782,0V9.782a4.891,4.891,0,1,1-9.782,0Zm0,0" transform="translate(-257.535 0)"/>
    <path id="Trazado_900862" data-name="Trazado 900862" d="M353.119,173.451H338.446V160H336v51.357h19.564V160h-2.446Zm-6.114,35.46V180.787h-2.446v28.124h-6.114V175.9h14.673v33.015Zm0,0" transform="translate(-284.644 -135.545)"/>
    <path id="Trazado_900863" data-name="Trazado 900863" d="M226.446,12.228h9.964L241.119,16V2.446A2.448,2.448,0,0,0,238.673,0H226.446A2.448,2.448,0,0,0,224,2.446V9.782A2.448,2.448,0,0,0,226.446,12.228Zm0-9.782h12.228v8.46l-1.4-1.124H226.446Zm0,0" transform="translate(-189.762)"/>
    <path id="Trazado_900864" data-name="Trazado 900864" d="M256,32h2.446v2.446H256Zm0,0" transform="translate(-216.871 -27.109)"/>
    <path id="Trazado_900865" data-name="Trazado 900865" d="M288,32h2.446v2.446H288Zm0,0" transform="translate(-243.98 -27.109)"/>
  </g>
</svg>
