<svg xmlns="http://www.w3.org/2000/svg" width="52.629" height="52.628" viewBox="0 0 52.629 52.628">
  <g id="Grupo_1112708" data-name="Grupo 1112708" transform="translate(0)">
    <path id="Trazado_900880" data-name="Trazado 900880" d="M11.783,333.435a3.837,3.837,0,0,0,.037-.524v-3.084A2.831,2.831,0,0,0,8.994,327H6.938a2.831,2.831,0,0,0-2.827,2.827v3.084a3.837,3.837,0,0,0,.037.524A5.881,5.881,0,0,0,0,339.078v4.112a2.831,2.831,0,0,0,2.827,2.827H13.105a2.831,2.831,0,0,0,2.827-2.827v-4.112a5.881,5.881,0,0,0-4.149-5.643Zm-6.13-3.608a1.287,1.287,0,0,1,1.285-1.285H8.994a1.287,1.287,0,0,1,1.285,1.285v3.084a2.313,2.313,0,0,1-4.626,0Zm8.737,13.363a1.287,1.287,0,0,1-1.285,1.285h-.771v-3.341a.771.771,0,1,0-1.542,0v3.341H5.139v-3.341a.771.771,0,1,0-1.542,0v3.341H2.826a1.287,1.287,0,0,1-1.285-1.285v-4.112a4.346,4.346,0,0,1,3.119-4.187,3.853,3.853,0,0,0,6.611,0,4.346,4.346,0,0,1,3.119,4.187Z" transform="translate(0 -293.388)" fill="#340b81"/>
    <path id="Trazado_900881" data-name="Trazado 900881" d="M368.783,333.435a3.833,3.833,0,0,0,.037-.524v-3.084A2.831,2.831,0,0,0,365.994,327h-2.056a2.831,2.831,0,0,0-2.827,2.827v3.084a3.842,3.842,0,0,0,.037.524A5.881,5.881,0,0,0,357,339.078v4.112a2.831,2.831,0,0,0,2.827,2.827h10.279a2.831,2.831,0,0,0,2.827-2.827v-4.112A5.881,5.881,0,0,0,368.783,333.435Zm-6.13-3.608a1.287,1.287,0,0,1,1.285-1.285h2.056a1.287,1.287,0,0,1,1.285,1.285v3.084a2.313,2.313,0,0,1-4.626,0Zm8.737,13.363a1.287,1.287,0,0,1-1.285,1.285h-.771v-3.341a.771.771,0,1,0-1.542,0v3.341h-5.653v-3.341a.771.771,0,1,0-1.542,0v3.341h-.771a1.287,1.287,0,0,1-1.285-1.285v-4.112a4.346,4.346,0,0,1,3.119-4.187,3.853,3.853,0,0,0,6.611,0,4.346,4.346,0,0,1,3.119,4.187Z" transform="translate(-320.304 -293.388)" fill="#340b81"/>
    <path id="Trazado_900882" data-name="Trazado 900882" d="M438.5,115.771a.771.771,0,0,0,.771.771h3.084a.771.771,0,1,0,0-1.542h-3.084A.771.771,0,0,0,438.5,115.771Z" transform="translate(-393.427 -103.179)" fill="#340b81"/>
    <path id="Trazado_900883" data-name="Trazado 900883" d="M430.891,168.934l2.673,1.542a.771.771,0,0,0,.771-1.336l-2.673-1.542a.771.771,0,0,0-.771,1.336Z" transform="translate(-386.253 -150.278)" fill="#340b81"/>
    <path id="Trazado_900884" data-name="Trazado 900884" d="M431.254,50.579a.768.768,0,0,0,.384-.1l2.673-1.542a.771.771,0,1,0-.771-1.336l-2.673,1.542a.771.771,0,0,0,.386,1.439Z" transform="translate(-386.232 -42.613)" fill="#340b81"/>
    <path id="Trazado_900885" data-name="Trazado 900885" d="M29.271,116.542h3.084a.771.771,0,1,0,0-1.542H29.271a.771.771,0,1,0,0,1.542Z" transform="translate(-25.571 -103.179)" fill="#340b81"/>
    <path id="Trazado_900886" data-name="Trazado 900886" d="M43.543,167.6l-2.673,1.542a.771.771,0,0,0,.771,1.336l2.673-1.542a.771.771,0,0,0-.771-1.336Z" transform="translate(-36.324 -150.278)" fill="#340b81"/>
    <path id="Trazado_900887" data-name="Trazado 900887" d="M40.891,48.934l2.673,1.542a.771.771,0,0,0,.771-1.336L41.662,47.6a.771.771,0,0,0-.771,1.336Z" transform="translate(-36.342 -42.613)" fill="#340b81"/>
    <path id="Trazado_900888" data-name="Trazado 900888" d="M105.556,15.83v7.041a2.315,2.315,0,0,0,2.313,2.313h22.614a2.315,2.315,0,0,0,2.313-2.313V15.83a2.831,2.831,0,0,0,2.056-2.719V4.888a.771.771,0,0,0-.771-.776h-7.966v-1.8A2.315,2.315,0,0,0,123.8,0H114.55a2.315,2.315,0,0,0-2.313,2.313v1.8h-7.966a.771.771,0,0,0-.771.771v8.223a2.831,2.831,0,0,0,2.056,2.724Zm24.927,7.812H107.869a.771.771,0,0,1-.771-.771V15.932h5.184a6.937,6.937,0,0,0,13.788,0h5.184v6.938a.771.771,0,0,1-.771.771Zm-16.7-8.48a5.4,5.4,0,1,1,5.4,5.4A5.4,5.4,0,0,1,113.779,15.162Zm0-12.849a.771.771,0,0,1,.771-.771H123.8a.771.771,0,0,1,.771.771v1.8H113.779Zm-8.737,3.341h28.267v7.452a1.287,1.287,0,0,1-1.285,1.285H126.07a6.937,6.937,0,0,0-13.788,0h-5.955a1.287,1.287,0,0,1-1.285-1.285Z" transform="translate(-92.862)" fill="#340b81"/>
    <path id="Trazado_900889" data-name="Trazado 900889" d="M225.632,128.651a.769.769,0,0,0,1.09,0l3.234-3.234a.771.771,0,1,0-1.09-1.09l-2.689,2.688-1.361-1.36a.771.771,0,1,0-1.09,1.091Z" transform="translate(-200.527 -111.328)" fill="#340b81"/>
    <path id="Trazado_900890" data-name="Trazado 900890" d="M178.182,272.156l-6.99-4.659a2.824,2.824,0,0,0-1.919-3.585v-3.14a.771.771,0,1,0-1.542,0v3.14a2.824,2.824,0,0,0-1.919,3.585l-6.99,4.659a.771.771,0,1,0,.855,1.283l6.99-4.661a2.817,2.817,0,0,0,3.668,0l6.99,4.66a.771.771,0,1,0,.855-1.283Zm-9.679-4.241a1.285,1.285,0,1,1,1.285-1.285A1.285,1.285,0,0,1,168.5,267.915Z" transform="translate(-142.19 -233.275)" fill="#340b81"/>
  </g>
</svg>
