<svg xmlns="http://www.w3.org/2000/svg" width="106.99" height="106.929" viewBox="0 0 106.99 106.929">
  <g id="Grupo_1112593" data-name="Grupo 1112593" transform="translate(-26 -26.132)">
    <path id="Trazado_900714" data-name="Trazado 900714" d="M204.559,58.146a4.488,4.488,0,0,0-4.479,0,1.307,1.307,0,0,1-1.7-.323,14.844,14.844,0,0,1-2.144-3.705,1.317,1.317,0,0,1,.568-1.63,4.475,4.475,0,0,0,0-7.761,1.317,1.317,0,0,1-.568-1.632,14.8,14.8,0,0,1,2.144-3.7,1.307,1.307,0,0,1,1.7-.325,4.474,4.474,0,0,0,6.717-3.88,1.315,1.315,0,0,1,1.132-1.307,15.123,15.123,0,0,1,4.275,0,1.314,1.314,0,0,1,1.13,1.307,4.475,4.475,0,0,0,6.719,3.879,1.314,1.314,0,0,1,1.694.325,14.865,14.865,0,0,1,2.143,3.7,1.314,1.314,0,0,1-.568,1.633,4.475,4.475,0,0,0,0,7.761,1.316,1.316,0,0,1,.568,1.631,14.909,14.909,0,0,1-2.143,3.7,1.305,1.305,0,0,1-1.695.323,4.477,4.477,0,0,0-6.719,3.882,1.314,1.314,0,0,1-1.129,1.307,14.973,14.973,0,0,1-4.277,0,1.315,1.315,0,0,1-1.131-1.307,4.489,4.489,0,0,0-2.238-3.884Zm11.383-9.538a5.876,5.876,0,1,0-5.875,5.875A5.883,5.883,0,0,0,215.942,48.609Z" transform="translate(-130.571 -5.831)" fill="#ffd266" fill-rule="evenodd"/>
    <path id="Trazado_900715" data-name="Trazado 900715" d="M59.892,233.191a.606.606,0,0,0,.6-.6V220.978a2.54,2.54,0,0,1,5.079,0V235.73a2.542,2.542,0,0,1-2.54,2.54H55.659a.6.6,0,0,0-.6.6v36.291a3.709,3.709,0,0,1-7.417,0v-15a.6.6,0,1,0-1.209,0v15a3.708,3.708,0,0,1-7.415,0V241.352a.6.6,0,1,0-1.209,0v15.224l-.75-.275a5.265,5.265,0,0,1-3.45-4.922V238.433a5.271,5.271,0,0,1,4.8-5.24l.023,0Z" transform="translate(-5.835 -147.58)" fill="#fd4755" fill-rule="evenodd"/>
    <path id="Trazado_900716" data-name="Trazado 900716" d="M231.863,233.995a5.615,5.615,0,1,1,5.615,5.614A5.621,5.621,0,0,1,231.863,233.995Z" transform="translate(-157.982 -155.208)" fill="#f6dccd" fill-rule="evenodd"/>
    <path id="Trazado_900717" data-name="Trazado 900717" d="M207.678,233.191a.606.606,0,0,0,.6-.6V220.978a2.539,2.539,0,0,1,5.077,0V235.73a2.541,2.541,0,0,1-2.538,2.54h-7.38a.6.6,0,0,0-.6.6v36.291a3.708,3.708,0,0,1-7.415,0v-15a.6.6,0,1,0-1.209,0v15a3.709,3.709,0,0,1-7.417,0V238.875a.6.6,0,0,0-.6-.6h-7.377a2.541,2.541,0,0,1-2.539-2.54V220.978a2.54,2.54,0,0,1,5.079,0v11.608a.6.6,0,0,0,.6.6h25.719Z" transform="translate(-115.323 -147.58)" fill="#60b7ff" fill-rule="evenodd"/>
    <path id="Trazado_900718" data-name="Trazado 900718" d="M396.513,233.995a5.615,5.615,0,1,1,5.615,5.614A5.623,5.623,0,0,1,396.513,233.995Z" transform="translate(-284.336 -155.208)" fill="#f6dccd" fill-rule="evenodd"/>
    <path id="Trazado_900719" data-name="Trazado 900719" d="M368.1,233.193a5.273,5.273,0,0,1,4.805,5.24v12.946a5.269,5.269,0,0,1-3.45,4.922l-.75.275V241.352a.6.6,0,1,0-1.21,0v33.813a3.709,3.709,0,0,1-7.417,0v-15a.6.6,0,1,0-1.209,0v15a3.708,3.708,0,0,1-7.415,0V238.875a.6.6,0,0,0-.6-.6h-7.38a2.543,2.543,0,0,1-2.539-2.54V220.978a2.54,2.54,0,0,1,5.079,0v11.608a.6.6,0,0,0,.6.6h21.462Z" transform="translate(-241.678 -147.58)" fill="#00e499" fill-rule="evenodd"/>
    <path id="Trazado_900720" data-name="Trazado 900720" d="M78.427,233.995a5.615,5.615,0,1,1-5.615-5.615A5.62,5.62,0,0,1,78.427,233.995Z" transform="translate(-31.616 -155.208)" fill="#f6dccd" fill-rule="evenodd"/>
    <path id="Trazado_900721" data-name="Trazado 900721" d="M41.012,67.539V42.777a1.163,1.163,0,0,1,1.163-1.163H59.131a1.163,1.163,0,0,1,0,2.326H43.337v23.6a1.163,1.163,0,1,1-2.325,0ZM98.7,42.777a1.162,1.162,0,0,1,1.163-1.163h16.953a1.164,1.164,0,0,1,1.163,1.163V67.539a1.163,1.163,0,0,1-2.326,0V43.94H99.861A1.16,1.16,0,0,1,98.7,42.777ZM79.5,61.305a1.163,1.163,0,0,1,1.162,1.163v5.07a1.163,1.163,0,1,1-2.325,0v-5.07A1.164,1.164,0,0,1,79.5,61.305ZM66.514,47.143a5.033,5.033,0,0,0,0-8.729.759.759,0,0,1-.328-.942,14.327,14.327,0,0,1,2.064-3.563.749.749,0,0,1,.979-.188,5.032,5.032,0,0,0,7.555-4.363.756.756,0,0,1,.653-.754,14.529,14.529,0,0,1,4.117,0,.756.756,0,0,1,.651.754,5.033,5.033,0,0,0,7.557,4.363.755.755,0,0,1,.977.188A14.32,14.32,0,0,1,92.8,37.472a.754.754,0,0,1-.328.942,5.033,5.033,0,0,0,0,8.729.752.752,0,0,1,.328.94,14.312,14.312,0,0,1-2.063,3.566.743.743,0,0,1-.977.186A5.035,5.035,0,0,0,82.205,56.2a.758.758,0,0,1-.651.754,14.546,14.546,0,0,1-4.117,0,.758.758,0,0,1-.653-.754,5.036,5.036,0,0,0-7.555-4.366.746.746,0,0,1-.979-.186,14.347,14.347,0,0,1-2.064-3.566.757.757,0,0,1,.328-.94Zm-1.158-2.016a3.063,3.063,0,0,0-1.329,3.819,16.6,16.6,0,0,0,2.4,4.144,3.067,3.067,0,0,0,3.968.758A2.706,2.706,0,0,1,74.458,56.2,3.066,3.066,0,0,0,77.1,59.256a16.906,16.906,0,0,0,4.78,0A3.062,3.062,0,0,0,84.53,56.2,2.708,2.708,0,0,1,88.6,53.849a3.068,3.068,0,0,0,3.969-.758,16.73,16.73,0,0,0,2.4-4.144,3.064,3.064,0,0,0-1.328-3.819,2.705,2.705,0,0,1,0-4.7,3.065,3.065,0,0,0,1.328-3.82,16.709,16.709,0,0,0-2.4-4.145,3.068,3.068,0,0,0-3.969-.758,2.708,2.708,0,0,1-4.065-2.349A3.06,3.06,0,0,0,81.884,26.3a16.946,16.946,0,0,0-4.78,0,3.064,3.064,0,0,0-2.646,3.061,2.706,2.706,0,0,1-4.063,2.347,3.062,3.062,0,0,0-3.968.758,16.573,16.573,0,0,0-2.4,4.145,3.063,3.063,0,0,0,1.329,3.82,2.709,2.709,0,0,1,0,4.7ZM79.5,38.67A4.108,4.108,0,1,0,83.6,42.777,4.113,4.113,0,0,0,79.5,38.67Zm0,10.541a6.433,6.433,0,1,0-6.434-6.433A6.44,6.44,0,0,0,79.5,49.211ZM130.665,103.8a4.71,4.71,0,0,1-3.084,4.4V93.773a1.163,1.163,0,0,0-2.326,0v33.813a3.151,3.151,0,0,1-6.3,0v-15a1.163,1.163,0,1,0-2.325,0v15a3.149,3.149,0,0,1-6.3,0V91.3a1.163,1.163,0,0,0-1.162-1.163h-7.38a1.984,1.984,0,0,1-1.981-1.982V73.4a1.982,1.982,0,0,1,3.963,0V85.006a1.163,1.163,0,0,0,1.163,1.163h21.439a4.715,4.715,0,0,1,4.294,4.684V103.8ZM95.5,90.132H88.12A1.163,1.163,0,0,0,86.957,91.3v36.291a3.149,3.149,0,0,1-6.3,0v-15a1.163,1.163,0,1,0-2.325,0v15a3.151,3.151,0,0,1-6.3,0V91.3a1.163,1.163,0,0,0-1.163-1.163H63.491a1.982,1.982,0,0,1-1.981-1.982V73.4a1.982,1.982,0,0,1,3.963,0V85.006a1.162,1.162,0,0,0,1.163,1.163H92.355a1.164,1.164,0,0,0,1.163-1.163V73.4a1.98,1.98,0,0,1,3.961,0V88.151a1.983,1.983,0,0,1-1.98,1.982Zm-38.3,0H49.824A1.162,1.162,0,0,0,48.661,91.3v36.291a3.151,3.151,0,0,1-6.3,0v-15a1.163,1.163,0,1,0-2.325,0v15a3.149,3.149,0,0,1-6.3,0V93.773a1.163,1.163,0,1,0-2.325,0V108.2a4.707,4.707,0,0,1-3.084-4.4V90.853a4.712,4.712,0,0,1,4.291-4.684h21.44a1.164,1.164,0,0,0,1.163-1.163V73.4a1.982,1.982,0,0,1,3.963,0V88.151A1.984,1.984,0,0,1,57.2,90.132ZM36.14,78.787A5.056,5.056,0,1,0,41.2,73.73,5.064,5.064,0,0,0,36.14,78.787Zm38.3,0A5.056,5.056,0,1,0,79.5,73.73,5.061,5.061,0,0,0,74.439,78.787Zm38.3,0a5.056,5.056,0,1,0,5.056-5.056A5.063,5.063,0,0,0,112.735,78.787ZM126.5,83.846l-.086,0h-3.254a7.384,7.384,0,1,0-10.743,0h-6.327V73.4a4.3,4.3,0,0,0-7.451-2.933,4.3,4.3,0,0,0-7.45,2.933V83.843H84.866a7.381,7.381,0,1,0-10.744,0H67.8V73.4a4.3,4.3,0,0,0-7.451-2.933A4.3,4.3,0,0,0,52.894,73.4V83.843H46.57a7.383,7.383,0,1,0-10.744,0H32.574l-.089,0A7.051,7.051,0,0,0,26,90.853V103.8a7.046,7.046,0,0,0,5.41,6.824v16.962a5.472,5.472,0,0,0,9.786,3.37,5.475,5.475,0,0,0,9.79-3.37V92.458H57.2a4.286,4.286,0,0,0,3.145-1.375,4.281,4.281,0,0,0,3.144,1.375h6.215v35.128a5.475,5.475,0,0,0,9.789,3.37,5.473,5.473,0,0,0,9.787-3.37V92.458H95.5a4.284,4.284,0,0,0,3.143-1.375,4.29,4.29,0,0,0,3.144,1.375H108v35.128a5.473,5.473,0,0,0,9.787,3.37,5.475,5.475,0,0,0,9.789-3.37V110.624a7.046,7.046,0,0,0,5.409-6.824V90.853a7.05,7.05,0,0,0-6.486-7.008Z" fill-rule="evenodd"/>
  </g>
</svg>
