<svg xmlns="http://www.w3.org/2000/svg" width="47" height="47" viewBox="0 0 47 47">
  <g id="Grupo_1113561" data-name="Grupo 1113561" transform="translate(-306.051 -3236)">
    <rect id="Rectángulo_400898" data-name="Rectángulo 400898" width="47" height="47" rx="23.5" transform="translate(306.051 3236)" fill="#01d2b5"/>
    <g id="Grupo_1112627" data-name="Grupo 1112627" transform="translate(263.946 3242.69)">
      <g id="Grupo_1112625" data-name="Grupo 1112625" transform="translate(50.546 -2.594)">
        <g id="Grupo_1112598" data-name="Grupo 1112598" transform="translate(0 1.996)">
          <g id="Grupo_1112594" data-name="Grupo 1112594" transform="translate(0 0)">
            <path id="Trazado_900722" data-name="Trazado 900722" d="M76.1,25.847a12.285,12.285,0,0,1,3.6,1.492L82.033,26.3l2.756,2.755-1.038,2.337a12.291,12.291,0,0,1,1.492,3.6l2.385.918v3.9l-2.386.918a12.287,12.287,0,0,1-1.492,3.6l1.038,2.338-2.755,2.756L79.7,48.379a12.29,12.29,0,0,1-3.6,1.492l-.918,2.385h-3.9l-.918-2.386a12.286,12.286,0,0,1-3.6-1.492l-2.338,1.038-2.756-2.755,1.038-2.337a12.29,12.29,0,0,1-1.492-3.6l-2.385-.918v-3.9l2.386-.918a12.286,12.286,0,0,1,1.492-3.6l-1.038-2.338L64.428,26.3l2.338,1.038a12.289,12.289,0,0,1,3.6-1.492l.918-2.386h3.9Z" transform="translate(-58.833 -23.461)" fill="#ffe177" fill-rule="evenodd"/>
          </g>
          <g id="Grupo_1112595" data-name="Grupo 1112595" transform="translate(5.233)">
            <path id="Trazado_900723" data-name="Trazado 900723" d="M129.842,48.377,127.5,49.416l-.362-.362,2.191-.973q.251.155.509.3Zm9.331-22.531a12.287,12.287,0,0,1,3.553,1.464l.045.028-.668.3A16.229,16.229,0,0,0,138,25.846l-.918-2.386h1.177Zm-12.031.815.362-.362,2.338,1.038q-.258.142-.509.3Zm17.153,0,.815-.362,2.756,2.755-1.038,2.337a12.29,12.29,0,0,1,1.492,3.6l2.385.918v3.9l-2.386.918a12.287,12.287,0,0,1-1.492,3.6l1.038,2.338-2.755,2.756-.815-.362,2.394-2.394-1.038-2.338a12.287,12.287,0,0,0,1.492-3.6l2.386-.918v-3.9l-2.385-.918a12.291,12.291,0,0,0-1.492-3.6l1.038-2.337Zm-1.568,21.744a12.288,12.288,0,0,1-3.553,1.464l-.918,2.385h-1.177L138,49.869a16.23,16.23,0,0,0,4.107-1.788l.668.3Z" transform="translate(-127.142 -23.46)" fill="#ffd064" fill-rule="evenodd"/>
          </g>
          <g id="Grupo_1112596" data-name="Grupo 1112596" transform="translate(4.203 4.188)">
            <circle id="Elipse_12187" data-name="Elipse 12187" cx="8.637" cy="8.637" r="8.637" transform="matrix(0.201, -0.98, 0.98, 0.201, 0, 16.928)" fill="#eceff1"/>
          </g>
          <g id="Grupo_1112597" data-name="Grupo 1112597" transform="translate(5.76 5.76)">
            <path id="Trazado_900724" data-name="Trazado 900724" d="M142.667,98.657c.2,0,.406.008.607.022a8.637,8.637,0,0,0,0,17.231c-.2.014-.4.022-.607.022a8.637,8.637,0,1,1,0-17.274Z" transform="translate(-134.03 -98.657)" fill="#d1d1d6" fill-rule="evenodd"/>
          </g>
        </g>
        <g id="Grupo_1112610" data-name="Grupo 1112610" transform="translate(0.109 18.847)">
          <g id="Grupo_1112599" data-name="Grupo 1112599" transform="translate(2.241 2.544)">
            <path id="Trazado_900725" data-name="Trazado 900725" d="M106.2,288.944l.753.414a1.3,1.3,0,0,0,1.257-2.284,1.3,1.3,0,0,0,1.8-1.708l.2-.081-8.826-7.025c-2.517-1.7-4.271.49-6-.484l-2.293-1.058a.779.779,0,0,0-1.03.376l-2.462,5.238a.778.778,0,0,0,.384,1.04c.818.369,2.071.932,2.328,1.032.785.3.526,1.53.955,2.09.661.861.769,1.489,1.331,1.812l8.2,4.711a1.3,1.3,0,0,0,1.77-.514,1.314,1.314,0,0,0-.512-1.773l.9.5a1.3,1.3,0,0,0,1.257-2.284Z" transform="translate(-89.511 -276.646)" fill="#f6dccd" fill-rule="evenodd"/>
          </g>
          <g id="Grupo_1112600" data-name="Grupo 1112600" transform="translate(4.235 2.544)">
            <path id="Trazado_900726" data-name="Trazado 900726" d="M125.67,278.47l-.263-.209c-2.517-1.7-4.271.49-6-.484l-2.293-1.058a.779.779,0,0,0-1.03.376l-.544,1.158a1.979,1.979,0,0,1,1.9.323c3.429,2.056,4.607-.171,7.3.779q.162-.153.317-.31C125.25,278.847,125.456,278.653,125.67,278.47Z" transform="translate(-115.538 -276.647)" fill="#f1cbbc" fill-rule="evenodd"/>
          </g>
          <g id="Grupo_1112601" data-name="Grupo 1112601" transform="translate(14.351 10.061)">
            <path id="Trazado_900727" data-name="Trazado 900727" d="M247.691,383.016l1.067.613a1.3,1.3,0,0,0,1.745-.469l-2.221-1.266Zm6.037-5.583.45.252a1.3,1.3,0,0,0,1.722-.433l-4.217-2.4a.619.619,0,1,0-.608,1.08C251.97,376.447,253.751,377.446,253.727,377.433Zm-2,1.881-2.892-1.642a.62.62,0,1,1,.608-1.08l5.193,2.953a1.308,1.308,0,0,1-1.717.425Zm-4.011.666a.62.62,0,0,1,.8-.917l4.124,2.336a1.306,1.306,0,0,1-1.727.44l-.81-.449-2.023-1.155A.881.881,0,0,1,247.718,379.98Z" transform="translate(-247.59 -374.775)" fill="#f1cbbc" fill-rule="evenodd"/>
          </g>
          <g id="Grupo_1112602" data-name="Grupo 1112602">
            <path id="Trazado_900728" data-name="Trazado 900728" d="M64.14,243.934l-3.818,8.638a.833.833,0,0,0,.424,1.1l1.663.735a.833.833,0,0,0,1.1-.424l3.818-8.638a.833.833,0,0,0-.424-1.1l-1.663-.735A.833.833,0,0,0,64.14,243.934Z" transform="translate(-60.252 -243.44)" fill="#d1d1d6" fill-rule="evenodd"/>
          </g>
          <g id="Grupo_1112603" data-name="Grupo 1112603" transform="translate(1.481 0.845)">
            <path id="Trazado_900729" data-name="Trazado 900729" d="M80.67,263.857a.833.833,0,0,1-1.091.425l.677.3a.833.833,0,0,0,1.1-.424l3.818-8.638a.833.833,0,0,0-.346-1.056Z" transform="translate(-79.579 -254.464)" fill="#b1b1b5" fill-rule="evenodd"/>
          </g>
          <g id="Grupo_1112604" data-name="Grupo 1112604" transform="translate(5.228 11.176)">
            <path id="Trazado_900730" data-name="Trazado 900730" d="M136.394,393.779a1.348,1.348,0,0,1,1.632-.287,1.33,1.33,0,0,1,.445.385,1.349,1.349,0,0,1,.105,1.432l-.794,1.484a1.342,1.342,0,0,1-2.5-.869,1.342,1.342,0,0,1-2.418-.983,1.342,1.342,0,1,1-2.37-1.261l.25-.468a1.342,1.342,0,0,1-2.087-1.626l.828-1.548a1.342,1.342,0,0,1,2.4,1.19,1.342,1.342,0,0,1,2.209,1.32,1.342,1.342,0,0,1,2.3,1.23Z" transform="translate(-128.495 -389.331)" fill="#d6b4a8" fill-rule="evenodd"/>
          </g>
          <g id="Grupo_1112605" data-name="Grupo 1112605" transform="translate(5.635 11.257)">
            <path id="Trazado_900731" data-name="Trazado 900731" d="M135.647,394.193a1.348,1.348,0,0,1-1.536.191,1.334,1.334,0,0,1-.3-.22c.412.018.6-.306.784-.636L136,391.054a.766.766,0,0,0,.035-.661,1.334,1.334,0,0,1,.171.076,1.348,1.348,0,0,1,.588,1.741Zm2.12,1.729L139,393.529a1.341,1.341,0,0,0-.871-1.6.756.756,0,0,1,.032.515l-1.86,3.6a.813.813,0,0,1-.541.315,1.342,1.342,0,0,0,2.005-.436Zm5.015-1.518a1.343,1.343,0,0,1,.7,1.886l-.794,1.484a1.346,1.346,0,0,1-1.817.551l-.022-.012a.47.47,0,0,0,.267-.2l1.657-3.208A.623.623,0,0,0,142.783,394.4Zm-2.6,2.5a1.347,1.347,0,0,1-1.724.4,1.362,1.362,0,0,1-.126-.077,1.115,1.115,0,0,0,.553-.526l1.544-2.99a.557.557,0,0,0-.005-.56,1.341,1.341,0,0,1,.875,1.606Z" transform="translate(-133.81 -390.393)" fill="#cca393" fill-rule="evenodd"/>
          </g>
          <g id="Grupo_1112606" data-name="Grupo 1112606" transform="translate(9.546 3.226)">
            <path id="Trazado_900732" data-name="Trazado 900732" d="M193.011,290.444l4.508,2.57a1.333,1.333,0,0,1,.541.577l2.544-1.061a.779.779,0,0,0,.426-1l-2.123-5.478a.778.778,0,0,0-1.093-.4l-1.522.815c-1.818.945-3.568-2.236-6.859.021a8.265,8.265,0,0,0-1.194,1.011,15.838,15.838,0,0,1-3.29,2.484.156.156,0,0,0-.044.23C187.516,293.568,190.693,289.123,193.011,290.444Z" transform="translate(-184.871 -285.552)" fill="#d6b4a8" fill-rule="evenodd"/>
          </g>
          <g id="Grupo_1112607" data-name="Grupo 1112607" transform="translate(9.933 7.215)">
            <path id="Trazado_900733" data-name="Trazado 900733" d="M201.165,340.517l1.012.577a1.333,1.333,0,0,1,.541.577l2.544-1.061a.779.779,0,0,0,.426-1L205.065,338a1.05,1.05,0,0,1-.615,1.174Zm-11.25-1.824c2.54,2.569,5.539-1.431,7.753-.169C194.162,336.149,192.856,339.279,189.915,338.694Z" transform="translate(-189.915 -337.621)" fill="#cca393" fill-rule="evenodd"/>
          </g>
          <g id="Grupo_1112608" data-name="Grupo 1112608" transform="translate(21.819 0.578)">
            <path id="Trazado_900734" data-name="Trazado 900734" d="M348.386,251.511l3.414,8.806a.833.833,0,0,1-.474,1.074l-1.7.657a.833.833,0,0,1-1.074-.474l-3.414-8.806a.833.833,0,0,1,.474-1.074l1.7-.657A.832.832,0,0,1,348.386,251.511Z" transform="translate(-345.087 -250.981)" fill="#d1d1d6" fill-rule="evenodd"/>
          </g>
          <g id="Grupo_1112609" data-name="Grupo 1112609" transform="translate(21.819 1.36)">
            <path id="Trazado_900735" data-name="Trazado 900735" d="M345.479,261.188a.833.833,0,0,0-.336,1.005L348.556,271a.833.833,0,0,0,1.074.474l.628-.244h0a.833.833,0,0,1-1.074-.474Z" transform="translate(-345.087 -261.188)" fill="#b1b1b5" fill-rule="evenodd"/>
          </g>
        </g>
        <g id="Grupo_1112615" data-name="Grupo 1112615" transform="translate(8.335 13.05)">
          <g id="Grupo_1112611" data-name="Grupo 1112611" transform="translate(0 3.682)">
            <path id="Trazado_900736" data-name="Trazado 900736" d="M168.113,218.838h5.538a.474.474,0,0,0,.454-.611,3.367,3.367,0,0,0-6.446,0,.474.474,0,0,0,.454.611Z" transform="translate(-167.638 -215.834)" fill="#8ac9fe" fill-rule="evenodd"/>
          </g>
          <g id="Grupo_1112612" data-name="Grupo 1112612" transform="translate(2.77 3.682)">
            <path id="Trazado_900737" data-name="Trazado 900737" d="M207.042,218.837a.474.474,0,0,0,.454-.611,3.37,3.37,0,0,0-3.7-2.359,3.37,3.37,0,0,1,2.749,2.359.474.474,0,0,1-.454.611Z" transform="translate(-203.799 -215.833)" fill="#60b7ff" fill-rule="evenodd"/>
          </g>
          <g id="Grupo_1112613" data-name="Grupo 1112613" transform="translate(1.542)">
            <path id="Trazado_900738" data-name="Trazado 900738" d="M189.475,171.168a1.7,1.7,0,1,0-1.7-1.7A1.705,1.705,0,0,0,189.475,171.168Z" transform="translate(-187.773 -167.764)" fill="#f6dccd" fill-rule="evenodd"/>
          </g>
          <g id="Grupo_1112614" data-name="Grupo 1112614" transform="translate(3.007 0)">
            <path id="Trazado_900739" data-name="Trazado 900739" d="M207.131,167.765a1.7,1.7,0,1,1-.237,3.387,1.7,1.7,0,0,0,0-3.371A1.717,1.717,0,0,1,207.131,167.765Z" transform="translate(-206.894 -167.765)" fill="#f1cbbc" fill-rule="evenodd"/>
          </g>
        </g>
        <g id="Grupo_1112620" data-name="Grupo 1112620" transform="translate(13.971 13.05)">
          <g id="Grupo_1112616" data-name="Grupo 1112616" transform="translate(0 3.682)">
            <path id="Trazado_900740" data-name="Trazado 900740" d="M241.692,218.838h5.538a.474.474,0,0,0,.454-.611,3.367,3.367,0,0,0-6.446,0,.474.474,0,0,0,.454.611Z" transform="translate(-241.217 -215.834)" fill="#8ac9fe" fill-rule="evenodd"/>
          </g>
          <g id="Grupo_1112617" data-name="Grupo 1112617" transform="translate(2.77 3.682)">
            <path id="Trazado_900741" data-name="Trazado 900741" d="M280.621,218.837a.474.474,0,0,0,.454-.611,3.37,3.37,0,0,0-3.7-2.359,3.37,3.37,0,0,1,2.749,2.359.474.474,0,0,1-.454.611Z" transform="translate(-277.378 -215.833)" fill="#60b7ff" fill-rule="evenodd"/>
          </g>
          <g id="Grupo_1112618" data-name="Grupo 1112618" transform="translate(1.542)">
            <path id="Trazado_900742" data-name="Trazado 900742" d="M263.054,171.168a1.7,1.7,0,1,0-1.7-1.7A1.705,1.705,0,0,0,263.054,171.168Z" transform="translate(-261.352 -167.764)" fill="#f6dccd" fill-rule="evenodd"/>
          </g>
          <g id="Grupo_1112619" data-name="Grupo 1112619" transform="translate(3.007 0)">
            <path id="Trazado_900743" data-name="Trazado 900743" d="M280.71,167.765a1.7,1.7,0,1,1-.237,3.387,1.7,1.7,0,0,0,0-3.371A1.716,1.716,0,0,1,280.71,167.765Z" transform="translate(-280.473 -167.765)" fill="#f1cbbc" fill-rule="evenodd"/>
          </g>
        </g>
        <g id="Grupo_1112624" data-name="Grupo 1112624" transform="translate(19.656 0)">
          <g id="Grupo_1112623" data-name="Grupo 1112623">
            <g id="Grupo_1112621" data-name="Grupo 1112621">
              <circle id="Elipse_12188" data-name="Elipse 12188" cx="4.608" cy="4.608" r="4.608" transform="translate(0 3.53) rotate(-22.514)" fill="#8ac9fe"/>
            </g>
            <g id="Grupo_1112622" data-name="Grupo 1112622" transform="translate(5.635 1.424)">
              <path id="Trazado_900744" data-name="Trazado 900744" d="M389.37,15.99c-.129,0-.257.006-.383.016a4.608,4.608,0,0,1,0,9.185q.189.016.383.016a4.608,4.608,0,1,0,0-9.217Z" transform="translate(-388.987 -15.99)" fill="#60b7ff" fill-rule="evenodd"/>
            </g>
          </g>
        </g>
      </g>
      <g id="Grupo_1112626" data-name="Grupo 1112626" transform="translate(49.859 -1.783)">
        <path id="Trazado_900745" data-name="Trazado 900745" d="M73.8,13.771a.613.613,0,1,1,.866-.866l.749.749L77.8,11.486a.613.613,0,1,1,.823.908L75.8,14.954a.613.613,0,0,1-.845-.021ZM74.962,28.1a.572.572,0,1,1-.587-.557A.573.573,0,0,1,74.962,28.1Zm3.832,7.739a.224.224,0,0,0,0-.174L75.1,26.842a.226.226,0,0,0-.124-.121.232.232,0,0,0-.088-.018.218.218,0,0,0-.086.018l-1.7.71a.231.231,0,0,0-.122.3l3.692,8.82a.229.229,0,0,0,.3.121l1.7-.71A.225.225,0,0,0,78.795,35.836Zm-5.069.352a1.988,1.988,0,0,0-.47-.35l-4.632-2.479c-1.254-.672-2.552-.106-3.807.441-1.637.715-2.752,1.116-3.866.07a16.148,16.148,0,0,0,2.922-2.408,7.765,7.765,0,0,1,1.094-.979,3.627,3.627,0,0,1,4.04-.321,3.182,3.182,0,0,0,2.845.151l.716-.408,2.4,5.727Zm-.736,1.687a.706.706,0,0,1-.42.351.686.686,0,0,1-.529-.044c-.984-.518-2.1-1.1-3.182-1.686a.613.613,0,1,0-.581,1.079c1.088.585,2.206,1.173,3.191,1.691a.716.716,0,0,1,.31.955.708.708,0,0,1-.951.3l-4.191-2.213a.613.613,0,0,0-.572,1.084l3.339,1.764a.62.62,0,0,0,.082.052.716.716,0,0,1,.309.955.7.7,0,0,1-.417.35.693.693,0,0,1-.533-.044L66.431,41.19a1.932,1.932,0,0,0-.59-.453,1.962,1.962,0,0,0-1.407-.139,1.974,1.974,0,0,0-2.359-1.183,1.97,1.97,0,0,0-2.114-1.232,1.97,1.97,0,0,0-3.173-1.076,1.628,1.628,0,0,0-1-1.233c-.073-.026-.284-.11-.843-.34L57.3,29.8l.952.409a2.645,2.645,0,0,0,1.242.3,6.164,6.164,0,0,0,1.551-.268,4.054,4.054,0,0,1,2.436-.121c-.168.157-.336.323-.5.5a15.474,15.474,0,0,1-3.138,2.5.772.772,0,0,0-.191,1.144,3.5,3.5,0,0,0,2.955,1.459,7.655,7.655,0,0,0,2.7-.8c1.077-.469,2.008-.875,2.739-.485l4.632,2.48a.734.734,0,0,1,.308.311.7.7,0,0,1,0,.645Zm-5.326,6.161a.721.721,0,0,1-.427.356.666.666,0,0,1-.516-.046l-.381-.206.38-.758a1.939,1.939,0,0,0,.179-.556l.376.2a.714.714,0,0,0,.081.053A.715.715,0,0,1,67.665,44.036Zm-3.236.693a.739.739,0,0,0,.433-.372l.763-1.523a.754.754,0,0,0-.081-.8.729.729,0,0,0-.251-.206.758.758,0,0,0-.858.136l-.984,2.02a.756.756,0,0,0,.409.7A.744.744,0,0,0,64.429,44.73Zm-3.037-1a.748.748,0,0,0,.932-.222l1.012-2.078a.745.745,0,0,0-1.261-.639L60.981,43.05A.748.748,0,0,0,61.392,43.725Zm-1.614-4.176-1.285,2.4a.752.752,0,0,0,.333,1,.751.751,0,0,0,1-.338l1.147-2.373a.745.745,0,0,0-1.2-.695Zm-2.867,1.336a.749.749,0,0,0,.79-.078l1.034-1.9a.746.746,0,0,0-1.36-.608l-.8,1.589a.751.751,0,0,0,.334,1Zm-3.685-4.379,3.632-8.845a.231.231,0,0,0-.125-.3l-1.7-.7a.223.223,0,0,0-.084-.017.23.23,0,0,0-.089.018.226.226,0,0,0-.123.123L51.1,35.634a.228.228,0,0,0,.124.3l1.7.7a.231.231,0,0,0,.3-.124Zm11.354-7.24a4.813,4.813,0,0,0-3.845-.207,3.645,3.645,0,0,1-1.534.2,8.136,8.136,0,0,1-1.125-1.426,1.455,1.455,0,0,0-.74-1.536,8.075,8.075,0,1,1,15.2.054,1.456,1.456,0,0,0-.766,1.552,8.1,8.1,0,0,1-1.184,1.459,5.289,5.289,0,0,1-1.141-.344,4.839,4.839,0,0,0-4.86.249Zm-11.052-2.96c.009.04.021.079.031.119l.041-.1a1.455,1.455,0,0,1,1.9-.792l.388.159a9.3,9.3,0,1,1,18.111.041l.338-.141a1.455,1.455,0,0,1,1.9.779l.068.163c.02-.075.038-.15.057-.226a.612.612,0,0,1,.376-.429l1.993-.767V22.053l-1.993-.767a.613.613,0,0,1-.375-.431,11.652,11.652,0,0,0-.893-2.47,5.23,5.23,0,0,1-4.457-4.85,11.641,11.641,0,0,0-3.341-1.37.615.615,0,0,1-.43-.376L66.471,9.8H63.416l-.767,1.993a.614.614,0,0,1-.431.376A11.644,11.644,0,0,0,58.8,13.583a.614.614,0,0,1-.57.038l-1.954-.868-2.161,2.161.868,1.953a.616.616,0,0,1-.039.571,11.644,11.644,0,0,0-1.418,3.418.614.614,0,0,1-.375.431l-1.993.767v3.056l1.992.767a.613.613,0,0,1,.376.429ZM76.22,9.224a4,4,0,1,0,4,4,4,4,0,0,0-4-4Zm.808,19.04a13.139,13.139,0,0,0,.444-1.359l2.089-.8a.611.611,0,0,0,.393-.571v-3.9a.613.613,0,0,0-.393-.573l-2.089-.8a12.862,12.862,0,0,0-.646-1.852A5.221,5.221,0,1,0,71.1,12.18a12.868,12.868,0,0,0-2.836-1.127l-.8-2.089a.612.612,0,0,0-.572-.393H63a.613.613,0,0,0-.572.393l-.8,2.089a12.862,12.862,0,0,0-3.181,1.319l-2.048-.909a.614.614,0,0,0-.683.127l-2.755,2.755a.613.613,0,0,0-.126.682l.909,2.047a12.88,12.88,0,0,0-1.319,3.183l-2.089.8a.614.614,0,0,0-.393.573v3.9a.614.614,0,0,0,.393.572l2.088.8a12.969,12.969,0,0,0,.416,1.289l-2.863,6.973a1.456,1.456,0,0,0,.793,1.9l1.7.7a1.455,1.455,0,0,0,1.9-.793l.125-.3c.632.261.815.331.9.36.148.053.22.342.306.746a4.193,4.193,0,0,0,.208.738l-.412.822a1.977,1.977,0,0,0,.879,2.647,1.976,1.976,0,0,0,.829.207,1.969,1.969,0,0,0,2.836,1.868,1.965,1.965,0,0,0,2.4.843,1.974,1.974,0,0,0,3.334.321l.379.2a1.871,1.871,0,0,0,.889.225,1.914,1.914,0,0,0,.57-.087,1.955,1.955,0,0,0,1.154-.965,1.916,1.916,0,0,0,.213-.831A1.928,1.928,0,0,0,71.1,41.829a1.925,1.925,0,0,0,1.908-2.456,1.92,1.92,0,0,0,1.265-2.086l1.167-.524.108.259a1.453,1.453,0,0,0,1.9.779l1.7-.71a1.457,1.457,0,0,0,.78-1.9Zm-21-.2a.572.572,0,1,1-.561-.584A.572.572,0,0,1,56.027,28.065Zm6.1-3.662A2.892,2.892,0,0,0,59.4,26.311h4.358a4.1,4.1,0,0,1,.42-1.056A2.869,2.869,0,0,0,62.125,24.4Zm-1.163-2.389a1.163,1.163,0,1,0,1.163-1.163A1.164,1.164,0,0,0,60.962,22.014Zm4.073,4.3h5.453a2.9,2.9,0,0,0-5.453,0Zm1.563-4.3a1.163,1.163,0,1,0,1.163-1.163A1.164,1.164,0,0,0,66.6,22.014Zm4.655,5.522a.612.612,0,0,0,.609-.678,4.112,4.112,0,0,0-2.305-3.273,2.389,2.389,0,1,0-3.592,0,4.085,4.085,0,0,0-1.025.7,4.141,4.141,0,0,0-1.024-.7,2.389,2.389,0,1,0-3.588,0,4.112,4.112,0,0,0-2.305,3.273.612.612,0,0,0,.609.678Z" transform="translate(-49.859 -7.999)" fill="#242222" fill-rule="evenodd"/>
      </g>
    </g>
  </g>
</svg>
