<svg xmlns="http://www.w3.org/2000/svg" width="47" height="47" viewBox="0 0 47 47">
  <g id="Grupo_1113562" data-name="Grupo 1113562" transform="translate(-306.051 -3297)">
    <rect id="Rectángulo_400898" data-name="Rectángulo 400898" width="47" height="47" rx="23.5" transform="translate(306.051 3297)" fill="#01d2b5"/>
    <g id="Grupo_1112634" data-name="Grupo 1112634" transform="translate(303.806 3295.773)">
      <g id="Grupo_1112628" data-name="Grupo 1112628" transform="translate(25.596 9.981)">
        <path id="Trazado_900746" data-name="Trazado 900746" d="M276.2,26.317l7.585-7.585-1.292-1.291,2.709-.726,2.708-.725-.725,2.708-.726,2.709-1.338-1.339-6.248,6.249Z" transform="translate(-275.84 -15.631)" fill="#24d38c" fill-rule="evenodd"/>
        <path id="Trazado_900747" data-name="Trazado 900747" d="M273.234,21.043h-2.673a.359.359,0,0,1-.254-.613l7.331-7.331L276.6,12.062a.359.359,0,0,1,.161-.6l5.417-1.451a.359.359,0,0,1,.44.44l-1.451,5.417a.359.359,0,0,1-.6.161l-1.085-1.085-5.993,6a.36.36,0,0,1-.254.105Zm-1.8-.719h1.656l6.142-6.144a.359.359,0,0,1,.508,0l.9.9,1.129-4.214-4.214,1.129.851.851a.359.359,0,0,1,0,.508l-6.971,6.971Z" transform="translate(-270.201 -9.998)"/>
      </g>
      <g id="Grupo_1112629" data-name="Grupo 1112629" transform="translate(33.659 17.805)">
        <path id="Trazado_900748" data-name="Trazado 900748" d="M410.7,146.53h5.112v20.948H410.7Z" transform="translate(-410.341 -146.17)" fill="#49b2f7"/>
        <path id="Trazado_900749" data-name="Trazado 900749" d="M410.182,162.2H405.07a.36.36,0,0,1-.36-.36V140.89a.36.36,0,0,1,.36-.36h5.112a.36.36,0,0,1,.36.36v20.948a.36.36,0,0,1-.36.36Zm-4.753-.719h4.394V141.249h-4.394Z" transform="translate(-404.71 -140.53)"/>
      </g>
      <g id="Grupo_1112630" data-name="Grupo 1112630" transform="translate(25.773 23.019)">
        <path id="Trazado_900750" data-name="Trazado 900750" d="M279.14,233.52h5.112v15.734H279.14Z" transform="translate(-278.781 -233.16)" fill="#ffdf75"/>
        <path id="Trazado_900751" data-name="Trazado 900751" d="M278.622,243.972H273.51a.36.36,0,0,1-.36-.36V227.88a.36.36,0,0,1,.36-.36h5.112a.36.36,0,0,1,.36.36v15.734a.36.36,0,0,1-.36.36Zm-4.753-.719h4.394V228.239h-4.394Z" transform="translate(-273.15 -227.52)"/>
      </g>
      <g id="Grupo_1112631" data-name="Grupo 1112631" transform="translate(17.886 28.863)">
        <path id="Trazado_900752" data-name="Trazado 900752" d="M147.56,331.03h5.112v9.889H147.56Z" transform="translate(-147.201 -330.67)" fill="#24d38c"/>
        <path id="Trazado_900753" data-name="Trazado 900753" d="M147.042,335.628H141.93a.36.36,0,0,1-.36-.36V325.38a.36.36,0,0,1,.36-.36h5.112a.36.36,0,0,1,.36.36v9.889A.36.36,0,0,1,147.042,335.628Zm-4.753-.719h4.394v-9.17h-4.394Z" transform="translate(-141.57 -325.02)"/>
      </g>
      <g id="Grupo_1112632" data-name="Grupo 1112632" transform="translate(10 34.349)">
        <path id="Trazado_900754" data-name="Trazado 900754" d="M16,422.54h5.111v4.4H16Z" transform="translate(-15.64 -422.18)" fill="red"/>
        <path id="Trazado_900755" data-name="Trazado 900755" d="M15.471,421.653H10.36a.36.36,0,0,1-.36-.36v-4.4a.36.36,0,0,1,.36-.36h5.111a.36.36,0,0,1,.36.36v4.4A.36.36,0,0,1,15.471,421.653Zm-4.751-.719h4.392v-3.685H10.719Z" transform="translate(-10 -416.53)"/>
      </g>
      <g id="Grupo_1112633" data-name="Grupo 1112633" transform="translate(10.001 9.98)">
        <path id="Trazado_900756" data-name="Trazado 900756" d="M21.413,17.6a5.382,5.382,0,0,0-1.2.5l-1.578-.7-1.217,1.218.7,1.578a5.478,5.478,0,0,0-.5,1.2l-1.609.622v1.721l1.609.622a5.408,5.408,0,0,0,.5,1.2l-.7,1.578,1.217,1.217,1.578-.7a5.5,5.5,0,0,0,1.2.5l.622,1.609h1.721l.623-1.609a5.425,5.425,0,0,0,1.2-.5l1.58.7,1.217-1.217-.7-1.578a5.5,5.5,0,0,0,.5-1.2l1.609-.622V22.016l-1.609-.622a5.408,5.408,0,0,0-.5-1.2l.7-1.578L27.156,17.4l-1.58.7a5.408,5.408,0,0,0-1.2-.5l-.623-1.611H22.035ZM22.9,19.947a2.929,2.929,0,1,0,2.929,2.929A2.929,2.929,0,0,0,22.9,19.947Z" transform="translate(-15.651 -15.63)" fill="#ffdf75" fill-rule="evenodd"/>
        <path id="Trazado_900757" data-name="Trazado 900757" d="M18.125,24.472H16.4a.359.359,0,0,1-.335-.23L15.511,22.8a5.828,5.828,0,0,1-.944-.39l-1.418.626a.359.359,0,0,1-.4-.075l-1.217-1.217a.359.359,0,0,1-.074-.4l.627-1.417a5.858,5.858,0,0,1-.392-.944l-1.445-.559a.359.359,0,0,1-.23-.335V16.367a.359.359,0,0,1,.23-.335l1.445-.559a5.752,5.752,0,0,1,.392-.944l-.627-1.417a.359.359,0,0,1,.074-.4l1.217-1.218a.36.36,0,0,1,.4-.075l1.417.627a5.785,5.785,0,0,1,.944-.391l.558-1.446a.359.359,0,0,1,.335-.23h1.721a.359.359,0,0,1,.335.23l.56,1.446a5.716,5.716,0,0,1,.943.391l1.419-.627a.359.359,0,0,1,.4.075L23,12.712a.359.359,0,0,1,.074.4l-.627,1.417a5.8,5.8,0,0,1,.391.944l1.445.559a.359.359,0,0,1,.23.335v1.721a.359.359,0,0,1-.23.335l-1.445.559a5.879,5.879,0,0,1-.392.943l.627,1.417a.36.36,0,0,1-.074.4l-1.217,1.217a.36.36,0,0,1-.4.075l-1.419-.626a5.875,5.875,0,0,1-.943.39l-.56,1.445a.359.359,0,0,1-.335.23Zm-1.475-.719h1.229l.535-1.38a.359.359,0,0,1,.237-.216,5.1,5.1,0,0,0,1.119-.463.359.359,0,0,1,.321-.016l1.355.6.869-.869-.6-1.353a.361.361,0,0,1,.015-.321,5.143,5.143,0,0,0,.465-1.121.359.359,0,0,1,.216-.238l1.379-.533V16.614l-1.379-.533a.359.359,0,0,1-.216-.238,5.064,5.064,0,0,0-.465-1.12.36.36,0,0,1-.016-.322l.6-1.353-.869-.87-1.355.6a.36.36,0,0,1-.322-.016,5.024,5.024,0,0,0-1.118-.463.36.36,0,0,1-.239-.216L17.879,10.7H16.65l-.533,1.381a.359.359,0,0,1-.239.217,5.027,5.027,0,0,0-1.12.463.359.359,0,0,1-.321.015l-1.353-.6-.869.87.6,1.353a.358.358,0,0,1-.016.322,5.122,5.122,0,0,0-.465,1.12.359.359,0,0,1-.216.238l-1.379.533v1.228l1.379.533a.359.359,0,0,1,.216.238,5.1,5.1,0,0,0,.465,1.12.358.358,0,0,1,.016.322l-.6,1.353.869.869,1.353-.6a.358.358,0,0,1,.321.016,5.144,5.144,0,0,0,1.121.463.359.359,0,0,1,.238.216l.533,1.379Zm.615-3.239a3.288,3.288,0,1,1,3.288-3.288A3.292,3.292,0,0,1,17.266,20.515Zm0-5.859a2.57,2.57,0,1,0,2.57,2.57A2.572,2.572,0,0,0,17.266,14.657Z" transform="translate(-10.02 -9.98)"/>
      </g>
    </g>
  </g>
</svg>
