<svg xmlns="http://www.w3.org/2000/svg" width="47" height="47" viewBox="0 0 47 47">
  <g id="Grupo_1113563" data-name="Grupo 1113563" transform="translate(-306.051 -3360)">
    <rect id="Rectángulo_400898" data-name="Rectángulo 400898" width="47" height="47" rx="23.5" transform="translate(306.051 3360)" fill="#01d2b5"/>
    <g id="Grupo_1112657" data-name="Grupo 1112657" transform="translate(312.906 3365.855)">
      <g id="Grupo_1112655" data-name="Grupo 1112655" transform="translate(1.521 1.521)">
        <g id="Grupo_1112635" data-name="Grupo 1112635" transform="translate(1.562)">
          <path id="Trazado_900758" data-name="Trazado 900758" d="M10.406,5.739l-2.187.625a1.561,1.561,0,0,0-1.135,1.5v.385H6.562a1.566,1.566,0,0,0-1.073.427L5.229,7.9A4.481,4.481,0,0,1,9.479,2h.729V4.849a2.123,2.123,0,0,0,.2.891Z" transform="translate(-5 -2)" fill="#656d78"/>
        </g>
        <g id="Grupo_1112636" data-name="Grupo 1112636" transform="translate(6.77 0)">
          <path id="Trazado_900759" data-name="Trazado 900759" d="M21.249,6.479A4.483,4.483,0,0,1,21.02,7.9l-.26.781a1.566,1.566,0,0,0-1.073-.427h-.521V8.13a1.045,1.045,0,0,0-.911-1.036l-1.432-.177A2.079,2.079,0,0,1,15.2,5.739a2.123,2.123,0,0,1-.2-.891V2h1.771a4.479,4.479,0,0,1,4.479,4.479Z" transform="translate(-15 -2)" fill="#656d78"/>
        </g>
        <g id="Grupo_1112637" data-name="Grupo 1112637" transform="translate(3.125 26.04)">
          <path id="Trazado_900760" data-name="Trazado 900760" d="M12.166,52v5.208H8V52Z" transform="translate(-8 -52)" fill="#d3a06c"/>
        </g>
        <g id="Grupo_1112638" data-name="Grupo 1112638" transform="translate(7.291 26.04)">
          <path id="Trazado_900761" data-name="Trazado 900761" d="M20.166,53.042v4.166H16V52h4.166Z" transform="translate(-16 -52)" fill="#d3a06c"/>
        </g>
        <g id="Grupo_1112639" data-name="Grupo 1112639" transform="translate(0 13.827)">
          <path id="Trazado_900762" data-name="Trazado 900762" d="M6.687,30.868l1.594-.953.49,1.474-1.562,6.77,2.083,2.6H5.125V41.8h-2.6A.522.522,0,0,1,2,41.283V32.294a3.652,3.652,0,0,1,2.932-3.578l.828-.167v.005Z" transform="translate(-2 -28.55)" fill="#b4dd7f"/>
        </g>
        <g id="Grupo_1112640" data-name="Grupo 1112640" transform="translate(7.291 13.827)">
          <path id="Trazado_900763" data-name="Trazado 900763" d="M19.531,28.555V28.55l.828.167a3.652,3.652,0,0,1,2.932,3.578v8.989a.522.522,0,0,1-.521.521h-2.6V40.763H16l2.083-2.6-1.562-6.77.49-1.474,1.594.953Z" transform="translate(-16 -28.55)" fill="#b4dd7f"/>
        </g>
        <g id="Grupo_1112641" data-name="Grupo 1112641" transform="translate(3.76 13.541)">
          <path id="Trazado_900764" data-name="Trazado 900764" d="M12.751,29.042l-1.01.609-1.594.953L9.22,28.292v-.005L10.668,28Z" transform="translate(-9.22 -28)" fill="#a0d468"/>
        </g>
        <g id="Grupo_1112642" data-name="Grupo 1112642" transform="translate(7.291 13.541)">
          <path id="Trazado_900765" data-name="Trazado 900765" d="M18.083,28l1.448.286v.005L18.6,30.6l-1.594-.953L16,29.042Z" transform="translate(-16 -28)" fill="#a0d468"/>
        </g>
        <g id="Grupo_1112643" data-name="Grupo 1112643" transform="translate(5.208 16.665)">
          <path id="Trazado_900766" data-name="Trazado 900766" d="M14.6,34l1.562,6.77-2.083,2.6L12,40.77,13.562,34Z" transform="translate(-12 -34)" fill="#ff826e"/>
        </g>
        <g id="Grupo_1112644" data-name="Grupo 1112644" transform="translate(6.281 14.582)">
          <path id="Trazado_900767" data-name="Trazado 900767" d="M16.081,30.609l-.49,1.474H14.55l-.49-1.474L15.07,30Z" transform="translate(-14.06 -30)" fill="#fc6e51"/>
        </g>
        <g id="Grupo_1112645" data-name="Grupo 1112645" transform="translate(1.042 27.081)">
          <path id="Trazado_900768" data-name="Trazado 900768" d="M6.083,54v3.125H5.562A1.56,1.56,0,0,1,4,55.562V54Z" transform="translate(-4 -54)" fill="#f0d0b4"/>
        </g>
        <g id="Grupo_1112646" data-name="Grupo 1112646" transform="translate(11.457 27.081)">
          <path id="Trazado_900769" data-name="Trazado 900769" d="M26.083,54v1.562a1.56,1.56,0,0,1-1.562,1.562H24V54Z" transform="translate(-24 -54)" fill="#f0d0b4"/>
        </g>
        <g id="Grupo_1112647" data-name="Grupo 1112647" transform="translate(10.786 6.249)">
          <path id="Trazado_900770" data-name="Trazado 900770" d="M24.455,14.427a1.563,1.563,0,0,1-1.073,2.7H22.71a3.6,3.6,0,0,0,.151-1.042V14h.521a1.566,1.566,0,0,1,1.073.427Z" transform="translate(-22.71 -14)" fill="#f0d0b4"/>
        </g>
        <g id="Grupo_1112648" data-name="Grupo 1112648" transform="translate(5.208 11.567)">
          <path id="Trazado_900771" data-name="Trazado 900771" d="M15.771,24.21l.4,1.974-2.083,1.042L12,26.184l.4-1.974a3.666,3.666,0,0,0,3.375,0Z" transform="translate(-12 -24.21)" fill="#f0d0b4"/>
        </g>
        <g id="Grupo_1112649" data-name="Grupo 1112649" transform="translate(3.646 3.739)">
          <path id="Trazado_900772" data-name="Trazado 900772" d="M16.291,11.69v2.083a3.6,3.6,0,0,1-.151,1.042,3.647,3.647,0,0,1-6.989,0A3.6,3.6,0,0,1,9,13.773V11.3a1.561,1.561,0,0,1,1.135-1.5l2.187-.625a2.079,2.079,0,0,0,1.625,1.177l1.432.177a1.045,1.045,0,0,1,.911,1.036Z" transform="translate(-9 -9.18)" fill="#f0d0b4"/>
        </g>
        <g id="Grupo_1112650" data-name="Grupo 1112650" transform="translate(1.562 6.249)">
          <path id="Trazado_900773" data-name="Trazado 900773" d="M7.234,17.125H6.562a1.562,1.562,0,0,1,0-3.125h.521v2.083A3.6,3.6,0,0,0,7.234,17.125Z" transform="translate(-5 -14)" fill="#f0d0b4"/>
        </g>
        <g id="Grupo_1112651" data-name="Grupo 1112651" transform="translate(14.582 14.582)">
          <path id="Trazado_900774" data-name="Trazado 900774" d="M38.333,43.541a5.208,5.208,0,1,0-5.208-5.208A5.21,5.21,0,0,0,38.333,43.541Zm6.255-2.63c0,.005-.005.01-.01.021a1.646,1.646,0,0,0,.354,1.792l.4.4-2.213,2.208-.4-.4a1.646,1.646,0,0,0-1.792-.354c-.01.005-.016.01-.021.01A1.639,1.639,0,0,0,39.9,46.1v.562H36.77V46.1a1.639,1.639,0,0,0-1.016-1.516c-.005,0-.01-.005-.021-.01a1.646,1.646,0,0,0-1.792.354l-.4.4-2.213-2.208.4-.4a1.646,1.646,0,0,0,.354-1.792c-.005-.01-.01-.016-.01-.021A1.639,1.639,0,0,0,30.562,39.9H30V36.77h.562a1.639,1.639,0,0,0,1.516-1.016c0-.005.005-.01.01-.021a1.646,1.646,0,0,0-.354-1.792l-.4-.4,2.213-2.213.4.4a1.646,1.646,0,0,0,1.792.354c.01-.005.016-.01.021-.01a1.639,1.639,0,0,0,1.016-1.516V30H39.9v.562a1.639,1.639,0,0,0,1.016,1.516c.005,0,.01.005.021.01a1.646,1.646,0,0,0,1.792-.354l.4-.4,2.213,2.213-.4.4a1.646,1.646,0,0,0-.354,1.792c.005.01.01.016.01.021A1.639,1.639,0,0,0,46.1,36.77h.562V39.9H46.1A1.639,1.639,0,0,0,44.587,40.911Z" transform="translate(-30 -30)" fill="#ffc729"/>
        </g>
        <g id="Grupo_1112652" data-name="Grupo 1112652" transform="translate(17.707 17.707)">
          <path id="Trazado_900775" data-name="Trazado 900775" d="M46.416,41.208A5.208,5.208,0,1,1,41.208,36,5.21,5.21,0,0,1,46.416,41.208Zm-2.083,0a3.125,3.125,0,1,0-3.125,3.125A3.127,3.127,0,0,0,44.333,41.208Z" transform="translate(-36 -36)" fill="#fcd770"/>
        </g>
        <g id="Grupo_1112653" data-name="Grupo 1112653" transform="translate(16.665 1.042)">
          <path id="Trazado_900776" data-name="Trazado 900776" d="M46.5,5.042v7.291a1.045,1.045,0,0,1-1.042,1.042H41.812L41,14.994a.847.847,0,0,1-1.51,0l-.807-1.62H35.042A1.045,1.045,0,0,1,34,12.333V5.042A1.045,1.045,0,0,1,35.042,4H45.457A1.045,1.045,0,0,1,46.5,5.042Z" transform="translate(-34 -4)" fill="#e6e9ed"/>
        </g>
        <g id="Grupo_1112654" data-name="Grupo 1112654" transform="translate(19.79 3.088)">
          <path id="Trazado_900777" data-name="Trazado 900777" d="M45.729,8.456a1.766,1.766,0,0,1-.115,2.609l-2.489,2.073-2.489-2.073a1.766,1.766,0,0,1-.115-2.609V8.451a1.778,1.778,0,0,1,1.255-.521h.094a1.778,1.778,0,0,1,1.255.521A1.778,1.778,0,0,1,44.38,7.93h.094a1.778,1.778,0,0,1,1.255.521Z" transform="translate(-40 -7.93)" fill="#ff826e"/>
        </g>
      </g>
      <g id="Grupo_1112656" data-name="Grupo 1112656" transform="translate(1 1)">
        <circle id="Elipse_12189" data-name="Elipse 12189" cx="0.5" cy="0.5" r="0.5" transform="translate(6.144 7.145)"/>
        <circle id="Elipse_12190" data-name="Elipse 12190" cx="0.5" cy="0.5" r="0.5" transform="translate(9.144 7.145)"/>
        <path id="Trazado_900778" data-name="Trazado 900778" d="M13.038,18.553l-.932.466.055.11a2.206,2.206,0,0,0,3.947,0l.055-.11-.932-.466-.055.11a1.165,1.165,0,0,1-2.083,0Z" transform="translate(-6.322 -9.411)"/>
        <path id="Trazado_900779" data-name="Trazado 900779" d="M34.562,13.416h3.324l.665,1.329a1.364,1.364,0,0,0,2.439,0l.665-1.33h3.324a1.564,1.564,0,0,0,1.562-1.562V4.562A1.564,1.564,0,0,0,44.978,3H34.562A1.564,1.564,0,0,0,33,4.562v7.291A1.564,1.564,0,0,0,34.562,13.416Zm-.521-8.853a.522.522,0,0,1,.521-.521H44.978a.522.522,0,0,1,.521.521v7.291a.522.522,0,0,1-.521.521H41.011l-.953,1.906a.334.334,0,0,1-.575,0l-.953-1.906H34.562a.522.522,0,0,1-.521-.521Z" transform="translate(-16.335 -1.958)"/>
        <path id="Trazado_900780" data-name="Trazado 900780" d="M40.729,35a5.729,5.729,0,1,0,5.729,5.729A5.735,5.735,0,0,0,40.729,35Zm0,10.416a4.687,4.687,0,1,1,4.687-4.687A4.693,4.693,0,0,1,40.729,45.416Z" transform="translate(-17.293 -17.293)"/>
        <path id="Trazado_900781" data-name="Trazado 900781" d="M42.646,39a3.646,3.646,0,1,0,3.646,3.646A3.65,3.65,0,0,0,42.646,39Zm0,6.25a2.6,2.6,0,1,1,2.6-2.6A2.607,2.607,0,0,1,42.646,45.25Z" transform="translate(-19.21 -19.21)"/>
        <path id="Trazado_900782" data-name="Trazado 900782" d="M32.205,22.352a1.142,1.142,0,0,1-.8-1.938l.766-.766L29.223,16.7l-.766.766a1.128,1.128,0,0,1-1.246.231,1.114,1.114,0,0,1-.692-1.033V15.582H22.352v1.084a1.142,1.142,0,0,1-1.938.8l-.766-.766L16.7,19.649l.766.766a1.127,1.127,0,0,1,.231,1.246,1.114,1.114,0,0,1-1.033.692h-.042V19.092a4.178,4.178,0,0,0-3.349-4.086l-1.937-.387-.255-1.276a4.187,4.187,0,0,0,1.589-1.926h.307a2.085,2.085,0,0,0,2.083-2.083,2.06,2.06,0,0,0-.424-1.246l.168-.5A5,5,0,0,0,10.06,1h-2.5A5,5,0,0,0,2.819,7.583l.168.5a2.06,2.06,0,0,0-.424,1.246,2.085,2.085,0,0,0,2.083,2.083h.307a4.19,4.19,0,0,0,1.589,1.926l-.255,1.276-1.937.387A4.177,4.177,0,0,0,1,19.092v8.989a1.043,1.043,0,0,0,1.042,1.042v1.042a2.085,2.085,0,0,0,2.083,2.083v1.042H13.5V32.247a2.085,2.085,0,0,0,2.083-2.083V29.123a1.043,1.043,0,0,0,1.042-1.042V26.519h.042a1.142,1.142,0,0,1,.8,1.938l-.766.766,2.946,2.946.766-.766a1.142,1.142,0,0,1,1.938.8v1.084h4.166V32.205a1.142,1.142,0,0,1,1.938-.8l.766.766,2.946-2.946-.766-.766a1.127,1.127,0,0,1-.231-1.246,1.113,1.113,0,0,1,1.033-.692h1.084V22.352Zm-20.58-6.614L11.16,16.9l-1.266-.76,1.075-.537ZM8.705,18.707h.213l1.412,6.121-1.519,1.9-1.519-1.9Zm.252-1.042H8.667l-.241-.723.386-.232.386.232Zm4.021-7.291h-.036a4.191,4.191,0,0,0,.036-.521V8.291a1.042,1.042,0,0,1,0,2.083ZM14.02,6a3.948,3.948,0,0,1-.2,1.252l-.051.153a2.076,2.076,0,0,0-.787-.157H12.92A1.56,1.56,0,0,0,11.61,6.1l-1.429-.179a1.565,1.565,0,0,1-1.369-1.55V2.042H10.06A3.964,3.964,0,0,1,14.02,6ZM7.564,2.042H7.77V4.369a2.617,2.617,0,0,0,.056.537l-1.67.478a2.086,2.086,0,0,0-1.5,1.865H4.646a2.076,2.076,0,0,0-.787.157l-.051-.153A3.96,3.96,0,0,1,7.564,2.042ZM4.646,10.374a1.042,1.042,0,0,1,0-2.083V9.853a4.191,4.191,0,0,0,.036.521Zm1.042-.521V7.386a1.046,1.046,0,0,1,.756-1l1.8-.516a2.6,2.6,0,0,0,1.8,1.084l1.429.179a.522.522,0,0,1,.456.517V9.853a3.125,3.125,0,0,1-6.249,0ZM8.812,14.02a4.155,4.155,0,0,0,1.3-.211l.193.965-1.495.747-1.495-.747.193-.965A4.155,4.155,0,0,0,8.812,14.02ZM6.655,15.607l1.075.537-1.266.76L6,15.738ZM2.042,19.092a3.133,3.133,0,0,1,2.512-3.064l.406-.081.993,2.48,1.559-.935.24.721L6.165,25.085,7.729,27.04H5.166V19.748H4.125v8.333H2.042ZM3.083,30.164V29.123H4.125v2.083A1.043,1.043,0,0,1,3.083,30.164Zm2.083-2.083H8.291v4.166H5.166Zm4.166,4.166V28.081h3.125v4.166Zm5.208-2.083A1.043,1.043,0,0,1,13.5,31.206V29.123h1.042Zm1.042-2.083H13.5V19.748H12.457V27.04H9.9l1.564-1.955L9.873,18.212l.24-.721,1.559.935.993-2.48.406.081a3.132,3.132,0,0,1,2.512,3.064Zm16.665-2.6h-.042a2.184,2.184,0,0,0-1.539,3.716l.03.03L29.223,30.7l-.03-.03a2.183,2.183,0,0,0-3.716,1.538v.042H23.394v-.042a2.183,2.183,0,0,0-3.716-1.539l-.03.03-1.473-1.473.03-.03a2.183,2.183,0,0,0-1.539-3.716h-.042V23.394h.042A2.184,2.184,0,0,0,18.2,19.678l-.03-.03,1.473-1.473.03.03a2.183,2.183,0,0,0,3.716-1.538v-.042h2.083v.042A2.184,2.184,0,0,0,29.194,18.2l.03-.03L30.7,19.649l-.03.03a2.183,2.183,0,0,0,1.538,3.716h.042Z" transform="translate(-1 -1)"/>
        <path id="Trazado_900783" data-name="Trazado 900783" d="M42.646,13.341l2.821-2.351a2.3,2.3,0,0,0-1.474-4.055H43.9a2.28,2.28,0,0,0-1.257.373,2.284,2.284,0,0,0-1.257-.373H41.3a2.294,2.294,0,0,0-1.474,4.055Zm-2.236-5a1.267,1.267,0,0,1,.889-.368h.09a1.267,1.267,0,0,1,.889.368l.368.368.368-.368a1.267,1.267,0,0,1,.889-.368h.09a1.267,1.267,0,0,1,.891.371A1.249,1.249,0,0,1,44.8,10.19l-2.155,1.8-2.155-1.8a1.25,1.25,0,0,1-.081-1.846Z" transform="translate(-19.21 -3.844)"/>
      </g>
    </g>
  </g>
</svg>
