<svg xmlns="http://www.w3.org/2000/svg" width="47" height="47" viewBox="0 0 47 47">
  <g id="Grupo_1113565" data-name="Grupo 1113565" transform="translate(-306.051 -3484)">
    <rect id="Rectángulo_400898" data-name="Rectángulo 400898" width="47" height="47" rx="23.5" transform="translate(306.051 3484)" fill="#01d2b5"/>
    <g id="Grupo_1112692" data-name="Grupo 1112692" transform="translate(313.456 3459.222)">
      <g id="Shadow" transform="translate(0.251 34.594)">
        <g id="Grupo_1112690" data-name="Grupo 1112690" transform="translate(0 0)">
          <g id="Grupo_1112689" data-name="Grupo 1112689" transform="translate(0 6.369)">
            <g id="Grupo_1112667" data-name="Grupo 1112667">
              <g id="Grupo_1112665" data-name="Grupo 1112665" transform="translate(2.12)">
                <g id="Grupo_1112663" data-name="Grupo 1112663" transform="translate(0.33 0.828)">
                  <path id="Trazado_900791" data-name="Trazado 900791" d="M45.979,155.374a1.513,1.513,0,1,1-3.024,0c0-1.14.677-2.553,1.512-2.553S45.979,154.233,45.979,155.374Z" transform="translate(-42.955 -152.821)" fill="#ffcebf"/>
                </g>
                <g id="Grupo_1112664" data-name="Grupo 1112664">
                  <path id="Trazado_900792" data-name="Trazado 900792" d="M38.055,142.723c-.41-.488-.623-2.623.385-2.48.314-.83,2.385-.825,2.875.234a2.666,2.666,0,0,1-.26,2.246c-.31,0-.364-.285-.437-.749s-.452-.54-1.1-.387c-.606.143-.821-.019-.862-.166C38.339,141.608,38.5,142.723,38.055,142.723Z" transform="translate(-37.714 -139.649)" fill="#935b50"/>
                </g>
              </g>
              <g id="Grupo_1112666" data-name="Grupo 1112666" transform="translate(0 5.399)">
                <path id="Trazado_900793" data-name="Trazado 900793" d="M7.961,231.782a6.672,6.672,0,0,0,3.961-1.3l-.864-3.4a2.183,2.183,0,0,0-2.005-1.56H9.044l-1.083,1.616-1.083-1.616H6.869a2.183,2.183,0,0,0-2.005,1.56L4,230.487A6.671,6.671,0,0,0,7.961,231.782Z" transform="translate(-4 -225.522)" fill="#6fd7a3"/>
              </g>
            </g>
            <g id="Grupo_1112672" data-name="Grupo 1112672" transform="translate(23.765 0.211)">
              <g id="Grupo_1112668" data-name="Grupo 1112668" transform="translate(0 5.188)">
                <path id="Trazado_900794" data-name="Trazado 900794" d="M385.962,231.782a6.671,6.671,0,0,0,3.961-1.3l-.864-3.4a2.183,2.183,0,0,0-2.005-1.56h-.008l-1.083,1.616-1.083-1.616h-.008a2.183,2.183,0,0,0-2.005,1.56l-.864,3.4A6.671,6.671,0,0,0,385.962,231.782Z" transform="translate(-382.001 -225.522)" fill="#fd4755"/>
              </g>
              <g id="Grupo_1112671" data-name="Grupo 1112671" transform="translate(1.782)">
                <g id="Grupo_1112669" data-name="Grupo 1112669" transform="translate(0.667 0.618)">
                  <path id="Trazado_900795" data-name="Trazado 900795" d="M423.979,155.374a1.513,1.513,0,1,1-3.023,0c0-1.14.677-2.553,1.512-2.553S423.979,154.233,423.979,155.374Z" transform="translate(-420.956 -152.821)" fill="#ffcebf"/>
                </g>
                <g id="Grupo_1112670" data-name="Grupo 1112670">
                  <path id="Trazado_900796" data-name="Trazado 900796" d="M412.524,143c-2.661,0-2.137,4.454-2.137,4.454h.827a5.17,5.17,0,0,1,.426-2.316h1.768a5.169,5.169,0,0,1,.426,2.316h.827S415.186,143,412.524,143Z" transform="translate(-410.346 -142.998)" fill="#935b50"/>
                </g>
              </g>
            </g>
            <g id="Grupo_1112677" data-name="Grupo 1112677" transform="translate(4.335 2.989)">
              <g id="Grupo_1112675" data-name="Grupo 1112675" transform="translate(1.635)">
                <g id="Grupo_1112673" data-name="Grupo 1112673" transform="translate(1.261 0.82)">
                  <path id="Trazado_900797" data-name="Trazado 900797" d="M122.612,203.254a1.79,1.79,0,1,1-3.576,0c0-1.349.8-3.02,1.788-3.02S122.612,201.9,122.612,203.254Z" transform="translate(-119.036 -200.234)" fill="#ffcebf"/>
                </g>
                <g id="Grupo_1112674" data-name="Grupo 1112674">
                  <path id="Trazado_900798" data-name="Trazado 900798" d="M102.02,187.187c-2.432,0-2.638,1.894-2.655,3.133s-.88,2.393,0,2.364.857-1.923.857-1.923c.4,0,.476-1.253.974-1.1a.649.649,0,0,0,.823-.5.649.649,0,0,0,.823.5c.5-.157.57,1.1.974,1.1,0,0-.023,1.894.857,1.923s.017-1.125,0-2.364S104.453,187.187,102.02,187.187Z" transform="translate(-98.971 -187.187)" fill="#3a313a"/>
                </g>
              </g>
              <g id="Grupo_1112676" data-name="Grupo 1112676" transform="translate(0 6.227)">
                <path id="Trazado_900799" data-name="Trazado 900799" d="M77.644,293.63a7.89,7.89,0,0,0,4.685-1.533l-1.022-4.027a2.582,2.582,0,0,0-2.372-1.845h-.01l-1.281,1.911-1.281-1.911h-.01a2.582,2.582,0,0,0-2.372,1.845L72.959,292.1A7.89,7.89,0,0,0,77.644,293.63Z" transform="translate(-72.959 -286.225)" fill="#9257ff"/>
              </g>
            </g>
            <g id="Grupo_1112682" data-name="Grupo 1112682" transform="translate(17.631 2.653)">
              <g id="Grupo_1112678" data-name="Grupo 1112678" transform="translate(0 6.562)">
                <path id="Trazado_900800" data-name="Trazado 900800" d="M289.127,293.63a7.89,7.89,0,0,0,4.685-1.533l-1.022-4.027a2.582,2.582,0,0,0-2.372-1.845h-.01l-1.281,1.911-1.281-1.911h-.01a2.582,2.582,0,0,0-2.372,1.845l-1.022,4.027a7.89,7.89,0,0,0,4.685,1.533Z" transform="translate(-284.442 -286.225)" fill="#ffd15b"/>
              </g>
              <g id="Grupo_1112681" data-name="Grupo 1112681" transform="translate(2.157)">
                <g id="Grupo_1112679" data-name="Grupo 1112679" transform="translate(0.739 1.156)">
                  <path id="Trazado_900801" data-name="Trazado 900801" d="M334.094,203.254a1.79,1.79,0,1,1-3.576,0c0-1.349.8-3.02,1.788-3.02S334.094,201.9,334.094,203.254Z" transform="translate(-330.518 -200.234)" fill="#ffcebf"/>
                </g>
                <g id="Grupo_1112680" data-name="Grupo 1112680">
                  <path id="Trazado_900802" data-name="Trazado 900802" d="M323.613,184.53a.9.9,0,0,0-.452-1.35.74.74,0,0,0,.015-.15.727.727,0,0,0-1.028-.665.982.982,0,0,0-1.727,0,.729.729,0,0,0-1.013.815.9.9,0,0,0-.452,1.35.73.73,0,1,0,1.261.5.736.736,0,0,0-.02-.168.95.95,0,0,1,1.855.071.762.762,0,0,0,.32-.071.73.73,0,1,0,1.44.168A.727.727,0,0,0,323.613,184.53Z" transform="translate(-318.758 -181.851)" fill="#3a313a"/>
                </g>
              </g>
            </g>
            <g id="Grupo_1112688" data-name="Grupo 1112688" transform="translate(5.547 2.319)">
              <path id="Trazado_900803" data-name="Trazado 900803" d="M133.116,233.032a3.432,3.432,0,0,0-3.153-2.453H129.9l-.639-.24-1.011.858h0l-1.011-.857-.639.24h-.054c-1.812,0-4.967-5.8-4.967-5.8l-1.679,1.036s1.6,4.2,2.462,5.046c1.839,1.793,3.187,3.056,3.045,3.962l-.771,4.966a10.549,10.549,0,0,0,9.841-1.4Z" transform="translate(-118.159 -221.744)" fill="#01d0fb"/>
              <path id="Trazado_900804" data-name="Trazado 900804" d="M252.689,326.892h0Z" transform="translate(-242.601 -317.439)" fill="#01d0fb"/>
              <path id="Trazado_900805" data-name="Trazado 900805" d="M238.905,327.559l.38.762-.569,4.618.878,1.6.879-1.6-.569-4.618.38-.762-.689-.667Z" transform="translate(-229.507 -317.439)" fill="#9257ff"/>
              <path id="Trazado_900806" data-name="Trazado 900806" d="M228.1,314.11l1.011-.858.639.24,0,.021-.355,1.845-.6-.582Zm-.689.667.689-.667h0l-1.011-.858-.639.24,0,.021.355,1.845Z" transform="translate(-218.012 -304.657)" fill="#fd4755"/>
              <g id="Grupo_1112687" data-name="Grupo 1112687" transform="translate(6.948 0.754)">
                <g id="Grupo_1112683" data-name="Grupo 1112683" transform="translate(0.682 0.894)">
                  <path id="Trazado_900807" data-name="Trazado 900807" d="M218.354,206.773a2.379,2.379,0,1,1-4.754,0c0-1.793,1.064-4.014,2.377-4.014S218.354,204.98,218.354,206.773Z" transform="translate(-213.6 -202.759)" fill="#ffcebf"/>
                </g>
                <g id="Grupo_1112686" data-name="Grupo 1112686">
                  <g id="Grupo_1112684" data-name="Grupo 1112684" transform="translate(0 1.373)">
                    <path id="Trazado_900808" data-name="Trazado 900808" d="M203.423,213.552c-.886,0-.924-2.686.071-3.115s2.325,1.326,1.415,1.43C203.693,212.006,204.252,213.552,203.423,213.552Z" transform="translate(-202.753 -210.37)" fill="#935b50"/>
                  </g>
                  <g id="Grupo_1112685" data-name="Grupo 1112685" transform="translate(0.71)">
                    <path id="Trazado_900809" data-name="Trazado 900809" d="M218.747,193.09c-.445-.037.138-1.569-2.354-1.569s-2.814-2.245-1.839-2.987c.03.414,1.336.694,2.64.538C220.326,188.7,219.916,193.187,218.747,193.09Z" transform="translate(-214.044 -188.535)" fill="#935b50"/>
                  </g>
                </g>
              </g>
              <circle id="Elipse_12192" data-name="Elipse 12192" cx="1.516" cy="1.516" r="1.516" fill="#ffcebf"/>
            </g>
          </g>
          <path id="Trazado_900810" data-name="Trazado 900810" d="M156.4,43.612l.719-1.8a9.064,9.064,0,0,0-1.557-1.557l-1.8.719a7.4,7.4,0,0,0-1.888-.784l-.764-1.78a9.065,9.065,0,0,0-2.2,0l-.764,1.78a7.393,7.393,0,0,0-1.888.784l-1.8-.719a9.067,9.067,0,0,0-1.557,1.557l.719,1.8a7.4,7.4,0,0,0-.7,1.586,9.4,9.4,0,0,0,1.875.944,5.356,5.356,0,0,1,10.428,0A9.4,9.4,0,0,0,157.1,45.2,7.381,7.381,0,0,0,156.4,43.612Z" transform="translate(-134.169 -38.343)" fill="#3a313a"/>
        </g>
      </g>
      <g id="Base" transform="translate(1.211 34.846)">
        <g id="Grupo_1112691" data-name="Grupo 1112691" transform="translate(0 0)">
          <path id="Trazado_900811" data-name="Trazado 900811" d="M57.906,175.294c-.634,0-.935-.31-.946-.974a1.564,1.564,0,0,0,.36-.865c.044,0,.089.006.136.006a2.394,2.394,0,0,0,.544-.071,1.723,1.723,0,0,1,.382-.057h.03a1.57,1.57,0,0,0,.438,1.025.837.837,0,0,1-.945.934Z" transform="translate(-54.59 -165.099)" fill="#ffdfcf"/>
          <path id="Trazado_900812" data-name="Trazado 900812" d="M54.894,144.722a1.148,1.148,0,0,0-.868-.339,2.817,2.817,0,0,0-.643.087,1.275,1.275,0,0,1-.282.04.566.566,0,0,0-.737-.143l-.052.034a.7.7,0,0,1,.046-.138l.012-.024a.562.562,0,0,0,.065,0,.569.569,0,0,0,.529-.365c.025-.067.27-.229.725-.229a1.243,1.243,0,0,1,1.107.5A1.306,1.306,0,0,1,54.894,144.722Z" transform="translate(-50.234 -137.28)" fill="#ab695d"/>
          <path id="Trazado_900813" data-name="Trazado 900813" d="M107.321,265.781a.887.887,0,0,1-.751.493h-.039a.855.855,0,0,1-.216-.026l.116.747a2.8,2.8,0,0,1,1.083-.457Z" transform="translate(-100.842 -251.734)" fill="#9be69d"/>
          <path id="Trazado_900814" data-name="Trazado 900814" d="M22.579,235.123a6.139,6.139,0,0,1-1.663-.228l.415-2.683a.566.566,0,1,0-1.118-.173l-.377,2.437a6.142,6.142,0,0,1-.572-.326l.767-3.023a1.641,1.641,0,0,1,1.185-1.1l.894,1.333a.566.566,0,0,0,.94,0l.894-1.333a1.589,1.589,0,0,1,.473.2,5.059,5.059,0,0,1-.221,1.093c-.029.1-.059.21-.085.314a.567.567,0,0,0-.281.58l.241,1.555a2.874,2.874,0,0,0-.641,1.184l-.03.118a6.2,6.2,0,0,1-.818.055Z" transform="translate(-19.263 -218.226)" fill="#9be69d"/>
          <path id="Trazado_900815" data-name="Trazado 900815" d="M405.239,235.122a6.2,6.2,0,0,1-1.183-.114l-.015-.059a2.738,2.738,0,0,0-.35-.8l.3-1.939a.566.566,0,1,0-1.118-.173l-.174,1.126a3.254,3.254,0,0,0-.462-.246l.455-1.791a1.64,1.64,0,0,1,1.185-1.1l.894,1.333a.566.566,0,0,0,.94,0l.894-1.333a1.641,1.641,0,0,1,1.184,1.1l.767,3.023a6.146,6.146,0,0,1-.572.326l-.377-2.437a.566.566,0,0,0-1.118.173l.415,2.683A6.14,6.14,0,0,1,405.239,235.122Z" transform="translate(-378.158 -218.226)" fill="#fe646f"/>
          <path id="Trazado_900816" data-name="Trazado 900816" d="M439.2,182.483a.936.936,0,0,1-.725-.255,5.284,5.284,0,0,1,.224-1.223h1a5.226,5.226,0,0,1,.222,1.223A.935.935,0,0,1,439.2,182.483Z" transform="translate(-412.117 -172.287)" fill="#ffdfcf"/>
          <path id="Trazado_900817" data-name="Trazado 900817" d="M427.149,148.413a2.44,2.44,0,0,1,.489-1.012,1.317,1.317,0,0,1,1.9,0,2.436,2.436,0,0,1,.488,1.009c-.027-.06-.047-.1-.055-.112a.566.566,0,0,0-.5-.293H427.7a.566.566,0,0,0-.5.293C427.2,148.313,427.177,148.351,427.149,148.413Z" transform="translate(-401.505 -140.418)" fill="#ab695d"/>
          <path id="Trazado_900818" data-name="Trazado 900818" d="M160.311,225.816c-.061-.138-.173-.394-.244-.427l-.006,0a.923.923,0,0,1-.276.044.841.841,0,0,1-.173-.018c.233.4.6,1.01,1.026,1.667a2.407,2.407,0,0,0,.062-.57c0-.033,0-.066,0-.1A1.421,1.421,0,0,1,160.311,225.816Z" transform="translate(-150.788 -213.881)" fill="#ffdfcf"/>
          <path id="Trazado_900819" data-name="Trazado 900819" d="M155.26,193.73a.562.562,0,0,0-.083-.041c-.038-.072-.087-.184-.109-.233-.16-.365-.4-.916-.99-.916a.845.845,0,0,0-.253.04.111.111,0,0,1-.031.006c-.016,0-.048-.032-.064-.059a.562.562,0,0,0-.511-.47,2.089,2.089,0,0,0,.06-.848C154.873,191.251,155.232,192.246,155.26,193.73Z" transform="translate(-144.797 -181.85)" fill="#685e68"/>
          <path id="Trazado_900820" data-name="Trazado 900820" d="M119.324,228.715l.038,0-.039.028C119.323,228.735,119.324,228.725,119.324,228.715Z" transform="translate(-113.032 -216.998)" fill="#685e68"/>
          <path id="Trazado_900821" data-name="Trazado 900821" d="M201.622,370.944a.782.782,0,0,1,.124.453v.009l-.047.023Z" transform="translate(-190.157 -350.285)" fill="#be9bff"/>
          <path id="Trazado_900822" data-name="Trazado 900822" d="M92.255,296.889a7.362,7.362,0,0,1-2.084-.3l.5-3.263a.566.566,0,0,0-.473-.646.574.574,0,0,0-.087-.007.563.563,0,0,0-.559.479l-.468,3.022a7.359,7.359,0,0,1-.875-.494l.926-3.648a2.076,2.076,0,0,1,1.549-1.392l1.1,1.634a.566.566,0,0,0,.644.223,2.085,2.085,0,0,0,.158.174l.245.238c.393.383.766.746,1.106,1.09l.4,2.588A7.36,7.36,0,0,1,92.255,296.889Z" transform="translate(-83.88 -275.032)" fill="#be9bff"/>
          <path id="Trazado_900823" data-name="Trazado 900823" d="M317.842,296.889c-.2,0-.409-.009-.614-.025l-.65-2.561a3.41,3.41,0,0,0-.338-.834l.022-.143a.566.566,0,0,0-.473-.646.573.573,0,0,0-.087-.007l-.054,0a4.261,4.261,0,0,0-.9-.715,2.1,2.1,0,0,1,1.528-1.32l1.1,1.634a.566.566,0,0,0,.94,0l1.1-1.634a2.075,2.075,0,0,1,1.549,1.392l.926,3.648a7.363,7.363,0,0,1-.875.494l-.468-3.022a.563.563,0,0,0-.558-.479.576.576,0,0,0-.088.007.566.566,0,0,0-.472.646l.505,3.263a7.363,7.363,0,0,1-2.084.3Z" transform="translate(-296.171 -275.032)" fill="#fee45a"/>
          <path id="Trazado_900824" data-name="Trazado 900824" d="M345.811,233.075a1.066,1.066,0,0,1-1.218-1.136,1.3,1.3,0,0,0,.633-.7.855.855,0,0,1,1.168,0,1.3,1.3,0,0,0,.633.7A1.066,1.066,0,0,1,345.811,233.075Z" transform="translate(-324.139 -219.144)" fill="#ffdfcf"/>
          <path id="Trazado_900825" data-name="Trazado 900825" d="M336.519,188.629a.164.164,0,0,1-.164-.164.171.171,0,0,1,.005-.039.566.566,0,0,0-.551-.695.562.562,0,0,0-.237.052.2.2,0,0,1-.083.019.2.2,0,0,1-.2-.2.566.566,0,1,0-1.132,0,.2.2,0,0,1-.2.2.2.2,0,0,1-.083-.019.566.566,0,0,0-.595.075.569.569,0,0,0-.193.567.169.169,0,0,1,.005.039.164.164,0,0,1-.329,0,.161.161,0,0,1,.045-.112.563.563,0,0,0,.06-.7.336.336,0,0,1,.169-.5.568.568,0,0,0,.365-.65.164.164,0,0,1,.161-.2.159.159,0,0,1,.066.015.566.566,0,0,0,.73-.246.416.416,0,0,1,.732,0,.566.566,0,0,0,.73.246.157.157,0,0,1,.066-.015.165.165,0,0,1,.164.164.17.17,0,0,1,0,.035.568.568,0,0,0,.366.648.336.336,0,0,1,.169.5.563.563,0,0,0,.06.7.161.161,0,0,1,.045.112A.164.164,0,0,1,336.519,188.629Z" transform="translate(-313.05 -176.829)" fill="#685e68"/>
          <path id="Trazado_900826" data-name="Trazado 900826" d="M143.644,246.636a9.953,9.953,0,0,1-2.981-.454l.7-4.5c.181-1.154-1.07-2.372-2.965-4.216l-.244-.238a20.1,20.1,0,0,1-2.159-4.406l.778-.48c.318.549.888,1.5,1.543,2.436,1.293,1.848,2.319,2.838,3.2,3.082l.283,1.468a.566.566,0,0,0,.938.31l-.532,4.311a.563.563,0,0,0,.065.341l.879,1.6a.566.566,0,0,0,.992,0l.879-1.6a.564.564,0,0,0,.065-.341l-.532-4.311a.566.566,0,0,0,.938-.31l.264-1.372a2.855,2.855,0,0,1,2.211,1.991l1.263,4.977a9.986,9.986,0,0,1-1.523.849l-.66-4.263a.563.563,0,0,0-.559-.479.566.566,0,0,0-.56.652l.7,4.5A9.966,9.966,0,0,1,143.644,246.636Z" transform="translate(-128.654 -220.4)" fill="#62dbfb"/>
          <path id="Trazado_900827" data-name="Trazado 900827" d="M253,380.679l.295-2.389.295,2.389-.295.537Z" transform="translate(-238.309 -357.169)" fill="#be9bff"/>
          <path id="Trazado_900828" data-name="Trazado 900828" d="M271.084,320.708l.128-.109-.038.2Z" transform="translate(-255.252 -303.105)" fill="#fe646f"/>
          <path id="Trazado_900829" data-name="Trazado 900829" d="M242.253,320.6l.128.109-.091.088Z" transform="translate(-228.234 -303.104)" fill="#fe646f"/>
          <path id="Trazado_900830" data-name="Trazado 900830" d="M229.415,241.743c-1.2,0-1.8-.612-1.811-1.87a1.554,1.554,0,0,0,.535-.931c.118-.426.176-.533.352-.574a3.935,3.935,0,0,0,.923.105c1.337,0,1.467.436,1.582.82a1.327,1.327,0,0,0,.23.49q0,.023,0,.045C231.226,241.117,230.634,241.743,229.415,241.743Z" transform="translate(-214.506 -226.044)" fill="#ffdfcf"/>
          <path id="Trazado_900831" data-name="Trazado 900831" d="M216.841,225.223a1.424,1.424,0,0,1-.049-.18,2.658,2.658,0,0,1,.03-1.116,2.372,2.372,0,0,0,.385.384,2.565,2.565,0,0,0-.332.8C216.862,225.151,216.851,225.189,216.841,225.223Z" transform="translate(-204.331 -212.511)" fill="#ab695d"/>
          <path id="Trazado_900832" data-name="Trazado 900832" d="M232.339,199.711c-.238-.55-.8-1.245-2.532-1.245-1.27,0-1.628-.655-1.723-.937a1.1,1.1,0,0,1-.024-.645,4.783,4.783,0,0,0,1.81.309,6.834,6.834,0,0,0,.806-.047,2.489,2.489,0,0,1,.291-.018c1.387,0,1.494,1.38,1.495,1.8A2.386,2.386,0,0,1,232.339,199.711Z" transform="translate(-214.897 -187.169)" fill="#ab695d"/>
          <path id="Trazado_900833" data-name="Trazado 900833" d="M107.185,182.444a.95.95,0,1,1,.95-.95A.951.951,0,0,1,107.185,182.444Z" transform="translate(-100.767 -171.854)" fill="#ffdfcf"/>
          <path id="Trazado_900834" data-name="Trazado 900834" d="M170.261,48.816a5.922,5.922,0,0,0-5.578-3.936,5.934,5.934,0,0,0-3.705,1.3,5.994,5.994,0,0,0-1.873,2.633,8.757,8.757,0,0,1-.83-.425,6.843,6.843,0,0,1,.5-1.057l.14-.239-.7-1.749a8.53,8.53,0,0,1,1.007-1.007l1.749.7.239-.141a6.834,6.834,0,0,1,1.744-.724l.268-.07.742-1.729c.238-.02.477-.03.712-.03s.474.01.712.03l.743,1.729.268.07a6.832,6.832,0,0,1,1.744.724l.239.141,1.749-.7a8.52,8.52,0,0,1,1.007,1.007l-.7,1.749.141.239a6.82,6.82,0,0,1,.5,1.057,8.765,8.765,0,0,1-.83.424Z" transform="translate(-149.485 -42.345)" fill="#685e68"/>
        </g>
      </g>
      <g id="Outline" transform="translate(0 34.343)">
        <path id="Trazado_900835" data-name="Trazado 900835" d="M31.318,142.8a2.443,2.443,0,0,0-2.249-1.749H29.06a.251.251,0,0,0-.209.111l-.874,1.3-.874-1.3a.251.251,0,0,0-.209-.111h-.008a2.371,2.371,0,0,0-1.541.626.975.975,0,0,0-.15-.464,1.153,1.153,0,0,0-.484-1.481.983.983,0,0,0-.982-.978.96.96,0,0,0-.194.02,1.234,1.234,0,0,0-1.935,0,.96.96,0,0,0-.194-.02.983.983,0,0,0-.982.978,1.153,1.153,0,0,0-.484,1.481.98.98,0,0,0,.589,1.474c0,.015,0,.03,0,.046a1.91,1.91,0,0,0,2.04,2.117,1.874,1.874,0,0,0,1.8-.993l-.26,1.026a2.276,2.276,0,0,0-.25-.014h-.01a.251.251,0,0,0-.209.111l-1.072,1.6-1.073-1.6a.251.251,0,0,0-.209-.111h-.01a2.842,2.842,0,0,0-2.616,2.035l-.022.086A3.176,3.176,0,0,0,17.6,146.8h-.021l-.6-.224a.251.251,0,0,0-.251.044l-.848.72-.848-.719a.251.251,0,0,0-.251-.044l-.6.224h-.008c-.342,0-1.111-.306-2.544-2.224a.823.823,0,0,0,.279.057h.04a.6.6,0,0,0,.505-.211c.2-.265.091-.657-.049-1.153a4.934,4.934,0,0,1-.236-1.256,4.513,4.513,0,0,0-.454-2.152,2.59,2.59,0,0,0-2.452-1.229,4.248,4.248,0,0,0-.546.035,1.765,1.765,0,0,0-2.466-.354,2.554,2.554,0,0,0-.06-1.7,2.008,2.008,0,0,0-1.849-.974,1.628,1.628,0,0,0-1.4.589.788.788,0,0,0-.667.5,2.978,2.978,0,0,0,.178,2.316c-.005.077-.008.154-.008.23a1.651,1.651,0,0,0,1.763,1.828,1.654,1.654,0,0,0,1.468-.7,1.777,1.777,0,0,0,.729.846q-.006.05-.01.1a2.237,2.237,0,0,0-1.1-.305H5.3a.251.251,0,0,0-.209.111l-.874,1.3-.874-1.3a.251.251,0,0,0-.209-.111H3.121A2.444,2.444,0,0,0,.872,142.8l-.864,3.4a.251.251,0,0,0,.095.265,6.9,6.9,0,0,0,4.11,1.345,7.051,7.051,0,0,0,.938-.064l-.807,3.179a.251.251,0,0,0,.095.265,8.188,8.188,0,0,0,8.238.842l-.651,4.192a.251.251,0,0,0,.162.275,10.8,10.8,0,0,0,10.076-1.434.251.251,0,0,0,.095-.265l-.523-2.061c.242.021.486.033.733.033a8.114,8.114,0,0,0,4.834-1.581.252.252,0,0,0,.095-.265l-.821-3.237a7.019,7.019,0,0,0,1.3.122,6.9,6.9,0,0,0,4.109-1.344.251.251,0,0,0,.095-.265Zm-.843,4.009-.441-2.849a.251.251,0,0,0-.5.077l.457,2.952a6.5,6.5,0,0,1-3.456.161l-.063-.248a2.471,2.471,0,0,0-.375-.8l.319-2.06a.251.251,0,1,0-.5-.077l-.255,1.648a2.951,2.951,0,0,0-1.066-.621l.524-2.064a1.954,1.954,0,0,1,1.639-1.365l1.005,1.5a.251.251,0,0,0,.418,0l1-1.5a1.954,1.954,0,0,1,1.639,1.365l.822,3.238a6.431,6.431,0,0,1-1.178.647ZM25.485,151.7l-.531-3.428a.251.251,0,0,0-.5.077l.546,3.53a7.662,7.662,0,0,1-2.436.395,7.8,7.8,0,0,1-.864-.048l-.7-2.775a3.135,3.135,0,0,0-.361-.849l.039-.253a.251.251,0,0,0-.4-.24,3.917,3.917,0,0,0-1.172-.92l.041-.162a2.359,2.359,0,0,1,2.007-1.651l1.2,1.8a.251.251,0,0,0,.418,0l1.2-1.8a2.358,2.358,0,0,1,2.007,1.651l.98,3.861a7.66,7.66,0,0,1-1.482.812ZM19.7,155.92l-.722-4.662a.251.251,0,1,0-.5.077l.737,4.763a10.344,10.344,0,0,1-6.664,0l.739-4.76c.156-.994-1.049-2.167-2.873-3.943l-.244-.238c-.643-.627-1.833-3.484-2.328-4.761l1.278-.789c.266.471.916,1.588,1.689,2.694,1.332,1.9,2.385,2.886,3.213,3l.322,1.673a.251.251,0,0,0,.422.133l.355-.343.193.387-.56,4.543a.251.251,0,0,0,.029.152l.879,1.6a.252.252,0,0,0,.441,0l.879-1.6a.252.252,0,0,0,.029-.152l-.56-4.543.193-.387L17,149.1a.251.251,0,0,0,.422-.133l.319-1.658a3.173,3.173,0,0,1,2.769,2.259l1.317,5.188A10.259,10.259,0,0,1,19.7,155.92ZM7.172,148.058a.251.251,0,0,0-.287.21l-.53,3.428a7.653,7.653,0,0,1-1.482-.812l.98-3.861a2.359,2.359,0,0,1,2.007-1.651l1.2,1.8a.251.251,0,0,0,.418,0l.029-.044a2.608,2.608,0,0,0,.314.391l.245.238c.424.413.825.8,1.182,1.167l.457,2.955a7.71,7.71,0,0,1-4.872,0l.546-3.53a.251.251,0,0,0-.21-.287Zm-4.729-4.31a.251.251,0,0,0-.287.21l-.441,2.849a6.434,6.434,0,0,1-1.178-.648l.822-3.238A1.955,1.955,0,0,1,3,141.556l1,1.5a.251.251,0,0,0,.418,0l1.005-1.5a1.869,1.869,0,0,1,.941.377c0,.029,0,.058,0,.086a4.934,4.934,0,0,1-.236,1.256c-.048.17-.092.327-.122.472l-.027,0a.251.251,0,0,0-.21.287l.264,1.7a2.607,2.607,0,0,0-.67,1.16l-.081.32a6.477,6.477,0,0,1-3.087-.232l.457-2.952a.252.252,0,0,0-.21-.287Zm1.769-3.141a1.156,1.156,0,0,1-1.26-1.325c0-.039,0-.078,0-.117.254-.148.322-.532.373-.83.013-.074.03-.173.05-.26a.939.939,0,0,0,.384.071,2.083,2.083,0,0,0,.472-.062,2.058,2.058,0,0,1,.455-.065c.252,0,.312.083.337.247.059.372.124.783.445.917,0,.033,0,.067,0,.1A1.156,1.156,0,0,1,4.212,140.607Zm-1.477-3.659c.086-.185.189-.208.269-.208a.415.415,0,0,1,.058,0,.252.252,0,0,0,.27-.16c.1-.254.515-.432,1.019-.432a1.527,1.527,0,0,1,1.392.682,2.352,2.352,0,0,1-.128,1.794,2.726,2.726,0,0,1-.093-.441.758.758,0,0,0-.834-.671,2.514,2.514,0,0,0-.571.079,1.586,1.586,0,0,1-.356.049.34.34,0,0,1-.207-.044.251.251,0,0,0-.368-.143c-.241.142-.3.473-.354.793-.014.082-.035.2-.061.3a2.6,2.6,0,0,1-.037-1.6Zm4.58,1.524a1.265,1.265,0,1,1-1.265,1.265,1.266,1.266,0,0,1,1.265-1.265Zm4.748,5.65a.269.269,0,0,1-.105.014h-.023c-.477-.015-.62-1.131-.614-1.668a.252.252,0,0,0-.234-.254,1.531,1.531,0,0,1-.207-.383c-.142-.324-.32-.728-.7-.728a.533.533,0,0,0-.159.025.419.419,0,0,1-.125.021.424.424,0,0,1-.372-.3.252.252,0,0,0-.251-.23h0a.251.251,0,0,0-.25.23.382.382,0,0,1-.5.281.549.549,0,0,0-.095-.02,1.764,1.764,0,0,0,.554-1.955c.093-.007.188-.011.289-.011,2.083,0,2.384,1.458,2.4,2.885a5.4,5.4,0,0,0,.255,1.385A2.122,2.122,0,0,1,12.063,144.121Zm3.883,5.011.559,4.537-.619,1.129-.619-1.129.559-4.537a.251.251,0,0,0-.025-.143l-.3-.6.382-.37.382.37-.3.6a.252.252,0,0,0-.024.143Zm1.3-1.916-.231,1.2-.757-.733.687-.582Zm-2.494,1.2-.231-1.2.3-.114.686.582Zm-3.947-5.688a2.407,2.407,0,0,1-.062.57c-.43-.657-.792-1.263-1.026-1.667a.842.842,0,0,0,.173.018.923.923,0,0,0,.276-.044l.006,0c.071.033.183.289.244.427a1.42,1.42,0,0,0,.387.6C10.808,142.664,10.808,142.7,10.808,142.729Zm-2.727,2.152-.106-.419a1.726,1.726,0,0,0,.247.154c.189.431.394.876.6,1.289l-.623-.929A.252.252,0,0,0,8.082,144.881Zm-1.712-.269a.854.854,0,0,0,.216.026h.039a.887.887,0,0,0,.751-.493l.192.758a2.8,2.8,0,0,0-1.083.457Zm.945-3.108a1.76,1.76,0,0,0,.561-.092,2.774,2.774,0,0,0-.213.418c-.015.035-.034.076-.053.119l-.2.126a1.687,1.687,0,0,0-.183.392c.007.538-.135,1.653-.614,1.668H6.586a.268.268,0,0,1-.105-.014,2.119,2.119,0,0,1,.133-.71,5.409,5.409,0,0,0,.255-1.385c0-.192.011-.383.027-.572a1.767,1.767,0,0,0,.419.051ZM12.189,151.7l-.33-2.131c.627.7,1,1.275.937,1.693l-.026.169Q12.484,151.574,12.189,151.7ZM24.1,142.729a1.408,1.408,0,0,1-1.537,1.614,1.408,1.408,0,0,1-1.537-1.614c0-.016,0-.033,0-.05a.984.984,0,0,0,.708-.794l.06,0a1.017,1.017,0,0,0,.767-.349,1.017,1.017,0,0,0,.767.349l.06,0a.984.984,0,0,0,.708.794c0,.017,0,.033,0,.05Zm-3.813-1a.477.477,0,0,1,.131-.328.251.251,0,0,0,.027-.312.651.651,0,0,1,.326-.974.252.252,0,0,0,.162-.289.479.479,0,0,1,.468-.577.472.472,0,0,1,.2.043.251.251,0,0,0,.324-.109.731.731,0,0,1,1.285,0,.252.252,0,0,0,.324.109.471.471,0,0,1,.195-.043.479.479,0,0,1,.479.479.49.49,0,0,1-.01.1.251.251,0,0,0,.163.288.65.65,0,0,1,.326.974.252.252,0,0,0,.026.312.479.479,0,1,1-.813.217.252.252,0,0,0-.35-.286.509.509,0,0,1-.215.048.517.517,0,0,1-.516-.516.251.251,0,0,0-.5,0,.517.517,0,0,1-.516.516.51.51,0,0,1-.215-.048.251.251,0,0,0-.35.286.479.479,0,1,1-.944.111Zm4.315.95c.024-.006.047-.013.07-.02-.015.044-.028.089-.04.134l-.036.143c0-.069.007-.139.007-.212C24.607,142.714,24.607,142.7,24.607,142.684Z" transform="translate(0 -129.28)"/>
        <path id="Trazado_900836" data-name="Trazado 900836" d="M406.62,143.956h.827a.249.249,0,0,0,.161-.06,2.046,2.046,0,0,0,2.3,0,.249.249,0,0,0,.161.06h.827a.252.252,0,0,0,.25-.222c.013-.113.312-2.776-.828-4.057a2.133,2.133,0,0,0-3.118,0c-1.14,1.282-.841,3.945-.828,4.057A.251.251,0,0,0,406.62,143.956Zm2.137-4.454a1.5,1.5,0,0,1,1.183.508c.817.918.767,2.8.723,3.443h-.348a5.16,5.16,0,0,0-.453-2.186.252.252,0,0,0-.22-.13h-1.768a.252.252,0,0,0-.22.13,5.16,5.16,0,0,0-.453,2.186h-.349c-.044-.644-.095-2.523.723-3.442A1.5,1.5,0,0,1,408.756,139.5Zm-1.046,3.773a5.217,5.217,0,0,1,.324-1.635h1.445a5.141,5.141,0,0,1,.323,1.634,1.4,1.4,0,0,1-2.092,0Z" transform="translate(-380.779 -132.419)"/>
        <path id="Trazado_900837" data-name="Trazado 900837" d="M205.538,187.67a2.344,2.344,0,0,0-2.312-2.62,3.3,3.3,0,0,0-.388.024,6.037,6.037,0,0,1-.709.042h0a2.59,2.59,0,0,1-1.651-.357.251.251,0,0,0-.4-.173,1.681,1.681,0,0,0-.6,1.506,2.674,2.674,0,0,0-.658,2.514,1.181,1.181,0,0,0,.622.943c0,.048,0,.1,0,.145a2.631,2.631,0,1,0,5.257,0c0-.046,0-.093,0-.14C205.244,189.361,205.538,188.493,205.538,187.67Zm-3.471,4.252a1.946,1.946,0,0,1-2.126-2.228c0-.049,0-.1,0-.147.351-.131.461-.523.544-.824.127-.459.23-.747.666-.811a3.574,3.574,0,0,0,.913.113c1.571,0,1.751.6,1.883,1.045a.833.833,0,0,0,.239.445c0,.061,0,.121,0,.181A1.946,1.946,0,0,1,202.067,191.922Zm-2.454-5.274a2.031,2.031,0,0,0,.9,1,1.722,1.722,0,0,0-.505.937c-.117.421-.169.5-.326.5s-.293-.23-.366-.585A2.573,2.573,0,0,1,199.613,186.648Zm4.872,2.441c-.017-.042-.038-.11-.054-.164-.146-.491-.419-1.4-2.365-1.4-1.474,0-1.9-.8-2.021-1.151a1.321,1.321,0,0,1,.145-1.19,3.454,3.454,0,0,0,1.939.439h0a6.519,6.519,0,0,0,.769-.045,2.787,2.787,0,0,1,.329-.02c1.721,0,1.809,1.763,1.809,2.117C205.035,188.444,204.746,189.049,204.485,189.089Z" transform="translate(-186.26 -175.092)"/>
        <path id="Trazado_900838" data-name="Trazado 900838" d="M153.04,37.908a9.319,9.319,0,0,0-1.6-1.6l-.114-.089-1.821.727a7.652,7.652,0,0,0-1.725-.716l-.773-1.8-.144-.017a9.307,9.307,0,0,0-2.262,0l-.144.017-.773,1.8a7.645,7.645,0,0,0-1.726.716l-1.821-.727-.114.089a9.326,9.326,0,0,0-1.6,1.6l-.089.114.727,1.821a7.663,7.663,0,0,0-.659,1.533l-.055.179.156.1a9.65,9.65,0,0,0,1.925.97l.269.1.065-.28a5.1,5.1,0,0,1,9.938,0l.065.28.269-.1a9.647,9.647,0,0,0,1.925-.97l.156-.1-.055-.179a7.648,7.648,0,0,0-.659-1.533l.727-1.821Zm-1.2,1.976.063.106a7.135,7.135,0,0,1,.616,1.352,9.1,9.1,0,0,1-1.4.713,5.607,5.607,0,0,0-10.771,0,9.108,9.108,0,0,1-1.4-.713,7.155,7.155,0,0,1,.616-1.352l.062-.106-.71-1.779a8.822,8.822,0,0,1,1.311-1.311L142,37.5l.106-.063a7.145,7.145,0,0,1,1.824-.757l.119-.031L144.8,34.9a8.813,8.813,0,0,1,1.855,0l.755,1.759.119.031a7.149,7.149,0,0,1,1.824.757l.106.063,1.779-.711a8.819,8.819,0,0,1,1.311,1.311Z" transform="translate(-129.637 -34.343)"/>
      </g>
    </g>
  </g>
</svg>
