<svg xmlns="http://www.w3.org/2000/svg" width="75.031" height="76.215" viewBox="0 0 75.031 76.215">
  <g id="Grupo_1112699" data-name="Grupo 1112699" transform="translate(-9 -1.203)">
    <g id="Grupo_1112698" data-name="Grupo 1112698" transform="translate(10.063 1.203)">
      <g id="Grupo_1112695" data-name="Grupo 1112695" transform="translate(0 0.013)">
        <path id="Trazado_900845" data-name="Trazado 900845" d="M20.462,142.75H42.425a4.475,4.475,0,0,1,4.462,4.462v21.322A4.475,4.475,0,0,1,42.425,173h-1.74v21.889a1.522,1.522,0,0,1-1.519,1.519H23.72a1.522,1.522,0,0,1-1.519-1.519V173h-1.74A4.475,4.475,0,0,1,16,168.534V147.212A4.475,4.475,0,0,1,20.462,142.75Z" transform="translate(-16 -121.265)" fill="#4fc0e8" fill-rule="evenodd"/>
        <circle id="Elipse_12193" data-name="Elipse 12193" cx="7.263" cy="7.263" r="7.263" transform="translate(5.956 5.563) rotate(-22.514)" fill="#efc7a4"/>
      </g>
      <g id="Grupo_1112696" data-name="Grupo 1112696" transform="translate(42.017 0)">
        <path id="Trazado_900846" data-name="Trazado 900846" d="M297.1,142.75h21.964a4.475,4.475,0,0,1,4.462,4.462v21.322a4.477,4.477,0,0,1-3.964,4.433l.63,6.155a1.519,1.519,0,0,1-1.511,1.673h-1.356v14.088a1.522,1.522,0,0,1-1.519,1.519H300.362a1.522,1.522,0,0,1-1.519-1.519V180.8h-1.356a1.519,1.519,0,0,1-1.511-1.673l.63-6.155a4.477,4.477,0,0,1-3.964-4.433V147.212A4.475,4.475,0,0,1,297.1,142.75Z" transform="translate(-292.642 -121.251)" fill="#f76c82" fill-rule="evenodd"/>
        <circle id="Elipse_12194" data-name="Elipse 12194" cx="7.263" cy="7.263" r="7.263" transform="translate(5.961 5.563) rotate(-22.514)" fill="#efc7a4"/>
      </g>
      <g id="Grupo_1112697" data-name="Grupo 1112697" transform="translate(20.092 26.025)">
        <circle id="Elipse_12195" data-name="Elipse 12195" cx="4.622" cy="4.622" r="4.622" transform="translate(10.602 8.846) rotate(-73.142)" fill="#efc7a4"/>
        <path id="Trazado_900847" data-name="Trazado 900847" d="M160.285,232.823h8.725a1.522,1.522,0,0,0,1.519-1.519V203.148a1.461,1.461,0,0,1,.32-.933l9.615-12.36a2.58,2.58,0,1,0-4.075-3.167l-8.873,11.4a1.475,1.475,0,0,1-1.2.586h-3.341a1.474,1.474,0,0,1-1.2-.586l-8.873-11.4a2.58,2.58,0,1,0-4.075,3.167l9.615,12.359a1.46,1.46,0,0,1,.32.933V231.3A1.522,1.522,0,0,0,160.285,232.823Z" transform="translate(-148.288 -183.696)" fill="#c6ea94" fill-rule="evenodd"/>
      </g>
    </g>
    <path id="Trazado_900848" data-name="Trazado 900848" d="M46.516,36.035a3.559,3.559,0,1,1-3.559,3.558A3.562,3.562,0,0,1,46.516,36.035Zm0,9.244a5.685,5.685,0,1,0-5.685-5.685A5.691,5.691,0,0,0,46.516,45.279ZM67.524,11.126a6.2,6.2,0,1,1-6.2,6.2A6.206,6.206,0,0,1,67.524,11.126Zm0,14.526A8.326,8.326,0,1,0,59.2,17.326,8.335,8.335,0,0,0,67.524,25.652ZM75.7,81.9H68.587V68.425H75.7ZM59.345,68.425h7.115V81.9H59.345ZM47.578,81.9h3.755V52.771a1.063,1.063,0,0,1,.223-.651l9.936-12.772a1.518,1.518,0,0,0-2.4-1.862L49.768,49.479a1.069,1.069,0,0,1-.841.41H44.1a1.067,1.067,0,0,1-.84-.41L33.934,37.488a1.517,1.517,0,1,0-2.4,1.86L41.473,52.12a1.062,1.062,0,0,1,.224.651V81.9h3.756V68.165a1.063,1.063,0,1,1,2.126,0V81.9ZM78.505,28.252H56.541a5.532,5.532,0,0,0-5.525,5.525,1.063,1.063,0,0,0,2.127,0,3.4,3.4,0,0,1,3.4-3.4H78.505a3.4,3.4,0,0,1,3.4,3.4V55.1a3.393,3.393,0,0,1-1.972,3.082l-2.11-20.624a1.063,1.063,0,0,0-2.115.215L78.627,66.3H56.421l1.251-12.245a1.063,1.063,0,1,0-2.114-.216l-.445,4.343a3.4,3.4,0,0,1-1.654-1.659V53.137l9.711-12.483a3.644,3.644,0,1,0-5.753-4.473L48.408,47.762H44.622l-9.01-11.581a3.644,3.644,0,1,0-5.753,4.473L39.57,53.137v3.381A3.433,3.433,0,0,1,36.488,58.5h-.676V53.946a1.063,1.063,0,1,0-2.126,0V81.9H26.569v-22.2a1.063,1.063,0,0,0-2.127,0V81.9H17.326V37.664a1.063,1.063,0,0,0-2.126,0V58.5h-.676a3.4,3.4,0,0,1-3.4-3.4V33.777a3.4,3.4,0,0,1,3.4-3.4H36.488a3.4,3.4,0,0,1,3.4,3.4,1.063,1.063,0,1,0,2.126,0,5.531,5.531,0,0,0-5.524-5.525H14.524A5.531,5.531,0,0,0,9,33.777V55.1a5.53,5.53,0,0,0,5.524,5.525H15.2V82.968a1.063,1.063,0,0,0,1.063,1.063H34.749a1.063,1.063,0,0,0,1.063-1.063V60.624h.676a5.5,5.5,0,0,0,3.082-.937V82.968a1.063,1.063,0,0,0,1.063,1.063H52.4a1.064,1.064,0,0,0,1.063-1.063V59.681a5.441,5.441,0,0,0,1.43.688l-.7,6.884a1.064,1.064,0,0,0,1.058,1.172h1.975V82.968a1.062,1.062,0,0,0,1.063,1.063H76.766a1.063,1.063,0,0,0,1.063-1.063V68.425H79.8a1.064,1.064,0,0,0,1.057-1.172l-.7-6.88A5.524,5.524,0,0,0,84.031,55.1V33.777a5.531,5.531,0,0,0-5.525-5.525Zm-53-17.126a6.2,6.2,0,1,1-6.2,6.2A6.207,6.207,0,0,1,25.505,11.126Zm0,14.526a8.326,8.326,0,1,0-8.325-8.326A8.335,8.335,0,0,0,25.505,25.652Z" transform="translate(0 -6.613)" fill-rule="evenodd"/>
  </g>
</svg>
