<svg xmlns="http://www.w3.org/2000/svg" width="48.938" height="48.93" viewBox="0 0 48.938 48.93">
  <g id="Grupo_1112702" data-name="Grupo 1112702" transform="translate(-1 -1.009)">
    <path id="Trazado_900866" data-name="Trazado 900866" d="M46.781,31.009V21.261a9.472,9.472,0,1,0-18.944,0V28.83a6.288,6.288,0,0,0-7.289,1.9H16.786v-.868A3.954,3.954,0,0,0,19.944,26v-.789h.789a2.368,2.368,0,0,0,0-4.736h-.789V18.1a7.112,7.112,0,0,0-7.1-7.1H4.947a.789.789,0,0,0-.789.789v3.157a3.954,3.954,0,0,0,3.157,3.868v1.658H6.525a2.368,2.368,0,0,0,0,4.736h.789V26a3.954,3.954,0,0,0,3.157,3.868v.868H5.736A4.741,4.741,0,0,0,1,35.469V51.255a.789.789,0,0,0,.789.789H49.148a.789.789,0,0,0,.789-.789V35.469a4.736,4.736,0,0,0-3.157-4.46ZM29.416,21.261a7.893,7.893,0,0,1,15.786,0v9.472H40.466v-.868A3.954,3.954,0,0,0,43.623,26v-7.1a.789.789,0,0,0-.789-.789H40a1.3,1.3,0,0,1-.185-.009,9.017,9.017,0,0,0,1.205-1.012l-1.116-1.116A7.246,7.246,0,0,1,34.75,18.1H31.783a.789.789,0,0,0-.789.789V26a3.954,3.954,0,0,0,3.157,3.868v.868H30.39a6.394,6.394,0,0,0-.975-.975Zm10.261,7.1H34.941A2.368,2.368,0,0,1,32.573,26V19.683H34.75a8.866,8.866,0,0,0,3.269-.62,3.456,3.456,0,0,0,1.984.62h2.041V26a2.368,2.368,0,0,1-2.368,2.368ZM35.73,29.944h3.157v1.579a1.579,1.579,0,0,1-3.157,0ZM33.362,48.1H43.623v2.368H33.362Zm-1.579,2.368H19.154V44.941a3.947,3.947,0,0,1,2.368-3.612v.455a3.947,3.947,0,1,0,7.893,0v-.455a3.947,3.947,0,0,1,2.368,3.612ZM7.315,48.1H17.576v2.368H7.315Zm20.522-7.1v.789a2.368,2.368,0,1,1-4.736,0v-.789Zm-2.368-1.579a4.741,4.741,0,0,1-4.736-4.736H23.89a.789.789,0,0,0,.558-.231l1.021-1.021,1.021,1.021a.789.789,0,0,0,.558.231H30.2A4.741,4.741,0,0,1,25.469,39.416Zm0-9.472a4.736,4.736,0,0,1,4.46,3.157H27.374l-1.347-1.347a.789.789,0,0,0-1.116,0L23.563,33.1H21.009a4.736,4.736,0,0,1,4.46-3.157Zm-13.418,0h3.157v1.579a1.579,1.579,0,0,1-3.157,0Zm8.683-7.893a.789.789,0,0,1,0,1.579h-.789V22.05Zm-15-7.1V12.579h7.1a5.534,5.534,0,0,1,5.469,4.736H8.1A2.368,2.368,0,0,1,5.736,14.947Zm.789,8.683a.789.789,0,1,1,0-1.579h.789v1.579ZM8.893,26v-7.1h9.472V26A2.368,2.368,0,0,1,16,28.365H11.261A2.368,2.368,0,0,1,8.893,26ZM2.579,35.469a3.157,3.157,0,0,1,3.157-3.157h4.848a3.142,3.142,0,0,0,6.09,0h2.945a6.286,6.286,0,0,0,1.95,7.325,5.532,5.532,0,0,0-3.993,5.3v1.579H7.315V40.2H5.736V50.466H2.579Zm45.781,15H45.2V40.2H43.623v6.315H33.362V44.941a5.532,5.532,0,0,0-3.993-5.3,6.286,6.286,0,0,0,1.95-7.325h2.945a3.142,3.142,0,0,0,6.09,0H45.2a3.157,3.157,0,0,1,3.157,3.157Z" transform="translate(0 -2.105)" fill="#340b81"/>
    <path id="Trazado_900867" data-name="Trazado 900867" d="M29.79,11.063a.789.789,0,0,0,1.05,0l4.65-4.142a3.249,3.249,0,0,0,0-4.943,4.077,4.077,0,0,0-5.175-.086,4.074,4.074,0,0,0-5.175.088,3.249,3.249,0,0,0,0,4.943Zm-3.6-7.9a2.484,2.484,0,0,1,3.178,0l.422.377a.789.789,0,0,0,1.05,0l.422-.377a2.482,2.482,0,0,1,3.178,0,1.726,1.726,0,0,1,.611,1.293,1.723,1.723,0,0,1-.611,1.291L30.315,9.417,26.19,5.744a1.723,1.723,0,0,1-.611-1.291A1.726,1.726,0,0,1,26.19,3.16Z" transform="translate(-4.846 0)" fill="#340b81"/>
  </g>
</svg>
