<svg id="Grupo_1112704" data-name="Grupo 1112704" xmlns="http://www.w3.org/2000/svg" width="48.931" height="48.93" viewBox="0 0 48.931 48.93">
  <g id="Grupo_1112703" data-name="Grupo 1112703" transform="translate(0 0)">
    <path id="Trazado_900868" data-name="Trazado 900868" d="M47.573,400.257a23.435,23.435,0,0,1-10.042-3.736l-.2-.133H3.946A3.95,3.95,0,0,0,0,400.334v3.157a3.95,3.95,0,0,0,3.946,3.946H37.331l.2-.133a23.436,23.436,0,0,1,10.042-3.736,1.553,1.553,0,0,0,1.358-1.538v-.235A1.553,1.553,0,0,0,47.573,400.257Zm-36.524-2.29h1.578v7.892H11.049ZM9.47,405.858H7.892v-7.892H9.47Zm4.735-3.157H35.032a3.564,3.564,0,0,0,.13,3.157H14.206Zm20.826-1.578H14.206v-3.157H35.162a3.564,3.564,0,0,0-.13,3.157ZM1.578,403.491v-3.157a2.37,2.37,0,0,1,2.368-2.368H6.314v7.892H3.946A2.37,2.37,0,0,1,1.578,403.491Zm35.5,2.227a1.97,1.97,0,0,1-.775-1.572,1.993,1.993,0,0,1,.209-.887l.673-1.346-.673-1.346a1.992,1.992,0,0,1-.209-.887,1.969,1.969,0,0,1,.775-1.572,25,25,0,0,0,5.538,2.634v2.342A25,25,0,0,0,37.079,405.717ZM47.352,402a24.737,24.737,0,0,0-3.157.612v-1.409a24.71,24.71,0,0,0,3.157.612Z" transform="translate(0 -358.506)" fill="#340b81"/>
    <circle id="Elipse_12196" data-name="Elipse 12196" cx="0.789" cy="0.789" r="0.789" transform="translate(20.519 29.99)" fill="#340b81"/>
    <circle id="Elipse_12197" data-name="Elipse 12197" cx="0.789" cy="0.789" r="0.789" transform="translate(23.676 29.99)" fill="#340b81"/>
    <circle id="Elipse_12198" data-name="Elipse 12198" cx="0.789" cy="0.789" r="0.789" transform="translate(26.833 29.99)" fill="#340b81"/>
    <path id="Trazado_900869" data-name="Trazado 900869" d="M18.1,25.475A2.374,2.374,0,0,1,20,23.153l1.893-.379L24.057,27.1l1.47-.735.418,1.255-1.5,4.486,1.5.5,1.4-4.2h.441l1.4,4.2,1.5-.5-1.5-4.486.418-1.255,1.47.735,2.164-4.328,1.893.379a2.374,2.374,0,0,1,1.9,2.322v1.358H34.67A2.37,2.37,0,0,0,32.3,29.2v3.157a2.37,2.37,0,0,0,2.368,2.368H37.5L39.4,36.63l1.905-1.905h2.83a2.37,2.37,0,0,0,2.368-2.368V29.2a2.37,2.37,0,0,0-2.368-2.368H41.772V25.475a2.374,2.374,0,0,1,1.9-2.322l1.893-.379L47.733,27.1l1.47-.735.418,1.255-1.5,4.486,1.5.5,1.4-4.2h.441l1.4,4.2,1.5-.5-1.5-4.486.418-1.255,1.47.735,2.164-4.328,1.893.379a2.374,2.374,0,0,1,1.9,2.322v6.883h1.578V25.475a3.957,3.957,0,0,0-3.172-3.869l-4.72-.944v-.356a4.948,4.948,0,0,0,3.155-4.522h0a3.16,3.16,0,0,0,3.157-3.157V8.681A8.691,8.691,0,0,0,52.032,0h-1.89a6.093,6.093,0,0,0-4.908,2.474A4.949,4.949,0,0,0,41.772,7.2v5.427a3.16,3.16,0,0,0,3.157,3.157h0a4.948,4.948,0,0,0,3.155,4.522v.356l-4.72.944a3.956,3.956,0,0,0-3.172,3.869v1.358H38.616V25.475a3.958,3.958,0,0,0-1.932-3.391,4.977,4.977,0,0,0,1.932-3.92,4.927,4.927,0,0,0-.354-1.838,17.043,17.043,0,0,1-1.224-6.358V7.892A7.9,7.9,0,0,0,29.145,0H25.989A7.9,7.9,0,0,0,18.1,7.892V9.968a17.045,17.045,0,0,1-1.224,6.358,4.928,4.928,0,0,0-.354,1.838,4.978,4.978,0,0,0,1.932,3.92,3.958,3.958,0,0,0-1.932,3.391v6.883H18.1V25.475Zm33.367,1.358h-.441l-.393-1.179.613-.307.613.307Zm3.849-4.379-1.266,2.531-1.605-.8,1.5-2Zm2.244-8.248V11.049a1.578,1.578,0,0,1,0,3.157ZM43.351,12.627a1.58,1.58,0,0,1,1.578-1.578v3.157A1.58,1.58,0,0,1,43.351,12.627ZM44.936,9.47h-.006a3.137,3.137,0,0,0-1.578.425V7.2A3.374,3.374,0,0,1,45.91,3.922l.3-.074.169-.254a4.519,4.519,0,0,1,3.767-2.016h1.89a7.111,7.111,0,0,1,7.1,7.1V9.9a3.137,3.137,0,0,0-1.578-.425h-.55L51.932,6.087,50.3,7.721l-3-1.5-.353.177A3.621,3.621,0,0,0,44.936,9.47Zm1.572,6.217V9.657A2.054,2.054,0,0,1,47.333,8l3.276,1.638,1.523-1.523,3.845,2.564v5a3.374,3.374,0,0,1-2.559,3.278l-.6.149v1.932l-1.578,2.1-1.578-2.1V19.114l-.6-.149A3.373,3.373,0,0,1,46.508,15.687Zm2.035,6.493,1.5,2-1.605.8-1.266-2.531ZM44.929,29.2v3.157a.79.79,0,0,1-.789.789H40.656L39.4,34.4l-1.252-1.252H34.67a.79.79,0,0,1-.789-.789V29.2a.79.79,0,0,1,.789-.789h9.47A.79.79,0,0,1,44.929,29.2ZM23.5,22.454l1.369-.274,1.5,2-1.605.8Zm-2.244-8.248a1.578,1.578,0,0,1,0-3.157Zm1.578-3.236a3.96,3.96,0,0,0,2.743-2.111,7.858,7.858,0,0,0,5.149,2.19H32.3v4.638a3.374,3.374,0,0,1-2.559,3.278l-.6.149v1.932l-1.578,2.1-1.578-2.1V19.114l-.6-.149a3.374,3.374,0,0,1-2.559-3.278V10.969Zm11.049.079a1.578,1.578,0,1,1,0,3.157ZM27.787,26.833h-.441l-.393-1.179.613-.307.613.307Zm2.583-1.848-1.605-.8,1.5-2,1.369.274Zm5.03-3.93-.678.407-4-.8v-.356a4.948,4.948,0,0,0,3.155-4.522h0a3.147,3.147,0,0,0,2.229-.924,18.789,18.789,0,0,0,.686,2.052,3.371,3.371,0,0,1-1.4,4.143ZM25.988,1.578h3.157a6.321,6.321,0,0,1,6.314,6.314v2a3.137,3.137,0,0,0-1.578-.425H30.724c-1.956,0-4.735-1.633-4.735-3.157H24.41V7.1a2.37,2.37,0,0,1-2.368,2.368h-.789a3.137,3.137,0,0,0-1.578.425v-2A6.321,6.321,0,0,1,25.988,1.578ZM18.337,16.912a18.76,18.76,0,0,0,.686-2.052,3.147,3.147,0,0,0,2.229.924h0a4.948,4.948,0,0,0,3.155,4.522v.356l-4,.8-.678-.407a3.371,3.371,0,0,1-1.4-4.143Z" transform="translate(-14.939 0)" fill="#340b81"/>
  </g>
</svg>
