<svg xmlns="http://www.w3.org/2000/svg" width="48.839" height="48.931" viewBox="0 0 48.839 48.931">
  <g id="Grupo_1112707" data-name="Grupo 1112707" transform="translate(-0.478)">
    <g id="Grupo_1112705" data-name="Grupo 1112705" transform="translate(0.478)">
      <path id="Trazado_900870" data-name="Trazado 900870" d="M248.258,0h1.434V5.521h-1.434Z" transform="translate(-224.578)" fill="#340b81"/>
      <path id="Trazado_900871" data-name="Trazado 900871" d="M0,0H4.609V1.434H0Z" transform="matrix(0.622, -0.783, 0.783, 0.622, 26.798, 5.076)" fill="#340b81"/>
      <path id="Trazado_900872" data-name="Trazado 900872" d="M0,0H1.434V4.609H0Z" transform="matrix(0.783, -0.622, 0.622, 0.783, 18.101, 2.357)" fill="#340b81"/>
      <path id="Trazado_900873" data-name="Trazado 900873" d="M.479,418.98H1.913v8.89H.479Z" transform="translate(-0.479 -378.939)" fill="#340b81"/>
      <path id="Trazado_900874" data-name="Trazado 900874" d="M496.258,479.82h1.434V482.9h-1.434Z" transform="translate(-448.878 -433.965)" fill="#340b81"/>
      <path id="Trazado_900875" data-name="Trazado 900875" d="M44.233,102.184a5.2,5.2,0,0,1,1.639-2.166c1.454-1.414,3.445-3.351,3.445-7.161a6.565,6.565,0,0,0-3.467-5.889A12.043,12.043,0,0,0,40,85.451a9.3,9.3,0,0,0-3.7.876c-1.652.79-2.525,1.93-2.525,3.3h0V94.5l-1.706,2.383v.992a14.951,14.951,0,0,1-2.933-7.844l-1.426.149a17.107,17.107,0,0,0,2.742,7.963,10.91,10.91,0,0,0,4.943,3.926,5.092,5.092,0,0,1-3.361,4.071c-4.746-3.267-5.948-9.793-6.423-16V84.4a1.958,1.958,0,0,1,1.161,1.014c.078.336.472,2.05.726,3.385l1.408-.267c-.286-1.508-.747-3.483-.752-3.5l-.011-.047-.017-.045a3.56,3.56,0,0,0-6.477,0l-.017.045-.011.047c-.035.148-.848,3.635-.971,4.883-.263,2.663-1.145,6.428-3.876,8.953V96.881L15.065,94.5V91.376a2.441,2.441,0,0,0,1.706-2.325V85.676l-1.038.52a8.134,8.134,0,0,1-3.122.784H6.2A2.846,2.846,0,0,0,3.4,89.018,4,4,0,0,0,.478,92.841c0,4.681,2.978,7.852,4.9,9.409a7.714,7.714,0,0,0-2.931,2.1,8.217,8.217,0,0,0-1.964,5.207v3.99H1.912v-3.99a6.5,6.5,0,0,1,5.136-6.339l.41-.081A9.161,9.161,0,0,1,9,103.012a15.456,15.456,0,0,0,4-.492,6.809,6.809,0,0,0,.473,1.509,6.373,6.373,0,0,0,2.743,2.978,11.625,11.625,0,0,1-1.111.457c-3.177,1.032-4.868,1.89-5.881,3.965l1.288.628c.68-1.394,1.733-2.118,4.56-3.073.846,1.246,3.372,5.735,3.372,14.887h1.434c0-8.955-2.308-13.655-3.421-15.4a13.563,13.563,0,0,0,7.19-8.064,26.353,26.353,0,0,0,1.232-4.466,26.348,26.348,0,0,0,1.232,4.466,13.563,13.563,0,0,0,7.19,8.064c-1.113,1.746-3.421,6.445-3.421,15.4h1.434c0-9.156,2.528-13.644,3.372-14.887,2.827.955,3.88,1.679,4.56,3.073l1.288-.628c-1.012-2.075-2.7-2.933-5.881-3.965a11.642,11.642,0,0,1-1.108-.455,6.373,6.373,0,0,0,2.745-2.979,6.808,6.808,0,0,0,.472-1.508,15.452,15.452,0,0,0,4,.491c5.2,0,7.091,3.915,7.091,6.546v9.8h1.434v-9.8a8.216,8.216,0,0,0-1.964-5.207A7.722,7.722,0,0,0,44.233,102.184ZM1.912,92.841a2.448,2.448,0,0,1,2.065-2.447h.636l.076-.632a2.034,2.034,0,0,1,.264-.7A1.36,1.36,0,0,1,6.2,88.413H12.61a8.575,8.575,0,0,0,2.727-.51v1.147a1,1,0,0,1-1,1H11.382A3.588,3.588,0,0,0,7.8,93.638v.329a2.437,2.437,0,0,0-1.716,2.349v.033a2.445,2.445,0,0,0,1.669,2.277,14.374,14.374,0,0,1-.87,2.972c-1.445-1.056-4.97-4.11-4.97-8.757Zm6.506,8.753a11.558,11.558,0,0,0,.814-3.561v-.717H8.515a1,1,0,0,1-1-.977v-.033a1,1,0,0,1,1-1.012.724.724,0,0,0,.717-.755v-.9a2.153,2.153,0,0,1,2.15-2.15h2.25v3.47l1.706,2.383V99.96A11.755,11.755,0,0,1,9,101.579C8.8,101.579,8.608,101.584,8.418,101.594Zm9.322,4.542a5.059,5.059,0,0,1-3.361-4.071,10.919,10.919,0,0,0,5-4,17.234,17.234,0,0,0,2.7-8.006c.105-1.071.817-4.166.926-4.637a1.961,1.961,0,0,1,1.175-1.02v5.559l-.006.08h-.006l0,.036C23.694,96.3,22.5,102.858,17.74,106.136ZM40,86.884a10.549,10.549,0,0,1,5.125,1.32,5.136,5.136,0,0,1,2.759,4.653c0,3.205-1.6,4.761-3.011,6.134a6.527,6.527,0,0,0-2.008,2.739c-.995-.465-1.7-2.084-1.808-4.24a2.444,2.444,0,0,0,1.7-2.285v-.026a2.437,2.437,0,0,0-1.716-2.358v-.329a3.588,3.588,0,0,0-3.584-3.584H35.391c.7-1.315,3.216-2.023,4.608-2.023Zm-4.792,8.073V90.341h2.25a2.153,2.153,0,0,1,2.15,2.15v.9a.723.723,0,0,0,.717.756,1,1,0,0,1,1,1.011v.026a1,1,0,0,1-1,.986h-.717v.717a9.208,9.208,0,0,0,1,4.515c.035.06.071.119.107.176A11.178,11.178,0,0,1,33.5,99.3V97.341Z" transform="translate(-0.478 -74.941)" fill="#340b81"/>
      <path id="Trazado_900876" data-name="Trazado 900876" d="M80.671,461.21H82.1v1.434H80.671Z" transform="translate(-73.007 -417.133)" fill="#340b81"/>
      <path id="Trazado_900877" data-name="Trazado 900877" d="M110.671,461.21H112.1v1.434h-1.434Z" transform="translate(-100.14 -417.133)" fill="#340b81"/>
    </g>
    <g id="Grupo_1112706" data-name="Grupo 1112706" transform="translate(8.165 44.077)">
      <path id="Trazado_900878" data-name="Trazado 900878" d="M80.913,461.21h1.434v1.434H80.913Z" transform="translate(-80.913 -461.21)" fill="#340b81"/>
      <path id="Trazado_900879" data-name="Trazado 900879" d="M110.913,461.21h1.434v1.434h-1.434Z" transform="translate(-108.046 -461.21)" fill="#340b81"/>
    </g>
  </g>
</svg>
