<svg xmlns="http://www.w3.org/2000/svg" width="51.28" height="51.292" viewBox="0 0 51.28 51.292">
  <g id="Grupo_1112710" data-name="Grupo 1112710" transform="translate(-0.06)">
    <g id="Grupo_1112709" data-name="Grupo 1112709" transform="translate(0.06 0)">
      <path id="Trazado_900891" data-name="Trazado 900891" d="M497.162,253.945a.753.753,0,0,0-.767.735c-.009.416-.029.837-.059,1.251a.751.751,0,0,0,.695.8l.055,0a.751.751,0,0,0,.749-.7c.032-.44.053-.886.063-1.328A.752.752,0,0,0,497.162,253.945Z" transform="translate(-446.618 -228.505)" fill="#340b81"/>
      <path id="Trazado_900892" data-name="Trazado 900892" d="M489.669,300.816a.752.752,0,0,0-.892.577c-.087.406-.186.816-.294,1.217a.751.751,0,1,0,1.451.391c.115-.426.22-.861.312-1.293A.752.752,0,0,0,489.669,300.816Z" transform="translate(-439.53 -270.666)" fill="#340b81"/>
      <path id="Trazado_900893" data-name="Trazado 900893" d="M493.542,207.771c.069.41.128.827.176,1.239a.751.751,0,1,0,1.493-.173c-.051-.438-.113-.881-.187-1.316a.751.751,0,1,0-1.482.25Z" transform="translate(-444.096 -186.168)" fill="#340b81"/>
      <path id="Trazado_900894" data-name="Trazado 900894" d="M473.468,345.826a.751.751,0,0,0-.986.4c-.163.382-.337.765-.52,1.138a.751.751,0,1,0,1.35.66c.194-.4.38-.8.553-1.21A.751.751,0,0,0,473.468,345.826Z" transform="translate(-424.619 -311.128)" fill="#340b81"/>
      <path id="Trazado_900895" data-name="Trazado 900895" d="M481.774,161.4a.751.751,0,0,0-.44.967c.145.388.283.786.408,1.183a.751.751,0,0,0,1.433-.453c-.133-.421-.279-.844-.434-1.257A.752.752,0,0,0,481.774,161.4Z" transform="translate(-433.078 -145.189)" fill="#340b81"/>
      <path id="Trazado_900896" data-name="Trazado 900896" d="M7.293,302.609c-.108-.4-.207-.81-.294-1.217a.751.751,0,1,0-1.469.315c.093.432.2.867.312,1.293a.751.751,0,0,0,1.451-.391Z" transform="translate(-4.966 -270.665)" fill="#340b81"/>
      <path id="Trazado_900897" data-name="Trazado 900897" d="M20.369,348.021a.751.751,0,0,0,1.35-.66c-.183-.373-.357-.756-.52-1.138a.751.751,0,0,0-1.383.589C19.989,347.217,20.175,347.624,20.369,348.021Z" transform="translate(-17.783 -311.127)" fill="#340b81"/>
      <path id="Trazado_900898" data-name="Trazado 900898" d="M12.031,164.039a.75.75,0,0,0,.943-.49c.126-.4.263-.795.408-1.183a.751.751,0,1,0-1.407-.527c-.154.412-.3.835-.434,1.257A.751.751,0,0,0,12.031,164.039Z" transform="translate(-10.36 -145.188)" fill="#340b81"/>
      <path id="Trazado_900899" data-name="Trazado 900899" d="M2.323,209.67a.75.75,0,0,0,.832-.66c.048-.412.107-.829.176-1.239a.751.751,0,1,0-1.482-.25c-.073.435-.136.878-.187,1.316a.751.751,0,0,0,.66.833Z" transform="translate(-1.498 -186.168)" fill="#340b81"/>
      <path id="Trazado_900900" data-name="Trazado 900900" d="M.927,256.735a.752.752,0,0,0,.695-.8c-.03-.414-.05-.835-.059-1.251a.751.751,0,0,0-.751-.735H.8a.751.751,0,0,0-.735.767c.01.442.031.888.063,1.328a.751.751,0,0,0,.749.7Z" transform="translate(-0.06 -228.505)" fill="#340b81"/>
      <path id="Trazado_900901" data-name="Trazado 900901" d="M178.888,8.828A.754.754,0,0,0,179.1,8.8c.367-.108.742-.209,1.115-.3a.751.751,0,0,0-.355-1.46c-.4.1-.794.2-1.184.318a.752.752,0,0,0,.212,1.472Z" transform="translate(-160.298 -6.313)" fill="#340b81"/>
      <path id="Trazado_900902" data-name="Trazado 900902" d="M138.4,23a.749.749,0,0,0,.335-.079c.344-.172.695-.336,1.045-.49a.751.751,0,1,0-.606-1.375c-.372.164-.745.339-1.11.521A.752.752,0,0,0,138.4,23Z" transform="translate(-123.86 -18.884)" fill="#340b81"/>
      <path id="Trazado_900903" data-name="Trazado 900903" d="M221.549,2.107a.765.765,0,0,0,.084,0c.381-.042.768-.076,1.15-.1a.751.751,0,0,0-.094-1.5c-.406.026-.817.061-1.221.106a.751.751,0,0,0,.082,1.5Z" transform="translate(-198.685 -0.451)" fill="#340b81"/>
      <path id="Trazado_900904" data-name="Trazado 900904" d="M307.917,8.49c.373.091.748.191,1.115.3a.751.751,0,1,0,.425-1.441c-.39-.115-.789-.222-1.185-.318a.751.751,0,1,0-.355,1.46Z" transform="translate(-276.559 -6.306)" fill="#340b81"/>
      <path id="Trazado_900905" data-name="Trazado 900905" d="M265.009,2c.384.024.771.058,1.151.1a.763.763,0,0,0,.084,0,.751.751,0,0,0,.082-1.5c-.4-.045-.815-.08-1.222-.106a.751.751,0,1,0-.094,1.5Z" transform="translate(-237.833 -0.445)" fill="#340b81"/>
      <path id="Trazado_900906" data-name="Trazado 900906" d="M349.016,22.412c.35.154.7.319,1.045.49a.751.751,0,0,0,.671-1.345c-.365-.182-.739-.358-1.11-.521a.751.751,0,0,0-.606,1.375Z" transform="translate(-313.655 -18.872)" fill="#340b81"/>
      <path id="Trazado_900907" data-name="Trazado 900907" d="M165.693,482.527c-.34-.106-.682-.222-1.016-.344a.751.751,0,1,0-.513,1.412c.355.129.719.252,1.08.365a.751.751,0,1,0,.449-1.434Z" transform="translate(-147.279 -433.838)" fill="#340b81"/>
      <path id="Trazado_900908" data-name="Trazado 900908" d="M204.652,492.972c-.354-.05-.711-.108-1.059-.173a.751.751,0,1,0-.275,1.477c.37.069.749.131,1.125.184a.762.762,0,0,0,.106.007.751.751,0,0,0,.1-1.5Z" transform="translate(-182.403 -443.42)" fill="#340b81"/>
      <path id="Trazado_900909" data-name="Trazado 900909" d="M324.378,482.192c-.334.121-.676.237-1.017.344a.751.751,0,1,0,.449,1.434c.362-.113.725-.236,1.081-.365a.751.751,0,0,0-.513-1.412Z" transform="translate(-290.499 -433.846)" fill="#340b81"/>
      <path id="Trazado_900910" data-name="Trazado 900910" d="M244.794,496.939c-.358.008-.718.007-1.074,0a.751.751,0,1,0-.033,1.5q.285.006.572.006t.568-.006a.751.751,0,1,0-.033-1.5Z" transform="translate(-218.62 -447.156)" fill="#340b81"/>
      <path id="Trazado_900911" data-name="Trazado 900911" d="M285.061,492.8c-.35.065-.706.123-1.059.173a.751.751,0,0,0,.1,1.5.762.762,0,0,0,.105-.007c.375-.053.754-.115,1.126-.184a.751.751,0,0,0-.275-1.477Z" transform="translate(-254.974 -443.424)" fill="#340b81"/>
      <path id="Trazado_900912" data-name="Trazado 900912" d="M64.8,42.787a3.981,3.981,0,0,0,.169-2.629l.134-.2a.75.75,0,0,0-.8-1.148,3.985,3.985,0,0,0-3.172-1.573l-.059,0a20.775,20.775,0,0,0,.012-23.191H65l.052.094a.751.751,0,0,0,1.39-.533,2.369,2.369,0,0,0,1-1.931V8.847a3.388,3.388,0,0,0-2.644-3.3,3.968,3.968,0,0,0,.316-1.557,3.867,3.867,0,0,0-.028-.466.751.751,0,0,0-1.491.182,2.37,2.37,0,0,1,.016.284A2.484,2.484,0,1,1,61.99,1.656a.751.751,0,0,0,.521-1.41,3.991,3.991,0,0,0-5.352,4.159.749.749,0,0,0,.093,1.174l.02.013A3.394,3.394,0,0,0,54.9,8.055a20.8,20.8,0,0,0-22.164,0,3.394,3.394,0,0,0-2.367-2.462l.02-.013a.749.749,0,0,0,.093-1.174,3.99,3.99,0,1,0-7.957-.416,3.966,3.966,0,0,0,.317,1.557,3.388,3.388,0,0,0-2.644,3.3v2.833a2.369,2.369,0,0,0,1,1.931.751.751,0,0,0,1.39.533l.052-.094h3.924a20.775,20.775,0,0,0,.012,23.191l-.059,0a3.985,3.985,0,0,0-3.172,1.573.75.75,0,0,0-.8,1.148l.134.2a3.981,3.981,0,0,0,.169,2.629,3.388,3.388,0,0,0-2.645,3.3v2.834a2.373,2.373,0,0,0,2.371,2.37h2.193a.751.751,0,1,0,0-1.5H22.571a.869.869,0,0,1-.869-.868V46.087a1.882,1.882,0,0,1,1.88-1.879h.283a3.979,3.979,0,0,0,5.3,0h.284a1.882,1.882,0,0,1,1.879,1.879v2.834a.869.869,0,0,1-.868.868H28.271a.751.751,0,1,0,0,1.5h2.194a2.373,2.373,0,0,0,2.37-2.37V48.6a.75.75,0,0,0,.12-1.389l-.12-.063v-1.06a3.387,3.387,0,0,0-2.644-3.3,3.958,3.958,0,0,0,.3-1.2,20.744,20.744,0,0,0,26.663,0,3.96,3.96,0,0,0,.3,1.2,3.388,3.388,0,0,0-2.644,3.3v1.06l-.12.063a.75.75,0,0,0,.12,1.389v.323a2.373,2.373,0,0,0,2.37,2.37h7.893a2.373,2.373,0,0,0,2.37-2.37V46.088a3.388,3.388,0,0,0-2.644-3.3ZM63.614,41.23a2.487,2.487,0,1,1-2.487-2.487A2.49,2.49,0,0,1,63.614,41.23Zm-7.3-32.383a1.882,1.882,0,0,1,1.88-1.88h.283a3.98,3.98,0,0,0,5.3,0h.283a1.882,1.882,0,0,1,1.88,1.88v2.833a.869.869,0,0,1-.868.868H57.18a.869.869,0,0,1-.868-.868V8.847ZM26.518,1.5A2.487,2.487,0,1,1,24.031,3.99,2.49,2.49,0,0,1,26.518,1.5ZM21.7,8.847a1.882,1.882,0,0,1,1.88-1.88h.283a3.98,3.98,0,0,0,5.3,0h.283a1.882,1.882,0,0,1,1.88,1.88v2.833a.869.869,0,0,1-.868.868H22.571a.869.869,0,0,1-.868-.868ZM24.031,41.23a2.487,2.487,0,1,1,2.487,2.487A2.49,2.49,0,0,1,24.031,41.23Zm.506-15.584A19.082,19.082,0,0,1,28.41,14.051h2.054a2.373,2.373,0,0,0,2.37-2.37V9.794a19.3,19.3,0,0,1,21.975,0v1.887a2.373,2.373,0,0,0,2.37,2.37h2.054a19.082,19.082,0,0,1,3.873,11.595,19.286,19.286,0,0,1-38.571,0Zm41.4,23.275a.869.869,0,0,1-.868.868H57.18a.869.869,0,0,1-.868-.868V46.088a1.882,1.882,0,0,1,1.88-1.88h.284a3.979,3.979,0,0,0,5.3,0h.284a1.882,1.882,0,0,1,1.88,1.88v2.834Z" transform="translate(-18.182 0)" fill="#340b81"/>
      <path id="Trazado_900913" data-name="Trazado 900913" d="M173.759,128.96l-3.941-1.065V127a5.011,5.011,0,0,0,2.6-3.854h.291a2.369,2.369,0,0,0,1.358-4.311v-2.107a6.621,6.621,0,0,0-13.242,0v2.107a2.369,2.369,0,0,0,1.359,4.311h.291a5.011,5.011,0,0,0,2.6,3.854v.892l-3.941,1.065a4.807,4.807,0,0,0-3.547,4.632v5a.751.751,0,0,0,.751.751h7.354a.751.751,0,1,0,0-1.5h-3.567v-1.88a.751.751,0,0,0-1.5,0v1.88h-1.533v-4.246a3.3,3.3,0,0,1,2.436-3.182l1.188-.321a5,5,0,0,0,9.464,0l1.188.321a3.3,3.3,0,0,1,2.436,3.182v4.246H174.27v-1.88a.751.751,0,1,0-1.5,0v1.88H169.2a.751.751,0,0,0,0,1.5h7.354a.751.751,0,0,0,.751-.751v-5A4.807,4.807,0,0,0,173.759,128.96Zm-1.05-7.313h-.261v-1.736h.261a.868.868,0,0,1,0,1.736Zm-5.262-10.034a5.124,5.124,0,0,1,5.118,5.118v1.677h-.743a2.034,2.034,0,0,1-.42-.208,1.174,1.174,0,0,0-.982-.139,3.747,3.747,0,0,0,.068-.988.751.751,0,0,0-1.316-.43c-1.216,1.4-4.724,1.749-5.979,1.765h-.864V116.73A5.124,5.124,0,0,1,167.447,111.612Zm-6.13,9.166a.869.869,0,0,1,.868-.868h.261v1.736h-.261A.869.869,0,0,1,161.317,120.778Zm2.631,1.822v-2.724a18.64,18.64,0,0,0,2.014-.251,11.232,11.232,0,0,0,2.586-.761.955.955,0,0,0,.953.942h0a3.149,3.149,0,0,0,1.237-.25c.067.039.136.075.205.109V122.6a3.5,3.5,0,1,1-7,0Zm3.5,5a5.007,5.007,0,0,0,.868-.077v.945a.868.868,0,0,1-1.736,0v-.945A5.008,5.008,0,0,0,167.447,127.6Zm0,4.367a3.484,3.484,0,0,1-3.277-2.272l1.1-.3a2.37,2.37,0,0,0,4.36,0l1.1.3A3.484,3.484,0,0,1,167.447,131.968Z" transform="translate(-141.807 -99.079)" fill="#340b81"/>
    </g>
  </g>
</svg>
