<svg xmlns="http://www.w3.org/2000/svg" width="130.651" height="109.8" viewBox="0 0 130.651 109.8">
  <g id="_x30_5_Friend" transform="translate(-6.002 -45.899)">
    <g id="Grupo_1112712" data-name="Grupo 1112712" transform="translate(6.002 45.899)">
      <path id="Trazado_900917" data-name="Trazado 900917" d="M193.026,301.119h68.945a11.242,11.242,0,0,1,11.242,11.242v30.274H217.128V315.014H193.489Z" transform="translate(-144.156 -234.429)" fill="#fd6a88"/>
      <path id="Trazado_900918" data-name="Trazado 900918" d="M436.172,312.364v30.273H424.878V312.364a11.236,11.236,0,0,0-11.242-11.242h11.293A11.236,11.236,0,0,1,436.172,312.364Z" transform="translate(-307.12 -234.431)" opacity="0.15"/>
      <path id="Trazado_900919" data-name="Trazado 900919" d="M376.119,257.5v13.5a9.011,9.011,0,0,1-18.022,0V257.5Z" transform="translate(-266.093 -202.211)" fill="#fff"/>
      <path id="Trazado_900920" data-name="Trazado 900920" d="M393.72,257.512v13.5a9,9,0,0,1-9.012,9.012,8.7,8.7,0,0,1-2.779-.446,9,9,0,0,0,6.208-8.566v-13.5Z" transform="translate(-283.698 -202.217)" opacity="0.15"/>
      <path id="Trazado_900921" data-name="Trazado 900921" d="M77.5,312.361v30.274H21.412V312.361a11.242,11.242,0,0,1,11.242-11.242h33.6A11.243,11.243,0,0,1,77.5,312.361Z" transform="translate(-17.385 -234.429)" fill="#5899fe"/>
      <path id="Trazado_900922" data-name="Trazado 900922" d="M173.8,312.364v30.273H163.027V312.364a11.244,11.244,0,0,0-11.242-11.242h10.771A11.236,11.236,0,0,1,173.8,312.364Z" transform="translate(-113.691 -234.431)" opacity="0.15"/>
      <path id="Trazado_900923" data-name="Trazado 900923" d="M112.269,257.5v13.5a9.011,9.011,0,1,1-18.022,0V257.5Z" transform="translate(-71.188 -202.211)" fill="#fff"/>
      <path id="Trazado_900924" data-name="Trazado 900924" d="M129.652,257.512v13.5a9,9,0,0,1-9.012,9.012,8.824,8.824,0,0,1-2.855-.472,8.992,8.992,0,0,0,6.144-8.54v-13.5Z" transform="translate(-88.576 -202.217)" opacity="0.15"/>
      <path id="Trazado_900925" data-name="Trazado 900925" d="M25.106,290.881v7.82a5.033,5.033,0,0,1-5.033,5.033H17.131A5.033,5.033,0,0,1,12.1,298.7v-7.82a5.033,5.033,0,0,1,5.033-5.033h2.942A5.033,5.033,0,0,1,25.106,290.881Z" transform="translate(-10.505 -223.148)" fill="#fff"/>
      <path id="Trazado_900926" data-name="Trazado 900926" d="M80.492,77.552v13.3H27.684v-13.3A25.555,25.555,0,0,1,53.239,52h1.7A25.555,25.555,0,0,1,80.492,77.552Z" transform="translate(-22.018 -50.404)" fill="#fce270"/>
      <path id="Trazado_900927" data-name="Trazado 900927" d="M140.745,77.559V90.853H130.561V77.559a25.548,25.548,0,0,0-21.312-25.2A24.556,24.556,0,0,1,113.494,52h1.7A25.562,25.562,0,0,1,140.745,77.559Z" transform="translate(-82.27 -50.407)" opacity="0.15"/>
      <path id="Trazado_900928" data-name="Trazado 900928" d="M99.1,135.851V158.2a14.617,14.617,0,0,1-14.617,14.617H81.276A14.617,14.617,0,0,1,66.659,158.2V135.851c5.361-4.131,10.042-3.916,14.145,0,4.511,3.626,10.544,3.474,18.294,0Z" transform="translate(-50.809 -110.117)" fill="#fff"/>
      <path id="Trazado_900929" data-name="Trazado 900929" d="M134.2,144.391v22.345a14.62,14.62,0,0,1-14.62,14.62h-3.2a14.036,14.036,0,0,1-2.205-.166,14.619,14.619,0,0,0,12.4-14.454V146.813A31.069,31.069,0,0,0,134.2,144.391Z" transform="translate(-85.909 -118.655)" opacity="0.15"/>
      <path id="Trazado_900930" data-name="Trazado 900930" d="M143.514,144.391v2.422a14.86,14.86,0,0,1-6.412-.242A32.305,32.305,0,0,0,143.514,144.391Z" transform="translate(-102.845 -118.655)" opacity="0.15"/>
      <path id="Trazado_900931" data-name="Trazado 900931" d="M37.868,177.469V189.6H33.749a6.065,6.065,0,1,1,0-12.13h4.119Z" transform="translate(-22.018 -143.089)" fill="#fff"/>
      <path id="Trazado_900932" data-name="Trazado 900932" d="M190.8,177.469V189.6h4.119a6.065,6.065,0,1,0,0-12.13H190.8Z" transform="translate(-142.514 -143.089)" fill="#fff"/>
      <path id="Trazado_900933" data-name="Trazado 900933" d="M200.987,183.531a6.065,6.065,0,0,1-6.067,6.067H190.8V177.464h4.117a6.049,6.049,0,0,1,6.067,6.067Z" transform="translate(-142.514 -143.086)" opacity="0.15"/>
      <path id="Trazado_900934" data-name="Trazado 900934" d="M191.357,193.549a5.943,5.943,0,0,1-.548,2.524v-5.048A5.942,5.942,0,0,1,191.357,193.549Z" transform="translate(-142.518 -153.103)" opacity="0.15"/>
      <path id="Trazado_900935" data-name="Trazado 900935" d="M315.112,98.075H282.377a20.3,20.3,0,0,1-20.3-20.3h32.735A20.3,20.3,0,0,1,315.112,98.075Z" transform="translate(-195.167 -69.449)" fill="#fce270"/>
      <path id="Trazado_900936" data-name="Trazado 900936" d="M383.644,98.062h-8.5A20.3,20.3,0,0,0,354.85,77.757h8.489A20.3,20.3,0,0,1,383.644,98.062Z" transform="translate(-263.695 -69.432)" opacity="0.15"/>
      <path id="Trazado_900937" data-name="Trazado 900937" d="M354.315,154.083v14.85a19.581,19.581,0,0,1-39.163,0v-14.85Z" transform="translate(-234.37 -125.814)" fill="#fff"/>
      <path id="Trazado_900938" data-name="Trazado 900938" d="M397.661,154.1v14.85a19.586,19.586,0,0,1-19.591,19.578,20.234,20.234,0,0,1-4.245-.459,19.6,19.6,0,0,0,15.334-19.12V154.1Z" transform="translate(-277.711 -125.825)" opacity="0.15"/>
      <g id="Grupo_1112711" data-name="Grupo 1112711" transform="translate(0 0)">
        <path id="Trazado_900939" data-name="Trazado 900939" d="M123.817,111h-6.2v-4.074a21.159,21.159,0,0,0,9.92-17.9c0-3.228.019-14.481-.025-14.982a21.9,21.9,0,0,0-21.864-21.4H72.916a1.593,1.593,0,0,0-1.593,1.593A21.909,21.909,0,0,0,85.191,74.575V89.017A21.189,21.189,0,0,0,96.412,107.7V111H48.675v-3.541A16.2,16.2,0,0,0,55.884,94H58.41a7.667,7.667,0,0,0,7.658-7.659v-13.3A27.179,27.179,0,0,0,38.92,45.9h-1.7a27.18,27.18,0,0,0-27.15,27.148v13.3A7.667,7.667,0,0,0,17.732,94h2.527a16.2,16.2,0,0,0,7.209,13.451V111H21.643a6.631,6.631,0,0,0-6.072-3.99H12.628A6.634,6.634,0,0,0,6,113.631v7.82a6.587,6.587,0,0,0,2.434,5.088v27.566a1.593,1.593,0,0,0,1.593,1.593H66.114a1.593,1.593,0,0,0,1.593-1.593V128.077h9.673v26.028a1.593,1.593,0,0,0,1.593,1.593H135.06a1.593,1.593,0,0,0,1.593-1.593V123.831A12.851,12.851,0,0,0,123.817,111ZM74.577,55.822h31.074a18.73,18.73,0,0,1,18.635,17.109H93.212A18.73,18.73,0,0,1,74.577,55.822Zm13.8,33.2V75.761c.129.013,4.128.357,4.835.357h31.142v12.9a17.988,17.988,0,1,1-35.976,0Zm26.056,19.569v6.108a7.418,7.418,0,1,1-14.835,0v-5.631A20.97,20.97,0,0,0,114.434,108.587ZM58.41,90.816H55.885V81.872H58.41a4.472,4.472,0,0,1,0,8.944ZM37.223,49.086h1.7A23.989,23.989,0,0,1,62.882,73.048V80.14a7.607,7.607,0,0,0-4.471-1.454H55.885V71.633a1.594,1.594,0,0,0-2.246-1.454c-7.271,3.259-12.7,3.342-16.594.252-3.338-3.159-8.837-5.706-16.166-.06a1.592,1.592,0,0,0-.621,1.262v7.053H17.733A7.608,7.608,0,0,0,13.26,80.14V73.048A23.99,23.99,0,0,1,37.223,49.086ZM13.26,86.344a4.477,4.477,0,0,1,4.472-4.472h2.526v8.944H17.733A4.477,4.477,0,0,1,13.26,86.344Zm10.185,7.638V72.435c4.328-3.08,7.98-2.963,11.452.351.032.031.067.061.1.089,4.477,3.6,10.283,3.979,17.7,1.146V93.982a13.039,13.039,0,0,1-13.024,13.023H36.47A13.039,13.039,0,0,1,23.445,93.982ZM45.489,109.1v5.6a7.417,7.417,0,1,1-14.834,0v-5.6A24.243,24.243,0,0,0,45.489,109.1Zm-36.3,4.536a3.443,3.443,0,0,1,3.439-3.439H15.57a3.443,3.443,0,0,1,3.439,3.439v7.82a3.443,3.443,0,0,1-3.439,3.44H12.628a3.443,3.443,0,0,1-3.439-3.44Zm55.332,38.881H56.928v-10.87a1.593,1.593,0,0,0-3.187,0v10.87H22.4v-10.87a1.593,1.593,0,0,0-3.187,0v10.87H11.622V127.976a6.543,6.543,0,0,0,1.006.1H15.57a6.634,6.634,0,0,0,6.626-6.626v-7.269h5.272v.512a10.6,10.6,0,1,0,21.207,0v-.512h6.2a9.661,9.661,0,0,1,9.649,9.649Zm68.945,0h-7.593v-10.87a1.593,1.593,0,1,0-3.187,0v10.87H91.346v-10.87a1.593,1.593,0,1,0-3.187,0v10.87H80.567V126.484a1.593,1.593,0,0,0-1.593-1.593H67.707v-1.06a12.8,12.8,0,0,0-4.4-9.649h33.1v.512a10.6,10.6,0,1,0,21.208,0v-.512h6.2a9.661,9.661,0,0,1,9.649,9.649v28.682Z" transform="translate(-6.002 -45.899)" fill="#340b81"/>
        <path id="Trazado_900940" data-name="Trazado 900940" d="M376.751,236.316a1.591,1.591,0,0,0-2.252.049,5.819,5.819,0,0,1-8.225.177,1.594,1.594,0,0,0-2.206,2.3,8.946,8.946,0,0,0,6.224,2.5l.2,0a8.941,8.941,0,0,0,6.308-2.773,1.594,1.594,0,0,0-.049-2.253Z" transform="translate(-270.142 -186.232)" fill="#340b81"/>
        <path id="Trazado_900941" data-name="Trazado 900941" d="M364.506,189.091A1.593,1.593,0,0,0,366.1,187.5v-2.783a1.593,1.593,0,1,0-3.187,0V187.5A1.593,1.593,0,0,0,364.506,189.091Z" transform="translate(-269.651 -147.265)" fill="#340b81"/>
        <path id="Trazado_900942" data-name="Trazado 900942" d="M406.66,189.091a1.593,1.593,0,0,0,1.593-1.593v-2.783a1.593,1.593,0,1,0-3.187,0V187.5A1.593,1.593,0,0,0,406.66,189.091Z" transform="translate(-300.79 -147.265)" fill="#340b81"/>
        <path id="Trazado_900943" data-name="Trazado 900943" d="M115.442,227.944a1.593,1.593,0,1,0-2.3-2.2,5.818,5.818,0,0,1-8.225.177,1.594,1.594,0,0,0-2.206,2.3A9.005,9.005,0,0,0,115.442,227.944Z" transform="translate(-77.079 -178.384)" fill="#340b81"/>
        <path id="Trazado_900944" data-name="Trazado 900944" d="M103.149,178.466a1.593,1.593,0,0,0,1.593-1.593V174.09a1.593,1.593,0,1,0-3.187,0v2.783A1.594,1.594,0,0,0,103.149,178.466Z" transform="translate(-76.587 -139.416)" fill="#340b81"/>
        <path id="Trazado_900945" data-name="Trazado 900945" d="M145.3,178.466a1.593,1.593,0,0,0,1.593-1.593V174.09a1.593,1.593,0,1,0-3.187,0v2.783A1.594,1.594,0,0,0,145.3,178.466Z" transform="translate(-107.726 -139.416)" fill="#340b81"/>
      </g>
    </g>
  </g>
</svg>
