<svg xmlns="http://www.w3.org/2000/svg" xmlns:xlink="http://www.w3.org/1999/xlink" width="715" height="378" viewBox="0 0 715 378">
  <defs>
    <clipPath id="clip-path">
      <path id="Rectángulo_405199" data-name="Rectángulo 405199" d="M20,0H715a0,0,0,0,1,0,0V378a0,0,0,0,1,0,0H20A20,20,0,0,1,0,358V20A20,20,0,0,1,20,0Z" transform="translate(-5987 -3991.162)" fill="#fff"/>
    </clipPath>
  </defs>
  <g id="Enmascarar_grupo_1099787" data-name="Enmascarar grupo 1099787" transform="translate(5987 3991.162)" clip-path="url(#clip-path)">
    <g id="_1" data-name="1" transform="translate(-6087.149 -3993.428)">
      <g id="Grupo_1113660" data-name="Grupo 1113660" transform="translate(278.219 113.431)">
        <g id="Grupo_1113588" data-name="Grupo 1113588" transform="translate(148.466 11.347)">
          <path id="Trazado_901874" data-name="Trazado 901874" d="M209.271,238.884c-14.982-6.1-31.905-13.594-37.454-29.131-6.381-17.756,4.994-39.951-5.271-55.487-3.052-4.716-7.768-8.323-9.71-13.317-4.716-12.485,8.878-24.969,9.155-38.286,0-6.1-2.774-12.485-1.11-18.588,1.387-5.826,6.658-9.71,12.207-11.652,5.549-1.665,11.652-1.665,17.479-1.387,8.6-14.427,28.3-24.692,44.945-23.582a47.475,47.475,0,0,1,39.4,27.466c1.942,4.439,3.329,9.155,6.1,12.762,7.213,9.988,21.64,10.543,33.847,9.71s26.357-1.11,34.68,7.768c6.659,6.936,7.768,18.033,15.259,24.137,6.381,4.994,15.259,4.716,23.027,6.936,14.427,3.884,25.524,16.091,30.8,29.963s5.271,29.408,3.052,44.113c-1.11,8.046-3.052,16.369-.277,24.137,3.884,10.543,14.982,16.369,22.472,24.692,9.433,10.543,13.04,25.8,10.543,39.674s-10.265,26.634-20.53,36.344c-22.472,21.085-55.765,28.021-86.006,22.472s-57.43-22.2-79.9-43.28C249.777,292.984,227.3,263.853,209.271,238.884Z" transform="translate(-155.842 -47.37)" fill="#422038"/>
        </g>
        <g id="Grupo_1113589" data-name="Grupo 1113589" transform="translate(212.992 83.562)">
          <path id="Trazado_901875" data-name="Trazado 901875" d="M197.411,73.4a237.715,237.715,0,0,0,51.048,46.887s-11.93,44.945-43,42.725c0,0,1.942-48-26.357-59.094Z" transform="translate(-179.1 -73.4)" fill="#f9acac"/>
        </g>
        <g id="Grupo_1113606" data-name="Grupo 1113606" transform="translate(169.409 41.318)">
          <g id="Grupo_1113590" data-name="Grupo 1113590">
            <path id="Trazado_901876" data-name="Trazado 901876" d="M181.173,59.079c-9.155,3.884-14.7,13.594-16.646,23.3-3.052,16.369,0,37.731,9.71,51.048a20.819,20.819,0,0,0,11.652,8.323c4.716,1.11,9.988-1.11,13.872-3.329,8.878-3.884,16.369-11.375,24.692-32.183.555-1.11.832-3.052,1.942-3.329a15.82,15.82,0,0,1,3.607-.277c4.716-.832,6.381-6.658,7.213-11.375.555-3.329.832-6.936-.555-9.988s-5.549-5.271-8.323-3.329c-2.5,1.387-3.329,5.271-5.826,5.826-1.665.555-3.607-.555-4.716-1.942a25.377,25.377,0,0,1-2.5-4.716c-5.549-12.207-15.814-18.866-29.408-18.866C184.779,57.97,182.56,58.525,181.173,59.079Z" transform="translate(-163.391 -58.173)" fill="#f9acac"/>
          </g>
          <g id="Grupo_1113591" data-name="Grupo 1113591" transform="translate(17.822 32.974)">
            <path id="Trazado_901877" data-name="Trazado 901877" d="M173.936,93.2a2.5,2.5,0,0,1-1.387-.277,4.874,4.874,0,0,1-2.5-2.774c-.555-1.942,0-3.607.277-5.271V84.6a74.786,74.786,0,0,0,1.11-7.768,14.164,14.164,0,0,0-.832-5.826.62.62,0,0,1,1.11-.555,16.878,16.878,0,0,1,.832,6.381,80.056,80.056,0,0,1-1.11,8.046v.277c-.277,1.665-.832,3.329-.277,4.716a2.933,2.933,0,0,0,1.665,1.942q.416.416,1.665,0a.62.62,0,1,1,.555,1.11C174.768,93.2,174.491,93.2,173.936,93.2Z" transform="translate(-169.814 -70.059)" fill="#a0180a"/>
          </g>
          <g id="Grupo_1113592" data-name="Grupo 1113592" transform="translate(30.172 42.379)">
            <path id="Trazado_901878" data-name="Trazado 901878" d="M184.9,76.088c.555,2.22-1.387,4.439-4.439,4.994-3.052.832-5.826-.277-6.1-2.5-.555-2.22,1.387-4.439,4.439-4.994C181.574,73.036,184.348,74.146,184.9,76.088Z" transform="translate(-174.266 -73.449)" fill="#ed6969"/>
          </g>
          <g id="Grupo_1113593" data-name="Grupo 1113593" transform="translate(5.081 46.084)">
            <path id="Trazado_901879" data-name="Trazado 901879" d="M174.871,77.048c.832,1.942-.832,4.439-3.329,5.271s-5.271,0-6.1-1.942.832-4.439,3.329-5.271C171.542,74.273,174.316,75.106,174.871,77.048Z" transform="translate(-165.222 -74.784)" fill="#ed6969"/>
          </g>
          <g id="Grupo_1113594" data-name="Grupo 1113594" transform="translate(35.978 46.406)">
            <path id="Trazado_901880" data-name="Trazado 901880" d="M177.028,109.857a.969.969,0,0,1-.555-.277.532.532,0,0,1,.277-.832c5.826-2.774,19.7-11.375,24.969-33.292,0-.277.555-.555.832-.555s.555.555.555.832c-5.549,22.472-19.975,31.35-25.8,34.125Z" transform="translate(-176.359 -74.9)" fill="#a0180a"/>
          </g>
          <g id="Grupo_1113597" data-name="Grupo 1113597" transform="translate(3.633 34.763)">
            <g id="Grupo_1113595" data-name="Grupo 1113595" transform="translate(2.721 1.62)">
              <path id="Trazado_901881" data-name="Trazado 901881" d="M170.728,74.1c.277,1.942-.555,3.607-1.942,3.884s-2.774-1.11-3.052-2.774c-.277-1.942.555-3.607,1.942-3.884S170.45,72.432,170.728,74.1Z" transform="translate(-165.681 -71.287)" fill="#422038"/>
            </g>
            <g id="Grupo_1113596" data-name="Grupo 1113596">
              <path id="Trazado_901882" data-name="Trazado 901882" d="M164.7,74.3s4.439-5.271,10.543-3.052Z" transform="translate(-164.7 -70.703)" fill="#422038"/>
            </g>
          </g>
          <g id="Grupo_1113600" data-name="Grupo 1113600" transform="translate(26.66 33.153)">
            <g id="Grupo_1113598" data-name="Grupo 1113598" transform="translate(2.721 1.215)">
              <path id="Trazado_901883" data-name="Trazado 901883" d="M179.305,73.721c.277,1.942-.555,3.884-1.942,4.162s-3.052-1.11-3.329-3.052.555-3.884,1.942-4.162C177.363,70.114,179.028,71.779,179.305,73.721Z" transform="translate(-173.981 -70.561)" fill="#422038"/>
            </g>
            <g id="Grupo_1113599" data-name="Grupo 1113599">
              <path id="Trazado_901884" data-name="Trazado 901884" d="M173,70.892s6.381-2.774,10.543,2.219Z" transform="translate(-173 -70.123)" fill="#422038"/>
            </g>
          </g>
          <g id="Grupo_1113601" data-name="Grupo 1113601" transform="translate(27.215 15.797)">
            <path id="Trazado_901885" data-name="Trazado 901885" d="M186.794,73.946S180.136,68.674,173.2,68.4C173.477,68.119,180.413,55.357,186.794,73.946Z" transform="translate(-173.2 -63.867)" fill="#422038"/>
          </g>
          <g id="Grupo_1113602" data-name="Grupo 1113602" transform="translate(0.304 18.744)">
            <path id="Trazado_901886" data-name="Trazado 901886" d="M163.5,73.448s6.658-4.162,13.04-3.884C176.54,69.286,169.6,57.079,163.5,73.448Z" transform="translate(-163.5 -64.93)" fill="#422038"/>
          </g>
          <g id="Grupo_1113603" data-name="Grupo 1113603" transform="translate(23.76 55.561)">
            <path id="Trazado_901887" data-name="Trazado 901887" d="M177.629,78.755A8.208,8.208,0,0,1,180.4,78.2a4.668,4.668,0,0,1,4.162,1.942c.832,1.387.277,3.607-1.11,3.884-.555.277-1.387,0-2.22.277-1.665.555-1.665,3.052-3.052,4.162-1.942,1.387-4.994-.277-5.826-1.942-1.11-1.942.277-4.162,1.665-5.271A6.6,6.6,0,0,1,177.629,78.755Z" transform="translate(-171.955 -78.2)" fill="#422038"/>
          </g>
          <g id="Grupo_1113605" data-name="Grupo 1113605" transform="translate(32.209 64.602)">
            <g id="Grupo_1113604" data-name="Grupo 1113604">
              <path id="Trazado_901888" data-name="Trazado 901888" d="M176.942,84.07v-.277h0v-.277h0l.277-.277h0a.272.272,0,0,0,.277-.277h.555c.277,0,.832,0,.832-.555,0-.277,0-.832-.555-.832a3.131,3.131,0,0,0-2.219.277A2.281,2.281,0,0,0,175,83.516v.555a.272.272,0,0,0,.277.277c1.11.277,1.665,0,1.665-.277Z" transform="translate(-175 -81.459)" fill="#a0180a"/>
            </g>
          </g>
        </g>
        <g id="Grupo_1113616" data-name="Grupo 1113616" transform="translate(0 52.381)">
          <g id="Grupo_1113607" data-name="Grupo 1113607">
            <path id="Trazado_901889" data-name="Trazado 901889" d="M236.529,196.549c-7.768-13.317-36.344-49.939-44.113-63.256-3.329-5.549-6.658-11.375-8.323-17.479-1.942-6.936-2.22-14.427-3.607-21.64a55.626,55.626,0,0,0-12.762-25.524c-1.942-2.219-3.884-4.162-6.658-4.716s-6.1.832-6.658,3.607c-.555,3.329,2.5,5.826,5.549,7.768,2.774,1.942,5.826,5.271,4.162,8.323a5.54,5.54,0,0,1-2.774,2.22c-7.768,3.884-18.033-.277-21.363-8.046-2.22-5.271-1.942-11.93-6.659-14.982a3.852,3.852,0,0,0-3.052-.555c-2.22.555-2.774,3.607-2.774,5.826a31.088,31.088,0,0,0,5.826,16.924c-5.549-4.716-4.162-14.982-9.433-20.253a6.547,6.547,0,0,0-4.439-1.942,5.448,5.448,0,0,0-3.607,2.5c-2.774,4.439,0,9.988,3.052,14.427,4.716,6.936,10.543,13.317,18.311,16.369-7.491-3.607-14.7-10.82-19.143-18.033-1.387-2.22-2.774-4.716-4.716-6.381-2.22-1.665-5.549-2.219-7.491-.277a5.177,5.177,0,0,0-1.11,5.271,17.668,17.668,0,0,0,2.774,4.994,58.655,58.655,0,0,0,25.524,18.588c-6.936-4.162-14.427-8.046-21.363-12.485-1.942-1.11-4.162-2.5-6.381-1.665-2.774.832-3.607,4.716-2.5,7.491,1.387,2.774,3.884,4.439,6.659,5.826a75.374,75.374,0,0,0,21.918,7.213c7.491,1.11,15.814,1.387,22.195,5.549,3.329,2.22,5.826,5.549,8.046,8.878,18.033,27.466,25.524,94.329,42.725,122.35,3.884,6.1,8.6-4.439,15.536-1.942s15.814.277,18.866-6.381c1.387-3.052,1.387-6.936,1.11-10.265C238.471,213.75,241.8,205.7,236.529,196.549Z" transform="translate(-102.329 -62.161)" fill="#f9acac"/>
          </g>
          <g id="Grupo_1113609" data-name="Grupo 1113609" transform="translate(35.111 26.567)">
            <g id="Grupo_1113608" data-name="Grupo 1113608">
              <path id="Trazado_901890" data-name="Trazado 901890" d="M145.824,76.906a9.86,9.86,0,0,1-10.265,1.11c-2.774-1.387-4.439-3.884-7.213-5.271a7.175,7.175,0,0,0-7.768.277c-3.052,1.942-4.162,5.271-5.549,8.6-.277.832.832,1.11,1.11.277,1.387-3.329,3.052-7.491,6.658-8.6,3.329-1.11,6.1,1.665,8.323,3.607,2.22,1.665,4.162,3.329,6.936,3.607a11.875,11.875,0,0,0,8.046-2.22c.832-.832.277-1.942-.277-1.387Z" transform="translate(-114.984 -71.737)" fill="#a0180a"/>
            </g>
          </g>
          <g id="Grupo_1113611" data-name="Grupo 1113611" transform="translate(24.312 1.704)">
            <g id="Grupo_1113610" data-name="Grupo 1113610">
              <path id="Trazado_901891" data-name="Trazado 901891" d="M118.883,83.93A31.763,31.763,0,0,1,112.5,63.4a.7.7,0,0,0-1.387,0,32.7,32.7,0,0,0,6.658,21.363c.832.832,1.665-.277,1.11-.832Z" transform="translate(-111.092 -62.775)" fill="#a0180a"/>
            </g>
          </g>
          <g id="Grupo_1113613" data-name="Grupo 1113613" transform="translate(11.252 6.82)">
            <g id="Grupo_1113612" data-name="Grupo 1113612">
              <path id="Trazado_901892" data-name="Trazado 901892" d="M123.352,82.877a25.459,25.459,0,0,1-15.814-17.756c-.277-.832-1.387-.555-1.11.277a27.314,27.314,0,0,0,16.646,18.588c.832.277,1.11-.832.277-1.11Z" transform="translate(-106.384 -64.619)" fill="#a0180a"/>
            </g>
          </g>
          <g id="Grupo_1113615" data-name="Grupo 1113615" transform="translate(2.928 15.293)">
            <g id="Grupo_1113614" data-name="Grupo 1113614">
              <path id="Trazado_901893" data-name="Trazado 901893" d="M125.346,82.452c-4.716-.555-8.878-1.665-12.762-4.439a23.457,23.457,0,0,1-8.046-9.988c-.277-.832-1.387,0-1.11.555a23.247,23.247,0,0,0,8.323,10.265c4.162,3.052,8.6,4.162,13.317,4.994.832,0,1.11-1.387.277-1.387Z" transform="translate(-103.384 -67.673)" fill="#a0180a"/>
            </g>
          </g>
        </g>
        <g id="Grupo_1113617" data-name="Grupo 1113617" transform="translate(186.625 100.853)">
          <path id="Trazado_901894" data-name="Trazado 901894" d="M392.389,369.742c.555-47.719-.555-97.935-10.82-144.545-6.1-27.466-15.814-54.1-26.634-80.179-3.607-8.323-7.213-16.646-13.04-23.582-13.872-16.091-36.344-20.808-57.152-24.692a178.2,178.2,0,0,0-20.808-2.774,17.271,17.271,0,0,1-9.988-4.439c-2.774-2.774-4.716-6.381-7.768-8.6s-9.988-1.665-10.82,2.22a32.9,32.9,0,0,1-14.982,20.808c-4.716,2.774-10.82,4.994-12.762,10.265s.832,10.82,3.607,15.814c.555-.277.832-.832,1.387-1.11-16.924,15.814-27.189,36.9-34.957,58.539-3.884,10.543-7.768,21.085-8.046,32.183-.277,13.317,4.994,25.8,8.878,38.286,11.652,36.067,14.982,74.076,18.588,111.53Z" transform="translate(-169.596 -79.632)" fill="#ffc94f"/>
        </g>
        <g id="Grupo_1113627" data-name="Grupo 1113627" transform="translate(402.988)">
          <g id="Grupo_1113618" data-name="Grupo 1113618">
            <path id="Trazado_901895" data-name="Trazado 901895" d="M249.3,203.138c4.994-14.7,23.3-61.036,28.3-75.74,1.942-6.1,4.162-12.485,4.716-18.866.555-7.213-.832-14.7-.832-21.918a56.665,56.665,0,0,1,7.213-27.744c1.387-2.5,3.052-4.994,5.549-6.1s6.1-.555,7.213,2.219c1.387,3.052-1.387,6.381-3.607,8.878s-4.439,6.381-2.22,8.878a6.613,6.613,0,0,0,3.052,1.665C307,76.627,316.436,70.523,317.823,62.2c1.11-5.549-.555-12.207,3.329-15.814A3.852,3.852,0,0,1,323.927,45c2.22,0,3.607,2.774,3.884,4.994a29.945,29.945,0,0,1-2.22,17.756c4.439-5.826,1.11-15.536,4.994-21.64a5.736,5.736,0,0,1,3.884-2.774A4.265,4.265,0,0,1,338.354,45c3.607,3.884,1.942,9.988,0,14.7-3.329,7.768-7.491,15.259-14.7,19.975,6.658-4.994,12.207-13.594,14.982-21.64.832-2.5,1.665-5.271,3.329-7.213s4.994-3.329,7.213-1.942a5.7,5.7,0,0,1,2.219,4.994,11.775,11.775,0,0,1-1.665,5.271A57.662,57.662,0,0,1,328.643,82.73c5.826-5.549,12.485-10.82,18.311-16.646,1.665-1.665,3.607-3.329,5.826-3.052,3.052.277,4.716,3.884,3.884,6.936-.832,2.774-3.052,4.994-5.271,6.936a79.168,79.168,0,0,1-19.976,11.375c-7.213,2.774-15.259,4.439-20.53,9.988-2.774,2.774-4.716,6.659-6.1,10.265-12.207,30.518-3.329,90.167-14.427,120.963-2.5,6.936-11.93,10.265-18.311,14.149-6.1,3.884-15.537,3.607-19.976-2.219-2.219-2.774-2.774-6.381-3.329-9.988C248.464,221.172,245.967,213.4,249.3,203.138Z" transform="translate(-247.582 -43.281)" fill="#f9acac"/>
          </g>
          <g id="Grupo_1113620" data-name="Grupo 1113620" transform="translate(44.583 31.31)">
            <g id="Grupo_1113619" data-name="Grupo 1113619">
              <path id="Trazado_901896" data-name="Trazado 901896" d="M264.063,65.2a12.222,12.222,0,0,0,8.323.555c2.774-.832,4.439-2.774,6.1-4.994,1.942-2.219,3.884-5.271,7.213-5.271,4.162,0,6.658,3.884,8.878,7.213.555.832,1.665,0,1.11-.555-1.665-2.774-3.607-5.549-6.936-6.936a7.2,7.2,0,0,0-7.768,1.11c-2.219,1.942-3.607,4.716-5.826,6.658a9.692,9.692,0,0,1-10.543,1.387c-.832-.555-1.387.555-.555.832Z" transform="translate(-263.652 -54.566)" fill="#a0180a"/>
            </g>
          </g>
          <g id="Grupo_1113622" data-name="Grupo 1113622" transform="translate(76.578 3.158)">
            <g id="Grupo_1113621" data-name="Grupo 1113621">
              <path id="Trazado_901897" data-name="Trazado 901897" d="M276.338,67.116a32.283,32.283,0,0,0,2.22-22.195c-.277-.832-1.387-.555-1.11.277a30,30,0,0,1-2.22,21.363c-.277.555.832,1.387,1.11.555Z" transform="translate(-275.184 -44.419)" fill="#a0180a"/>
            </g>
          </g>
          <g id="Grupo_1113624" data-name="Grupo 1113624" transform="translate(80.56 5.256)">
            <g id="Grupo_1113623" data-name="Grupo 1113623">
              <path id="Trazado_901898" data-name="Trazado 901898" d="M277.675,67.439A26.941,26.941,0,0,0,290.16,45.8a.7.7,0,0,0-1.387,0,25.135,25.135,0,0,1-11.93,20.53c-.555.555,0,1.665.832,1.11Z" transform="translate(-276.619 -45.175)" fill="#a0180a"/>
            </g>
          </g>
          <g id="Grupo_1113626" data-name="Grupo 1113626" transform="translate(84.859 11.758)">
            <g id="Grupo_1113625" data-name="Grupo 1113625">
              <path id="Trazado_901899" data-name="Trazado 901899" d="M278.81,67.719a31.005,31.005,0,0,0,6.936-3.052,26.353,26.353,0,0,0,5.271-4.439,24.59,24.59,0,0,0,6.1-11.93c.277-.832-1.11-1.11-1.11-.277A23.556,23.556,0,0,1,290.185,59.4a22.1,22.1,0,0,1-4.716,4.162,35.528,35.528,0,0,1-6.658,3.052c-1.11,0-.555,1.387,0,1.11Z" transform="translate(-278.169 -47.519)" fill="#a0180a"/>
            </g>
          </g>
        </g>
        <g id="Grupo_1113628" data-name="Grupo 1113628" transform="translate(327.019 123.513)">
          <path id="Trazado_901900" data-name="Trazado 901900" d="M220.2,87.8a135.935,135.935,0,0,1,64.088,44.113,7.187,7.187,0,0,1,6.381-3.052c-1.942-6.1,5.549-13.04,11.652-14.149s12.485,1.387,18.033,4.162c13.317,6.658,26.911,17.479,26.634,32.46-.277,10.543-14.982,55.21-22.195,62.978-3.329,3.607-6.659,7.491-10.265,11.1-1.942,1.942-3.884,4.162-6.1,5.549-4.716,3.052-10.82,3.052-16.646,2.5C268.2,230.4,255.157,178.8,241.84,159.1,229.355,139.4,224.362,111.1,220.2,87.8Z" transform="translate(-220.2 -87.8)" fill="#ffc94f"/>
        </g>
        <g id="Grupo_1113629" data-name="Grupo 1113629" transform="translate(85.221 164.255)">
          <path id="Trazado_901901" data-name="Trazado 901901" d="M220.866,150.523c-1.942,1.942-4.994,4.162-7.213,2.5-1.11-.832-1.387-2.219-2.5-2.774s-2.5,0-3.884.277c-6.658,1.387-11.93-5.826-14.149-12.207s-4.439-14.149-10.82-16.646c-5.271-2.22-11.1.277-16.091,2.5-8.046,3.607-15.814,7.213-23.86,10.82-3.052,1.387-6.381,3.052-8.046,5.826-2.5,4.439-.832,9.71,1.11,14.427a235.811,235.811,0,0,0,30.8,52.99c4.716,6.1,9.988,12.207,17.2,15.259,6.1,2.5,13.317,2.5,19.975,1.11,19.143-3.607,35.512-16.091,50.771-28.3,13.317-10.543,27.189-21.917,33.847-37.454a51.6,51.6,0,0,0,3.607-26.634c-1.11-8.323-3.884-17.756-9.71-24.137-4.439-4.994-11.375-7.491-17.756-3.884-3.884,2.219-6.381,6.1-9.433,9.433-3.329,3.884-6.936,8.046-10.543,11.93C236.958,133.6,228.912,141.923,220.866,150.523Z" transform="translate(-133.046 -102.485)" fill="#ffc94f"/>
        </g>
        <g id="Grupo_1113631" data-name="Grupo 1113631" transform="translate(227.653 133.367)">
          <g id="Grupo_1113630" data-name="Grupo 1113630">
            <path id="Trazado_901902" data-name="Trazado 901902" d="M184.428,108.41c3.607,6.1,13.04,2.219,17.756-.277A37.14,37.14,0,0,0,217.72,92.318c.277-.832-.832-1.387-1.11-.555a33.509,33.509,0,0,1-13.317,14.427,27.235,27.235,0,0,1-8.878,3.607c-3.052.832-6.936.832-8.6-1.942-.555-.832-1.665,0-1.387.555Z" transform="translate(-184.384 -91.352)" fill="#422038"/>
          </g>
        </g>
        <g id="Grupo_1113633" data-name="Grupo 1113633" transform="translate(262.225 118.94)">
          <g id="Grupo_1113632" data-name="Grupo 1113632">
            <path id="Trazado_901903" data-name="Trazado 901903" d="M198.106,96.551c1.942-3.052,3.884-6.381,5.826-9.433.555-.832-.555-1.387-1.11-.555C200.881,89.615,198.939,92.944,197,96c-.555.832.555,1.387,1.11.555Z" transform="translate(-196.846 -86.152)" fill="#422038"/>
          </g>
        </g>
        <g id="Grupo_1113635" data-name="Grupo 1113635" transform="translate(235.559 116.225)">
          <g id="Grupo_1113634" data-name="Grupo 1113634">
            <path id="Trazado_901904" data-name="Trazado 901904" d="M188.249,111.049a119.711,119.711,0,0,0,23.86-24.969c.555-.555-.555-1.387-1.11-.555a132.441,132.441,0,0,1-23.582,24.692c-.555.277.277,1.387.832.832Z" transform="translate(-187.234 -85.173)" fill="#422038"/>
          </g>
        </g>
        <g id="Grupo_1113637" data-name="Grupo 1113637" transform="translate(326.453 128.578)">
          <g id="Grupo_1113636" data-name="Grupo 1113636">
            <path id="Trazado_901905" data-name="Trazado 901905" d="M221.117,90.11c-3.884,24.969,2.774,50.216,13.04,73.243,8.6,19.421,20.253,38.009,36.344,51.881a94.222,94.222,0,0,0,29.686,17.479c.832.277,1.11-.832.277-1.11-40.506-14.427-64.92-57.152-75.185-96.826-3.607-14.427-5.271-29.408-3.052-44.113.277-1.11-.832-1.387-1.11-.555Z" transform="translate(-219.996 -89.626)" fill="#422038"/>
          </g>
        </g>
        <g id="Grupo_1113639" data-name="Grupo 1113639" transform="translate(371.095 162.963)">
          <g id="Grupo_1113638" data-name="Grupo 1113638">
            <path id="Trazado_901906" data-name="Trazado 901906" d="M257.764,102.243c-10.265,14.7-16.924,31.905-21.64,49.106-.277.832,1.11,1.11,1.11.277,4.716-17.2,11.375-34.125,21.363-48.551.832-.832-.277-1.387-.832-.832Z" transform="translate(-236.087 -102.02)" fill="#422038"/>
          </g>
        </g>
        <g id="Grupo_1113641" data-name="Grupo 1113641" transform="translate(371.642 181.346)">
          <g id="Grupo_1113640" data-name="Grupo 1113640">
            <path id="Trazado_901907" data-name="Trazado 901907" d="M247.148,108.8a39.784,39.784,0,0,0-6.381,5.549,38.806,38.806,0,0,0-4.439,7.213c-.277.832.832,1.387,1.11.555a26.723,26.723,0,0,1,4.439-6.936,27.849,27.849,0,0,1,6.1-5.271c.555-.555,0-1.665-.832-1.11Z" transform="translate(-236.284 -108.645)" fill="#422038"/>
          </g>
        </g>
        <g id="Grupo_1113643" data-name="Grupo 1113643" transform="translate(395.086 161.062)">
          <g id="Grupo_1113642" data-name="Grupo 1113642">
            <path id="Trazado_901908" data-name="Trazado 901908" d="M244.917,102.349a99.064,99.064,0,0,0,34.68,22.195c.832.277,1.11-.832.277-1.11a94.8,94.8,0,0,1-34.125-21.918.589.589,0,0,0-.832.832Z" transform="translate(-244.734 -101.334)" fill="#422038"/>
          </g>
        </g>
        <g id="Grupo_1113645" data-name="Grupo 1113645" transform="translate(436.884 186.769)">
          <g id="Grupo_1113644" data-name="Grupo 1113644">
            <path id="Trazado_901909" data-name="Trazado 901909" d="M260.355,111.987c2.219.832,4.439,1.387,6.381,2.22.277,0,.832,0,.832-.555,0-.277,0-.555-.555-.832-2.219-.832-4.439-1.387-6.381-2.219-.277,0-.832,0-.832.555s.277.832.555.832Z" transform="translate(-259.8 -110.6)" fill="#422038"/>
          </g>
        </g>
        <g id="Grupo_1113647" data-name="Grupo 1113647" transform="translate(406.461 180.482)">
          <g id="Grupo_1113646" data-name="Grupo 1113646">
            <path id="Trazado_901910" data-name="Trazado 901910" d="M249.017,109.349a62.566,62.566,0,0,0,23.027,13.594c.832.277,1.11-1.11.277-1.11a59.737,59.737,0,0,1-22.472-13.317.589.589,0,0,0-.832.832Z" transform="translate(-248.834 -108.334)" fill="#422038"/>
          </g>
        </g>
        <g id="Grupo_1113649" data-name="Grupo 1113649" transform="translate(189.266 187.467)">
          <g id="Grupo_1113648" data-name="Grupo 1113648">
            <path id="Trazado_901911" data-name="Trazado 901911" d="M187.616,111.263a150.908,150.908,0,0,0-15.259,45.777c-2.219,14.427-3.607,31.35,3.329,44.945.277.832,1.387,0,1.11-.555-6.936-13.872-5.271-31.628-2.774-46.332a142.707,142.707,0,0,1,14.7-43.28c.555-.832-.555-1.387-1.11-.555Z" transform="translate(-170.548 -110.852)" fill="#422038"/>
          </g>
        </g>
        <g id="Grupo_1113651" data-name="Grupo 1113651" transform="translate(221.736 292.428)">
          <g id="Grupo_1113650" data-name="Grupo 1113650">
            <path id="Trazado_901912" data-name="Trazado 901912" d="M182.663,149.838c19.975,8.878,39.674,18.588,58.817,29.131.832.277,1.387-.832.555-1.11-19.143-10.543-38.841-20.253-58.817-29.131-.832-.277-1.387.832-.555,1.11Z" transform="translate(-182.252 -148.684)" fill="#422038"/>
          </g>
        </g>
        <g id="Grupo_1113653" data-name="Grupo 1113653" transform="translate(246.333 311.017)">
          <g id="Grupo_1113652" data-name="Grupo 1113652">
            <path id="Trazado_901913" data-name="Trazado 901913" d="M191.347,156.538,203,161.532c.832.277,1.387-.832.555-1.11L191.9,155.428c-.555-.277-1.11.832-.555,1.11Z" transform="translate(-191.117 -155.384)" fill="#422038"/>
          </g>
        </g>
        <g id="Grupo_1113655" data-name="Grupo 1113655" transform="translate(163.886 215.553)">
          <g id="Grupo_1113654" data-name="Grupo 1113654">
            <path id="Trazado_901914" data-name="Trazado 901914" d="M163.342,121.6c-.555,5.549-1.387,11.1-1.942,16.646,0,.832,1.11.832,1.387,0,.555-5.549,1.387-11.1,1.942-16.646a.7.7,0,0,0-1.387,0Z" transform="translate(-161.4 -120.975)" fill="#422038"/>
          </g>
        </g>
        <g id="Grupo_1113657" data-name="Grupo 1113657" transform="translate(139.712 211.508)">
          <g id="Grupo_1113656" data-name="Grupo 1113656">
            <path id="Trazado_901915" data-name="Trazado 901915" d="M169.092,119.747a89.29,89.29,0,0,0-16.369,36.622c-.277.832,1.11,1.11,1.11.277A91.91,91.91,0,0,1,170.2,120.3c.555-.555-.555-1.11-1.11-.555Z" transform="translate(-152.687 -119.517)" fill="#422038"/>
          </g>
        </g>
        <g id="Grupo_1113659" data-name="Grupo 1113659" transform="translate(111.871 202.432)">
          <g id="Grupo_1113658" data-name="Grupo 1113658">
            <path id="Trazado_901916" data-name="Trazado 901916" d="M143.618,124.72c3.884-2.5,7.768-4.994,11.652-7.213.832-.555,0-1.665-.555-1.11-3.884,2.5-7.768,4.994-11.652,7.213-.832.555-.277,1.665.555,1.11Z" transform="translate(-142.652 -116.245)" fill="#422038"/>
          </g>
        </g>
      </g>
      <g id="Grupo_1113663" data-name="Grupo 1113663" transform="translate(315.594 103.833)">
        <g id="Grupo_1113662" data-name="Grupo 1113662">
          <g id="Grupo_1113661" data-name="Grupo 1113661">
            <path id="Trazado_901917" data-name="Trazado 901917" d="M232.046,81.655c0-4.162-1.387-8.046-2.774-11.652-3.052-8.6-6.658-17.2-11.93-23.3s-12.485-8.878-18.311-5.271c-10.82,6.658-15.259,31.35-27.189,31.35-6.1,0-10.82-7.491-16.091-11.93-8.046-6.936-18.311-7.491-26.634-1.665-5.826,4.162-12.207,12.485-13.317,22.472Z" transform="translate(-115.8 -39.821)" fill="#dcf8ff"/>
          </g>
        </g>
      </g>
      <g id="Grupo_1113666" data-name="Grupo 1113666" transform="translate(3.2 274.457)">
        <g id="Grupo_1113665" data-name="Grupo 1113665">
          <g id="Grupo_1113664" data-name="Grupo 1113664">
            <path id="Trazado_901918" data-name="Trazado 901918" d="M104.187,143.155a39.488,39.488,0,0,0-2.219-11.652c-2.774-8.6-5.826-17.2-10.265-23.3s-10.82-8.878-16.091-5.271c-9.433,6.658-13.317,31.35-23.582,31.35-5.271,0-9.433-7.491-13.872-11.93-6.936-6.936-15.814-7.491-23.3-1.665A35.666,35.666,0,0,0,3.2,143.155Z" transform="translate(-3.2 -101.321)" fill="#dcf8ff"/>
          </g>
        </g>
      </g>
      <g id="Grupo_1113669" data-name="Grupo 1113669" transform="translate(697.348 421.334)">
        <g id="Grupo_1113668" data-name="Grupo 1113668">
          <g id="Grupo_1113667" data-name="Grupo 1113667">
            <path id="Trazado_901919" data-name="Trazado 901919" d="M331.637,186.828a35.394,35.394,0,0,0-1.665-9.155c-2.219-6.658-4.439-13.317-8.046-18.033s-8.323-6.936-12.485-4.162c-7.491,4.994-10.265,24.692-18.311,24.414-4.161,0-7.491-5.826-10.82-9.433-5.549-5.549-12.485-5.826-18.033-1.11a26.455,26.455,0,0,0-8.878,17.479h78.237Z" transform="translate(-253.4 -154.262)" fill="#dcf8ff"/>
          </g>
        </g>
      </g>
      <g id="Grupo_1113672" data-name="Grupo 1113672" transform="translate(596.638 27.978)">
        <g id="Grupo_1113671" data-name="Grupo 1113671">
          <g id="Grupo_1113670" data-name="Grupo 1113670">
            <path id="Trazado_901920" data-name="Trazado 901920" d="M323.913,56.648a36.847,36.847,0,0,0-2.5-12.207c-2.774-9.155-6.1-18.311-10.82-24.692s-11.375-9.433-16.924-5.549c-9.988,6.936-14.149,33.292-24.969,33.015-5.549,0-9.988-7.768-14.7-12.762-7.491-7.213-16.924-8.046-24.692-1.665A37.039,37.039,0,0,0,217.1,56.371H323.913Z" transform="translate(-217.1 -12.48)" fill="#dcf8ff"/>
          </g>
        </g>
      </g>
      <g id="Grupo_1113675" data-name="Grupo 1113675" transform="translate(641.311 28.866)">
        <g id="Grupo_1113674" data-name="Grupo 1113674">
          <g id="Grupo_1113673" data-name="Grupo 1113673">
            <path id="Trazado_901921" data-name="Trazado 901921" d="M236.248,64.4a66.93,66.93,0,0,0,16.646-22.472c3.052-6.936,6.658-16.091,3.607-23.582-1.11-2.774-3.329-5.271-6.658-5.549a7.16,7.16,0,0,0-6.936,4.994c-3.052,7.213.555,15.814,4.716,21.64a37.444,37.444,0,0,0,22.75,15.536,1.716,1.716,0,0,0,.832-3.329,33.484,33.484,0,0,1-17.756-9.988c-4.162-4.716-8.323-11.375-8.323-17.756,0-2.5.555-6.381,3.607-7.213s4.439,2.5,4.994,4.994a23.166,23.166,0,0,1-.832,9.71,48.15,48.15,0,0,1-3.884,10.543,65.066,65.066,0,0,1-15.259,20.53c-1.665,1.11.832,3.607,2.5,1.942Z" transform="translate(-233.202 -12.8)" fill="#464654"/>
          </g>
        </g>
      </g>
      <g id="Grupo_1113678" data-name="Grupo 1113678" transform="translate(737.007 239.231)">
        <g id="Grupo_1113677" data-name="Grupo 1113677">
          <g id="Grupo_1113676" data-name="Grupo 1113676">
            <path id="Trazado_901922" data-name="Trazado 901922" d="M269.373,91.054a16.609,16.609,0,0,1,16.091,7.768c3.329,5.826,2.219,13.317-1.942,18.311.555,0,1.11-.277,1.665-.277-1.942-1.11-2.219-3.329-1.665-5.271a6.041,6.041,0,0,1,4.994-3.884A19.478,19.478,0,0,1,301,109.92c7.213,3.607,13.04,10.543,14.427,18.588.555,2.5.277,6.1-3.052,5.549a4.143,4.143,0,0,1-3.607-3.884c0-6.1,8.046-6.659,12.207-5.271,8.6,3.052,16.091,10.265,21.085,18.033,1.11,1.665,3.607,0,2.5-1.387-5.549-8.6-14.982-18.311-25.524-19.975-4.439-.832-8.878.555-11.375,4.439-2.219,3.329-1.665,7.491,1.387,9.71,2.774,1.942,6.658,2.22,8.6-.832,2.5-3.607.555-9.155-1.11-12.762-3.884-8.6-12.207-15.536-21.64-17.2-4.439-.832-10.265-.277-13.04,3.884-2.219,3.607-1.942,8.6,1.942,10.82.555.277,1.387.277,1.665-.277a18.307,18.307,0,0,0-16.646-30.518c-1.942-.277-1.11,2.5.555,2.219Z" transform="translate(-267.695 -88.624)" fill="#464654"/>
          </g>
        </g>
      </g>
      <g id="Grupo_1113681" data-name="Grupo 1113681" transform="translate(308.103 93.835)">
        <g id="Grupo_1113680" data-name="Grupo 1113680">
          <g id="Grupo_1113679" data-name="Grupo 1113679">
            <path id="Trazado_901923" data-name="Trazado 901923" d="M116.984,81.391c0-5.826.832-13.04,5.826-16.924,3.884-3.052,10.82-3.329,13.317,1.387.555,1.11,3.052,1.11,3.052-.277,1.11-8.046,2.5-18.588,9.71-23.582,4.994-3.329,14.7-3.607,16.924,3.052.832,2.22,4.162,1.11,3.329-.832-2.774-8.046-12.762-9.71-19.975-6.381-9.988,4.439-12.207,17.2-13.594,26.634,1.11,0,2.22-.277,3.052-.277-3.329-6.1-11.375-6.658-16.924-3.329-6.936,4.162-8.6,13.317-8.6,20.808.277,1.942,3.884,1.942,3.884-.277Z" transform="translate(-113.1 -36.217)" fill="#464654"/>
          </g>
        </g>
      </g>
      <g id="Grupo_1113684" data-name="Grupo 1113684" transform="translate(61.752 206.908)">
        <g id="Grupo_1113683" data-name="Grupo 1113683">
          <g id="Grupo_1113682" data-name="Grupo 1113682">
            <path id="Trazado_901924" data-name="Trazado 901924" d="M28.731,87.034C21.518,91.2,23.737,103.126,30.95,105.9c4.439,1.665,9.71-.277,13.04-3.607a13.872,13.872,0,0,0,3.329-13.317,18.9,18.9,0,0,0-11.93-11.93c-1.665-.555-2.5,2.22-.832,2.774,7.491,2.5,13.594,11.93,8.6,19.143-1.942,3.052-5.826,5.271-9.433,4.716a7.682,7.682,0,0,1-6.381-5.826c-.832-3.052-.277-6.658,2.774-8.6,1.665-.832.277-3.052-1.387-2.219Z" transform="translate(-24.305 -76.974)" fill="#464654"/>
          </g>
        </g>
      </g>
      <g id="Grupo_1113702" data-name="Grupo 1113702" transform="translate(76.443 255.255)">
        <g id="Grupo_1113695" data-name="Grupo 1113695">
          <g id="Grupo_1113685" data-name="Grupo 1113685">
            <path id="Trazado_901925" data-name="Trazado 901925" d="M29.6,94.4,69.274,299.7H318.967L279.293,94.4Z" transform="translate(-29.6 -94.4)" fill="#464654"/>
          </g>
          <g id="Grupo_1113688" data-name="Grupo 1113688" transform="translate(127.344 205.303)">
            <g id="Grupo_1113687" data-name="Grupo 1113687">
              <g id="Grupo_1113686" data-name="Grupo 1113686">
                <rect id="Rectángulo_405201" data-name="Rectángulo 405201" width="61.868" height="32.738" fill="#422038"/>
              </g>
            </g>
          </g>
          <g id="Grupo_1113691" data-name="Grupo 1113691" transform="translate(106.258 238.041)">
            <g id="Grupo_1113690" data-name="Grupo 1113690">
              <g id="Grupo_1113689" data-name="Grupo 1113689">
                <rect id="Rectángulo_405202" data-name="Rectángulo 405202" width="104.039" height="9.433" fill="#464654"/>
              </g>
            </g>
          </g>
          <g id="Grupo_1113694" data-name="Grupo 1113694" transform="translate(127.344 205.303)">
            <g id="Grupo_1113693" data-name="Grupo 1113693">
              <g id="Grupo_1113692" data-name="Grupo 1113692">
                <rect id="Rectángulo_405203" data-name="Rectángulo 405203" width="61.868" height="10.543" fill="#281323"/>
              </g>
            </g>
          </g>
        </g>
        <g id="Grupo_1113696" data-name="Grupo 1113696" transform="translate(90.445 76.018)">
          <path id="Trazado_901926" data-name="Trazado 901926" d="M159.3,201.147H74.962L62.2,121.8h84.341Zm-82.4-2.5h79.347l-11.93-74.631H64.974Z" transform="translate(-62.2 -121.8)" fill="#422038"/>
        </g>
        <g id="Grupo_1113700" data-name="Grupo 1113700" transform="translate(24.414 28.299)">
          <g id="Grupo_1113697" data-name="Grupo 1113697">
            <path id="Trazado_901927" data-name="Trazado 901927" d="M63.647,110.149H41.174a2.78,2.78,0,0,1-2.774-2.774h0a2.78,2.78,0,0,1,2.774-2.774H63.647a2.78,2.78,0,0,1,2.774,2.774h0A2.78,2.78,0,0,1,63.647,110.149Z" transform="translate(-38.4 -104.6)" fill="#422038"/>
          </g>
          <g id="Grupo_1113698" data-name="Grupo 1113698" transform="translate(3.329 9.988)">
            <path id="Trazado_901928" data-name="Trazado 901928" d="M64.847,113.749H42.374a2.78,2.78,0,0,1-2.774-2.774h0a2.78,2.78,0,0,1,2.774-2.774H64.847a2.78,2.78,0,0,1,2.774,2.774h0A2.621,2.621,0,0,1,64.847,113.749Z" transform="translate(-39.6 -108.2)" fill="#422038"/>
          </g>
          <g id="Grupo_1113699" data-name="Grupo 1113699" transform="translate(7.491 20.253)">
            <path id="Trazado_901929" data-name="Trazado 901929" d="M66.347,117.449H43.874a2.78,2.78,0,0,1-2.774-2.774h0a2.78,2.78,0,0,1,2.774-2.774H66.347a2.78,2.78,0,0,1,2.774,2.774h0A2.78,2.78,0,0,1,66.347,117.449Z" transform="translate(-41.1 -111.9)" fill="#422038"/>
          </g>
        </g>
        <g id="Grupo_1113701" data-name="Grupo 1113701" transform="translate(218.62 173.953)">
          <path id="Trazado_901930" data-name="Trazado 901930" d="M150.016,170.972H111.452L108.4,157.1h38.564Z" transform="translate(-108.4 -157.1)" fill="#422038"/>
        </g>
      </g>
      <g id="Grupo_1113703" data-name="Grupo 1113703" transform="translate(21.788 503.006)">
        <path id="Trazado_901931" data-name="Trazado 901931" d="M749.27,186.474H11.287a1.387,1.387,0,1,1,0-2.774H749.27a1.387,1.387,0,0,1,0,2.774Z" transform="translate(-9.9 -183.7)" fill="#422038"/>
      </g>
      <g id="Grupo_1113719" data-name="Grupo 1113719" transform="translate(65.901 3.745)">
        <g id="Grupo_1113704" data-name="Grupo 1113704" transform="translate(47.667)">
          <path id="Trazado_901932" data-name="Trazado 901932" d="M54.131,147.61c5.271,3.607,11.652,4.994,18.033,6.1,26.634,5.271,55.487,14.7,69.637,38.009,7.213,12.485,12.207,29.408,26.079,31.905,13.317,2.5,24.692-11.93,24.414-25.247s-8.878-25.247-18.033-34.957c-2.5-2.5-4.994-5.549-5.271-8.878-.555-4.716,3.329-9.155,7.491-10.82,4.439-1.942,9.155-1.942,13.872-2.5,11.93-1.387,24.414-5.826,31.073-15.814,6.936-9.988,5.549-25.524-4.716-31.628a20.6,20.6,0,0,0,9.433-19.975c-1.11-7.768-6.936-14.7-14.427-16.646a19.612,19.612,0,0,0,6.936-22.472c-3.329-7.768-12.207-12.762-20.53-11.375,4.994-.832,6.381-8.323,3.329-12.485s-8.6-5.549-13.594-6.1c-19.7-2.774-39.674.832-59.372,4.439-23.3,3.607-46.887,8.046-70.469,12.207-3.052.555-6.1,1.11-8.323,3.329-2.774,2.5-3.607,6.658-4.162,10.543a395.059,395.059,0,0,0-2.5,51.326c.277,8.323,1.11,16.646,1.387,24.969.277,4.994-.277,10.265.277,15.259C45.53,134.847,47.195,142.893,54.131,147.61Z" transform="translate(-42.981 -3.745)" fill="#fc5959"/>
        </g>
        <g id="Grupo_1113705" data-name="Grupo 1113705" transform="translate(0 7.365)">
          <path id="Trazado_901933" data-name="Trazado 901933" d="M81.565,158.713H34.123A8.175,8.175,0,0,1,25.8,150.39V14.723A8.175,8.175,0,0,1,34.123,6.4H81.565a8.175,8.175,0,0,1,8.323,8.323V150.39A8.175,8.175,0,0,1,81.565,158.713Z" transform="translate(-25.8 -6.4)" fill="#ffc94f"/>
        </g>
        <g id="Grupo_1113706" data-name="Grupo 1113706" transform="translate(11.93 100.307)">
          <path id="Trazado_901934" data-name="Trazado 901934" d="M48.411,76.522A18.311,18.311,0,1,1,66.722,58.211,18.473,18.473,0,0,1,48.411,76.522Zm0-34.125A15.536,15.536,0,1,0,63.947,57.933,15.691,15.691,0,0,0,48.411,42.4Z" transform="translate(-30.1 -39.9)" fill="#422038"/>
        </g>
        <g id="Grupo_1113708" data-name="Grupo 1113708" transform="translate(158.187 201.388)">
          <g id="Grupo_1113707" data-name="Grupo 1113707">
            <path id="Trazado_901935" data-name="Trazado 901935" d="M83.6,77.627a16.264,16.264,0,0,1,17.756,13.594c0,.832,1.387.555,1.11-.277-1.11-9.155-10.543-15.814-19.421-14.427-.555,0,0,1.11.555,1.11Z" transform="translate(-82.817 -76.334)" fill="#422038"/>
          </g>
        </g>
        <g id="Grupo_1113710" data-name="Grupo 1113710" transform="translate(183.161 89.209)">
          <g id="Grupo_1113709" data-name="Grupo 1113709">
            <path id="Trazado_901936" data-name="Trazado 901936" d="M131.44,35.9c-13.04,1.942-26.079,4.439-39.119,6.936-.832.277-.555,1.387.277,1.11,13.04-2.5,26.079-4.716,39.119-6.936.832,0,.555-1.11-.277-1.11Z" transform="translate(-91.819 -35.9)" fill="#422038"/>
          </g>
        </g>
        <g id="Grupo_1113712" data-name="Grupo 1113712" transform="translate(178.878 49.915)">
          <g id="Grupo_1113711" data-name="Grupo 1113711" transform="translate(0 0)">
            <path id="Trazado_901937" data-name="Trazado 901937" d="M129.186,22.745a160.691,160.691,0,0,0-38.286.277c-.832,0-.832,1.387,0,1.11a147.4,147.4,0,0,1,38.286-.277c.832.277.832-.832,0-1.11Z" transform="translate(-90.275 -21.737)" fill="#422038"/>
          </g>
        </g>
        <g id="Grupo_1113714" data-name="Grupo 1113714" transform="translate(173.884 17.085)">
          <g id="Grupo_1113713" data-name="Grupo 1113713">
            <path id="Trazado_901938" data-name="Trazado 901938" d="M117.953,10.171A142.79,142.79,0,0,0,89.1,11.281c-.832,0-.832,1.387,0,1.11a200.754,200.754,0,0,1,28.853-1.11c.832.277.832-.832,0-1.11Z" transform="translate(-88.475 -9.903)" fill="#422038"/>
          </g>
        </g>
        <g id="Grupo_1113715" data-name="Grupo 1113715" transform="translate(152.036 100.584)">
          <path id="Trazado_901939" data-name="Trazado 901939" d="M91.7,62.195a11.1,11.1,0,1,1,11.1-11.1A11.309,11.309,0,0,1,91.7,62.195Zm0-20.53a9.71,9.71,0,0,0,0,19.421,9.714,9.714,0,0,0,0-19.421Z" transform="translate(-80.6 -40)" fill="#422038"/>
        </g>
        <g id="Grupo_1113716" data-name="Grupo 1113716" transform="translate(146.764 65.904)">
          <path id="Trazado_901940" data-name="Trazado 901940" d="M89.8,49.695a11.1,11.1,0,1,1,11.1-11.1A11.13,11.13,0,0,1,89.8,49.695Zm0-20.53a9.71,9.71,0,1,0,9.71,9.71A9.83,9.83,0,0,0,89.8,29.165Z" transform="translate(-78.7 -27.5)" fill="#422038"/>
        </g>
        <g id="Grupo_1113717" data-name="Grupo 1113717" transform="translate(143.712 36.219)">
          <path id="Trazado_901941" data-name="Trazado 901941" d="M87.588,36.775a9.988,9.988,0,1,1,9.988-9.988A9.946,9.946,0,0,1,87.588,36.775Zm0-18.866a8.878,8.878,0,1,0,8.878,8.878C96.188,22.071,92.3,17.91,87.588,17.91Z" transform="translate(-77.6 -16.8)" fill="#422038"/>
        </g>
        <g id="Grupo_1113718" data-name="Grupo 1113718" transform="translate(141.77 9.585)">
          <path id="Trazado_901942" data-name="Trazado 901942" d="M85.223,23.846A8.347,8.347,0,0,1,76.9,15.523,8.175,8.175,0,0,1,85.223,7.2a8.347,8.347,0,0,1,8.323,8.323A8.175,8.175,0,0,1,85.223,23.846Zm0-15.536a7.345,7.345,0,0,0-7.213,7.213,7.213,7.213,0,0,0,14.427,0A7,7,0,0,0,85.223,8.31Z" transform="translate(-76.9 -7.2)" fill="#422038"/>
        </g>
      </g>
      <g id="Grupo_1113720" data-name="Grupo 1113720" transform="translate(605.793 94.883)">
        <path id="Trazado_901943" data-name="Trazado 901943" d="M296.7,67.681a7.453,7.453,0,0,0,3.329-6.936,7.209,7.209,0,0,0-4.994-5.826,6.392,6.392,0,0,0-4.716-11.652c1.665-.277,2.22-2.774,1.11-4.162s-3.052-1.942-4.716-2.219c-6.936-.832-13.872.277-20.53,1.387-8.046,1.387-16.091,3.052-23.86,4.439v-.555a2.78,2.78,0,0,0-2.774-2.774H223.174a2.78,2.78,0,0,0-2.774,2.774V89.321a2.78,2.78,0,0,0,2.774,2.774h16.369a2.78,2.78,0,0,0,2.774-2.774V87.657a20.782,20.782,0,0,0,4.439,1.11c9.155,1.942,19.143,4.994,24.137,13.317,2.5,4.162,4.439,10.265,9.155,11.1s8.6-4.162,8.323-8.878-3.052-8.6-6.381-12.207a7.182,7.182,0,0,1-1.942-3.052c-.277-1.665,1.11-3.052,2.5-3.884a14.092,14.092,0,0,1,4.716-.832c4.161-.555,8.323-1.942,10.82-5.549S300.3,69.623,296.7,67.681Z" transform="translate(-220.4 -36.595)" fill="#fc5959"/>
      </g>
      <g id="Grupo_1113721" data-name="Grupo 1113721" transform="translate(23.175 371.766)">
        <path id="Trazado_901944" data-name="Trazado 901944" d="M75.6,163.042a6.06,6.06,0,0,0,2.774-5.826,6.363,6.363,0,0,0-4.162-4.994,5.538,5.538,0,0,0-4.162-9.988c1.387-.277,1.942-2.5.832-3.607A6.516,6.516,0,0,0,67,136.686c-5.826-.832-11.652.277-17.479,1.387-6.658,1.11-13.594,2.5-20.253,3.607v-.555a2.487,2.487,0,0,0-2.5-2.5H12.9a2.487,2.487,0,0,0-2.5,2.5V180.8a2.487,2.487,0,0,0,2.5,2.5H26.769a2.487,2.487,0,0,0,2.5-2.5v-1.387a8.543,8.543,0,0,0,3.607.832c7.768,1.665,16.369,4.439,20.253,11.1,2.219,3.607,3.607,8.6,7.768,9.433,3.884.832,7.213-3.607,7.213-7.491s-2.5-7.491-5.271-10.265a5.757,5.757,0,0,1-1.665-2.774,3.232,3.232,0,0,1,2.219-3.329,22.117,22.117,0,0,1,4.162-.832c3.607-.277,7.213-1.665,9.155-4.716C78.927,169.423,78.65,164.984,75.6,163.042Z" transform="translate(-10.4 -136.395)" fill="#fc5959"/>
      </g>
      <g id="Grupo_1113722" data-name="Grupo 1113722" transform="translate(368.03 29.131)">
        <path id="Trazado_901945" data-name="Trazado 901945" d="M199.9,39.542a6.06,6.06,0,0,0,2.774-5.826,6.363,6.363,0,0,0-4.162-4.994,5.538,5.538,0,0,0-4.162-9.988c1.387-.277,1.942-2.5.832-3.607a6.516,6.516,0,0,0-3.884-1.942c-5.826-.832-11.652.277-17.479,1.387-6.658,1.11-13.594,2.5-20.253,3.607v-.555a2.487,2.487,0,0,0-2.5-2.5H137.2a2.487,2.487,0,0,0-2.5,2.5V57.3a2.487,2.487,0,0,0,2.5,2.5h13.872a2.487,2.487,0,0,0,2.5-2.5V55.911a8.543,8.543,0,0,0,3.607.832c7.768,1.665,16.369,4.439,20.253,11.1,2.22,3.607,3.607,8.6,7.768,9.433,3.884.832,7.213-3.607,7.213-7.491s-2.5-7.491-5.271-10.265a5.757,5.757,0,0,1-1.665-2.774,3.232,3.232,0,0,1,2.219-3.329,22.118,22.118,0,0,1,4.162-.832c3.607-.277,7.213-1.665,9.155-4.716C203.5,45.923,202.95,41.207,199.9,39.542Z" transform="translate(-134.7 -12.895)" fill="#fc5959"/>
      </g>
      <g id="Grupo_1113729" data-name="Grupo 1113729" transform="translate(517.291 26.647)">
        <g id="Grupo_1113723" data-name="Grupo 1113723">
          <path id="Trazado_901946" data-name="Trazado 901946" d="M218.186,71.372a29.686,29.686,0,1,1,29.686-29.686A29.719,29.719,0,0,1,218.186,71.372Zm0-56.6A26.911,26.911,0,1,0,245.1,41.686,26.937,26.937,0,0,0,218.186,14.774Z" transform="translate(-188.5 -12)" fill="#ffc94f"/>
        </g>
        <g id="Grupo_1113726" data-name="Grupo 1113726" transform="translate(13.872 21.363)">
          <g id="Grupo_1113724" data-name="Grupo 1113724">
            <path id="Trazado_901947" data-name="Trazado 901947" d="M199.6,22.752a3.052,3.052,0,1,1-3.052-3.052A2.911,2.911,0,0,1,199.6,22.752Z" transform="translate(-193.5 -19.7)" fill="#422038"/>
          </g>
          <g id="Grupo_1113725" data-name="Grupo 1113725" transform="translate(24.969)">
            <path id="Trazado_901948" data-name="Trazado 901948" d="M208.6,22.752a3.052,3.052,0,1,1-3.052-3.052A2.911,2.911,0,0,1,208.6,22.752Z" transform="translate(-202.5 -19.7)" fill="#422038"/>
          </g>
        </g>
        <g id="Grupo_1113728" data-name="Grupo 1113728" transform="translate(21.604 32.962)">
          <g id="Grupo_1113727" data-name="Grupo 1113727">
            <path id="Trazado_901949" data-name="Trazado 901949" d="M197.711,34.754c.555-4.439,3.884-8.878,8.323-9.71,4.162-.555,8.878,2.774,8.6,7.213a.7.7,0,0,0,1.387,0c.277-4.994-4.994-8.878-9.988-8.323-5.549.555-9.155,5.826-9.71,11.1-.277.555,1.11.555,1.387-.277Z" transform="translate(-196.287 -23.881)" fill="#422038"/>
          </g>
        </g>
      </g>
      <g id="Grupo_1113736" data-name="Grupo 1113736" transform="translate(99.339 180.493)">
        <g id="Grupo_1113730" data-name="Grupo 1113730">
          <path id="Trazado_901950" data-name="Trazado 901950" d="M67.393,126.956a29.893,29.893,0,0,1-28.853-23.3,30.347,30.347,0,0,1,3.884-22.472,29.055,29.055,0,0,1,18.588-13.04,30.347,30.347,0,0,1,22.472,3.884,29.055,29.055,0,0,1,13.04,18.588h0a30.347,30.347,0,0,1-3.884,22.472,29.055,29.055,0,0,1-18.588,13.04A29.132,29.132,0,0,1,67.393,126.956Zm0-56.6a41.392,41.392,0,0,0-5.826.555,27.541,27.541,0,0,0-16.924,11.93A26.2,26.2,0,0,0,41.036,103.1c3.329,14.427,17.756,23.86,32.183,20.53A27.541,27.541,0,0,0,90.143,111.7a26.2,26.2,0,0,0,3.607-20.253h0A27.541,27.541,0,0,0,81.819,74.52,27.179,27.179,0,0,0,67.393,70.359Z" transform="translate(-37.852 -67.452)" fill="#ffc94f"/>
        </g>
        <g id="Grupo_1113733" data-name="Grupo 1113733" transform="translate(13.396 18.955)">
          <g id="Grupo_1113731" data-name="Grupo 1113731" transform="translate(0 5.447)">
            <path id="Trazado_901951" data-name="Trazado 901951" d="M48.56,78.612a2.995,2.995,0,1,1-3.607-2.219C46.34,75.837,48,76.947,48.56,78.612Z" transform="translate(-42.681 -76.248)" fill="#422038"/>
          </g>
          <g id="Grupo_1113732" data-name="Grupo 1113732" transform="translate(24.137)">
            <path id="Trazado_901952" data-name="Trazado 901952" d="M57.26,76.547a2.995,2.995,0,1,1-3.607-2.22A3.183,3.183,0,0,1,57.26,76.547Z" transform="translate(-51.381 -74.285)" fill="#422038"/>
          </g>
        </g>
        <g id="Grupo_1113735" data-name="Grupo 1113735" transform="translate(24.824 32.018)">
          <g id="Grupo_1113734" data-name="Grupo 1113734">
            <path id="Trazado_901953" data-name="Trazado 901953" d="M48.187,92.052c-.277-4.439,1.665-9.988,6.381-11.652,3.884-1.387,8.878.832,9.71,5.271.277.832,1.387.555,1.11-.277-.555-3.607-4.162-6.1-7.768-6.381-4.162-.277-7.768,2.5-9.433,6.1A15.96,15.96,0,0,0,46.8,92.329c0,.555,1.387.555,1.387-.277Z" transform="translate(-46.8 -78.993)" fill="#422038"/>
          </g>
        </g>
      </g>
      <g id="Grupo_1113743" data-name="Grupo 1113743" transform="translate(396.757 420.203)">
        <g id="Grupo_1113737" data-name="Grupo 1113737">
          <path id="Trazado_901954" data-name="Trazado 901954" d="M174.867,213.353a30.929,30.929,0,0,1-13.872-3.329,29.784,29.784,0,1,1,27.744-52.713,30.594,30.594,0,0,1,14.7,17.479,29.607,29.607,0,0,1-1.942,22.75h0A30.465,30.465,0,0,1,174.867,213.353Zm.277-56.875a26.921,26.921,0,1,0,23.86,39.4h0a27.739,27.739,0,0,0,1.942-20.53,26.906,26.906,0,0,0-13.317-15.814A25.919,25.919,0,0,0,175.144,156.478Z" transform="translate(-145.054 -153.854)" fill="#ffc94f"/>
        </g>
        <g id="Grupo_1113740" data-name="Grupo 1113740" transform="translate(18.225 16.236)">
          <g id="Grupo_1113738" data-name="Grupo 1113738">
            <path id="Trazado_901955" data-name="Trazado 901955" d="M157.385,164.128a3.1,3.1,0,1,1-5.549-2.774c.555-1.665,2.5-1.942,4.162-1.387A2.931,2.931,0,0,1,157.385,164.128Z" transform="translate(-151.623 -159.706)" fill="#422038"/>
          </g>
          <g id="Grupo_1113739" data-name="Grupo 1113739" transform="translate(22.195 11.422)">
            <path id="Trazado_901956" data-name="Trazado 901956" d="M165.385,168.2A3.1,3.1,0,1,1,164,164.036,3.676,3.676,0,0,1,165.385,168.2Z" transform="translate(-159.623 -163.823)" fill="#422038"/>
          </g>
        </g>
        <g id="Grupo_1113742" data-name="Grupo 1113742" transform="translate(16.344 32.86)">
          <g id="Grupo_1113741" data-name="Grupo 1113741">
            <path id="Trazado_901957" data-name="Trazado 901957" d="M152.206,171.806c2.5-3.607,7.768-6.381,12.207-4.439,3.607,1.387,6.1,6.381,4.162,10.265-.277.832.832,1.387,1.11.555,1.942-3.329.832-7.491-1.942-9.988-3.052-3.052-7.491-3.052-11.1-1.387a15.285,15.285,0,0,0-5.549,4.716c-.555.277.555,1.11,1.11.277Z" transform="translate(-150.945 -165.698)" fill="#422038"/>
          </g>
        </g>
      </g>
      <g id="Grupo_1113745" data-name="Grupo 1113745" transform="translate(192.412 212.807)">
        <g id="Grupo_1113744" data-name="Grupo 1113744">
          <path id="Trazado_901958" data-name="Trazado 901958" d="M76.394,89.643c6.659,0,6.659-10.543,0-10.543s-6.658,10.543,0,10.543Z" transform="translate(-71.4 -79.1)" fill="#ffca5f"/>
        </g>
      </g>
      <g id="Grupo_1113747" data-name="Grupo 1113747" transform="translate(331.408 23.873)">
        <g id="Grupo_1113746" data-name="Grupo 1113746">
          <path id="Trazado_901959" data-name="Trazado 901959" d="M126.494,21.543c6.658,0,6.658-10.543,0-10.543s-6.658,10.543,0,10.543Z" transform="translate(-121.5 -11)" fill="#ffca5f"/>
        </g>
      </g>
      <g id="Grupo_1113749" data-name="Grupo 1113749" transform="translate(752.558 353.745)">
        <g id="Grupo_1113748" data-name="Grupo 1113748">
          <path id="Trazado_901960" data-name="Trazado 901960" d="M278.294,140.443c6.658,0,6.658-10.543,0-10.543-6.659.277-6.659,10.543,0,10.543Z" transform="translate(-273.3 -129.9)" fill="#ffca5f"/>
        </g>
      </g>
      <g id="Grupo_1113751" data-name="Grupo 1113751" transform="translate(709 93.232)">
        <g id="Grupo_1113750" data-name="Grupo 1113750">
          <path id="Trazado_901961" data-name="Trazado 901961" d="M262.871,46.543h2.219a2.341,2.341,0,0,0,1.942-.555,5.1,5.1,0,0,0,2.774-2.774,5.143,5.143,0,0,0,.555-1.942,2.5,2.5,0,0,0-.277-1.387,3.813,3.813,0,0,0-1.387-2.22c-.277-.277-.832-.555-1.11-.832a4.475,4.475,0,0,0-2.5-.832h-2.219a2.341,2.341,0,0,0-1.942.555,5.1,5.1,0,0,0-2.774,2.774,5.143,5.143,0,0,0-.555,1.942,2.5,2.5,0,0,0,.277,1.387,3.813,3.813,0,0,0,1.387,2.219c.277.277.832.555,1.11.832a3.391,3.391,0,0,0,2.5.832Z" transform="translate(-257.6 -36)" fill="#ffca5f"/>
        </g>
      </g>
      <g id="Grupo_1113753" data-name="Grupo 1113753" transform="translate(57.578 329.886)">
        <g id="Grupo_1113752" data-name="Grupo 1113752">
          <path id="Trazado_901962" data-name="Trazado 901962" d="M28.071,131.843h2.219a2.341,2.341,0,0,0,1.942-.555,5.1,5.1,0,0,0,2.774-2.774,5.144,5.144,0,0,0,.555-1.942,2.5,2.5,0,0,0-.277-1.387,3.812,3.812,0,0,0-1.387-2.219c-.277-.277-.832-.555-1.11-.832a4.475,4.475,0,0,0-2.5-.832H28.071a2.341,2.341,0,0,0-1.942.555,5.1,5.1,0,0,0-2.774,2.774,5.144,5.144,0,0,0-.555,1.942,2.5,2.5,0,0,0,.277,1.387,3.812,3.812,0,0,0,1.387,2.22c.277.277.832.555,1.11.832a3.391,3.391,0,0,0,2.5.832Z" transform="translate(-22.8 -121.3)" fill="#ffca5f"/>
        </g>
      </g>
      <g id="Grupo_1113755" data-name="Grupo 1113755" transform="translate(138.034 471.101)">
        <g id="Grupo_1113754" data-name="Grupo 1113754">
          <path id="Trazado_901963" data-name="Trazado 901963" d="M56.794,182.743c6.658,0,6.658-10.543,0-10.543-6.658.277-6.658,10.543,0,10.543Z" transform="translate(-51.8 -172.2)" fill="#ffca5f"/>
        </g>
      </g>
      <g id="Grupo_1113757" data-name="Grupo 1113757" transform="translate(481.224 91.012)">
        <g id="Grupo_1113756" data-name="Grupo 1113756">
          <path id="Trazado_901964" data-name="Trazado 901964" d="M180.494,45.743c6.658,0,6.658-10.543,0-10.543-6.659.277-6.659,10.543,0,10.543Z" transform="translate(-175.5 -35.2)" fill="#6589d1"/>
        </g>
      </g>
      <g id="Grupo_1113759" data-name="Grupo 1113759" transform="translate(57.855 186.728)">
        <g id="Grupo_1113758" data-name="Grupo 1113758">
          <path id="Trazado_901965" data-name="Trazado 901965" d="M27.894,80.243c6.658,0,6.658-10.543,0-10.543s-6.658,10.543,0,10.543Z" transform="translate(-22.9 -69.7)" fill="#6589d1"/>
        </g>
      </g>
      <g id="Grupo_1113761" data-name="Grupo 1113761" transform="translate(758.939 291.045)">
        <g id="Grupo_1113760" data-name="Grupo 1113760">
          <path id="Trazado_901966" data-name="Trazado 901966" d="M275.6,112.571v2.219a2.341,2.341,0,0,0,.555,1.942,5.1,5.1,0,0,0,2.774,2.774,5.144,5.144,0,0,0,1.942.555,2.5,2.5,0,0,0,1.387-.277,3.812,3.812,0,0,0,2.219-1.387c.277-.277.555-.832.832-1.11a4.475,4.475,0,0,0,.832-2.5v-2.219a2.341,2.341,0,0,0-.555-1.942,5.1,5.1,0,0,0-2.774-2.774,5.143,5.143,0,0,0-1.942-.555,2.5,2.5,0,0,0-1.387.277,3.812,3.812,0,0,0-2.219,1.387c-.277.277-.555.832-.832,1.11a3.391,3.391,0,0,0-.832,2.5Z" transform="translate(-275.6 -107.3)" fill="#6589d1"/>
        </g>
      </g>
      <g id="Grupo_1113763" data-name="Grupo 1113763" transform="translate(372.538 397.303)">
        <g id="Grupo_1113762" data-name="Grupo 1113762">
          <path id="Trazado_901967" data-name="Trazado 901967" d="M141.527,156.143c6.658,0,6.658-10.543,0-10.543-6.936,0-6.936,10.543,0,10.543Z" transform="translate(-136.325 -145.6)" fill="#6589d1"/>
        </g>
      </g>
      <g id="Grupo_1113765" data-name="Grupo 1113765" transform="translate(572.293 121.53)">
        <g id="Grupo_1113764" data-name="Grupo 1113764">
          <path id="Trazado_901968" data-name="Trazado 901968" d="M213.527,56.743c6.658,0,6.658-10.543,0-10.543-6.936.277-6.936,10.543,0,10.543Z" transform="translate(-208.325 -46.2)" fill="#6589d1"/>
        </g>
      </g>
      <g id="Grupo_1113767" data-name="Grupo 1113767" transform="translate(476.508 34.693)">
        <g id="Grupo_1113766" data-name="Grupo 1113766">
          <path id="Trazado_901969" data-name="Trazado 901969" d="M173.8,20.171v2.219a2.341,2.341,0,0,0,.555,1.942,5.1,5.1,0,0,0,2.774,2.774,5.143,5.143,0,0,0,1.942.555,2.5,2.5,0,0,0,1.387-.277A3.812,3.812,0,0,0,182.678,26c.277-.277.555-.832.832-1.11a4.475,4.475,0,0,0,.832-2.5v-2.22a2.341,2.341,0,0,0-.555-1.942,5.1,5.1,0,0,0-2.774-2.774,5.144,5.144,0,0,0-1.942-.555,2.5,2.5,0,0,0-1.387.277,3.812,3.812,0,0,0-2.22,1.387c-.277.277-.555.832-.832,1.11a4.475,4.475,0,0,0-.832,2.5Z" transform="translate(-173.8 -14.9)" fill="#fc5959"/>
        </g>
      </g>
      <g id="Grupo_1113769" data-name="Grupo 1113769" transform="translate(381.347 210.588)">
        <g id="Grupo_1113768" data-name="Grupo 1113768">
          <path id="Trazado_901970" data-name="Trazado 901970" d="M144.494,88.843c6.658,0,6.658-10.543,0-10.543s-6.659,10.543,0,10.543Z" transform="translate(-139.5 -78.3)" fill="#fc5959"/>
        </g>
      </g>
      <g id="Grupo_1113771" data-name="Grupo 1113771" transform="translate(770.036 223.627)">
        <g id="Grupo_1113770" data-name="Grupo 1113770">
          <path id="Trazado_901971" data-name="Trazado 901971" d="M284.594,93.543c6.658,0,6.658-10.543,0-10.543s-6.658,10.543,0,10.543Z" transform="translate(-279.6 -83)" fill="#fc5959"/>
        </g>
      </g>
      <g id="Grupo_1113773" data-name="Grupo 1113773" transform="translate(46.931 240.828)">
        <g id="Grupo_1113772" data-name="Grupo 1113772">
          <path id="Trazado_901972" data-name="Trazado 901972" d="M24.061,99.743c6.658,0,6.658-10.543,0-10.543-6.658.277-6.936,10.543,0,10.543Z" transform="translate(-18.962 -89.2)" fill="#fc5959"/>
        </g>
      </g>
      <g id="Grupo_1113776" data-name="Grupo 1113776" transform="translate(48.247 452.279)">
        <g id="Grupo_1113775" data-name="Grupo 1113775">
          <g id="Grupo_1113774" data-name="Grupo 1113774">
            <path id="Trazado_901973" data-name="Trazado 901973" d="M21,203.1c6.381-.832,13.317-2.219,16.924-8.046,2.5-4.439,1.665-10.265-3.052-12.485s-9.71.832-9.433,6.1c.277,6.381,6.1,9.433,11.93,9.155,6.936-.277,14.149-3.329,19.975-7.213,5.271-3.607,10.82-9.155,11.652-15.814.555-5.549-3.329-10.543-9.155-9.155-5.549,1.387-8.6,6.936-8.878,12.485a17.073,17.073,0,0,0,8.878,15.814c6.381,3.329,14.427,3.052,21.085.555,1.665-.555.832-3.329-1.11-2.774-7.768,3.052-19.143,2.774-24.137-5.271a14.1,14.1,0,0,1-1.11-12.485c1.387-3.607,7.768-8.878,10.82-4.162,2.774,4.162-.555,9.988-3.329,13.04a32.553,32.553,0,0,1-12.485,8.6c-4.439,1.942-9.71,3.884-14.427,3.329a7.539,7.539,0,0,1-5.826-3.329c-1.11-1.942-1.665-5.271.555-6.658,1.942-1.11,4.439,0,5.826,1.665,1.665,2.219,1.11,5.271-.277,7.213-3.052,4.716-9.433,5.549-14.427,6.1-2.219.555-1.942,3.329,0,3.329Z" transform="translate(-19.437 -165.416)" fill="#464654"/>
          </g>
        </g>
      </g>
    </g>
  </g>
</svg>
