<svg xmlns="http://www.w3.org/2000/svg" xmlns:xlink="http://www.w3.org/1999/xlink" width="611" height="419.087" viewBox="0 0 611 419.087">
  <defs>
    <clipPath id="clip-path">
      <path id="Rectángulo_405215" data-name="Rectángulo 405215" d="M20,0H611a0,0,0,0,1,0,0V419.087a0,0,0,0,1,0,0H20a20,20,0,0,1-20-20V20A20,20,0,0,1,20,0Z" transform="translate(-5987 -4032.25)" fill="#fff"/>
    </clipPath>
    <linearGradient id="linear-gradient" x1="-5.088" y1="12.731" x2="-6.04" y2="12.536" gradientUnits="objectBoundingBox">
      <stop offset="0" stop-color="#09f8f9"/>
      <stop offset="1" stop-color="#0068fd"/>
    </linearGradient>
    <linearGradient id="linear-gradient-2" x1="-1.887" y1="1.745" x2="-2.425" y2="2.55" gradientUnits="objectBoundingBox">
      <stop offset="0" stop-color="#003af1"/>
      <stop offset="1" stop-color="#015efb"/>
    </linearGradient>
    <linearGradient id="linear-gradient-3" x1="-1.3" y1="0.351" x2="-2.35" y2="0.561" gradientUnits="objectBoundingBox">
      <stop offset="0" stop-color="#010200"/>
      <stop offset="1" stop-color="#020360"/>
    </linearGradient>
    <linearGradient id="linear-gradient-4" x1="-1.288" y1="-0.155" x2="-1.167" y2="0.682" gradientUnits="objectBoundingBox">
      <stop offset="0" stop-color="#313de5"/>
      <stop offset="1" stop-color="#0089ff"/>
    </linearGradient>
    <linearGradient id="linear-gradient-5" x1="-4.731" y1="7.868" x2="-3.738" y2="7.856" gradientUnits="objectBoundingBox">
      <stop offset="0" stop-color="#bc0000"/>
      <stop offset="1" stop-color="#ff7d77"/>
    </linearGradient>
    <linearGradient id="linear-gradient-6" x1="-0.33" y1="0.921" x2="-0.999" y2="1.048" gradientUnits="objectBoundingBox">
      <stop offset="0" stop-color="#bac4f9"/>
      <stop offset="1" stop-color="#e2e4fb"/>
    </linearGradient>
    <linearGradient id="linear-gradient-7" x1="-5.928" y1="-1.807" x2="-5.729" y2="-1.078" gradientUnits="objectBoundingBox">
      <stop offset="0" stop-color="#dd5941"/>
      <stop offset="1" stop-color="#e4a58c"/>
    </linearGradient>
    <linearGradient id="linear-gradient-8" x1="-1.326" y1="0.323" x2="-2.282" y2="0.853" gradientUnits="objectBoundingBox">
      <stop offset="0" stop-color="#d2d3fa"/>
      <stop offset="1" stop-color="#fffffb"/>
    </linearGradient>
    <linearGradient id="linear-gradient-9" x1="-10.984" y1="7.887" x2="-10.084" y2="7.975" gradientUnits="objectBoundingBox">
      <stop offset="0" stop-color="#140780"/>
      <stop offset="1" stop-color="#4433d4"/>
    </linearGradient>
    <linearGradient id="linear-gradient-10" x1="-6.221" y1="7.703" x2="-5.323" y2="7.796" gradientUnits="objectBoundingBox">
      <stop offset="0" stop-color="#4539d9"/>
      <stop offset="1" stop-color="#8a84ff"/>
    </linearGradient>
  </defs>
  <g id="Enmascarar_grupo_1099791" data-name="Enmascarar grupo 1099791" transform="translate(5987 4032.25)" clip-path="url(#clip-path)">
    <g id="Grupo_1113978" data-name="Grupo 1113978" transform="translate(-6273.054 -13127.744)">
      <path id="Trazado_902503" data-name="Trazado 902503" d="M241.244,533.1l.836.223c1.025.508.288,2.14.81,3.2a20.264,20.264,0,0,1,2.725.243l.147.649c-.906,1.587-1.82.222-3.055,1.24l-.281,3.4c-1.463-1.029-1.279-2-1.572-3.664a2.97,2.97,0,0,0-2.058-.223l-.307.04-.482-.466.358-.973a8.55,8.55,0,0,1,2.4-.277A14.64,14.64,0,0,0,241.244,533.1Z" transform="translate(225.374 8801.633)" fill="#017df6"/>
      <path id="Trazado_902504" data-name="Trazado 902504" d="M188.173,691.153l.413.136c1.313.574.7,2.353,1.091,3.665l2.6.323.15.642-.372.559a5.228,5.228,0,0,0-2.457.422l-.385,2.845a3.776,3.776,0,0,1-.849-.2c-.916-.46-.787-1.9-.913-2.811l-2.373-.273-.15-.861.5-.487a8.622,8.622,0,0,0,2.138-.324C187.527,693.409,187.41,692.359,188.173,691.153Z" transform="translate(244.012 8746.14)" fill="#017df6"/>
      <path id="Trazado_902505" data-name="Trazado 902505" d="M407.712,867.818c1.114-1.936.666-3.59,1.014-5.76l.056-.333.029,4.193c5.74-.009,11.907-.481,17.588.221,1.058,1.161,2.494,1.243,3.993,1.6Z" transform="translate(165.79 8686.252)" fill="#0f1099"/>
      <path id="Trazado_902506" data-name="Trazado 902506" d="M228.636,867.622l.6,2.279c-3.313.452-7.083.1-10.448.115q-11.3.04-22.6.075-4.307.012-8.613,0a18.462,18.462,0,0,1-3.589-.014,2.916,2.916,0,0,1-.762-.5l-.188-1.065c.154-.215.223-.535.463-.646a9.189,9.189,0,0,1,1.607-.018c1.824-.016,3.649-.011,5.473-.011,9.756,0,19.523-.072,29.277.062,1.871.025,3.742.076,5.612.128a13.081,13.081,0,0,0,2.481.078C228.222,868.044,228.407,867.785,228.636,867.622Z" transform="translate(244.675 8684.181)" fill="#1c1fb3"/>
      <path id="Trazado_902507" data-name="Trazado 902507" d="M789.76,813.122a15.287,15.287,0,0,1,2.262,1.421,8.993,8.993,0,0,0,3.716,2.207c1.216.517,2.3,1.049,3.571,1.473l.467.162c.448.149.867.21,1.316.331l.489.158a7.2,7.2,0,0,0,2.11.169l.483.307c1.087.008,2.631-.187,3.581.377a33.689,33.689,0,0,1-6.151,3.325c-2.74,1.313-5.444,2.707-8.274,3.817-1.154.454-3.35.675-4.254,1.374.143-2.5.173-5.008.312-7.508a26.312,26.312,0,0,0,.206-4.287,3.011,3.011,0,0,0-.807-1.6Z" transform="translate(31.992 8703.316)" fill="#ddedfc"/>
      <path id="Trazado_902508" data-name="Trazado 902508" d="M416.684,838.544a23.381,23.381,0,0,0,6.517-.877l3.777,20.025c-5.682-.7-11.849-.229-17.588-.221l-.029-4.193.1-1.931c.169-1.132.631-1.309,1.5-1.9a7.632,7.632,0,0,0,3.52-1.251C416.915,846.224,416.516,841.425,416.684,838.544Z" transform="translate(165.211 8694.698)" fill="#fff"/>
      <path id="Trazado_902509" data-name="Trazado 902509" d="M193.432,756.847a3.75,3.75,0,0,0,1.837-.3,29.218,29.218,0,0,1,5.059-1.457,22.913,22.913,0,0,0-2.148,17.272c1.668,5.772,7.458,11.411,12.627,14.2a29.619,29.619,0,0,0,9.857,2.807l.326.06a20.477,20.477,0,0,0,4.954.009,6.734,6.734,0,0,0-1.714,2.5l-.608.1-.307.363c-4.592,3.433-11.381,7.7-17.253,7.946-3.549.151-7.138-2.106-9.641-4.457-5.93-5.571-8.589-12.683-8.72-20.743C187.6,768.8,188.788,761.524,193.432,756.847Z" transform="translate(243.039 8723.69)" fill="#1c1fb3"/>
      <path id="Trazado_902510" data-name="Trazado 902510" d="M251.294,854.477c9.12,1.613,18.841.989,28.093,1.005,13.513.022,27.027.076,40.54-.032,8.638,0,17.278.036,25.916-.023,2.827-.019,6.95-.72,9.621-.08-.87.594-1.332.77-1.5,1.9l-.1,1.931-.056.333c-.348,2.17.1,3.824-1.014,5.76l-99.59.012-.6-2.279Z" transform="translate(220.709 8688.797)" fill="#010103"/>
      <path id="Trazado_902511" data-name="Trazado 902511" d="M573.257,839.483a4.521,4.521,0,0,0,2.509.265l6.34-.221a17.757,17.757,0,0,0,.912,4.278l.443-.256.211.282c1.715,2.2,4.265,2.148,6.844,2.554a87.943,87.943,0,0,0,13.376,1.2l13.138.973-3.3.27c-1.13.136-2.135-.28-3.374-.112l.618.681a4.841,4.841,0,0,1,2.72.31c1.154.741,3.07.561,4.418.742,3.2.431,6.358,1.042,9.576,1.36,9.8.969,19.676,1.232,29.491,2.127,3.181.29,6.337.9,9.523,1.173,7.863.68,15.975,1.249,23.668,3.123l26.7.06a1.825,1.825,0,0,1,.4,1.608c-1.6,1.05-34.7.047-39.383.042-36.249-.043-72.5.094-108.747.008q-15.437-.037-30.874-.056c-5.543,0-11.183.223-16.712-.025a59.507,59.507,0,0,1,7.436-.169l13.348-.09c6.046.342,12.252.069,18.314.079,3.311.006,7.713.583,10.835-.237l.341-1.114a51.688,51.688,0,0,1,.394-7.808C572.7,846.841,572.911,843.164,573.257,839.483Z" transform="translate(125.752 8694.06)" fill="#0f1099"/>
      <path id="Trazado_902512" data-name="Trazado 902512" d="M600.431,839.483a4.521,4.521,0,0,0,2.509.265l6.34-.221a17.759,17.759,0,0,0,.912,4.278l.443-.256.212.282c1.715,2.2,4.265,2.148,6.844,2.554l-.2,1.631-.3,10.115-18,.2a51.73,51.73,0,0,1,.394-7.808C599.87,846.841,600.085,843.164,600.431,839.483Z" transform="translate(98.578 8694.06)" fill="#fff"/>
      <path id="Trazado_902513" data-name="Trazado 902513" d="M616.174,846.006l.443-.256.211.282c1.715,2.2,4.265,2.148,6.844,2.554l-.2,1.631-4.646-.339-.216-.2-.348-.341A6.648,6.648,0,0,1,616.174,846.006Z" transform="translate(92.597 8691.859)" fill="#020c5e"/>
      <path id="Trazado_902514" data-name="Trazado 902514" d="M288.379,533.682c.044,1.261-.063,3.03.922,3.972a3.413,3.413,0,0,0,2.766.889c2.368-.106,5.659-3.3,7.292-4.9l.073.355a6.317,6.317,0,0,0,3.009,4.395c2.813,1.479,6.764.559,9.861.733,10.817.607,18.9,8.815,22.472,18.558,1.716,4.678,2.182,11.656.068,16.31l-.191.354-1.223,1.221.16.486-.649.811.016-2.41L332.7,575c-.423-1.2-.952-2.852-2.258-3.387-5.03-2.059-4.763,4.484-7.719,6.01-.216-.1-.5-.114-.649-.3-.5-.616-.424-3-.494-3.851-.338-4.07-.767-11.705-3.805-14.7-3.377-3.326-8.8-1.814-12.858-1.106a53.542,53.542,0,0,1-6.662.753c-2.692.127-5.312-.678-7.976-.622l-.808,2.541c-4.109-1.616-7.13-3.869-8.983-7.991-1.346-3-1.747-7.7-.5-10.793C281.7,537.271,284.48,535.663,288.379,533.682Z" transform="translate(210.9 8801.445)" fill="#020c5e"/>
      <path id="Trazado_902515" data-name="Trazado 902515" d="M293.845,572.823l.808-2.541c2.664-.056,5.284.75,7.976.622a53.569,53.569,0,0,0,6.662-.753c4.063-.707,9.481-2.219,12.858,1.106,3.039,2.992,3.468,10.628,3.805,14.7.07.849,0,3.233.494,3.851.149.186.433.2.649.3,2.957-1.526,2.689-8.069,7.719-6.01,1.306.534,1.834,2.182,2.258,3.387l.26-.548-.016,2.41.649-.811-.159-.487,1.223-1.221c-1.3,4.838-4.595,10.42-8.968,13.1L329,600.8c1.123,3.385,4.618,9.042,7.357,11.37l-23.409,17.618c-3.491-2.781-7.631-7.418-8.2-12.024l-.042-.411-.14-1.816a6.291,6.291,0,0,0,.729-2.189l.875-.513-.482-.773a17.572,17.572,0,0,1-8.544-3.858c-5.958-5.272-5.669-13.387-5.238-20.689a34.229,34.229,0,0,0,.314-5.136l-.069-.576a6.329,6.329,0,0,1,1-2.092C293.412,578.049,294.5,574.262,293.845,572.823Z" transform="translate(206.522 8788.963)" fill="#fabcac"/>
      <path id="Trazado_902516" data-name="Trazado 902516" d="M293.392,585.413c2.745.017,4.889.439,6.968,2.426a5.172,5.172,0,0,1,1.113,1.686c-.04.938.134,1.846-.455,2.6l.3-1.947a2.647,2.647,0,0,0-1.558-1.494,17.846,17.846,0,0,0-7.373-1.176A6.323,6.323,0,0,1,293.392,585.413Z" transform="translate(206.281 8783.266)" fill="#010103"/>
      <path id="Trazado_902517" data-name="Trazado 902517" d="M321.631,585.029a8.722,8.722,0,0,1,4.588.76,2.691,2.691,0,0,1,1.424,1.646c-.794.453-2.446.06-3.4-.034a7.009,7.009,0,0,0-3.388.205,2.479,2.479,0,0,1-1.741.152l-.348-.973C319.345,585.809,320.625,585.456,321.631,585.029Z" transform="translate(197.018 8783.411)" fill="#010103"/>
      <path id="Trazado_902518" data-name="Trazado 902518" d="M323.376,595.155a3.733,3.733,0,0,1,1.008.46,3.417,3.417,0,0,1,1.478,2.25,4.5,4.5,0,0,1-1.237,3.539,8.383,8.383,0,0,1-1.649-.348,3.341,3.341,0,0,1-.838-1.653A5.586,5.586,0,0,1,323.376,595.155Z" transform="translate(195.859 8779.846)" fill="#010103"/>
      <path id="Trazado_902519" data-name="Trazado 902519" d="M298.877,595.17a3.988,3.988,0,0,1,2.15,1.744c.739,1.469-.023,3.456-.568,4.869a13.53,13.53,0,0,1-2.359-.818,3.245,3.245,0,0,1-.481-1.358A5.05,5.05,0,0,1,298.877,595.17Z" transform="translate(204.473 8779.841)" fill="#010103"/>
      <path id="Trazado_902520" data-name="Trazado 902520" d="M356.977,597.025l.26-.548-.016,2.41.649-.811-.159-.487,1.223-1.221c-1.3,4.838-4.595,10.42-8.968,13.1-.463-1.333-1.447-2.6-1.577-4.013a8.236,8.236,0,0,0,5.663-2.069C356.157,601.617,356.678,599.627,356.977,597.025Z" transform="translate(186.619 8779.419)" fill="#010103"/>
      <path id="Trazado_902521" data-name="Trazado 902521" d="M313.125,629.932a5.525,5.525,0,0,0,1.737.055c6.6-.718,12.609-2.261,17.1-7.545,1.168-1.375,2.043-2.964,3.185-4.365l.175-.211a29.613,29.613,0,0,1-8.755,12.9l-.363.315c-4.106,3.521-8.146,3.734-13.356,3.331a2.811,2.811,0,0,0-1.186.034l-.14-1.816a6.289,6.289,0,0,0,.729-2.189Z" transform="translate(199.563 8771.871)" fill="#dd8075"/>
      <path id="Trazado_902522" data-name="Trazado 902522" d="M162.41,563.06a26.123,26.123,0,0,1,17.621,4.12A25.114,25.114,0,0,1,190.8,583.236c1.369,6.543.335,13.993-3.4,19.612a26.767,26.767,0,0,1-17.018,11.342,23.475,23.475,0,0,1-7.482.162l-.627-.084a24.625,24.625,0,0,1-10.822-4.185c-5.776-4.063-9.3-10.83-10.474-17.669a25.291,25.291,0,0,1,4.222-18.881A26.116,26.116,0,0,1,162.41,563.06Z" transform="translate(259.568 8791.171)" fill="#1299fa"/>
      <path id="Trazado_902523" data-name="Trazado 902523" d="M184.763,587.308l1.3.21a9.69,9.69,0,0,1,.956,2.348c-1.91,2.671-4.614,5-6.887,7.373-3.124,3.263-6.1,7.035-9.68,9.771-2.293-1.412-4.113-3.584-5.965-5.516l-2.679-2.989a1.763,1.763,0,0,1,.337-1.82,2.311,2.311,0,0,1,1.837-1.072c1.406-.211,5.12,4.089,6.567,5.121l.348.241C175.227,596.5,179.691,590.9,184.763,587.308Z" transform="translate(252.165 8782.601)" fill="#fff"/>
      <path id="Trazado_902524" data-name="Trazado 902524" d="M646.3,234.939a43.149,43.149,0,0,1-7.414,2.88,26.09,26.09,0,0,1-19.656-2.718A25.133,25.133,0,0,1,607.317,219a26.329,26.329,0,0,1,3.07-20A27.357,27.357,0,0,1,627.4,186.972a27.894,27.894,0,0,1,20.125,3.721,26.442,26.442,0,0,1,11.332,16.869,33.849,33.849,0,0,1,.3,10.53l-.547,3.424a22.439,22.439,0,0,1-7.567,10.334A27.739,27.739,0,0,1,646.3,234.939Z" transform="translate(95.973 8923.354)" fill="url(#linear-gradient)"/>
      <path id="Trazado_902525" data-name="Trazado 902525" d="M675.124,248.985c.563-1.74,2.262-2.265,3.017-3.775.26-.521.035-.209.574-.8l.384-.4-.121-.322-.164-.486a3.964,3.964,0,0,1,.205-3.448l.244-.452a6.694,6.694,0,0,1,2.588-3.406l.472.277.914-.942-.547,3.424A22.43,22.43,0,0,1,675.124,248.985Z" transform="translate(71.9 8906.22)" fill="#0bf4f8"/>
      <path id="Trazado_902526" data-name="Trazado 902526" d="M651.713,209.438l.408-.069a3.348,3.348,0,0,1,2.86.663,3.516,3.516,0,0,1,.836,2.486c-.964,2.281-3.039,4.034-4.747,5.771q-3.5,3.557-7.013,7.1c-2.7,2.729-5.671,6.593-8.99,8.5a62.7,62.7,0,0,1-7.485-6.871c-1.322-1.318-4.1-3.538-4.489-5.328a3.166,3.166,0,0,1,.847-2.28,4.029,4.029,0,0,1,3.137-1.51c3.018,1.023,5.848,4.857,8.048,7.146C640.934,220.217,645.584,213.851,651.713,209.438Z" transform="translate(90.178 8915.317)" fill="#fff"/>
      <path id="Trazado_902527" data-name="Trazado 902527" d="M350.082,223.99c-4.17-11.029-4.274-22.257.651-33.092a38.921,38.921,0,0,1,22.608-21,40.772,40.772,0,0,1,31.321,1.58,41.273,41.273,0,0,1,20.757,22.931,39.591,39.591,0,0,1-1.548,30.409c-3.971,8.327-10,13.983-17.726,18.814a47.9,47.9,0,0,1-12.11,4.335l-.627.113a33.085,33.085,0,0,1-13.344-.253l-5.072-1.383C363.388,242.524,355.431,234.813,350.082,223.99Z" transform="translate(187.108 8930)" fill="#017df6"/>
      <path id="Trazado_902528" data-name="Trazado 902528" d="M416.921,204.964a4.786,4.786,0,0,1,3.409.724,3.795,3.795,0,0,1,1.23,4.656,19.314,19.314,0,0,1-2.57,2.693c-1.821,1.833-3.664,3.645-5.474,5.487-6.627,6.745-13.432,13.524-19.63,20.659l-10.944-11.169c-1.377-1.354-4.329-3.74-4.994-5.562a3.706,3.706,0,0,1,.195-2.809,3.863,3.863,0,0,1,2.529-2.269c2.635.213,4.163,2.461,5.936,4.218q3.414,3.382,6.835,6.758c3.764-3.993,7.833-7.689,11.669-11.613S412.624,208.366,416.921,204.964Z" transform="translate(176.308 8916.852)" fill="#fff"/>
      <path id="Trazado_902529" data-name="Trazado 902529" d="M695,225c4.839.626,10.493-1.522,15.211.176l-4.083.092a36.038,36.038,0,0,0-10.494,1.144c-.958.257-1.993.211-2.989.448a14.839,14.839,0,0,0-3.958,1.218,73.78,73.78,0,0,0-22.638,10.267,85.375,85.375,0,0,0-6.841,5.779,56.6,56.6,0,0,0-12.155,14.183c-.616,1.089-1.09,2.253-1.7,3.343-.87,1.553-1.991,2.919-2.719,4.56a70.032,70.032,0,0,0-5.647,26.518c-.03,4.543.562,9.123.933,13.648.593,7.262,3.782,15.459,7.172,21.912,1.744,3.318,3.551,5.659,4.376,9.445a3.015,3.015,0,0,0,.978.406l.282,1.116.589.095c-.189,2.495-.176,5.483-1.012,7.861-.511,1.45-1.517,2.806-2.16,4.226a44.067,44.067,0,0,0-3.442,11.184c-.61,4.159,1.731,9.074.037,12.838-1.311,2.915-2.978,5.594-3.935,8.665l-4.25-1.72c-3.359,5.168-5.794,10.925-9.724,15.723-12.211-15.535-23.9-31.269-38.1-45.112-3.06-2.981-6.453-5.464-9.618-8.305-2.217-1.99-4.162-4.247-6.427-6.194A78.866,78.866,0,0,0,550.6,325.544c2.221-2.58,4.749-4.778,6.847-7.5,7.629-9.913,10.119-22.693,11.418-34.855l.326,1.052c5.615,1.561,11.886,1.4,17.668,2.676,17.184,3.785,33.325,10.079,49.117,17.726-.89-2.686-.753-5.343-.722-8.136a100.605,100.605,0,0,1,1.193-15.041c.08-7.674,3.908-14.723,6.431-21.754-2.935-2.833-6.594-4.928-9.933-7.246-2.049-1.422-3.887-3.368-6.29-4.154a27.668,27.668,0,0,0,4.748-3.089,22.439,22.439,0,0,0,7.568-10.334,25.41,25.41,0,0,1,7.773,2.765c3.087,1.733,6.583,5.44,9.991,5.9,7.246-6.444,14.923-11.9,24.208-15.083A133.617,133.617,0,0,1,695,225Z" transform="translate(115.621 8909.982)" fill="#ddedfc"/>
      <path id="Trazado_902530" data-name="Trazado 902530" d="M443.233,289.525c1.2-10.879,2.858-24.258,10.831-32.446,4.721-4.849,11.588-6.533,18.2-6.63,7.53-.11,13.093,1.914,19.682,5.366a27.987,27.987,0,0,1,6.639,4.291c5.523,4.063,7.614,11.573,8.616,18.02a58.825,58.825,0,0,1,.546,14.166c-1.3,12.162-3.79,24.942-11.419,34.855-2.1,2.725-4.626,4.923-6.847,7.5-1,.319-2.648-.293-3.686-.489a30.538,30.538,0,0,0-4.617-.388c-1.591-1.79-2.389-6.231-3.1-8.59-8.647-.306-15.231-6.171-20.887-12.084l.471,2.553c-.013,4.941-.123,9.911-1.661,14.66a9.237,9.237,0,0,1-1.6,3.444,3.448,3.448,0,0,1-.914.739c-3.43-1.019-15.42,4.517-18.787,6.344a106.15,106.15,0,0,0-27.814,22.4c-8.131,9-14.319,19.345-21.406,29.117a2.531,2.531,0,0,1-1.07.777l2.526-4.382c-1.663-3.315-3.02-6.791-4.457-10.208-2.1-5-4.207-10.018-5.172-15.392-1.463-8.143-1.193-16.451,3.716-23.413,6.686-9.482,17.881-13.416,29.149-12.466,2.995.252,6.612,1.411,9.57.852l.415-.086.443-.087a4.716,4.716,0,0,0,3.451-2.309c-.19-2.275-2.03-4.908-2.672-7.21-1.64-5.882.81-12.34,3.65-17.423l1.679-2.331A24.7,24.7,0,0,1,443.233,289.525Z" transform="translate(176.742 8900.876)" fill="#0f1099"/>
      <path id="Trazado_902531" data-name="Trazado 902531" d="M461.974,322.851c.566.06.594.189,1.014.541l-.037.626-2.271,1.6a18.073,18.073,0,0,0-7.162,11.973c-.356,2.187-.282,4.446-.578,6.662l-.758.02c-1.214-2.328-1.01-5.986-.293-8.462l.161-.53C453.772,329.346,456.9,326.184,461.974,322.851Z" transform="translate(150.482 8875.453)" fill="#fff"/>
      <path id="Trazado_902532" data-name="Trazado 902532" d="M531.36,269.429l.25-.262-1.01-.936-.73-.73c-.589-.444-.856-.449-1.248-1.136a6.6,6.6,0,0,0-.048-2.672l-.165-.329a8.137,8.137,0,0,1,1.082-1.779l1.515-.087a15.215,15.215,0,0,1,3.372,2.724l.363.378.727-.614c5.523,4.063,7.614,11.573,8.616,18.02a58.835,58.835,0,0,1,.546,14.166c-1.3,12.162-3.79,24.942-11.419,34.855-2.1,2.725-4.626,4.923-6.847,7.5-1,.319-2.648-.293-3.686-.489a30.518,30.518,0,0,0-4.617-.388c-1.591-1.79-2.389-6.231-3.1-8.59-8.647-.306-15.231-6.171-20.887-12.084l-3.982-6.161-3.132-.711c-1.8-.649-3.59-3.171-4.34-4.845a11.257,11.257,0,0,1-.223-8.905,8.283,8.283,0,0,1,4.75-4.324,6.1,6.1,0,0,1,6.366,1.312,10.954,10.954,0,0,0,2.454,2.107,8.635,8.635,0,0,1,1.794-4.479c1.749-2.075,4.613-3.508,6.954-4.8a109.58,109.58,0,0,0,11.053-6.5A42.561,42.561,0,0,0,527.7,266.876Z" transform="translate(139.855 8896.994)" fill="#fabcac"/>
      <path id="Trazado_902533" data-name="Trazado 902533" d="M563.014,299.592a5.593,5.593,0,0,1,1.768,2.536l-.461.607a28.445,28.445,0,0,1-3.564-1.4l.806-.14C562.438,300.924,562.584,300.329,563.014,299.592Z" transform="translate(112.054 8883.621)" fill="#020c5e"/>
      <path id="Trazado_902534" data-name="Trazado 902534" d="M558.1,313.335l1.293.17a2.716,2.716,0,0,1,.85,2.208c-.128,1.14-1.061,1.9-1.827,2.666a6.045,6.045,0,0,1-2.455-3.315A5.274,5.274,0,0,1,558.1,313.335Z" transform="translate(113.738 8878.794)" fill="#010103"/>
      <path id="Trazado_902535" data-name="Trazado 902535" d="M524.317,313.88a6.289,6.289,0,0,1,2.62.483c.442.241.514.564.63,1.023a4.395,4.395,0,0,1-.836,3.359,5.146,5.146,0,0,1-1.465-.083c-.928-.315-1.119-.724-1.606-1.5A4.686,4.686,0,0,1,524.317,313.88Z" transform="translate(125.092 8878.604)" fill="#010103"/>
      <path id="Trazado_902536" data-name="Trazado 902536" d="M557.151,300.576l-3.193.206c-1.3.04-2.489.372-3.458-.544l-.014-1.3a2.993,2.993,0,0,1,1.5-1.113,9.429,9.429,0,0,1,7.425,1.01c-.43.737-.577,1.332-1.45,1.6Z" transform="translate(115.661 8884.374)" fill="#020c5e"/>
      <path id="Trazado_902537" data-name="Trazado 902537" d="M521.161,299.451c2.049-.177,4.485-.487,6.5.036a4.267,4.267,0,0,1,2.76,1.854l-.489.635-3,.024a40.7,40.7,0,0,0-9.166.575l-.428-.422.177-.426C518.282,300.236,519.661,299.906,521.161,299.451Z" transform="translate(127.298 8883.759)" fill="#020c5e"/>
      <path id="Trazado_902538" data-name="Trazado 902538" d="M549.421,269.429l.25-.262-1.01-.936-.73-.73c-.588-.444-.856-.449-1.248-1.136a6.6,6.6,0,0,0-.048-2.672l-.165-.329a8.144,8.144,0,0,1,1.082-1.779l1.515-.087a15.214,15.214,0,0,1,3.372,2.724l.363.378.727-.614c5.523,4.063,7.614,11.573,8.616,18.02a58.832,58.832,0,0,1,.546,14.166c-1.3,12.162-3.79,24.942-11.419,34.855-2.1,2.725-4.626,4.923-6.847,7.5-1,.319-2.648-.293-3.686-.489a30.516,30.516,0,0,0-4.617-.388c-1.591-1.79-2.389-6.231-3.1-8.59,5.242-.112,9.517-1.207,13.777-4.307,6.136-4.467,11.3-12.042,12.35-19.654a39.674,39.674,0,0,0-.805-12.781C556.765,283.956,554.624,276.3,549.421,269.429Z" transform="translate(121.794 8896.994)" fill="#020c5e"/>
      <path id="Trazado_902539" data-name="Trazado 902539" d="M537.747,378.862a30.608,30.608,0,0,1,4.617.388c1.038.2,2.681.808,3.686.489a78.862,78.862,0,0,1,22.085,12.971c2.265,1.947,4.209,4.2,6.427,6.194,3.165,2.841,6.558,5.324,9.618,8.305,14.2,13.843,25.889,29.577,38.1,45.112,3.93-4.8,6.366-10.556,9.724-15.723l4.25,1.72,15.437,6.773,3.023,1.457c-3.09,6.364-5.744,12.905-8.425,19.448a114.99,114.99,0,0,0-5.112,13.624h-.6a30.544,30.544,0,0,1-5.489-1.158,62.343,62.343,0,0,0-9.033-1.312c-1.663-.106-3.326-.273-4.662.921-2.625,2.343-3.644,6.959-3.631,10.382a15.413,15.413,0,0,0,4.653,11.127,39.751,39.751,0,0,1,3.785,3.553c-4.3.389-9.131,1.5-13.212-.309-1.313-.582-2.42-1.5-3.7-2.112l-.362-.171a6.877,6.877,0,0,1-1.381-.363,18.631,18.631,0,0,1-2.633-2.616c-2.906-2.891-6.3-5.884-8.792-9.11-.8-1.032-2.009-1.769-2.771-2.842a42.606,42.606,0,0,0-3.394-3.971,33.764,33.764,0,0,1-2.91-3.394c-.576-.836-1.306-1.529-1.891-2.381l-2.169-2.909-.492-.724a5.188,5.188,0,0,1-.753-.955l-.222-.424-1.569.081a2.952,2.952,0,0,0-.043,1.7,3.384,3.384,0,0,1,.247,1.226l.332,2.917a7.718,7.718,0,0,1,.238,2.15l-.012.284c.32.454.26.26.347.753l.857,4.719a3.679,3.679,0,0,0,.292,1.4c.851,1.779,1.135,4.6,1.578,6.591l-.3.5,8.267,30.641-5,4.362a14.405,14.405,0,0,0-3.344,1.9c-1.665,1.039-3.35,2.061-5.067,3.011a67.424,67.424,0,0,1-24.11,7.546l3.839-38.571.96-9.186c.884-13.908,1.755-27.881,1.471-41.821-.225-11.046-1.016-21.6-3.872-32.334a101.245,101.245,0,0,0-4.982-13.45,144.114,144.114,0,0,0-13.03-24.4l-.976-1.36Z" transform="translate(120.17 8855.788)" fill="#017df6"/>
      <path id="Trazado_902540" data-name="Trazado 902540" d="M601.019,512.572l3.334,4.85c5.659,8.518,13.174,16.444,20.349,23.737,2.1,2.137,4.464,4.118,6.471,6.328a6.886,6.886,0,0,1-1.381-.363,18.616,18.616,0,0,1-2.633-2.616c-2.906-2.891-6.3-5.884-8.793-9.11-.8-1.032-2.009-1.769-2.771-2.842a42.6,42.6,0,0,0-3.394-3.971,33.788,33.788,0,0,1-2.91-3.394c-.576-.836-1.306-1.529-1.891-2.381l-2.169-2.909-.493-.724a5.188,5.188,0,0,1-.753-.954l-.222-.424-1.569.081a2.953,2.953,0,0,0-.043,1.7,3.379,3.379,0,0,1,.247,1.226l.332,2.917a7.718,7.718,0,0,1,.237,2.15l-.012.284c.32.454.26.26.347.753l.857,4.719a3.681,3.681,0,0,0,.292,1.4c.851,1.779,1.136,4.6,1.577,6.591l-.3.5a37.033,37.033,0,0,1-1.422-5.683A121.791,121.791,0,0,1,601.019,512.572Z" transform="translate(97.918 8808.842)" fill="#fff"/>
      <path id="Trazado_902541" data-name="Trazado 902541" d="M601.019,482.617q.723-10.543,1.583-21.075c.915-11.481,1.64-22.583-.781-33.965l.321-.321c2.54,7.03,2.447,15.459,2.448,22.842,0,7.923-.232,15.8-.467,23.712-.125,4.266-.742,9.513.23,13.657Z" transform="translate(97.918 8838.796)" fill="#1c1fb3"/>
      <path id="Trazado_902542" data-name="Trazado 902542" d="M490.442,347c5.657,5.913,12.24,11.779,20.887,12.084.716,2.359,1.513,6.8,3.1,8.59l-.1.646.976,1.36a144.15,144.15,0,0,1,13.03,24.4,101.167,101.167,0,0,1,4.982,13.45c2.855,10.73,3.647,21.288,3.872,32.334.284,13.94-.586,27.913-1.471,41.82l-.96,9.186c-5.371,1.487-11.252,2.766-16.854,2.281l-.066.008-9.6-.145-10.183.123c-.028,4.846-.641,10.538.234,15.271-2.151-.47-4.174-.178-6.342-.31a119.632,119.632,0,0,1-12.744-1.392c-1.445-.249-2.388-.463-3.248-1.64.058-7.34-1.307-14.618-1.818-21.914-1.064-15.178-1.474-30.384-2.038-45.586-.3-8.1-1.289-16.632-.648-24.709a6.725,6.725,0,0,1,.882-2.682c1.265-7.807,3.828-15.207,6.48-22.624,2.282-6.38,4.615-12.951,7.965-18.86l-.05-.3a3.436,3.436,0,0,0,.914-.739,9.246,9.246,0,0,0,1.6-3.444c1.538-4.749,1.648-9.718,1.661-14.66Z" transform="translate(143.483 8866.974)" fill="#fdb404"/>
      <path id="Trazado_902543" data-name="Trazado 902543" d="M526.791,463.567a2.447,2.447,0,0,1,2.049,1.092c.217,1.237-.116,1.64-.605,2.773a2.213,2.213,0,0,1-1.854-.826C526.064,465.343,526.4,464.789,526.791,463.567Z" transform="translate(124.168 8826.047)" fill="#eddf68"/>
      <path id="Trazado_902544" data-name="Trazado 902544" d="M528.034,503.823l1.677.182.8,1.068c-.008,1.583-.271,1.588-1.3,2.712l-.962.035a3.405,3.405,0,0,1-1.383-1.611A3.774,3.774,0,0,1,528.034,503.823Z" transform="translate(123.953 8811.913)" fill="#ddedfc"/>
      <path id="Trazado_902545" data-name="Trazado 902545" d="M528.262,565.9c2.79-.546,5.782-.1,8.484-1.2a102.315,102.315,0,0,0,11.876-5.541c2.415-1.364,4.492-3.813,7.116-4.588l-.96,9.186c-5.371,1.487-11.252,2.766-16.855,2.281l-.065.008Z" transform="translate(123.464 8794.097)" fill="#e43743"/>
      <path id="Trazado_902546" data-name="Trazado 902546" d="M475.961,539.258c.058-7.34-1.307-14.618-1.818-21.914-1.064-15.177-1.474-30.384-2.038-45.586-.3-8.1-1.289-16.632-.648-24.709a6.724,6.724,0,0,1,.882-2.682l3.3,81.409,22.424,1.552c-.028,4.846-.64,10.538.234,15.271-2.151-.47-4.174-.178-6.342-.31a119.617,119.617,0,0,1-12.744-1.392C477.763,540.649,476.82,540.434,475.961,539.258Z" transform="translate(143.483 8832.788)" fill="#010103"/>
      <path id="Trazado_902547" data-name="Trazado 902547" d="M498.825,347c5.657,5.913,12.24,11.779,20.887,12.084.716,2.359,1.513,6.8,3.1,8.59l-.1.646.976,1.36c-.4.448-.589.485-.627,1.1-.118,1.974-.574,3.854-.755,5.81-.875,9.506-2.176,19.317-5.123,28.433a29.233,29.233,0,0,1-4.562,7.233,10.518,10.518,0,0,1-3.287-3.614l-.847-1.3-12.628-38.273-.693-.375-.05-.3a3.435,3.435,0,0,0,.914-.739,9.247,9.247,0,0,0,1.6-3.444c1.539-4.749,1.648-9.718,1.661-14.66Z" transform="translate(135.101 8866.974)" fill="#fabcac"/>
      <path id="Trazado_902548" data-name="Trazado 902548" d="M500.83,347c5.657,5.913,12.24,11.779,20.887,12.084.716,2.359,1.513,6.8,3.1,8.59l-.1.646a2.271,2.271,0,0,1-.9-.069,27.176,27.176,0,0,1-6.2-3.181A56.076,56.076,0,0,1,501.3,349.554Z" transform="translate(133.095 8866.974)" fill="#e43743"/>
      <path id="Trazado_902549" data-name="Trazado 902549" d="M365.932,438.55a2.532,2.532,0,0,0,1.07-.777c7.088-9.772,13.276-20.116,21.406-29.117a106.15,106.15,0,0,1,27.814-22.4c3.367-1.827,15.357-7.362,18.787-6.344l.05.3c-3.35,5.909-5.684,12.48-7.965,18.86-2.653,7.418-5.215,14.817-6.48,22.624a6.723,6.723,0,0,0-.883,2.683c-.641,8.077.348,16.608.648,24.709.564,15.2.973,30.408,2.038,45.586.511,7.295,1.875,14.574,1.818,21.914l2.016,23.713-13.344-2.019c-8.531-2.254-16.025-5.5-24.005-9.136-3.229-1.051-5.989-4.253-8.307-6.586l.1-.264,24.285-55.139-2.834-7.726c-2.534,2.24-4.354,5.4-6.31,8.141-3.483,4.886-6.972,9.727-10.624,14.488-4.285,5.585-8.514,12.541-15.668,14.65l-.456.13c-5.085,1.509-10.207.03-14.832-2.191-11.581-5.562-17.755-18.126-23.262-29.041a132.225,132.225,0,0,1-7.071-15.692l4.505-2.538,17.357-9.09,2.034-1.119a92.626,92.626,0,0,1,10.131,15.411C360.248,447.884,362.728,442.685,365.932,438.55Z" transform="translate(195.209 8855.464)" fill="url(#linear-gradient-2)"/>
      <path id="Trazado_902550" data-name="Trazado 902550" d="M514.2,568.723l-3.839,38.571a67.408,67.408,0,0,0,24.11-7.546c1.717-.951,3.4-1.972,5.067-3.012a14.409,14.409,0,0,1,3.344-1.9c1.784,8.5,3.658,16.978,5.488,25.467.884,4.106,2.226,8.575,2.542,12.725a74.582,74.582,0,0,0-10.794,7.684c-16.141,12.975-28.51,30.139-34.4,50.093-3.485,11.8-2.8,23.072,3.219,33.9,4.087,7.353,10.034,12.462,17.2,16.7a53.445,53.445,0,0,0,5.18,1.989,18.621,18.621,0,0,1,3.653,1.022c-.346,3.681-.561,7.358-.842,11.043a51.6,51.6,0,0,0-.394,7.808l-.341,1.113c-3.123.821-7.524.243-10.835.237-6.063-.01-12.268.263-18.314-.079l-13.348.09a59.358,59.358,0,0,0-7.436.169l-4.091.038,9.7-128.61-.413-.162c-1.1,2.445-.726,6.567-.938,9.284-.667,8.54-1.289,17.083-1.955,25.623-.818,10.5-1.862,20.981-2.664,31.481-.666,8.727-1.114,17.472-1.805,26.2-.955,12.032-2.258,24.1-2.688,36.16l-46.46.055c-1.5-.359-2.935-.441-3.993-1.6l-3.777-20.025A41.911,41.911,0,0,0,437,737.9a42.45,42.45,0,0,0,17.78-26.431c3.158-15.215-2.239-33.657-9.859-46.952-3.56-6.213-7.946-11.761-11.834-17.725l-.278-.431c-2.488-2.2-4.593-4.917-7.022-7.218A167.155,167.155,0,0,0,412.7,628.539c1.049-2.666,1.334-5.87,1.934-8.674,1.723-8.048,3.165-16.5,5.438-24.386,7.98,3.639,15.474,6.882,24.005,9.136l13.344,2.019L455.4,582.92c.86,1.176,1.8,1.391,3.248,1.64a119.607,119.607,0,0,0,12.744,1.392c2.168.131,4.191-.159,6.342.31-.875-4.733-.262-10.425-.234-15.271l10.183-.123,9.6.146.066-.008C502.951,571.489,508.832,570.21,514.2,568.723Z" transform="translate(164.039 8789.126)" fill="url(#linear-gradient-3)"/>
      <path id="Trazado_902551" data-name="Trazado 902551" d="M575.671,834.843a53.3,53.3,0,0,0,5.179,1.989,18.661,18.661,0,0,1,3.653,1.022c-.346,3.681-.561,7.358-.842,11.043a51.643,51.643,0,0,0-.395,7.808l-.341,1.113c-3.123.821-7.524.243-10.835.238-6.063-.01-12.268.263-18.314-.079a18.116,18.116,0,0,1,4.931-.564l-1.2-.282c3.485-.369,7.547-.189,10.911-1.08l.423-.12a15.013,15.013,0,0,0,3.569.269,4.489,4.489,0,0,1,2.651-.324H582.8a23.252,23.252,0,0,0-.079-3.858c-.126-.772.244-.441.4-1.012.293-1.047-.4-2.683-.159-3.731.008-.032.466-.762.483-.811a13.133,13.133,0,0,0-.079-3.855l-.08-.363.4-.487a18.728,18.728,0,0,0-.08-3.731c-2.718-.193-5.425-1.536-7.929-2.513Z" transform="translate(114.505 8695.689)" fill="#010103"/>
      <path id="Trazado_902552" data-name="Trazado 902552" d="M522.625,572.026l9.6.145c.915,1.457.646,2.855.676,4.557q.085,4.858.159,9.719c-2.513,2.263-9.22,1.475-12.539,1.484a60.175,60.175,0,0,1-6.336-.035,5,5,0,0,1-1.505-.475c-.875-4.733-.262-10.425-.234-15.271Z" transform="translate(129.101 8787.967)" fill="#fff"/>
      <path id="Trazado_902553" data-name="Trazado 902553" d="M516.661,575.083l15.413-.078-.087,11.177-15.359.063Z" transform="translate(127.549 8786.921)" fill="#010103"/>
      <path id="Trazado_902554" data-name="Trazado 902554" d="M420.071,609.954c7.98,3.639,15.474,6.882,24.005,9.136l-1.561.317-.323.413a3.8,3.8,0,0,1-.862.8,6.984,6.984,0,0,0-1.078.954c-2.015,2.119-4.061,2.666-6.251,4.356-2.087,1.609-4.22,4.05-4.836,6.707-.426,1.837-.118,3.525-.694,5.406-.132.43-.2.82-.292,1.256a4.509,4.509,0,0,1-1.729,2.484c-.407.3-.849.1-1.3-.031-1.021-.3-1.8-1.289-2.825-1.742l-.448-.208c-2.013-.9-3.371-.646-5.418-.243l-1.14.108a5.169,5.169,0,0,0,.1,3.48l.332.267a3.18,3.18,0,0,1,.764,1.011,6.525,6.525,0,0,0,4.017,2.512,2.573,2.573,0,0,0,2.114-.194c.924-.553,1.525-1.362,2.581-1.71a2.7,2.7,0,0,1,1.778,1.2c.3,1.108.347,2.2.564,3.312.192.982-.1,2.2.436,3.015.727,1.1,1.006,2.487,1.719,3.671.429.714.033.031.431.94.617,1.409,2.124,1.944,2.65,3.67-2.488-2.2-4.593-4.917-7.022-7.218A167.106,167.106,0,0,0,412.7,643.015c1.049-2.666,1.334-5.871,1.934-8.675C416.356,626.292,417.8,617.836,420.071,609.954Z" transform="translate(164.038 8774.649)" fill="#020c5e"/>
      <path id="Trazado_902555" data-name="Trazado 902555" d="M302.943,635.434c1.378,1.232,2.78,2.448,4.12,3.722a9.648,9.648,0,0,0,2.838,2.323,25,25,0,0,1,5.918,1.093c6.959,1.785,15.191,5.067,20.985,9.389a166.973,166.973,0,0,1,13.086,10.607c2.429,2.3,4.535,5.017,7.022,7.218l.278.431c3.888,5.964,8.273,11.513,11.834,17.725,7.619,13.294,13.017,31.736,9.859,46.952a42.453,42.453,0,0,1-17.78,26.431,41.913,41.913,0,0,1-12.625,5.336,23.388,23.388,0,0,1-6.517.877c-.168,2.882.231,7.68-2.2,9.651a7.642,7.642,0,0,1-3.52,1.251c-2.67-.641-6.793.06-9.621.08-8.637.059-17.277.027-25.916.023-13.513.108-27.027.054-40.54.032-9.252-.016-18.972.608-28.092-1.005l-.437-.427a5.041,5.041,0,0,1-2.853-1.562,4.69,4.69,0,0,1-1.282-2.316,44.826,44.826,0,0,1-.611-8.391c-.172-4.827-.319-9.655-.468-14.483l.307-.363.608-.1a6.735,6.735,0,0,1,1.714-2.5,20.48,20.48,0,0,1-4.954-.009l-.326-.06a29.631,29.631,0,0,1-9.857-2.807c-5.17-2.79-10.959-8.43-12.627-14.2a22.913,22.913,0,0,1,2.148-17.272,29.229,29.229,0,0,0-5.059,1.457,3.75,3.75,0,0,1-1.837.3c4.566-17.1,12.032-34.005,24.088-47.111a102.494,102.494,0,0,1,17.362-14.891c7.885-5.427,16.259-9.961,26.034-10.369a30.608,30.608,0,0,1,7.129-3.662l.14,1.816.042.411c.572,4.607,4.712,9.243,8.2,12.024Z" transform="translate(239.935 8765.703)" fill="url(#linear-gradient-4)"/>
      <path id="Trazado_902556" data-name="Trazado 902556" d="M339.434,635.434c1.378,1.232,2.78,2.448,4.12,3.722a9.647,9.647,0,0,0,2.838,2.323l-.417.3A3.942,3.942,0,0,0,345,642.9a20.5,20.5,0,0,1-5.248,4.934l-.424.3c-5.983,4.189-12.829,5.47-19.92,6.258a28.689,28.689,0,0,1-8.061.143,17.419,17.419,0,0,1-9.931-7.05,7.956,7.956,0,0,1-.9-5.018,30.607,30.607,0,0,1,7.129-3.662l.14,1.816.042.411c.572,4.607,4.712,9.243,8.2,12.024Z" transform="translate(203.443 8765.703)" fill="#4934eb"/>
      <path id="Trazado_902557" data-name="Trazado 902557" d="M245.722,723.161c-.313-4.832-.075-9.746-.008-14.585.03-2.158-.249-4.864.147-6.968a5.028,5.028,0,0,1,1.286-2.505,4.582,4.582,0,0,1,3.718-1.825c6.826-.215,13.744.011,20.579.027,3.01.007,6.789-.407,9.728.107a4.79,4.79,0,0,1,2.675,1.333,3.747,3.747,0,0,1,1.166,1.717c.866,4.08.223,9.281.216,13.5q-.026,15.282-.055,30.564c-.009,2.663-.567,6.835.177,9.343a20,20,0,0,1-2.54,3.62l-.031.055a7.63,7.63,0,0,1-3.47.848c-2.409.544-5.293.3-7.778.315-5.463.027-11.059.585-16.272-1.223l-.143-.512a66.115,66.115,0,0,0,7.68-3.757c4.291-2.67,8.219-6.223,12.132-9.416l4.018-3.95c2.137-2.393,4.334-5.364,4.139-8.727a4.783,4.783,0,0,0-2.645-1.558c1-.974,2.571-2.231,2.742-3.683a3.759,3.759,0,0,0-1.161-2.964c-1.69-1.427-2.98-.814-4.867-.805a1.739,1.739,0,0,1-1.268-.55c-2.326-1.984-.766-4.983-1.485-7.472a1.342,1.342,0,0,0-.791-1.028c-3.188-1.028-8.844,1.988-11.77,3.318a15.741,15.741,0,0,0-4.257,2.673c-2.1.055-2.551.129-4.131-1.329l-.565-.562A24.631,24.631,0,0,1,245.722,723.161Z" transform="translate(222.721 8744.034)" fill="#add1f6"/>
      <path id="Trazado_902558" data-name="Trazado 902558" d="M280.1,769.037c-.672,2.192-4.616,4.357-6.34,6.062-.494,1.717-.862,3.445-1.5,5.113l-.919,2.827a2.608,2.608,0,0,0,1.38.142c1.418-.066,5.76-.451,6.846.274l4.913.176c-2.409.544-5.293.3-7.778.315-5.463.027-11.059.585-16.272-1.222l-.143-.512a66.141,66.141,0,0,0,7.68-3.757C272.259,775.784,276.187,772.23,280.1,769.037Z" transform="translate(217.551 8718.795)" fill="#1299fa"/>
      <path id="Trazado_902559" data-name="Trazado 902559" d="M255.127,724.87c2.925-1.331,8.582-4.346,11.77-3.318a1.341,1.341,0,0,1,.791,1.028c.718,2.488-.841,5.488,1.485,7.472a1.743,1.743,0,0,0,1.268.55c1.887-.009,3.176-.622,4.867.805a3.761,3.761,0,0,1,1.161,2.964c-.171,1.452-1.744,2.709-2.742,3.683a4.787,4.787,0,0,1,2.645,1.559c.2,3.364-2,6.334-4.139,8.727l-4.018,3.95c-3.913,3.193-7.841,6.746-12.132,9.416a66.093,66.093,0,0,1-7.68,3.757,16.2,16.2,0,0,1-8.277-1.384A24.26,24.26,0,0,1,227.5,750.167l-.21-.572a17.2,17.2,0,0,1-.838-6.845,2.71,2.71,0,0,1,.622-1.248c.927-.879,2.234-1.552,3.252-2.354,3.012-2.379,5.906-4.845,8.682-7.5a24.622,24.622,0,0,0,7.169-6l.565.562c1.58,1.458,2.03,1.384,4.131,1.329A15.767,15.767,0,0,1,255.127,724.87Z" transform="translate(229.437 8735.539)" fill="#fabcac"/>
      <path id="Trazado_902560" data-name="Trazado 902560" d="M317.049,799.163a92.856,92.856,0,0,0,16.614-38.254c.41-2.221.79-4.565.99-6.813.1-1.068-.114-2.468.419-3.407-.413-2.065-2.378-4.587-3.388-6.482-.468-.877-1-1.729-1.481-2.6l-.62-.973-1.646-2.747a6.214,6.214,0,0,1-.654-1.308l.321-.321a14.3,14.3,0,0,1,1.783,2.756l.461.647c2,2.869,3.579,6.079,5.36,9.087a85.122,85.122,0,0,1,4.222,7.462c1.019,2.21,2.356,4.181,3.259,6.489l.233.527c.813,1.9.542,3.684.565,5.7.007.557.288.87.3,1.4.057,2.373-.041,4.753.019,7.126.014.554.306.868.317,1.457.164,7.939.279,16.1-.041,24.028-.168,2.882.231,7.68-2.2,9.651a7.641,7.641,0,0,1-3.52,1.251c-2.67-.64-6.793.06-9.62.08-8.637.059-17.277.027-25.916.023-13.513.108-27.027.054-40.54.032-9.252-.016-18.972.608-28.093-1.005l-.437-.427a5.041,5.041,0,0,1-2.853-1.562,4.69,4.69,0,0,1-1.282-2.316,44.827,44.827,0,0,1-.611-8.392c-.172-4.827-.319-9.655-.468-14.483l.307-.363.608-.1a6.734,6.734,0,0,1,1.714-2.5,20.464,20.464,0,0,1-4.954-.009l-.326-.06a29.632,29.632,0,0,1-9.857-2.807c-5.17-2.79-10.959-8.43-12.627-14.2a22.912,22.912,0,0,1,2.148-17.272l.826-.578.969-.885a21.969,21.969,0,0,1,12.622-6.547,15.864,15.864,0,0,1-.4,3.6c-1.454,1.4-2.463,2.137-2.514,4.307l1.012-.393a17.2,17.2,0,0,0,.838,6.844l.21.572a24.262,24.262,0,0,0,12.627,13.913,16.2,16.2,0,0,0,8.277,1.384l.143.512c5.213,1.807,10.809,1.249,16.272,1.223,2.485-.012,5.37.23,7.778-.315a7.623,7.623,0,0,0,3.47-.848l.031-.055a20.012,20.012,0,0,0,2.54-3.62,2.97,2.97,0,0,1-.344,2.7,52.848,52.848,0,0,1-4.448,5.7,18.9,18.9,0,0,0-2.085,2.154c-.179.318-.072,1.592-.2,2.089-.135.524.12.756.112,1.237l-.116.617.951.463a7.4,7.4,0,0,1,.034,1.224,1.993,1.993,0,0,0,1.316.649l.457,1.358.43-.007a4.28,4.28,0,0,1,1.237.182c.114.779.073.869.757,1.346,1.18.825,2.992.933,4.337,1.648a3.882,3.882,0,0,0,2.427.483,3.782,3.782,0,0,1,1.392.294l2.369.628c.537.125,1.082.2,1.622.324,1.132.264,1.2-.247,2.063.749l-.012.623a20.653,20.653,0,0,1,4.126.469c.315.2.431.646.757.831a8.13,8.13,0,0,0,2.062.428,4.855,4.855,0,0,1,1.448.457l.162.415a14.814,14.814,0,0,1,3.562.8c.309.183.558.995.863,1.148a14.97,14.97,0,0,0,4.448.792,3.75,3.75,0,0,1,.419,1.484,16.625,16.625,0,0,0,2.635.3,2.758,2.758,0,0,1,2.031.712l.245.573a14.826,14.826,0,0,0,1.96-.262c1.295-.28,4.471-.391,5.632.152a6.091,6.091,0,0,0,1.471-.572l.623.329.276-.139a3.237,3.237,0,0,1,.749-.291A4.122,4.122,0,0,0,317.049,799.163Z" transform="translate(237.81 8730.304)" fill="#4934eb"/>
      <path id="Trazado_902561" data-name="Trazado 902561" d="M209.93,749.3a21.969,21.969,0,0,1,12.622-6.547,15.863,15.863,0,0,1-.4,3.6c-1.454,1.4-2.463,2.137-2.514,4.307a59.3,59.3,0,0,1-.792,8.308c-2-4.429-2.368-7.983-2.729-12.778l-.226.1C213.822,747.2,212.073,748.615,209.93,749.3Z" transform="translate(235.232 8728.024)" fill="#8488e7"/>
      <path id="Trazado_902562" data-name="Trazado 902562" d="M205.557,754.78l.826-.578c-2.226,6.434-2.572,14.28.456,20.523,2.545,5.25,8.519,10.072,14.048,11.842a17.778,17.778,0,0,0,2.734.579,28.145,28.145,0,0,0,7,.485l1.921.11.161.33-1.53,1.058a20.474,20.474,0,0,1-4.954-.009l-.326-.06a29.631,29.631,0,0,1-9.857-2.806c-5.17-2.79-10.959-8.43-12.627-14.2A22.911,22.911,0,0,1,205.557,754.78Z" transform="translate(237.81 8724.002)" fill="#0f1099"/>
      <path id="Trazado_902563" data-name="Trazado 902563" d="M238.83,357.789l-.371-.3.263-.537.321-.324-.254-.161c-.8.928-2.127,2.2-3.411,2.316A7.349,7.349,0,0,0,231.99,360a14.329,14.329,0,0,1-2.947,1.409c-3.278,1.441-6.67,2.348-9.953,3.736a34.293,34.293,0,0,1-6.185,1.812,6.079,6.079,0,0,0-1.564.347,3.888,3.888,0,0,1-1.9.492c-2.538.04-5.58.908-8.111.19-3.328-.944-7.708-.344-11.231-.709a76.373,76.373,0,0,1-27.257-8.452,62.485,62.485,0,0,1-6.067-3.165,75.793,75.793,0,0,1-19.16-18.922c-1.271-1.763-2.707-3.553-3.791-5.433a73.134,73.134,0,0,1-5.688-13.614,45.431,45.431,0,0,1-1.685-5.261,83.439,83.439,0,0,1-.3-29.3,68.08,68.08,0,0,1,1.531-8.442,74.329,74.329,0,0,1,5.562-13.107c.842-1.641,1.466-3.416,2.391-5.013,1.023-1.769,2.4-3.278,3.523-4.979a52.378,52.378,0,0,1,6.411-7.448,52.837,52.837,0,0,1,5.109-5.014c2.347-1.858,5.139-3.352,7.611-5.056a58.826,58.826,0,0,1,16.253-7.637c13.049-3.954,26.186-5.039,39.392-1.11,2.108.627,4.072,1.609,6.129,2.37a109.7,109.7,0,0,1,13.408,5.477c6.15,3.217,12.415,8.6,17.055,13.686a23.627,23.627,0,0,1,2.487,2.6,8.741,8.741,0,0,0,1.279,1.476c1.289-.043,2.8-.92,4.024-1.376,3.468-1.289,6.93-2.609,10.413-3.854a6.763,6.763,0,0,0,3.116-1.96l.293-.311c5.349,10.823,13.306,18.534,24.909,22.452l5.072,1.383a33.086,33.086,0,0,0,13.345.253l.627-.113a47.9,47.9,0,0,0,12.11-4.335c-.96,1.306-2.383,1.855-3.795,2.569-.548,4.2.8,8.142,2.078,12.111,1.26,3.9,2.673,8.108,5.138,11.426l2.322,3.254.973.443a12.48,12.48,0,0,0,1.789-1.544c-2.84,5.083-5.29,11.541-3.65,17.423.642,2.3,2.482,4.935,2.672,7.211a4.715,4.715,0,0,1-3.451,2.309l-.443.087-.415.086c-2.958.559-6.575-.6-9.57-.852-11.268-.951-22.463,2.984-29.149,12.466-4.909,6.962-5.177,15.27-3.716,23.413.965,5.373,3.069,10.389,5.172,15.392,1.437,3.418,2.795,6.894,4.457,10.208l-2.526,4.382c-3.2,4.135-5.684,9.335-7.981,14.026a92.7,92.7,0,0,0-10.131-15.411l-2.034,1.119-17.357,9.09-.713-.236a8.47,8.47,0,0,1-1.775-3.283c-1.1-2.754-2.007-5.56-2.866-8.4a2.079,2.079,0,0,0-1.134-.461,17.026,17.026,0,0,1-3.71-1.316c-1.683-.83-5.213-2.977-5.823-4.78.332-2.571-2.4-3.8-3.05-6.4l-.387-.931c-1.508-2.087-.491-3.167-.266-5.467A21.676,21.676,0,0,0,238.83,357.789Z" transform="translate(265.051 8910.557)" fill="#ddedfc"/>
      <path id="Trazado_902564" data-name="Trazado 902564" d="M384.307,341.173c1.379-.017,3.857-.364,5.1.132l1.332.681a4.693,4.693,0,0,1,2.252,2.16l.183.437a5,5,0,0,1,.667,1.144l.142.477a4.014,4.014,0,0,1,.245.872l.08.426a2.485,2.485,0,0,1,.1,1.219l-.426,2.028a3.9,3.9,0,0,1-.4,1.145l-.245.477a5.758,5.758,0,0,1-1.906,2.16l-.367.275a3.547,3.547,0,0,1-1.413.744l-1.507.231-.483.32a6.59,6.59,0,0,1-2.113-.158l-.485-.164a5.894,5.894,0,0,1-1.784-.649,7.038,7.038,0,0,1-3.34-3.754l-.072-.3a1.822,1.822,0,0,1-.326-1.3,4.283,4.283,0,0,1-.25-2.9l.093-.343a4.293,4.293,0,0,1,.4-1.145l.245-.477.16-.485C380.847,343.112,383.039,341.751,384.307,341.173Z" transform="translate(175.817 8869.066)" fill="#fff"/>
      <path id="Trazado_902565" data-name="Trazado 902565" d="M315.3,380.648l2.287-1.446a2.7,2.7,0,0,1,1.427.195l.432.2.41-.48a23.5,23.5,0,0,0,2.167,4.842c1.181,2.381,1.934,4.936,2.9,7.406a97.342,97.342,0,0,1,5.8,19.344,6.737,6.737,0,0,0,1.367,2.4c2.16,3.333,2.373,6,2.309,9.89a10.752,10.752,0,0,1-.711,4.548,2.518,2.518,0,0,1-.632.807c1.971,2.237,3.5,6.842,4.631,9.7l-17.357,9.09-.713-.236a8.471,8.471,0,0,1-1.775-3.283c-1.1-2.754-2.007-5.56-2.866-8.4a2.079,2.079,0,0,0-1.134-.461,17.026,17.026,0,0,1-3.71-1.316c-1.683-.83-5.213-2.977-5.823-4.78.332-2.571-2.4-3.8-3.05-6.4l-.387-.931.488-.935a30.679,30.679,0,0,0,.585-5.5l-.947-1.784.6-.429c.761-.658.5-1.932.514-2.9a18.752,18.752,0,0,1,1.792-2.9A15.776,15.776,0,0,1,305.24,404c.45-1.315.7-2.289,1.881-3.136a10.806,10.806,0,0,1,3.734.125,4.249,4.249,0,0,1,2.974.331c1.124-1.871,2.921-4.313,3.253-6.488a5.544,5.544,0,0,1,.351-1.377l.207-.486a24.256,24.256,0,0,0-.942-3.277l-.583-2.38A32.657,32.657,0,0,1,315.3,380.648Z" transform="translate(203.299 8855.699)" fill="#fabcac"/>
      <path id="Trazado_902566" data-name="Trazado 902566" d="M301.369,442.733a7.307,7.307,0,0,0,2.547,1.394c.953.362,1.8,1,2.779,1.357,2.415.885,5.588,1.013,7.347,3.016-4.622-.847-8.578-1.555-12.773-3.9l-.387-.931Z" transform="translate(203.299 8833.362)" fill="#dd8075"/>
      <path id="Trazado_902567" data-name="Trazado 902567" d="M320.837,408.819c1.124-1.871,2.921-4.313,3.253-6.488a5.541,5.541,0,0,1,.351-1.377l.207-.486,1.271,8.371A33.886,33.886,0,0,1,320.837,408.819Z" transform="translate(196.292 8848.202)" fill="#ddedfc"/>
      <path id="Trazado_902568" data-name="Trazado 902568" d="M240.706,355.673l-.417-.488c-2.89.245-6.1,2.594-8.651,3.982-2.724,1.485-5.591,2.932-8.44,4.164a55.437,55.437,0,0,1-15.191,3.763c-19.107,2.031-39.836-3.583-54.735-15.875a80.516,80.516,0,0,1-13.842-14.339,70.755,70.755,0,0,1-12.4-33.993,66.855,66.855,0,0,1,1.413-22.155,91.583,91.583,0,0,1,3.067-9.035,68.61,68.61,0,0,1,12.236-21.731c12.91-15.271,31.405-22.636,50.939-24.344a57.847,57.847,0,0,1,16.3,1.4c12.893,2.655,24.209,8.029,33.81,17.165,1.783,1.7,3.583,3.418,5.274,5.207,1.3,1.378,2.394,3.32,4.18,3.968a30.949,30.949,0,0,1,3.1,4.592,66,66,0,0,1,7.762,18.516l.816,3.529c.317,1.3.368,2.606.649,3.893.47,2.154.449,4.316.751,6.49a49.107,49.107,0,0,1-.424,15.082,16.718,16.718,0,0,1-.181,2.522,23.559,23.559,0,0,0-.325,2.572l-.637,3.111c-1.486,5.488-3.926,10.749-4.878,16.343a23.507,23.507,0,0,1-2.167-4.842c1.275-5.045,3.292-9.855,4.38-15a69.578,69.578,0,0,0-8.535-49.873c-8.77-14.708-24.186-25.522-40.709-29.7-12.8-3.239-26.2-2.269-38.685,1.657a54.106,54.106,0,0,0-7.924,3.515,62.952,62.952,0,0,0-19.8,15.03c-4.636,5.441-9.334,11.836-11.693,18.656-1.494,4.321-3.155,8.361-4.108,12.875-.4,1.905-.72,3.811-.977,5.739a12.829,12.829,0,0,1-.246,2.475,13.663,13.663,0,0,0-.162,3.69c-.034,4.464-.236,9.589.974,13.83.321,1.125.3,2.263.687,3.407l.47,1.624.653,2.271.8,2.424,1.284,3.224a53.908,53.908,0,0,0,4.878,9.6l.24.467a50.426,50.426,0,0,0,5.555,7.538,25.124,25.124,0,0,1,2.151,2.546,17.647,17.647,0,0,0,4.231,4.082c1.832,1.371,3.466,3.036,5.342,4.39a75.367,75.367,0,0,0,26.806,12.01l.972.171c1.385.248,2.826.611,4.219.76a8.952,8.952,0,0,1,2.109.213,14.452,14.452,0,0,0,3.974.18c3.661.043,7.508.284,11.113-.3,1.006-.162,1.9-.108,2.92-.341,1.308-.3,2.585-.293,3.893-.672,2.015-.584,4.141-.874,6.166-1.467a72.278,72.278,0,0,0,19.321-8.981c2.185-1.473,4.085-3.319,6.22-4.856a35.9,35.9,0,0,0,4.233-4.117,65.251,65.251,0,0,0,6.083-6.488,24.246,24.246,0,0,1,.941,3.278l-.207.486a5.539,5.539,0,0,0-.351,1.377c-.332,2.175-2.128,4.618-3.253,6.488a4.253,4.253,0,0,0-2.974-.331,10.79,10.79,0,0,0-3.734-.125c-1.184.847-1.431,1.821-1.881,3.136a15.752,15.752,0,0,0-1.329,2.88,18.8,18.8,0,0,0-1.792,2.9Z" transform="translate(264.455 8909.638)" fill="#add1f6"/>
      <path id="Trazado_902569" data-name="Trazado 902569" d="M257.439,337.467a65.261,65.261,0,0,1-6.083,6.488,35.889,35.889,0,0,1-4.233,4.117c-2.135,1.537-4.034,3.383-6.22,4.856a72.277,72.277,0,0,1-19.321,8.981c-2.025.593-4.15.882-6.166,1.467-1.308.379-2.586.375-3.893.672-1.021.232-1.914.179-2.92.341-3.605.579-7.452.339-11.113.3a14.449,14.449,0,0,1-3.974-.18,8.956,8.956,0,0,0-2.109-.213c-1.393-.148-2.834-.511-4.219-.76l-.972-.171a75.37,75.37,0,0,1-26.806-12.01c-1.876-1.354-3.509-3.018-5.342-4.39a17.646,17.646,0,0,1-4.231-4.082,25.135,25.135,0,0,0-2.151-2.546,50.435,50.435,0,0,1-5.555-7.538l-.24-.467a53.907,53.907,0,0,1-4.878-9.6L135.73,319.5l-.8-2.424-.653-2.271-.47-1.623c-.387-1.144-.367-2.282-.687-3.407-1.21-4.241-1.008-9.366-.974-13.83a13.662,13.662,0,0,1,.162-3.69,12.832,12.832,0,0,0,.246-2.475c.258-1.928.575-3.834.977-5.739.953-4.514,2.614-8.554,4.108-12.875,2.359-6.82,7.057-13.215,11.693-18.656a62.952,62.952,0,0,1,19.8-15.03,54.109,54.109,0,0,1,7.924-3.515c12.489-3.925,25.882-4.9,38.685-1.657,16.523,4.18,31.94,14.995,40.709,29.7a69.574,69.574,0,0,1,8.535,49.873c-1.088,5.142-3.1,9.952-4.38,15l-.41.48-.432-.2a2.7,2.7,0,0,0-1.428-.195l-2.287,1.446a32.67,32.67,0,0,0,.81,6.665Z" transform="translate(262.559 8907.926)" fill="#fff"/>
      <path id="Trazado_902570" data-name="Trazado 902570" d="M184.774,363.323l7.527-6.837c-.872,2.182-3.2,3.98-4.884,5.607l-.4,2.631c1.171,1.174,2.826,2.475,3.378,4.057A53.137,53.137,0,0,1,184.774,363.323Z" transform="translate(244.065 8863.643)" fill="#870402"/>
      <path id="Trazado_902571" data-name="Trazado 902571" d="M239.892,283.559l13.746,13.905c-4.475,4.483-8.988,8.927-13.481,13.393a65.88,65.88,0,0,0-6.227,6.353c3.4,4.939,8.6,9.185,12.889,13.349,2.118,2.056,4.22,4.727,6.756,6.246L239.633,350.38l-20.106-19.868-1.592.589c-1.1,1.9-3.34,3.5-4.925,5.054-4.871,4.758-10.027,9.424-14.694,14.363a97.074,97.074,0,0,1-7.541-7.341c-.552-1.581-2.207-2.882-3.378-4.057l.4-2.631c1.687-1.627,4.012-3.425,4.884-5.607l13.553-13.664-20.384-20.1c2.164-2.635,4.83-4.7,7.267-7.063,2.03-1.967,3.819-4.107,5.98-5.95q6.307,6.278,12.557,12.613c2.614,2.637,5.476,5.207,7.638,8.238,1.511-.476,3.273-3.067,4.444-4.253C229.261,295.1,234.883,289.639,239.892,283.559Z" transform="translate(243.688 8889.248)" fill="url(#linear-gradient-5)"/>
      <path id="Trazado_902572" data-name="Trazado 902572" d="M695.774,224.761a12.256,12.256,0,0,1,4.408-.731,54.845,54.845,0,0,1,10.271.074c1.421.188,2.79.041,4.218.342,2.154.454,4.377.607,6.548,1.084a79.352,79.352,0,0,1,7.89,2.562,36.257,36.257,0,0,1,5.191,1.852l.648.186c3.426.973,6.715,3.486,9.735,5.336,7.183,4.4,14.376,10.576,19.036,17.634,1.727,2.615,3.113,5.546,4.649,8.285a59.106,59.106,0,0,1,5.545,12.081c5.476,19.336,3.649,39.868-6.361,57.434-8.626,15.137-23.829,26.366-40.541,30.875l-.385.1c3.228,4.327,6.612,8.449,9.7,12.9,4.733,6.815,8.92,13.994,13.074,21.169,2.7,4.662,5.2,9.171,7.532,14.034,1.7,3.544,3.2,6.677,3.689,10.619l.371.408a35.6,35.6,0,0,1,6.787,14.634l.254.59a9.579,9.579,0,0,0,.6,1.147,32.122,32.122,0,0,1,1.989,5,109.194,109.194,0,0,1,4.139,12.934c7.033,28.8,7.6,60.936-.321,89.591a131.721,131.721,0,0,1-10.086,25.13c-2.372,4.664-5.111,10.047-9.164,13.445a41.444,41.444,0,0,1-.613,8.282l-.125.582c-1.678,7.57-6.484,12.92-12.934,16.924-5.569,3.457-10.415,3.044-16.616,3.563-.951-.564-2.494-.369-3.581-.377l-.483-.307a7.178,7.178,0,0,1-2.11-.169l-.489-.158c-.449-.121-.868-.182-1.316-.332l-.467-.162c-1.273-.423-2.355-.956-3.571-1.473a9,9,0,0,1-3.716-2.207,15.229,15.229,0,0,0-2.262-1.421l-.973,1.727a3.008,3.008,0,0,1,.807,1.6,26.341,26.341,0,0,1-.206,4.287c-.139,2.5-.169,5.008-.311,7.508a21.1,21.1,0,0,1-1.328,5.018l-.154.361a6.874,6.874,0,0,1-3.155,3.134l-.639-.036.327,12.251c-7.693-1.875-15.8-2.444-23.668-3.123-3.186-.276-6.341-.882-9.523-1.173-9.816-.9-19.691-1.158-29.492-2.127-3.219-.318-6.379-.929-9.576-1.36-1.347-.181-3.263,0-4.418-.742a4.845,4.845,0,0,0-2.72-.31l-.618-.681c1.239-.167,2.244.249,3.374.112l3.3-.27L614.8,631.42a87.872,87.872,0,0,1-13.376-1.2c-2.579-.406-5.129-.358-6.844-2.554l-.212-.282-.443.256a17.765,17.765,0,0,1-.912-4.277l-6.34.221a4.526,4.526,0,0,1-2.509-.265,18.633,18.633,0,0,0-3.653-1.022,53.319,53.319,0,0,1-5.18-1.989c-7.163-4.234-13.111-9.343-17.2-16.7-6.019-10.832-6.7-22.1-3.219-33.9,5.89-19.953,18.26-37.118,34.4-50.093a74.633,74.633,0,0,1,10.794-7.684c-.316-4.151-1.658-8.619-2.542-12.726-1.83-8.488-3.7-16.968-5.488-25.466l5-4.362-8.267-30.641.3-.5c-.442-1.989-.727-4.812-1.577-6.592a3.685,3.685,0,0,1-.292-1.4l-.857-4.719c-.087-.493-.027-.3-.347-.753l.012-.284a7.726,7.726,0,0,0-.237-2.15l-.332-2.917a3.387,3.387,0,0,0-.247-1.226,2.952,2.952,0,0,1,.043-1.7l1.569-.081.222.424a5.213,5.213,0,0,0,.753.955l.492.724,2.169,2.909c.585.853,1.315,1.545,1.891,2.381a33.769,33.769,0,0,0,2.91,3.394,42.512,42.512,0,0,1,3.394,3.971c.762,1.073,1.974,1.81,2.771,2.842,2.491,3.226,5.887,6.219,8.792,9.11a18.549,18.549,0,0,0,2.633,2.616,6.967,6.967,0,0,0,1.381.363l.362.171c1.284.613,2.391,1.529,3.7,2.112,4.081,1.807,8.912.7,13.212.309a39.786,39.786,0,0,0-3.785-3.553,15.412,15.412,0,0,1-4.652-11.127c-.014-3.422,1.006-8.039,3.631-10.382,1.337-1.194,3-1.028,4.662-.921a62.533,62.533,0,0,1,9.033,1.312,30.549,30.549,0,0,0,5.489,1.158h.6a114.837,114.837,0,0,1,5.112-13.624c2.681-6.543,5.335-13.084,8.425-19.448l-3.023-1.457-15.437-6.773c.957-3.07,2.623-5.749,3.935-8.665,1.694-3.764-.647-8.679-.037-12.838a44.055,44.055,0,0,1,3.442-11.184c.643-1.42,1.649-2.775,2.16-4.226.836-2.378.824-5.366,1.012-7.861l-.589-.095-.282-1.116a3.021,3.021,0,0,1-.978-.406c-.826-3.786-2.633-6.126-4.376-9.445-3.39-6.453-6.579-14.65-7.172-21.912-.37-4.525-.962-9.105-.932-13.648a70.033,70.033,0,0,1,5.647-26.518c.728-1.641,1.85-3.007,2.719-4.56.609-1.09,1.083-2.254,1.7-3.343a56.606,56.606,0,0,1,12.155-14.184,85.378,85.378,0,0,1,6.841-5.779,73.782,73.782,0,0,1,22.638-10.267,14.842,14.842,0,0,1,3.958-1.218c1-.237,2.031-.191,2.989-.448a36.04,36.04,0,0,1,10.494-1.144l4.083-.092C706.266,223.238,700.612,225.387,695.774,224.761Z" transform="translate(114.845 8910.222)" fill="url(#linear-gradient-6)"/>
      <path id="Trazado_902573" data-name="Trazado 902573" d="M723.068,762.917a6.753,6.753,0,0,1-.943-3.661l.71-.506,1.44.268c1.166.333,1.121.454,1.692,1.5l-.761.021-.237-.27c-.388-.406-.232-.268-.822-.493.026.647-.121,1.441.33,1.914a8.208,8.208,0,0,1,1.7,2.405A11.97,11.97,0,0,0,723.068,762.917Z" transform="translate(55.401 8722.406)" fill="#dd8075"/>
      <path id="Trazado_902574" data-name="Trazado 902574" d="M843.331,644.639a2.1,2.1,0,0,1,1.112.655l-.093,4a21.128,21.128,0,0,1,3.662.184l.215.591c-.923.8-2.536.533-3.755.574l-.168,4.13-.862.725c-.665-1.271-.4-3.288-.4-4.714a22.185,22.185,0,0,1-4.556-.554l-.157-.528c.93-.709,3.53-.365,4.725-.359A16.108,16.108,0,0,1,843.331,644.639Z" transform="translate(14.596 8762.473)" fill="#4934eb"/>
      <path id="Trazado_902575" data-name="Trazado 902575" d="M764.7,493.119a2.152,2.152,0,0,1,1.045.51c.462.43.27,3.465.285,4.255l4.6.187.114.811-.529.637-4.165-.1a21.1,21.1,0,0,1-.279,4.892l-.9-.4-.268-4.815-4.284-.5-.319-.525c1.113-.9,3.121-.38,4.554-.3Z" transform="translate(42.097 8815.671)" fill="#4934eb"/>
      <path id="Trazado_902576" data-name="Trazado 902576" d="M731.933,720.484l31.946.041a6.762,6.762,0,0,1,2.5,2.1,15.561,15.561,0,0,1-2.334-1.326l-23.449,0h-4.662a9.533,9.533,0,0,0-1.9,0,4.037,4.037,0,0,0-.728.526,3.708,3.708,0,0,0-.852,1.62c-.565,2.4-.365,5.571-.372,8.046-.011,3.327-.227,6.9.089,10.2l.108.753a13.026,13.026,0,0,0-2.931,4.347L729,723.536A11.3,11.3,0,0,1,731.933,720.484Z" transform="translate(52.983 8735.842)" fill="#1299fa"/>
      <path id="Trazado_902577" data-name="Trazado 902577" d="M732.847,594.72l1.261-1.409c2.088-1.933,4.683-1.849,7.317-1.746l-.314.775c1.53,1.254,2.741,2.263,2.887,4.36l-.036,2.409c-1.081,2.391-2.54,4.348-5.109,5.3a12.21,12.21,0,0,1-5.056,0,5.354,5.354,0,0,1-.752-2.407l-.874-.583-.712-3.895Z" transform="translate(52.12 8781.12)" fill="#fabcac"/>
      <path id="Trazado_902578" data-name="Trazado 902578" d="M742.839,592.784c1.529,1.254,2.741,2.263,2.887,4.36l-.036,2.409-.877.349-.877-1.676-1.475-1.11c-1.244.33-1.9,1.925-2.688,2.946a4.788,4.788,0,0,0,2.59.452l-.11.778a19.462,19.462,0,0,1-4.659-.161c-1.195-1.17-1.077-3.614-1.211-5.213a4.126,4.126,0,0,0,1.362-1.481A15.322,15.322,0,0,1,742.839,592.784Z" transform="translate(50.392 8780.678)" fill="#dd8075"/>
      <path id="Trazado_902579" data-name="Trazado 902579" d="M728.136,817.445c2.493-.63,5.789-.255,8.388-.254,6.122.007,12.239.074,18.36.127,1.746.014,4.458.334,6.079-.187a10.153,10.153,0,0,0,2.4-1.348,3.011,3.011,0,0,1,.807,1.6,26.339,26.339,0,0,1-.206,4.287c-.139,2.5-.169,5.008-.311,7.508a21.1,21.1,0,0,1-1.328,5.018l-.154.361a6.874,6.874,0,0,1-3.155,3.134l-.639-.036c-1.814-.348-4.366.4-6.231.664-3.163.446-6.392.747-9.572,1.039a221.212,221.212,0,0,1-26.191,1.2l1.038-.4c1.139-.609,2.992-.407,4.319-.361a52.246,52.246,0,0,0,7.046-.031c1.218-.812,3.1-.053,4.512-.192l.355-.053a12.684,12.684,0,0,0,1.624-.243c1.264-.311,2.712.325,3.891-.161.707-.291.619-.406,1.46-.324a4.059,4.059,0,0,0,2.109,0c1.2-.51,1.495.013,2.6-.166.75-.122.778-.579,1.784-.483.613.058,1.178.306,1.784,0a2.488,2.488,0,0,1,2.008-.245c.8.13.739-.3,1.4-.4.378-.058.759.222,1.136.159.311-.052.5-.413.811-.483a5.862,5.862,0,0,1,1.3,0,17.58,17.58,0,0,1,.073-3.39l.091-.342a19.4,19.4,0,0,1,.649-1.947l.72-1.775.253-.5.488-.975.81-1.3a4.635,4.635,0,0,1,.842-1.361l.292-.263,0-.487L763,821.623l.425-.345.162-1.834a8.123,8.123,0,0,0,.081-2.222l-.811.324-.487-.324-.489.243-.971.24a5.972,5.972,0,0,1-2.92.245,64.927,64.927,0,0,0-7.067-.044c-2.374.232-4.825-.088-7.208.044a7.139,7.139,0,0,1-1.206.045c-2.805-.275-5.709.112-8.527-.045a7.333,7.333,0,0,0-1.622,0,13.553,13.553,0,0,1-3.662-.382Z" transform="translate(57.412 8702.382)" fill="#8488e7"/>
      <path id="Trazado_902580" data-name="Trazado 902580" d="M728.886,775.234l.492-.061a17.468,17.468,0,0,0,2.46,4.835l.086.327a8.4,8.4,0,0,1,.308,2.675l.324.487c.048,3.242.073,6.493.224,9.731a15.456,15.456,0,0,0,.918,5.816,5.809,5.809,0,0,1,.152,2.463c2.228,0,12.045-.514,13.3.325a44.894,44.894,0,0,1,7.471.239c3.354.556,7.552.113,10.994.11a8.08,8.08,0,0,0,2.069-2.486l.9.1-.973,1.727a10.116,10.116,0,0,1-2.4,1.348c-1.621.521-4.333.2-6.08.187-6.121-.053-12.238-.121-18.36-.127-2.6,0-5.895-.376-8.388.254a10.183,10.183,0,0,1-3.573-3.033c-.26-5.695-.123-11.421-.145-17.122C728.66,780.583,728.161,777.549,728.886,775.234Z" transform="translate(53.161 8716.639)" fill="#1299fa"/>
      <path id="Trazado_902581" data-name="Trazado 902581" d="M733.648,782.624a67.5,67.5,0,0,0,5.229,5.663,58.436,58.436,0,0,0,23.226,12.4c2.43.69,4.991.9,7.393,1.622a8.088,8.088,0,0,1-2.069,2.486c-3.443,0-7.641.444-10.994-.11a44.9,44.9,0,0,0-7.471-.239c-1.257-.838-11.074-.324-13.3-.324a5.81,5.81,0,0,0-.153-2.462,15.453,15.453,0,0,1-.918-5.816c-.15-3.239-.176-6.489-.224-9.731l-.324-.487a8.4,8.4,0,0,0-.308-2.675Z" transform="translate(51.352 8714.024)" fill="#add1f6"/>
      <path id="Trazado_902582" data-name="Trazado 902582" d="M733.889,742.864l-.108-.753c-.315-3.3-.1-6.873-.089-10.2.008-2.474-.193-5.648.372-8.046a3.694,3.694,0,0,1,.852-1.62,4.042,4.042,0,0,1,.728-.526,9.524,9.524,0,0,1,1.9,0h4.662l23.449,0a15.569,15.569,0,0,0,2.334,1.326c1.733,2.09.87,20.347.943,24.231-5.737-3.1-11.688-6.711-18.247-7.726a47.624,47.624,0,0,0-13.13.269A7.216,7.216,0,0,1,733.889,742.864Z" transform="translate(51.365 8735.427)" fill="#add1f6"/>
      <path id="Trazado_902583" data-name="Trazado 902583" d="M734.038,749.3a47.618,47.618,0,0,1,13.13-.269c6.558,1.014,12.509,4.622,18.247,7.726a15.437,15.437,0,0,1,6.956,7.19c3.063,7.491,1.827,17.649-1.426,24.89a14.371,14.371,0,0,1-1.816,3.078,15.236,15.236,0,0,0-2.262-1.421l-.9-.1c-2.4-.725-4.963-.931-7.394-1.621a58.445,58.445,0,0,1-23.226-12.4,67.488,67.488,0,0,1-5.229-5.663,17.481,17.481,0,0,1-2.46-4.835l-.492.061c-.182-1.91-2.574-4.777-3.579-6.551a11.94,11.94,0,0,1,3.1,1.174,8.21,8.21,0,0,0-1.7-2.406c-.45-.473-.3-1.266-.33-1.913.59.225.434.087.822.493l.237.27.761-.021.667.285.288-.566a13.02,13.02,0,0,1,2.931-4.347A7.213,7.213,0,0,0,734.038,749.3Z" transform="translate(54.886 8725.942)" fill="url(#linear-gradient-7)"/>
      <path id="Trazado_902584" data-name="Trazado 902584" d="M723.583,765.172a11.932,11.932,0,0,1,3.1,1.174l.248,2.774a7.506,7.506,0,0,0,1.947,1l1.652.74a5.81,5.81,0,0,0,1.1.394c1.345.392,2.545,1.112,3.9,1.468a9.212,9.212,0,0,1,1.614.618,8.1,8.1,0,0,0,1.62.515c1.356.315,2.182.466,3.081,1.591l-.321.395-.274-.106a10.252,10.252,0,0,0-1.184-.322l-2.271-.65-5.333-1.79-1.176-.325a9.228,9.228,0,0,1-1.277-.449l-.472-.152a9.021,9.021,0,0,1-1.4-.621l-.5.238-.492.061C726.979,769.812,724.588,766.945,723.583,765.172Z" transform="translate(54.885 8720.15)" fill="#e43743"/>
      <path id="Trazado_902585" data-name="Trazado 902585" d="M705.76,628.44c.3,1.941.346,3.849.547,5.793a32.891,32.891,0,0,1,.327,7.6c17.045,2.761,32.58,10.622,45.671,21.775a152.516,152.516,0,0,1,11.974,11.752c-.666,0-.653-.215-1.122-.684l-3.647-3.6c-.852-.769-3.736-4.309-4.672-4.313a22.078,22.078,0,0,0-3.407-3.161l-.73-.73-.487-.325-3.057-2.332a8.035,8.035,0,0,0-1.159-.669l-.651-.567a6.484,6.484,0,0,0-1.3-.894,3.251,3.251,0,0,1-.715-.647c-.629-.629-.178-.244-.988-.649l-.993-.76a13.717,13.717,0,0,0-1.359-.943l-1.942-1.3a13.559,13.559,0,0,0-2.278-1.211,3.174,3.174,0,0,1-.326,1.865l-.159.811-.093.353c-.1.485.088,1.955-.073,2.243a12.768,12.768,0,0,1-1.943,1.784l-1.136.649-.243.243-.571-.406-.4.406-.406.081-.243.243-.649-.408-.325.408-.326.081-.323.243-.326.081a5.053,5.053,0,0,0-1.3,1.217l-.326.081-.322.243-.326.081a5.058,5.058,0,0,0-1.3,1.217l-.326.081-.322.243-.326.081-.323.243-.487.079-.811.57-.326.081-.323.243-.326.081-.278.217a8.178,8.178,0,0,1-1.424.756,5.89,5.89,0,0,0-2.109,1.947h-.408a7.16,7.16,0,0,1-2.191,1.46l-.161.485a5.3,5.3,0,0,1-2.756,1.949l-.652-.162-.483.321-.49-.321-.483.321-.325.166a4.173,4.173,0,0,0-.766,1.226,3.272,3.272,0,0,1-.857,1.045,4.055,4.055,0,0,1-1.866-1.217l.162-.325a5.774,5.774,0,0,0-1.217.647,3.987,3.987,0,0,0-2.352-1.134l-.213.193a2.811,2.811,0,0,1-1.494.375c-.478.478-.424.644-1.132.649l0,.485a3.218,3.218,0,0,1-1.3.649l0,.489-.243.406-.649-.408c-1.76.811-2.54,3.471-3.409,5.213a16.821,16.821,0,0,0-1.216,2.412c-.7.178-.692.224-1.133.81l-.646-.483,0-2.92a17.186,17.186,0,0,0-.162,4.38l.325.487V725c-.489-.96-.192-3.641-.192-4.81q0-7.661-.038-15.322c-.01-2.424.4-5.87-.391-8.126l.023-40.268-.718-.014c-2.231.476-3.324,2.66-5.012,3.915A63.772,63.772,0,0,0,678.92,666c-2.542,2.457-5.2,4.865-7.728,7.4a98.2,98.2,0,0,1-4.359-8.907l-.483-.971-.814-1.948-.81-1.783.361-.823c-.278-.851-.742-1.6-1.03-2.449-.616-1.817-1.69-3.546-2.418-5.324-.458-1.118-.918-2.163-1.466-3.246a11.636,11.636,0,0,1-1.043-2.878,25.849,25.849,0,0,1,6.107-1.7c3.479-.736,7.177-1.839,10.713-1.136l-.192-2.864.812-1a13.281,13.281,0,0,1,1.586-.115,20.267,20.267,0,0,0,8.349,1.866c7.091-.122,12.094-3.283,16.923-8.262A30.229,30.229,0,0,0,705.76,628.44Z" transform="translate(77.516 8768.158)" fill="#fff"/>
      <path id="Trazado_902586" data-name="Trazado 902586" d="M705.76,628.44c.3,1.941.347,3.849.547,5.793a32.894,32.894,0,0,1,.327,7.6c-4.294,5.073-9.289,10.2-14.843,13.877A125.075,125.075,0,0,1,703.657,669.2c.787,1.063,2.082,1.781,2.74,2.945a2.723,2.723,0,0,0,1.156.945,45.3,45.3,0,0,0,2.757-5.027c.882-1.79,1.8-4.168,3.08-5.676l.321.483a54.931,54.931,0,0,1-3.893,7.787l-2.273,4.189c-1.905-2.457-4.192-4.545-6.107-6.946-1.57-1.969-8.765-11.291-10.56-11.618l-.31.194-.718-.014c-2.231.476-3.324,2.66-5.012,3.915A63.774,63.774,0,0,0,678.92,666c-2.542,2.457-5.2,4.866-7.728,7.4a98.211,98.211,0,0,1-4.359-8.907l-.483-.971-.814-1.948-.81-1.783.361-.823c-.278-.851-.742-1.6-1.03-2.449-.616-1.817-1.69-3.546-2.418-5.323-.457-1.118-.918-2.163-1.466-3.247a11.638,11.638,0,0,1-1.043-2.878,25.849,25.849,0,0,1,6.107-1.7c3.48-.736,7.177-1.839,10.713-1.136l-.192-2.864.812-1a13.3,13.3,0,0,1,1.586-.115,20.266,20.266,0,0,0,8.349,1.866c7.091-.122,12.094-3.283,16.923-8.262A30.2,30.2,0,0,0,705.76,628.44Z" transform="translate(77.516 8768.158)" fill="#fabcac"/>
      <path id="Trazado_902587" data-name="Trazado 902587" d="M688.727,654.073c3.246,3.2,7.735,6.778,9.812,10.821l-.707,1.093C695.132,662.17,689.693,658.694,688.727,654.073Z" transform="translate(67.124 8759.159)" fill="#ddedfc"/>
      <path id="Trazado_902588" data-name="Trazado 902588" d="M687.152,640.112a20.266,20.266,0,0,0,8.349,1.866c7.091-.122,12.094-3.283,16.923-8.262.332.907.906,2,.505,2.941-1.81,4.272-7.64,8.369-11.985,9.783a14.856,14.856,0,0,1-11.638-1.045,10,10,0,0,1-4.553-4.172l.812-1A13.311,13.311,0,0,1,687.152,640.112Z" transform="translate(68.519 8766.306)" fill="#dd8075"/>
      <path id="Trazado_902589" data-name="Trazado 902589" d="M665.086,666.308c-.278-.851-.742-1.6-1.03-2.449-.616-1.817-1.69-3.546-2.418-5.324-.458-1.118-.918-2.163-1.466-3.246a11.634,11.634,0,0,1-1.043-2.878,25.855,25.855,0,0,1,6.107-1.7c3.479-.736,7.177-1.839,10.713-1.135l2.385,2.837c.966,4.621,6.405,8.1,9.1,11.914L671.4,679.278l-4.982-10.2a4.356,4.356,0,0,1-.4-.951A10.8,10.8,0,0,0,665.086,666.308Z" transform="translate(77.516 8760.815)" fill="#fff"/>
      <path id="Trazado_902590" data-name="Trazado 902590" d="M844.337,562.107a27.867,27.867,0,0,1-10.773,4.963,24.2,24.2,0,0,1-16.547-2.311,26.811,26.811,0,0,1-13.681-16.337,24.752,24.752,0,0,1,2.189-19.357,28.047,28.047,0,0,1,15.908-12.7,24.7,24.7,0,0,1,20.957,2.7c1.776,1.1,3.387,2.559,5.226,3.525l.587.3.371.408a35.6,35.6,0,0,1,6.787,14.634,31.025,31.025,0,0,1-.618,7.953C853.061,552.322,850.087,558.348,844.337,562.107Z" transform="translate(27.26 8807.924)" fill="#017df6"/>
      <path id="Trazado_902591" data-name="Trazado 902591" d="M871.34,527.691a35.6,35.6,0,0,1,6.788,14.635,31.03,31.03,0,0,1-.618,7.953c-1.684,6.436-4.658,12.462-10.407,16.221a2.164,2.164,0,0,1,1.069-2.078,20.494,20.494,0,0,0,4.239-4.734,22.5,22.5,0,0,0,1.766-2.918l.851-2.119.156-.476c1.473-4.346.838-8.97.561-13.466-.1-1.7-.045-3.779-.718-5.368-.748-1.77-3-3.37-3.473-5.115-.173-.641-.053-.772-.464-1.389l-.319-.456Z" transform="translate(4.495 8803.533)" fill="#1c1fb3"/>
      <path id="Trazado_902592" data-name="Trazado 902592" d="M849.22,538.281l.677.3a5.848,5.848,0,0,1,1.972,2.92,4.314,4.314,0,0,1-.953,2.385,62.539,62.539,0,0,1-5.515,5.75c-3.769,3.893-7.436,8.038-11.561,11.554l-5.846-6.089a17.814,17.814,0,0,1-3.382-3.7c-.018-.959-.233-1.688.516-2.433a3,3,0,0,1,2.316-.814c2.4.156,5.017,3.573,6.568,5.22C838.551,548.077,843.652,542.5,849.22,538.281Z" transform="translate(19.428 8799.814)" fill="#fff"/>
      <path id="Trazado_902593" data-name="Trazado 902593" d="M669.55,556.274a39.774,39.774,0,0,0-3.785-3.553,15.412,15.412,0,0,1-4.653-11.127c-.014-3.422,1.006-8.039,3.631-10.382,1.337-1.194,3-1.028,4.662-.921a62.525,62.525,0,0,1,9.033,1.312,30.552,30.552,0,0,0,5.489,1.158h.6c6.858,1.9,14.633,4.256,18.468,10.8a18.192,18.192,0,0,1,1.39,2.934c3.886-.132,7.606-.255,10.67,2.57,2.373,2.188,2.99,5.483,3.056,8.586a60.045,60.045,0,0,1-.67,9.266,8.157,8.157,0,0,1-.716,3.121c-2.634-.1-5.229-.186-7.317,1.746l-1.261,1.409-1.387,2.8.712,3.895c-.087,4.591.043,9.583-1.015,14.06a30.292,30.292,0,0,1-2.333,3.424c-4.829,4.98-9.833,8.14-16.923,8.262a20.269,20.269,0,0,1-8.349-1.866,31.675,31.675,0,0,1-5-3.691c-4.47-4.374-5.044-11.243-5.048-17.116a60.685,60.685,0,0,1,1.552-13.249c.365-1.711,1.45-3.8,1.39-5.483a5.88,5.88,0,0,1,.137-1.545l.181-.824a9.848,9.848,0,0,0,.055-4.511l-.385-.92Z" transform="translate(76.819 8802.646)" fill="#010103"/>
      <path id="Trazado_902594" data-name="Trazado 902594" d="M677.971,565.69a54.208,54.208,0,0,0,17.2,1.661c2.959-.259,6.138-.972,9.09-.819a2.641,2.641,0,0,1,1.933.819l-.075.43a13.833,13.833,0,0,0-.2,5.488c.6,2.169,1.966,4.141,2.577,6.319a17.153,17.153,0,0,1,.348,4.257c.017,6.286-2.126,11.167-7.3,14.9-5.371,3.881-13.25,4.245-19.643,3.134-2.964-.515-5.78-1.632-7.591-4.168l-1.342-2.3a60.693,60.693,0,0,1,1.551-13.249c.365-1.711,1.45-3.8,1.39-5.483a5.881,5.881,0,0,1,.137-1.545l.181-.824a9.846,9.846,0,0,0,.055-4.511C677.322,568.931,677.559,566.967,677.971,565.69Z" transform="translate(72.66 8790.191)" fill="#fabcac"/>
      <path id="Trazado_902595" data-name="Trazado 902595" d="M677.895,578.428c2.039-.9,4.069-1.449,6.26-.639a1.71,1.71,0,0,1,1.152.971l-.432,1.624c-1.247.667-4.9.035-6.523.161-.586-.577-.488-.548-.639-1.292Z" transform="translate(70.991 8786.081)" fill="#010103"/>
      <path id="Trazado_902596" data-name="Trazado 902596" d="M702.675,578.493a16.453,16.453,0,0,1,5.333.326,5.722,5.722,0,0,1,3.42,2.415l-.412.707a22.32,22.32,0,0,0-7.883-.872,2.211,2.211,0,0,1-1.14-1.457Z" transform="translate(62.465 8785.717)" fill="#010103"/>
      <path id="Trazado_902597" data-name="Trazado 902597" d="M681.783,586.208a3.589,3.589,0,0,1,1.418.575,3.527,3.527,0,0,1,1.381,2.627,5.264,5.264,0,0,1-1.542,3.791l-1.676-.37a2.867,2.867,0,0,1-1.132-2.054A5.371,5.371,0,0,1,681.783,586.208Z" transform="translate(70.122 8782.986)" fill="#010103"/>
      <path id="Trazado_902598" data-name="Trazado 902598" d="M707.129,586.835a5.06,5.06,0,0,1,1.653.485,3.744,3.744,0,0,1,1.658,2.415c.362,1.649-.576,2.81-1.452,4.117a3.124,3.124,0,0,1-2.572-.7,3.62,3.62,0,0,1-.949-2.76C705.414,588.706,706,588.029,707.129,586.835Z" transform="translate(61.247 8782.768)" fill="#010103"/>
      <path id="Trazado_902599" data-name="Trazado 902599" d="M588.809,542.948l.3-.5c-.442-1.989-.727-4.812-1.578-6.591a3.685,3.685,0,0,1-.292-1.4l-.857-4.719c-.087-.493-.027-.3-.347-.753l.012-.284a7.727,7.727,0,0,0-.237-2.15l-.332-2.917a3.387,3.387,0,0,0-.247-1.226,2.953,2.953,0,0,1,.043-1.7l1.569-.081.222.424a5.215,5.215,0,0,0,.753.955l.492.724,2.169,2.909c.585.853,1.315,1.545,1.891,2.381a33.787,33.787,0,0,0,2.91,3.394,42.559,42.559,0,0,1,3.394,3.971c.762,1.073,1.974,1.81,2.771,2.842,2.491,3.226,5.887,6.219,8.793,9.11a18.562,18.562,0,0,0,2.633,2.616,6.98,6.98,0,0,0,1.381.363l.362.171c1.284.613,2.391,1.529,3.7,2.111,4.081,1.807,8.912.7,13.212.309l2.186.159.385.92a9.847,9.847,0,0,1-.055,4.511l-.181.824a5.887,5.887,0,0,0-.137,1.545c.06,1.688-1.025,3.772-1.39,5.483a60.717,60.717,0,0,0-1.551,13.249c0,5.873.579,12.742,5.048,17.116a31.671,31.671,0,0,0,5,3.691,13.236,13.236,0,0,0-1.586.115l-.812,1,.192,2.864c-3.536-.7-7.233.4-10.713,1.136a25.841,25.841,0,0,0-6.107,1.7,11.622,11.622,0,0,0,1.043,2.878c.548,1.083,1.008,2.128,1.466,3.246.728,1.777,1.8,3.507,2.418,5.323.288.85.752,1.6,1.03,2.449l-.361.823.81,1.783.814,1.948.483.971a98.162,98.162,0,0,0,4.359,8.907c2.528-2.533,5.185-4.942,7.728-7.4a63.654,63.654,0,0,1,5.918-5.623c1.689-1.254,2.781-3.439,5.012-3.915l.718.014-.023,40.268-.285,78.142,6.023-.1a221.085,221.085,0,0,0,26.191-1.2c3.181-.291,6.409-.593,9.573-1.039,1.865-.262,4.417-1.013,6.231-.665l.327,12.25c-7.693-1.875-15.8-2.444-23.668-3.123-3.186-.276-6.341-.883-9.522-1.173-9.816-.9-19.691-1.158-29.492-2.127-3.219-.318-6.379-.929-9.576-1.36-1.347-.181-3.263,0-4.418-.742a4.845,4.845,0,0,0-2.72-.31l-.618-.681c1.239-.167,2.244.249,3.374.112l3.3-.27-13.138-.973a87.86,87.86,0,0,1-13.376-1.2c-2.579-.406-5.129-.358-6.844-2.554l-.212-.282-.442.256a17.765,17.765,0,0,1-.912-4.278l-6.34.221a4.524,4.524,0,0,1-2.509-.266,18.626,18.626,0,0,0-3.653-1.022,53.319,53.319,0,0,1-5.179-1.989c-7.163-4.234-13.111-9.343-17.2-16.7-6.019-10.832-6.7-22.1-3.219-33.9,5.89-19.954,18.26-37.118,34.4-50.093a74.636,74.636,0,0,1,10.794-7.684c-.316-4.151-1.658-8.619-2.542-12.725-1.83-8.488-3.7-16.968-5.488-25.466l5-4.362Z" transform="translate(114.846 8806.013)" fill="url(#linear-gradient-8)"/>
      <path id="Trazado_902600" data-name="Trazado 902600" d="M648.342,838.187a9.054,9.054,0,0,1,2.224-.389,4.636,4.636,0,0,0,.94-.032l.345-.04a2.454,2.454,0,0,0,1.784.4l3.569-.08c.97.645,3.415.592,4.542.408a8.369,8.369,0,0,1,3.292,0,11.745,11.745,0,0,0,4.819.317,50.767,50.767,0,0,1,6.327-.08c.782.516,1.976.323,2.92.324l-.168-.666c.5-1.807,1.555-1.685,2.45-2.922a7.642,7.642,0,0,1,1.97-1.886L684.8,832.5l.466-.29.088-1.291,0-6.336c-.107-1.194-.085-2.367-.08-3.569.811-1.081.417-6.267.737-7.952l.07-.338.121,26.912-24.721-.476Z" transform="translate(81.303 8703.456)" fill="#add1f6"/>
      <path id="Trazado_902601" data-name="Trazado 902601" d="M609.441,772.117c-.889-16.737.238-32.779,7.536-48.089l.289.145c-5.171,10.572-6.44,23.366-6.823,34.967-.1,2.948.2,5.929-.03,8.863.35,5.246.628,10.474,1.132,15.711.228,2.375.522,4.769.846,7.133a20.937,20.937,0,0,1,.446,5.765c-.969-1.592-1.054-3.9-1.385-5.714C610.375,784.978,609.165,778.154,609.441,772.117Z" transform="translate(95.053 8734.598)" fill="#0f1099"/>
      <path id="Trazado_902602" data-name="Trazado 902602" d="M689.559,671.623l.718.014-.023,40.268-.286,78.142,6.023-.1a221.06,221.06,0,0,0,26.191-1.2c3.181-.291,6.409-.593,9.573-1.039,1.865-.262,4.417-1.013,6.231-.665l.327,12.251c-7.693-1.875-15.8-2.444-23.668-3.123-3.186-.276-6.341-.882-9.523-1.173-9.816-.9-19.691-1.158-29.491-2.127-3.219-.318-6.379-.929-9.576-1.36-1.347-.181-3.263,0-4.418-.742a4.844,4.844,0,0,0-2.72-.31l-.618-.681c1.239-.168,2.244.248,3.373.112l3.3-.27,24.721.476-.121-26.912Z" transform="translate(77.807 8752.997)" fill="#010103"/>
      <path id="Trazado_902603" data-name="Trazado 902603" d="M756.949,225.538c5.2.833,11.061,1.559,16.064,3.2a52.8,52.8,0,0,1,5.3,2.526c2.328,1.069,4.74,1.919,7.018,3.1,7.915,4.113,16.094,10.349,21.33,17.593a79.377,79.377,0,0,1,13.7,30.275c.581,2.751.561,5.75,1.181,8.412a16.936,16.936,0,0,1,.112,3.594,44.365,44.365,0,0,1-.268,6.545c-.193,1.339-.087,2.518-.377,3.893-.368,1.741-.522,3.585-.9,5.364l-.885,3.4-2.951,8.76-.977,2.312c-.254.72-.678,1.316-.936,2.036-.914,2.551-3.218,5.709-4.74,7.993l-1.943,2.582-.39.467a3.667,3.667,0,0,0-.653.914,4.313,4.313,0,0,1-.761.912c-.98.977-.072-.049-.632.952-.338.605-.925.926-1.3,1.622a10.027,10.027,0,0,1-1.606,1.65,42.837,42.837,0,0,1-4.883,4.518l-.684.612A50.817,50.817,0,0,1,778.966,359a7.9,7.9,0,0,1-1.52.407c-1.382.471-2.824.9-4.159,1.486a29.981,29.981,0,0,1-3.235,1.622,49.678,49.678,0,0,1-6.779,1.2,72.285,72.285,0,0,1-32.161-1.974,34.371,34.371,0,0,1-6.257-2.231l-.728,3.667a21.606,21.606,0,0,0-2.731,3.173,44.521,44.521,0,0,1-3.193,5.087c-2.881,3.358-7.248,5.231-10.761,7.818l-1.707,5.621-2.755,6.388-15.436-6.772c.957-3.07,2.623-5.749,3.935-8.665,1.694-3.764-.647-8.679-.037-12.838a44.06,44.06,0,0,1,3.442-11.184c.643-1.42,1.649-2.775,2.16-4.226.836-2.378.823-5.366,1.012-7.861l-.589-.095-.282-1.116a3.022,3.022,0,0,1-.978-.406c-.826-3.786-2.633-6.126-4.376-9.445-3.39-6.453-6.579-14.65-7.172-21.912-.37-4.525-.962-9.105-.932-13.648a70.03,70.03,0,0,1,5.647-26.518c.728-1.641,1.85-3.007,2.719-4.56.609-1.09,1.083-2.254,1.7-3.343a56.606,56.606,0,0,1,12.155-14.184,85.336,85.336,0,0,1,6.841-5.779,73.777,73.777,0,0,1,22.638-10.267,14.838,14.838,0,0,1,3.958-1.218c1-.238,2.031-.191,2.989-.448a36.037,36.037,0,0,1,10.494-1.144Z" transform="translate(68.88 8909.62)" fill="#fff"/>
      <path id="Trazado_902604" data-name="Trazado 902604" d="M822.444,405.233c-.375,2.443-5.462,6.3-7.488,7.792a85.267,85.267,0,0,1-7.629,4.984c-1.939,1.129-6.463,2.8-7.676,4.487-1.382.471-2.824.9-4.159,1.486a30.008,30.008,0,0,1-3.235,1.622,49.686,49.686,0,0,1-6.779,1.2,72.286,72.286,0,0,1-32.161-1.974,34.379,34.379,0,0,1-6.257-2.231l-.1-3.012a59.294,59.294,0,0,0,22.169,5.252C789.882,425.762,807.17,419.215,822.444,405.233Z" transform="translate(46.678 8846.528)" fill="#8488e7"/>
      <path id="Trazado_902605" data-name="Trazado 902605" d="M735.426,229.555c.867-.127,4.49-1.008,5.094-.815a4.287,4.287,0,0,1,1,.677,77.284,77.284,0,0,0-9.607,2.192,69.035,69.035,0,0,0-35.054,26.814c-10.221,14.975-13.152,33.8-9.878,51.447,1.713,9.227,6.031,16.817,9.873,25.221.6,1.306.375,3.112.332,4.525a3.021,3.021,0,0,1-.978-.406c-.826-3.786-2.633-6.126-4.376-9.445-3.39-6.453-6.579-14.65-7.172-21.912-.37-4.525-.962-9.105-.932-13.648a70.036,70.036,0,0,1,5.647-26.518c.728-1.641,1.85-3.007,2.719-4.56.609-1.09,1.083-2.254,1.7-3.343A56.606,56.606,0,0,1,705.946,245.6a85.374,85.374,0,0,1,6.841-5.779A73.8,73.8,0,0,1,735.426,229.555Z" transform="translate(68.88 8908.506)" fill="#9a9dd5"/>
      <path id="Trazado_902606" data-name="Trazado 902606" d="M784.923,225.538c5.2.833,11.061,1.559,16.064,3.2a52.79,52.79,0,0,1,5.3,2.526c2.328,1.069,4.74,1.919,7.018,3.1,7.915,4.113,16.094,10.349,21.33,17.593a79.377,79.377,0,0,1,13.7,30.275c.581,2.751.561,5.75,1.181,8.412a16.924,16.924,0,0,1,.112,3.594,44.415,44.415,0,0,1-.268,6.545c-.193,1.339-.087,2.518-.377,3.893-.368,1.741-.522,3.585-.9,5.364l-.885,3.4-2.951,8.76-.977,2.312c-.254.72-.678,1.316-.936,2.036-.914,2.551-3.218,5.709-4.74,7.993l-1.943,2.582-.39.467a3.668,3.668,0,0,0-.653.914,4.319,4.319,0,0,1-.761.912c-.98.977-.072-.049-.632.952-.338.605-.925.926-1.3,1.622a10.03,10.03,0,0,1-1.606,1.65,42.831,42.831,0,0,1-4.883,4.518l-.684.612A50.817,50.817,0,0,1,806.941,359a7.9,7.9,0,0,1-1.52.407c1.213-1.684,5.737-3.358,7.676-4.487a85.255,85.255,0,0,0,7.629-4.984c2.027-1.491,7.114-5.349,7.488-7.792,1.51-2.4,4.17-4.656,5.977-6.955a61.922,61.922,0,0,0,12.168-27.124,67.645,67.645,0,0,0-10.719-51.674c-9.987-14.474-26.466-24.4-43.626-27.7-7.469-1.434-15-.9-22.523-.388a4.288,4.288,0,0,0-1-.677c-.6-.193-4.226.688-5.094.815a14.841,14.841,0,0,1,3.958-1.218c1-.238,2.031-.191,2.989-.448a36.036,36.036,0,0,1,10.494-1.144Z" transform="translate(40.906 8909.62)" fill="#add1f6"/>
      <path id="Trazado_902607" data-name="Trazado 902607" d="M752.885,283.864a27.525,27.525,0,0,1,3.986,3.721l.128.319a7.686,7.686,0,0,0,1.909,2.743l-.095.392c-.162.791-.052.15.041,1.055.141,1.365-.717,2.5-.41,4.074.321,1.645.088,3.233.492,4.819l.509,2.21,1.114,4.926,1.443,6.3c.845,3.709,3.1,7.292,3.557,11.116a4.312,4.312,0,0,0,.546,1.618c.886,1.585.917,3.481,1.976,5.194.446.721.191,1.034.4,1.729l.266.407-.14.311.622.409c-1.139,1.648-3.244,3.283-4.705,4.714-3.461,3.391-6.92,6.783-10.313,10.242l-13.884-13.78c3.13-2.863,6.008-6.031,9.039-9,3.18-3.115,6.956-6.235,9.631-9.778l-19.142-20.07Z" transform="translate(49.174 8889.142)" fill="url(#linear-gradient-9)"/>
      <path id="Trazado_902608" data-name="Trazado 902608" d="M700.121,393.755c.091-2.536-.306-12.545,1.314-14.074.357-.337.784-.21,1.228-.146a4.648,4.648,0,0,1,2.967,2.06c2.957,4.416,1.208,11.032,2.378,16.088,3.28,1.356,6.3,2.853,9.431,4.514,3.818,2.028,7.593,4.109,9.382,8.338l.1,3.012-.728,3.667a21.606,21.606,0,0,0-2.73,3.173,44.531,44.531,0,0,1-3.193,5.087c-2.881,3.358-7.248,5.231-10.761,7.818l-1.707,5.621-2.755,6.388-15.437-6.772c.957-3.07,2.623-5.749,3.935-8.665,1.694-3.764-.647-8.679-.037-12.838a44.055,44.055,0,0,1,3.442-11.184c.643-1.42,1.649-2.775,2.16-4.226C699.945,399.237,699.932,396.25,700.121,393.755Z" transform="translate(66.814 8855.578)" fill="#fabcac"/>
      <path id="Trazado_902609" data-name="Trazado 902609" d="M802.54,283.381c3.071,2.965,6.134,5.941,9.158,8.955a43.644,43.644,0,0,1,4.947,5.274l-19.56,20.552,19.1,19.111-13.939,13.941-19.835-19.346-1.045-.056a18.5,18.5,0,0,1-2.934,3.225l-.622-.409.139-.311-.265-.407c-.206-.695.049-1.008-.4-1.729-1.059-1.714-1.089-3.61-1.976-5.194a4.32,4.32,0,0,1-.546-1.618c-.452-3.825-2.712-7.407-3.557-11.116l-1.442-6.3-1.114-4.926-.509-2.21c-.4-1.585-.171-3.174-.492-4.819-.308-1.577.552-2.71.41-4.074-.093-.905-.2-.264-.041-1.055l.095-.392a7.7,7.7,0,0,1-1.909-2.743l-.128-.319,12.595,12.856,3.39,3.258Z" transform="translate(39.965 8889.311)" fill="url(#linear-gradient-10)"/>
      <path id="Trazado_902610" data-name="Trazado 902610" d="M766.079,289.6l12.595,12.856-.584-.258a11.957,11.957,0,0,1-1.682-.951,9.451,9.451,0,0,1-3.08-2.792l-2.271-2.271-.32.569a4.5,4.5,0,0,1-.98,1.239,17.634,17.634,0,0,1-.245,2.286,5.474,5.474,0,0,0,.143,2.157c.23,1.225,0,2.474.24,3.7,1.076,5.438,2.854,10.7,4.4,16,.6,2.071.744,4.3,1.42,6.347.75,2.274,2.769,4.745,3.133,6.961l.483-.321.406-.164.811-.811.821-.153a18.506,18.506,0,0,1-2.934,3.225l-.621-.409.139-.312-.265-.407c-.206-.695.049-1.008-.4-1.729-1.059-1.714-1.089-3.61-1.976-5.194a4.32,4.32,0,0,1-.546-1.618c-.452-3.825-2.712-7.407-3.557-11.116l-1.442-6.3-1.114-4.926-.509-2.21c-.4-1.585-.171-3.174-.492-4.819-.308-1.577.552-2.71.41-4.074-.093-.905-.2-.264-.041-1.055l.095-.392a7.7,7.7,0,0,1-1.909-2.743Z" transform="translate(39.965 8887.127)" fill="#4934eb"/>
    </g>
  </g>
</svg>
