<svg xmlns="http://www.w3.org/2000/svg" xmlns:xlink="http://www.w3.org/1999/xlink" width="715" height="412" viewBox="0 0 715 412">
  <defs>
    <clipPath id="clip-path">
      <path id="Rectángulo_405220" data-name="Rectángulo 405220" d="M20,0H715a0,0,0,0,1,0,0V412a0,0,0,0,1,0,0H20A20,20,0,0,1,0,392V20A20,20,0,0,1,20,0Z" transform="translate(-5987 -4025.162)" fill="#fff"/>
    </clipPath>
    <linearGradient id="linear-gradient" x1="0.214" y1="0.404" x2="0.696" y2="0.888" gradientUnits="objectBoundingBox">
      <stop offset="0" stop-color="#b7d7f8"/>
      <stop offset="1" stop-color="#e2effa"/>
    </linearGradient>
    <linearGradient id="linear-gradient-2" x1="0.373" y1="0.965" x2="0.788" y2="1.343" gradientUnits="objectBoundingBox">
      <stop offset="0" stop-color="#040c44"/>
      <stop offset="1" stop-color="#302f84"/>
    </linearGradient>
  </defs>
  <g id="Enmascarar_grupo_1099793" data-name="Enmascarar grupo 1099793" transform="translate(5987 4025.162)" clip-path="url(#clip-path)">
    <g id="Grupo_1113986" data-name="Grupo 1113986" transform="translate(782.608 -1564.426)">
      <path id="Trazado_902723" data-name="Trazado 902723" d="M1975.8,502.8c1.324.211,2.8.12,4.063.361a5.562,5.562,0,0,1,.451,4.424,3.5,3.5,0,0,1-.391.752c-1.324.12-2.618.211-3.913.271.722,2.919.963,23.023-.12,25.07.963,1.9.632,4.574.481,6.651l-.391-.03C1976.4,535.875,1976.673,505.779,1975.8,502.8Z" transform="translate(-8145.861 -2840.426)" fill="#f6b792"/>
      <path id="Trazado_902724" data-name="Trazado 902724" d="M1939.156,471.516a5.456,5.456,0,0,1,6.741,4.364,5.407,5.407,0,0,1-.813,4.123,5.3,5.3,0,0,1-3.551,2.257,5.06,5.06,0,0,1-1.354.06,5.362,5.362,0,0,1-3.672-2.107,6.155,6.155,0,0,1-.692-4.875C1936.3,473.382,1937.561,472.479,1939.156,471.516Z" transform="translate(-8117.764 -2818.472)" fill="#b6d8f6"/>
      <path id="Trazado_902725" data-name="Trazado 902725" d="M2236.424,467.916a6.328,6.328,0,0,1,4.123.662,5.848,5.848,0,0,1,2.8,3.822,5.225,5.225,0,0,1-.722,4,5.665,5.665,0,0,1-4.123,2.528,3.67,3.67,0,0,1-1.806-.03,4.651,4.651,0,0,1-3.341-2.378,6.849,6.849,0,0,1-.391-5.116C2233.534,469.571,2234.828,468.788,2236.424,467.916Z" transform="translate(-8325.408 -2815.985)" fill="#b6d8f6"/>
      <path id="Trazado_902726" data-name="Trazado 902726" d="M2005.51,503.171l1.2-.271c1.2,2.107.9,33.647.512,37.92l-.271-.06c.271-4.785.632-27.9-.18-31.48l-.933-.542c-1.415-.482-3.281-.211-4.755-.181-3.852,0-7.7-.03-11.526-.12a3.508,3.508,0,0,0,.391-.752,5.562,5.562,0,0,0-.451-4.424C1994.8,503.141,2000.184,503.412,2005.51,503.171Z" transform="translate(-8155.438 -2840.496)" fill="#f3a290"/>
      <path id="Trazado_902727" data-name="Trazado 902727" d="M2233.971,681.4a7.11,7.11,0,0,1,4.032.361,5.918,5.918,0,0,1,3.25,3.551,5.761,5.761,0,0,1-.421,4.725,5.851,5.851,0,0,1-4.364,2.859,4.854,4.854,0,0,1-1.746-.03,5.892,5.892,0,0,1-4.033-2.438,6.134,6.134,0,0,1-.572-4.875C2230.66,683.447,2232.165,682.453,2233.971,681.4Z" transform="translate(-8323.467 -2965.186)" fill="#b6d8f6"/>
      <path id="Trazado_902728" data-name="Trazado 902728" d="M748.51,208.812a10.3,10.3,0,0,1,3.461.241,7.339,7.339,0,0,1,4.364,3.672,6.531,6.531,0,0,1,.271,5.357c-.933,2.317-2.618,3.371-4.785,4.243a11.4,11.4,0,0,1-3.04-.15,7.252,7.252,0,0,1-4.514-3.4,6.509,6.509,0,0,1-.481-5.086C744.6,211.189,746.283,210.046,748.51,208.812Z" transform="translate(-7284.411 -2634.888)" fill="#b6d8f6"/>
      <path id="Trazado_902729" data-name="Trazado 902729" d="M2121.15,343.888c3.371.06,20.887-.512,22.511.331.361.451.813.813.753,1.384a3.333,3.333,0,0,1-.361,1.174,3.717,3.717,0,0,1,.3,2.769c-1.5,1.2-4.3.512-6.169.542a3.974,3.974,0,0,1-.6,2.919c-5.417-.211-10.894-.03-16.312,0l-.271-1.414.361-1.5a7.344,7.344,0,0,0,.181-2.919A5.57,5.57,0,0,0,2121.15,343.888Z" transform="translate(-8247.362 -2729.246)" fill="#fccb64"/>
      <path id="Trazado_902730" data-name="Trazado 902730" d="M2182.319,345.3c.361.451.813.813.752,1.384a3.312,3.312,0,0,1-.361,1.174,3.72,3.72,0,0,1,.3,2.769c-1.5,1.2-4.3.512-6.17.542l-.03-.271c.12-1.746.421-3.942-.512-5.507A44.5,44.5,0,0,0,2182.319,345.3Z" transform="translate(-8286.02 -2730.326)" fill="#f8b23f"/>
      <path id="Trazado_902731" data-name="Trazado 902731" d="M2138.255,363.472l.03.271a3.976,3.976,0,0,1-.6,2.919c-5.417-.211-10.895-.03-16.312,0l-.271-1.415.361-1.5C2126.607,362.87,2132.958,363.532,2138.255,363.472Z" transform="translate(-8247.433 -2742.901)" fill="#fefefe"/>
      <path id="Trazado_902732" data-name="Trazado 902732" d="M2182.671,353.8a5.376,5.376,0,0,1,.692.993c.632,1.836.361,29.885.03,33.406l-.722.993a2.421,2.421,0,0,1-.15,1.715c-1.535,3.01-3.371,9.841-6.32,11.5.06-.15.12-.331.181-.482.873-2.949.722-35.212.361-40.147a3.948,3.948,0,0,0-.542-1.715,4,4,0,0,0,.6-2.919c1.866-.03,4.634.632,6.169-.542A4.1,4.1,0,0,0,2182.671,353.8Z" transform="translate(-8285.95 -2736.268)" fill="#f8b23f"/>
      <path id="Trazado_902733" data-name="Trazado 902733" d="M2182.671,353.8a5.376,5.376,0,0,1,.692.993c.632,1.836.361,29.885.03,33.406l-.722.993c.06-.15.12-.271.18-.421.783-2.077.542-27.026-.18-28.862l-6.47.151a4,4,0,0,0,.6-2.919c1.866-.03,4.634.632,6.169-.542A4.1,4.1,0,0,0,2182.671,353.8Z" transform="translate(-8285.95 -2736.268)" fill="#eff5fa"/>
      <path id="Trazado_902734" data-name="Trazado 902734" d="M2138.451,488.6c2.949-1.625,4.785-8.487,6.32-11.5.963,1.685,1.083,27.266.391,29.825-.03.09-.06.151-.09.241l-.692.15c-1.957-.512-4.214-.15-6.2.03-4.936-.722-10.684-.15-15.68-.12a5.762,5.762,0,0,0-.3-2.468,5.28,5.28,0,0,0,2.077-.873C2128.008,501.267,2137.759,492.81,2138.451,488.6Z" transform="translate(-8248.201 -2822.46)" fill="#f8b23f"/>
      <path id="Trazado_902735" data-name="Trazado 902735" d="M2185.757,576.286c4.966.06,13.814-1.625,17.486,2.317a7.317,7.317,0,0,1,1.866,5.748,8.216,8.216,0,0,1-3.04,5.538c-3.22,2.5-7.915,2.047-11.737,2.047l-3.551-.09c-.331-.933-2.648-1.475-3.461-2.137-1.174-.963-1.716-2.739-2.769-3.912-.031-.06-.09-.09-.151-.15a4.519,4.519,0,0,0,.271-.9c.692-3.7,2.016-5.056,4.153-7.915l.271-.361Z" transform="translate(-8288.886 -2891.581)" fill="#41439a"/>
      <path id="Trazado_902736" data-name="Trazado 902736" d="M1975.1,452.476c2.919-.03,19.773-.662,21.4.331a5.849,5.849,0,0,1,.632.963c.572,2.408.421,9.931,0,12.429a3.609,3.609,0,0,1-.512,1.264l-1.2.271c-5.3.241-10.714,0-16.041.09-1.294-.241-2.739-.15-4.063-.361a4.66,4.66,0,0,0,.241-.692C1976.183,464.363,1976.334,454.432,1975.1,452.476Z" transform="translate(-8145.371 -2805.089)" fill="#41439a"/>
      <path id="Trazado_902737" data-name="Trazado 902737" d="M1975.1,452.476c2.919-.03,19.773-.662,21.4.331l-17.154-.06c1.294,2.047,1.2,11.165.6,13.633a3.516,3.516,0,0,1-.481,1.083c2.769-.03,14.3-.572,15.95.271-5.3.241-10.714,0-16.041.09-1.294-.241-2.739-.15-4.063-.361a4.687,4.687,0,0,0,.241-.692C1976.183,464.363,1976.334,454.432,1975.1,452.476Z" transform="translate(-8145.371 -2805.089)" fill="#747faf"/>
      <path id="Trazado_902738" data-name="Trazado 902738" d="M2056.5,331.561c2.588-.03,5.177-.03,7.795.09,3.972-.09,7.945-.09,11.917-.09a3.424,3.424,0,0,1,.3,2.5,5.721,5.721,0,0,1-.451,1.264,5.934,5.934,0,0,1,.421,3.31,6.385,6.385,0,0,1-.18,2.919l-.361,1.5.271,1.414-.12,1.2a7.158,7.158,0,0,1,.181,5.176c-.12.241-.211.361-.361.632-3.431-.813-8.427-.15-11.978-.06a38.6,38.6,0,0,0-7.223.03,9.8,9.8,0,0,0-.18-5.507,5.732,5.732,0,0,0,.512-2.919,9.475,9.475,0,0,0-.481-4.093,3.235,3.235,0,0,0,.391-.873A10.034,10.034,0,0,0,2056.5,331.561Z" transform="translate(-8202.273 -2720.711)" fill="#77cc86"/>
      <path id="Trazado_902739" data-name="Trazado 902739" d="M2056.9,356.088a49.753,49.753,0,0,1,7.644.12,6.374,6.374,0,0,1,.752,2.648c-.421.6-.481.813-1.264.963-2.046.421-4.333-.481-6.35.241l-.3.09A9.754,9.754,0,0,0,2056.9,356.088Z" transform="translate(-8202.554 -2737.804)" fill="#a7d7a2"/>
      <path id="Trazado_902740" data-name="Trazado 902740" d="M2056.5,331.561c2.588-.03,5.177-.03,7.795.09a9.662,9.662,0,0,1,.271,6.44,3.394,3.394,0,0,1-.361.632c4-.03,8.005-.181,11.978-.09-3.13,1.144-8.517.361-11.948.451a53.88,53.88,0,0,0-7.644-.12,3.236,3.236,0,0,0,.391-.873C2057.433,336.166,2057.463,333.337,2056.5,331.561Z" transform="translate(-8202.273 -2720.711)" fill="#51c581"/>
      <path id="Trazado_902741" data-name="Trazado 902741" d="M2082.26,331.69c3.973-.09,7.945-.09,11.917-.09a3.425,3.425,0,0,1,.3,2.5,5.72,5.72,0,0,1-.451,1.264,5.935,5.935,0,0,1,.421,3.311h-.271c-3.972-.06-8.005.06-11.978.09a6.723,6.723,0,0,0,.361-.632A9.864,9.864,0,0,0,2082.26,331.69Z" transform="translate(-8220.239 -2720.75)" fill="#4abd8e"/>
      <path id="Trazado_902742" data-name="Trazado 902742" d="M2064.3,369c3.341-.09,8.637-.9,11.707-.03l.271,1.415-.12,1.2a7.155,7.155,0,0,1,.18,5.176c-.12.241-.21.361-.361.632-3.431-.813-8.427-.15-11.978-.06a38.593,38.593,0,0,0-7.223.03,9.8,9.8,0,0,0-.181-5.507,5.735,5.735,0,0,0,.511-2.919l.3-.09C2059.7,368.88,2062.077,368.789,2064.3,369Z" transform="translate(-8202.344 -2746.593)" fill="#f6b792"/>
      <path id="Trazado_902743" data-name="Trazado 902743" d="M2057.512,369.5c2.258.06,4.635-.06,6.862.15a3.531,3.531,0,0,1-.03,2.919c-2.558.06-5.116-.03-7.645-.06a5.732,5.732,0,0,0,.512-2.919Z" transform="translate(-8202.414 -2747.243)" fill="#51c581"/>
      <path id="Trazado_902744" data-name="Trazado 902744" d="M2082.13,369c3.341-.09,8.638-.9,11.707-.03l.271,1.415-.12,1.2c-1.6.933-9.48.331-11.888.331A3.315,3.315,0,0,0,2082.13,369Z" transform="translate(-8220.169 -2746.593)" fill="#4abd8e"/>
      <path id="Trazado_902745" data-name="Trazado 902745" d="M2057.3,397.368a38.612,38.612,0,0,1,7.223-.03c.933,2.167,1.475,45.865.451,48.544a7.1,7.1,0,0,1,.18,4.665l-.843.572-4.123.03a5.111,5.111,0,0,1-2.889-1.234C2058.143,447.868,2058.173,400.167,2057.3,397.368Z" transform="translate(-8202.833 -2766.594)" fill="#51c581"/>
      <path id="Trazado_902746" data-name="Trazado 902746" d="M2064.974,558.9a7.1,7.1,0,0,1,.18,4.665l-.843.572-4.123.03a5.11,5.11,0,0,1-2.889-1.234C2059.768,562.271,2063.289,560.916,2064.974,558.9Z" transform="translate(-8202.833 -2879.642)" fill="#4abd8e"/>
      <path id="Trazado_902747" data-name="Trazado 902747" d="M2060.818,576.355l4.123-.03a53.734,53.734,0,0,0,12.821.211c5.026-.03,10.774-.6,15.68.12,1.986-.15,4.273-.512,6.2-.03l-.271.361c-2.137,2.859-3.461,4.243-4.153,7.915a4.5,4.5,0,0,1-.271.9c.03.06.09.09.15.151,1.023,1.144,1.6,2.949,2.769,3.912.813.662,3.13,1.2,3.461,2.137-3.521.512-37.318.6-40.509.09-.18-1.264-1.414-3.01-1.9-4.243-1.986-5.146.632-6.651,1.776-11.135C2060.788,576.625,2060.788,576.475,2060.818,576.355Z" transform="translate(-8203.462 -2891.8)" fill="#2e54b0"/>
      <path id="Trazado_902748" data-name="Trazado 902748" d="M2108.4,576.869c1.986-.15,4.273-.512,6.2-.03l-.271.361c-2.137,2.859-3.461,4.243-4.153,7.915a4.5,4.5,0,0,1-.271.9c-3.612,1.023-24.979.211-30.306.181.06-.09.09-.181.15-.271.843-1.655.6-4.815,0-6.531,6.681-.09,13.453,0,20.1-.421C2102.112,578.855,2106.9,578.584,2108.4,576.869Z" transform="translate(-8218.423 -2892.013)" fill="#78b3e8"/>
      <path id="Trazado_902749" data-name="Trazado 902749" d="M2080.811,396.911c3.552-.09,8.547-.752,11.978.06a3.13,3.13,0,0,1,.662,1.6c.361,3.25.6,23.595.03,26.123a4.075,4.075,0,0,1-.542,1.294c1.144,2.016,1.053,19.773.3,22.15a1.064,1.064,0,0,1-.12.271,5.758,5.758,0,0,1,.3,2.468,52.238,52.238,0,0,1-12.821-.211l.843-.572a7.1,7.1,0,0,0-.18-4.665C2082.285,442.776,2081.744,399.078,2080.811,396.911Z" transform="translate(-8219.121 -2766.167)" fill="#4abd8e"/>
      <path id="Trazado_902750" data-name="Trazado 902750" d="M2081.262,513.742a9.1,9.1,0,0,0,3.04-2.317c3.912-3.882,8.607-11.376,8.637-17.124,1.144,2.016,1.053,19.773.3,22.15a1.064,1.064,0,0,1-.12.271,5.758,5.758,0,0,1,.3,2.468,52.232,52.232,0,0,1-12.821-.211l.843-.572A7.1,7.1,0,0,0,2081.262,513.742Z" transform="translate(-8219.121 -2834.484)" fill="#187e61"/>
      <path id="Trazado_902751" data-name="Trazado 902751" d="M1980.163,521.3c3.852.09,7.674.12,11.527.12a13.984,13.984,0,0,1,4.755.181l.933.542c.813,3.581.482,26.695.181,31.48a55.473,55.473,0,0,1-8.066.06c-2.2.722-10.533.451-12.911-.391.121-2.077.482-4.725-.481-6.651,1.083-2.046.843-22.15.12-25.069C1977.544,521.511,1978.839,521.42,1980.163,521.3Z" transform="translate(-8146.071 -2853.358)" fill="#e25b3e"/>
      <path id="Trazado_902752" data-name="Trazado 902752" d="M1980.163,521.3c3.852.09,7.674.12,11.527.12-1.776.933-9.179.331-11.647.3,1.144,2.2,1.174,22.18.482,24.859a21.675,21.675,0,0,1-4.424.06c1.083-2.046.843-22.15.12-25.069C1977.544,521.511,1978.839,521.42,1980.163,521.3Z" transform="translate(-8146.071 -2853.358)" fill="#e56962"/>
      <path id="Trazado_902753" data-name="Trazado 902753" d="M2005.043,522.2l.933.542c.813,3.581.481,26.695.18,31.48a55.461,55.461,0,0,1-8.065.06c-3.07-.481-6.561-.181-9.691-.12,1.053-1.685.782-4.635.813-6.561,2.829-.03,7.463.451,9.781-1.384,4.695-3.732,2.046-17.756,2.919-23.354C2002.876,522.2,2003.929,522.32,2005.043,522.2Z" transform="translate(-8154.669 -2853.988)" fill="#cb3336"/>
      <path id="Trazado_902754" data-name="Trazado 902754" d="M2031.952,1454.7c7.795.933,19.111,4.274,25.1,9.48l.09.482c-3.7,3.792-34.1,18.418-40.268,20.8a53.832,53.832,0,0,1-10.774-.3c2.468-1.956,6.952-8.758,9.179-11.466C2020.606,1467.19,2026.2,1460.9,2031.952,1454.7Z" transform="translate(-8167.042 -3505.847)" fill="#f8b23f"/>
      <path id="Trazado_902755" data-name="Trazado 902755" d="M2110.589,1401.2c7.4.12,29.433,1.144,34.79,4.424-.482,2.739-18.358,15.74-21.1,17.606-1.987,1.354-4.846,3.611-7.193,4.033l-.09-.482c-5.989-5.206-17.3-8.547-25.1-9.48l.3-.662c2.949-1.414,7.824-6.771,10.533-9.119C2105.263,1405.293,2107.911,1403.246,2110.589,1401.2Z" transform="translate(-8227.021 -3468.448)" fill="#fccb64"/>
      <path id="Trazado_902756" data-name="Trazado 902756" d="M2121.371,374.366c5.417-.03,10.895-.211,16.312,0a3.5,3.5,0,0,1,.542,1.715c.331,4.936.481,37.2-.361,40.147a1.341,1.341,0,0,1-.18.482c-.722,4.243-10.474,12.67-14.175,15.258a5.28,5.28,0,0,1-2.077.873c.03-.09.09-.181.121-.271.752-2.378.842-20.134-.3-22.15a4.911,4.911,0,0,0,.542-1.294c.572-2.528.331-22.873-.03-26.123a3.13,3.13,0,0,0-.662-1.6,6.788,6.788,0,0,0,.361-.632,7.154,7.154,0,0,0-.18-5.176Z" transform="translate(-8247.432 -2750.574)" fill="#fccb64"/>
      <path id="Trazado_902757" data-name="Trazado 902757" d="M1931.488,627.342c4-.211,7.975.151,11.948,0l.391.03c2.347.843,10.684,1.114,12.911.391a55.473,55.473,0,0,0,8.066-.06l.271.06a10.113,10.113,0,0,0,5.6,0c3.16.512,36.987.421,40.509-.09l3.551.09.331.06c5.237.843,27.357-1.114,29.283,1.715a8.369,8.369,0,0,1,.813,5.718,3.108,3.108,0,0,1-1.655,2.077c-3.13,1.535-90.377-.181-102.505.451a51.121,51.121,0,0,1-6.44.12c-1.114.03-2.739.241-3.7-.421-1.986-1.324-1.354-4.845-1.625-6.952l-.03-.3A13.074,13.074,0,0,0,1931.488,627.342Z" transform="translate(-8113.286 -2927.439)" fill="#fccb64"/>
      <path id="Trazado_902758" data-name="Trazado 902758" d="M1929.2,637.1c1.535.241,9.059,5.959,10.5,7.253a41.866,41.866,0,0,0-5.146.391c-1.113.03-2.739.241-3.7-.421-1.986-1.324-1.354-4.845-1.625-6.952Z" transform="translate(-8113.286 -2934.308)" fill="#f8b23f"/>
      <path id="Trazado_902759" data-name="Trazado 902759" d="M144.343,1285.054c21.789-1.234,44.662,1.414,63.923,12.459l1.6.933c1.415,5.417,2.769,10.864,4.243,16.251l-1.053,1.956c.482,2.2,1.023,4.394,1.565,6.561l-2.859-2.167-.662,1.5c-2.408-1.715-4.815-3.491-7.283-5.086l-35.994,5.658-1.023-.873c-4.785-5.357-10.022-10.774-13.573-17.034l-.662-.933a104.375,104.375,0,0,1-8.878-17.907l-.181-.692Z" transform="translate(-6865 -3387.063)" fill="#77cc86"/>
      <path id="Trazado_902760" data-name="Trazado 902760" d="M176.2,1300.1c19.713,8.607,39.395,18.779,56.7,31.69l-.662,1.5c-2.408-1.715-4.815-3.491-7.283-5.086l-35.994,5.658-1.023-.873c4.153-1.2,8.7-1.655,12.971-2.347l22.542-3.581q-12.279-7.674-24.949-14.656c-8.035,1.264-16.131,2.137-24.137,3.521L173.7,1315c6.17-1.9,16.342-2.678,22.933-3.34-6.32-3.25-12.971-5.9-19.261-9.209-.662-.662-2.739-1.565-2.979-2.227Z" transform="translate(-6886.111 -3397.775)" fill="#187e61"/>
      <path id="Trazado_902761" data-name="Trazado 902761" d="M143.681,1287.054l-.181-.692.843-.662c3.642.9,7.283,2.829,10.714,4.334l-1.776.09c.241.662,2.317,1.565,2.979,2.227,6.29,3.34,12.911,5.989,19.261,9.209-6.591.662-16.763,1.475-22.933,3.341A103.964,103.964,0,0,1,143.681,1287.054Z" transform="translate(-6865 -3387.709)" fill="#77cc86"/>
      <path id="Trazado_902762" data-name="Trazado 902762" d="M143.681,1287.054l-.181-.692.843-.662c3.642.9,7.283,2.829,10.714,4.334l-1.776.09c.241.662,2.317,1.565,2.979,2.227C152.017,1290.906,147.924,1288.619,143.681,1287.054Z" transform="translate(-6865 -3387.709)" fill="#37a27e"/>
      <path id="Trazado_902763" data-name="Trazado 902763" d="M146.3,1285.054c21.789-1.234,44.662,1.414,63.923,12.459l1.6.933c1.414,5.417,2.769,10.864,4.243,16.251l-1.053,1.956c.482,2.2,1.023,4.394,1.565,6.561l-2.859-2.167c-17.275-12.881-36.987-23.053-56.7-31.691C153.583,1287.883,149.942,1285.957,146.3,1285.054Z" transform="translate(-6866.958 -3387.063)" fill="#77cc86"/>
      <path id="Trazado_902764" data-name="Trazado 902764" d="M358.7,1327l1.6.933c1.414,5.417,2.769,10.864,4.243,16.252l-1.053,1.956C361.92,1340.573,359.151,1332.628,358.7,1327Z" transform="translate(-7015.435 -3416.58)" fill="#187e61"/>
      <path id="Trazado_902765" data-name="Trazado 902765" d="M251.9,1164.5c5.869,2.468,12.941,3.611,19.141,5.207l32.623,8.7c4.815,6.14,9.45,14.566,14.536,20.013-.963,6.531-5.387,28.561-2.137,33.135,1.384,1.956,3.642,2.588,5.507,3.973l-.06,1.9c-5.748-.511-12.279-4-17.576-6.26l-.572.512c0,.09-.03.15-.03.241-.9,5.357-.331,9.9-3.943,14.536-2.287-2.016-4.665-3.882-7.042-5.778l-2.438-10.022c-1.475-5.387-2.829-10.834-4.243-16.251,1.384.752,3.341,2.137,4.906,2.257-5.778-7.825-12.158-15.258-18.117-22.963C265.172,1184.273,258.28,1174.492,251.9,1164.5Z" transform="translate(-6940.776 -3302.984)" fill="#0b705f"/>
      <path id="Trazado_902766" data-name="Trazado 902766" d="M364,1330.1c1.384.753,3.341,2.137,4.906,2.257,2.347,2.648,11.135,13.513,13.362,14.566l-.572.512c0,.09-.03.15-.03.241-.9,5.357-.331,9.9-3.943,14.536-2.287-2.016-4.665-3.882-7.042-5.779l-2.438-10.022C366.769,1340.964,365.414,1335.547,364,1330.1Z" transform="translate(-7019.14 -3418.746)" fill="#77cc86"/>
      <path id="Trazado_902767" data-name="Trazado 902767" d="M2022.947,1288.834c3.37-.181,7.163-1.6,10.473-2.347a76.455,76.455,0,0,1,18.689-1.746c1.775.03,4.153-.12,5.809.572a3.665,3.665,0,0,1,2.137.331,2.918,2.918,0,0,1-.752,1.144c.692,2.348-2.438,7.885-3.581,10.022-2.829,5.267-15.108,24.076-20.254,26.093l-.271.782-1.2.542c-5.357-3.28-27.387-4.3-34.79-4.424-2.678,2.047-5.3,4.093-7.825,6.32-2.708,2.377-7.584,7.7-10.534,9.119l-.3.662c-5.748,6.2-11.346,12.49-16.7,18.99-2.227,2.709-6.711,9.48-9.179,11.466a3.491,3.491,0,0,1-2.588.06c-.813.451-1.234.241-2.137.09a1.491,1.491,0,0,1-.21.09,6.973,6.973,0,0,1-4.875-.422c-.692.331-1.2.09-1.926-.03-1.5.963-5.507.482-7.373.271.782-2.829-1.685-11.527-2.769-14.3a3.221,3.221,0,0,0-.181-1.836,3.48,3.48,0,0,0,.843-.783c1.083-1.445,3.371-6.29,3.22-8.035,10.8-2.046,12.941-5.3,19.682-12.971l.391.421a5.255,5.255,0,0,0,1.294-2.5l1.083.722a3.447,3.447,0,0,1-.392,1.445c4.545-.241,9.029-.421,13.6-.331,1.9-.993,5.477-6.591,7.133-8.607a112.024,112.024,0,0,1,15.74-15.86l.9-.482c3.01-4.334,11.376-6.2,13.693-9.179a6.367,6.367,0,0,0,2.979-1.234C2015.212,1292.325,2021.141,1290.459,2022.947,1288.834Z" transform="translate(-8115.663 -3387.021)" fill="#4abd8e"/>
      <path id="Trazado_902768" data-name="Trazado 902768" d="M2008.207,1454.52c1.926,0,7.825-.572,9.209.421-.482,2.077-7.915,8.757-9.721,10.8-3.431,3.883-6.591,8.005-9.691,12.129-1.716,2.287-3.461,5.267-5.568,7.133-.813.452-1.234.241-2.137.09C1991.443,1483.953,2007.906,1455.964,2008.207,1454.52Z" transform="translate(-8155.998 -3505.607)" fill="#f8b23f"/>
      <path id="Trazado_902769" data-name="Trazado 902769" d="M2054.224,1372.667c1.9-.993,5.477-6.591,7.133-8.607a112.011,112.011,0,0,1,15.74-15.86c.361,2.016-6.079,20.495-7.434,22.511a46.86,46.86,0,0,1-8.878,8.547,3.5,3.5,0,0,1-1.776,1.5c-1.385-.993-7.283-.421-9.209-.421a5.961,5.961,0,0,0,.6-.632C2051.485,1378.355,2054.375,1374.353,2054.224,1372.667Z" transform="translate(-8197.591 -3431.399)" fill="#fccb64"/>
      <path id="Trazado_902770" data-name="Trazado 902770" d="M2155.556,1288.834c3.371-.181,7.163-1.6,10.473-2.347a76.451,76.451,0,0,1,18.689-1.746c1.776.03,4.153-.12,5.808.572-.3.361-.391.6-.843.782-15.349,6.23-30.4,13.182-44.451,22.03-4.153,2.618-8.216,5.357-12.158,8.276-2.739,2.016-7.825,6.832-10.774,7.975,1.475-1.926,6.651-18.147,6.561-20.134a2.85,2.85,0,0,0-.211-.873c3.01-4.334,11.376-6.2,13.694-9.179a6.367,6.367,0,0,0,2.979-1.234C2147.821,1292.325,2153.75,1290.459,2155.556,1288.834Z" transform="translate(-8248.271 -3387.021)" fill="#fccb64"/>
      <path id="Trazado_902771" data-name="Trazado 902771" d="M2217.945,1291.5c.692,2.347-2.438,7.885-3.582,10.022-2.829,5.267-15.108,24.076-20.254,26.093-1.957-1.535-19.381-3.551-22.752-3.792-3.822-.271-8.186.09-11.857-.813,5-3.13,9.811-6.561,14.837-9.661,3.431-2.107,7.584-3.973,10.744-6.441,3.491.211,17.185,2.257,19.772,1.354-5.718-1.565-12.279-1.956-18.208-2.257,4.454-1.415,8.938-4.364,13.212-6.35C2205.727,1296.917,2212.408,1294.72,2217.945,1291.5Z" transform="translate(-8274.275 -3391.763)" fill="#fccb64"/>
      <path id="Trazado_902772" data-name="Trazado 902772" d="M1957.931,1423.4l1.083.722a3.45,3.45,0,0,1-.391,1.445c4.544-.241,9.028-.421,13.6-.331.15,1.685-2.739,5.688-3.822,7.012a5.978,5.978,0,0,1-.6.632c-.3,1.444-16.763,29.433-17.967,30.547a1.471,1.471,0,0,1-.211.09,6.974,6.974,0,0,1-4.875-.421c-.692.331-1.2.09-1.926-.03-1.5.963-5.508.482-7.374.271.782-2.829-1.685-11.527-2.769-14.3a3.224,3.224,0,0,0-.18-1.836,3.479,3.479,0,0,0,.843-.782c1.083-1.445,3.371-6.29,3.22-8.035,10.8-2.047,12.941-5.3,19.682-12.971l.391.421A4.929,4.929,0,0,0,1957.931,1423.4Z" transform="translate(-8115.593 -3483.967)" fill="#fefefe"/>
      <path id="Trazado_902773" data-name="Trazado 902773" d="M1981.908,1423.4l1.083.722a3.45,3.45,0,0,1-.391,1.445c.03,2.769-3.581,9.209-4.755,11.948-1.415,3.371-8.156,24.347-9.119,25.581-.692.331-1.2.09-1.926-.03,1.625-1.806,2.829-8.186,3.7-10.864,1.5-4.575,3.19-9.089,4.966-13.573,1.324-3.311,4.845-9.57,5.116-12.76A4.959,4.959,0,0,0,1981.908,1423.4Z" transform="translate(-8139.569 -3483.967)" fill="#1a1f74"/>
      <path id="Trazado_902774" data-name="Trazado 902774" d="M1936.733,1443.171c10.8-2.047,12.941-5.3,19.682-12.971l.391.421c-.3,3.19-3.792,9.48-5.116,12.76-1.775,4.454-3.461,9-4.966,13.573-.873,2.678-2.106,9.029-3.7,10.864-1.5.963-5.507.481-7.373.271.782-2.829-1.685-11.527-2.769-14.3a3.224,3.224,0,0,0-.18-1.836,3.473,3.473,0,0,0,.843-.782C1934.566,1449.732,1936.853,1444.887,1936.733,1443.171Z" transform="translate(-8115.732 -3488.721)" fill="#fefefe"/>
      <path id="Trazado_902775" data-name="Trazado 902775" d="M270.517,1384.2l2.438,10.022c2.378,1.9,4.755,3.792,7.042,5.778,3.611-4.635,3.04-9.149,3.943-14.536,0-.09.03-.15.03-.241l.572-.512c5.3,2.257,11.828,5.748,17.576,6.26.06,2.016.03,4.123.271,6.109a132.908,132.908,0,0,0,15.89,4.213c3.25.572,7.584.331,10.624,1.384-.632,2.016,4.3,28.079,4.6,33.647l-26.394.03-10.2-.06c-15.589-10.172-33.677-15.469-49.447-25.521-8.457-4.454-16.432-11.557-23.264-18.177l35.994-5.658c2.5,1.6,4.875,3.4,7.283,5.086l.662-1.5,2.859,2.167c-.542-2.2-1.083-4.364-1.565-6.561Z" transform="translate(-6921.413 -3456.565)" fill="#51c581"/>
      <path id="Trazado_902776" data-name="Trazado 902776" d="M371.179,1384.2l2.438,10.022c2.378,1.9,4.755,3.792,7.042,5.778,5.808,5.6,11.737,10.955,16.673,17.4,3.16,4.123,5.778,9.33,9.239,13.092.271,1.234.542,2.468.752,3.7-3.01-3.4-5.327-7.885-7.975-11.617a116.135,116.135,0,0,0-19.773-21.428,137.7,137.7,0,0,0-11.376-9.059l.662-1.5,2.859,2.167c-.542-2.2-1.083-4.364-1.565-6.561Z" transform="translate(-7022.075 -3456.565)" fill="#37a27e"/>
      <path id="Trazado_902777" data-name="Trazado 902777" d="M413.673,1386.512l.572-.512c5.3,2.257,11.828,5.748,17.576,6.26.06,2.016.03,4.123.271,6.109.211,3.1.482,6.2.542,9.3,1.174,7.975,1.836,16.041,2.979,24.046-3.461-3.762-6.079-8.969-9.239-13.092-4.936-6.44-10.864-11.767-16.673-17.4,3.611-4.635,3.04-9.149,3.943-14.536A.447.447,0,0,1,413.673,1386.512Z" transform="translate(-7051.086 -3457.823)" fill="#51c581"/>
      <path id="Trazado_902778" data-name="Trazado 902778" d="M422.9,1386.512l.572-.512c5.3,2.257,11.827,5.748,17.576,6.26.06,2.016.03,4.123.271,6.109.211,3.1.482,6.2.542,9.3C435.179,1401.017,429.912,1392.832,422.9,1386.512Z" transform="translate(-7060.313 -3457.823)" fill="#fefefe"/>
      <path id="Trazado_902779" data-name="Trazado 902779" d="M260.224,1393.5c2.5,1.595,4.875,3.4,7.283,5.086a137.675,137.675,0,0,1,11.376,9.059c-7.4,4.3-16.733,5.9-24.979,7.945-1.9.481-4.755.813-6.44,1.745-8.457-4.454-16.432-11.557-23.264-18.178Z" transform="translate(-6921.413 -3463.066)" fill="#77cc86"/>
      <path id="Trazado_902780" data-name="Trazado 902780" d="M484.1,1427.1a132.838,132.838,0,0,0,15.89,4.213c3.25.572,7.584.331,10.624,1.384-.632,2.016,4.3,28.079,4.6,33.647l-26.394.03-.482-2.2c-.211-1.234-.482-2.468-.752-3.7-1.144-8.005-1.776-16.071-2.979-24.046C484.582,1433.33,484.281,1430.2,484.1,1427.1Z" transform="translate(-7103.095 -3486.554)" fill="#1a1f74"/>
      <path id="Trazado_902781" data-name="Trazado 902781" d="M173.657,958.733a2.266,2.266,0,0,1,.15-1.475c1.144-.361,2.287.3,3.371.722a107.481,107.481,0,0,1,24.648,6.681l1.114.151.15.241a107.164,107.164,0,0,1,17.576,7.915A95.008,95.008,0,0,0,229,977.663l1.083.843a169.151,169.151,0,0,1,25.491,20.284c.722,2.257.963,4.936,1.866,7.1a17.8,17.8,0,0,1,1.174,2.408,8.273,8.273,0,0,0,2.979.211c.993,3.22,2.046,6.44,2.949,9.721l3.16,10.353c-2.317,7.163-3.16,14.837-4.033,22.3-.06.843-.09,1.715-.211,2.558-5.086-5.477-9.751-13.9-14.536-20.013l-32.623-8.7c-6.2-1.6-13.272-2.739-19.141-5.207l-.391-.6c-5.808-9.721-11.767-19.743-15.529-30.457l-.271-.662C176.878,978.807,175.042,968.424,173.657,958.733Z" transform="translate(-6886.039 -3158.041)" fill="#0b1247"/>
      <path id="Trazado_902782" data-name="Trazado 902782" d="M185.5,959.9a107.482,107.482,0,0,1,24.648,6.681c-.512,1.053,4.815,16.342,5.568,18.659-5.447-4.484-10.594-9.36-16.041-13.844C195.01,967.574,189.8,964.113,185.5,959.9Z" transform="translate(-6894.36 -3159.959)" fill="#187e61"/>
      <path id="Trazado_902783" data-name="Trazado 902783" d="M449.6,1127.1a8.279,8.279,0,0,0,2.979.211c.993,3.22,2.046,6.44,2.949,9.721l3.16,10.353c-2.317,7.163-3.16,14.837-4.033,22.3-2.558-3.913-5.237-7.795-7.855-11.647.542-5.839,1.144-11.677,1.6-17.546C448.726,1136.1,448.786,1131.434,449.6,1127.1Z" transform="translate(-7077.021 -3276.84)" fill="#0b705f"/>
      <path id="Trazado_902784" data-name="Trazado 902784" d="M271.6,983.4a107.154,107.154,0,0,1,17.576,7.915,95,95,0,0,0,8.336,4.695c-.421,4.153,3.13,27.116,4.123,32.383-7.554-8.908-15.86-17.094-24.076-25.4C276.445,996.341,273.2,990.021,271.6,983.4Z" transform="translate(-6954.548 -3176.387)" fill="#0b705f"/>
      <path id="Trazado_902785" data-name="Trazado 902785" d="M173.8,962.4c14.506,9.751,32.443,25.7,44.632,38.4-6.049-1.685-34.008-10.263-37.318-9.3C177.02,982.474,175.184,972.091,173.8,962.4Z" transform="translate(-6886.182 -3161.707)" fill="#187e61"/>
      <path id="Trazado_902786" data-name="Trazado 902786" d="M361.3,1028.1a169.16,169.16,0,0,1,25.491,20.284c.722,2.257.963,4.936,1.866,7.1-.933,4.424-.843,9.42-1.144,13.934-.421,6.049-1.023,12.068-1.655,18.117-5.718-9.269-13.212-18-20.134-26.394Z" transform="translate(-7017.252 -3207.635)" fill="#0b705f"/>
      <path id="Trazado_902787" data-name="Trazado 902787" d="M199,1061.2c12.791,3.19,25.4,6.982,38.221,10.022a219.3,219.3,0,0,1,20.1,22.812c2.739,3.491,5.327,7.163,8.186,10.5-7.012-1.986-47.491-13.483-50.982-12.911C208.721,1081.936,202.762,1071.944,199,1061.2Z" transform="translate(-6903.797 -3230.773)" fill="#0b705f"/>
      <path id="Trazado_902788" data-name="Trazado 902788" d="M2104.114,1037.211l1.926-.211.271.512-.421,1.144c.9,3.01-2.678,23.324-4.244,26.364a5.185,5.185,0,0,1-.361.512l-.271.662c.361,3.19-7.073,23.775-9.36,26.544-.09.12-.21.241-.3.361l-.391.662c-.361,2.979-10.323,19.923-12.73,21.759a1.647,1.647,0,0,0-.271.21c-1.806,1.655-7.735,3.521-10.233,4.093a6.37,6.37,0,0,1-2.979,1.234c-2.287,2.979-10.684,4.845-13.693,9.179l-.9.482a110.427,110.427,0,0,0-15.74,15.86c-1.655,2.016-5.237,7.614-7.133,8.607-4.544-.06-9.059.12-13.6.331a3.448,3.448,0,0,0,.391-1.444l-1.083-.722a5.529,5.529,0,0,1-1.294,2.5l-.391-.421c.271-1.535,5.207-10.142,6.32-14.3,3.672-13.814,3.551-27.3.391-41.2-.632-2.708-1.234-6.32-2.648-8.728,2.588-1.986,8.066-9.3,10.714-12.1a201.228,201.228,0,0,1,18.87-16.914A140.838,140.838,0,0,1,2077,1044.253l.873-.391c3.641-1.294,8.517-2.137,11.828-4.033C2094.454,1039.588,2099.3,1037.632,2104.114,1037.211Z" transform="translate(-8170.677 -3213.856)" fill="#1a1f74"/>
      <path id="Trazado_902789" data-name="Trazado 902789" d="M2237.148,1040.258c4.695-.181,9.51-2.137,14.325-2.558-.3,1.174-1.565,2.077-2.5,2.829-4.755,4.574-9.661,9-14.446,13.573-2.859,2.739-9.329,10.323-12.429,11.888.963-2.047,4-19.622,3.341-21.308a1.824,1.824,0,0,1-.151-.361C2228.962,1043,2233.837,1042.184,2237.148,1040.258Z" transform="translate(-8318.036 -3214.346)" fill="#10b79c"/>
      <path id="Trazado_902790" data-name="Trazado 902790" d="M2240.6,1046.984c1.595-.692,4.665-2.98,5.447-4.484.9,3.01-2.678,23.324-4.243,26.364a5.434,5.434,0,0,1-.361.512c-5-.9-24.137,4.665-29.644,6.109,3.1-1.776,6.982-6.832,9.6-9.51,3.942-4,7.975-7.885,12.1-11.737C2235.3,1052.522,2240,1049.061,2240.6,1046.984Z" transform="translate(-8310.836 -3217.701)" fill="#10b79c"/>
      <path id="Trazado_902791" data-name="Trazado 902791" d="M2032.6,1324.467c1.655-1.354,33.045-8.126,37.77-8.367-2.287,2.979-10.684,4.845-13.693,9.179l-.9.482a110.408,110.408,0,0,0-15.74,15.86c-1.656,2.016-5.237,7.614-7.133,8.608-4.544-.06-9.059.12-13.6.331a3.444,3.444,0,0,0,.391-1.444c.151-.12.481-.361.632-.511.752-.813,11.647-21.428,12.189-23.053A3.307,3.307,0,0,0,2032.6,1324.467Z" transform="translate(-8176.269 -3408.96)" fill="#10b79c"/>
      <path id="Trazado_902792" data-name="Trazado 902792" d="M2123.3,1078.837a140.838,140.838,0,0,1,32.052-17.937c-.391,3.4-2.438,20.706-3.582,22.542-.692,2.347-5.537,7.223-7.614,8.577-1.2,2.107-13.032,16.011-15.108,17.636-.662-6.23-1.775-12.46-2.768-18.659a100.786,100.786,0,0,0-1.746-10.443C2124.263,1079.5,2124.233,1079.379,2123.3,1078.837Z" transform="translate(-8248.97 -3230.563)" fill="#10b79c"/>
      <path id="Trazado_902793" data-name="Trazado 902793" d="M2141.159,1143.169c6.11-4.6,24.8-8.156,33.015-9.27.361,3.19-7.073,23.775-9.36,26.544-.09.12-.211.241-.3.361-2.287-1.264-28.079,4.183-31.63,5.207-5.989,1.745-11.135,5.086-16.884,6.832,2.468-1.445,8.427-8.487,9.39-11.105a5.833,5.833,0,0,0,.12-.632C2127.345,1160.023,2140.678,1144.523,2141.159,1143.169Z" transform="translate(-8243.867 -3281.594)" fill="#10b79c"/>
      <path id="Trazado_902794" data-name="Trazado 902794" d="M2074.117,1246.777c1.956-1.053,3.582-4.484,4.936-6.29,1.5-1.986,4.033-3.22,6.2-4.3,13.513-6.832,28.892-8.487,43.668-10.684-.361,2.979-10.323,19.923-12.73,21.759a1.657,1.657,0,0,0-.271.211c-1.806,1.655-7.734,3.521-10.232,4.093-3.04-1.685-34.61,7.1-40.087,8.186a6.889,6.889,0,0,0,.572-.421C2068.038,1257.762,2073.936,1248.734,2074.117,1246.777Z" transform="translate(-8208.636 -3345.626)" fill="#10b79c"/>
      <path id="Trazado_902795" data-name="Trazado 902795" d="M2045.146,1120.5c.993,3.431,5.207,30.427,4.7,32.052-.3,1.114-14.385,20.164-15.77,21.488-.6,1.866-5.6,10.2-7.283,11.105.09-2.408-5.959-33.225-6.771-34.429l.361.091-.662.542c.542,5.839,7.1,32.774,6.32,35.121a2.35,2.35,0,0,1-.181,1.113c-.451,1.114-12.429,23.745-12.67,24.016a5.53,5.53,0,0,1-1.294,2.5l-.391-.421c.271-1.535,5.207-10.142,6.32-14.3,3.672-13.814,3.551-27.3.391-41.2-.632-2.709-1.234-6.32-2.648-8.728,2.588-1.986,8.066-9.3,10.714-12.1A214.116,214.116,0,0,1,2045.146,1120.5Z" transform="translate(-8170.817 -3272.226)" fill="#10b79c"/>
      <path id="Trazado_902796" data-name="Trazado 902796" d="M387.421,291.374c-1.685.271-3.371.512-5.086.662-15.68,1.234-32.172-1.565-44.421-12.128-6.531-5.628-11.286-13.212-11.858-21.94a31.08,31.08,0,0,1,7.885-22.391c9.3-10.564,22.6-15.439,36.385-16.221,14.325-.813,29.644,3.04,40.478,12.791,6.952,6.26,11.286,14.205,11.8,23.625a33.076,33.076,0,0,1-10.232,24.437,36.127,36.127,0,0,1-12.279,8.276,45.479,45.479,0,0,0,4.033,9.691,39.6,39.6,0,0,0-1.174,4.213C395.847,300.282,391.243,297.965,387.421,291.374Z" transform="translate(-6992.572 -2642.212)" fill="#e56962"/>
      <path id="Trazado_902797" data-name="Trazado 902797" d="M533.773,330.789a9.979,9.979,0,0,1,1.9,0,4.04,4.04,0,0,1,2.859,1.715,3.62,3.62,0,0,1,.542,2.829,5.445,5.445,0,0,1-2.679,3.311c-.12,0-.271.03-.391.03a4.383,4.383,0,0,1-3.551-1.2,3.559,3.559,0,0,1-1.053-2.678C531.486,332.866,532.419,331.933,533.773,330.789Z" transform="translate(-7136.156 -2720.149)" fill="#fefefe"/>
      <path id="Trazado_902798" data-name="Trazado 902798" d="M477,330.648a13.047,13.047,0,0,1,1.535,0,4.064,4.064,0,0,1,3.01,1.445,3.133,3.133,0,0,1,.692,2.648c-.241,1.776-1.294,2.678-2.588,3.732a7.342,7.342,0,0,1-1.625-.03,4.315,4.315,0,0,1-3.01-1.685,3.519,3.519,0,0,1-.572-2.739C474.745,332.393,475.768,331.581,477,330.648Z" transform="translate(-7096.298 -2720.068)" fill="#fefefe"/>
      <path id="Trazado_902799" data-name="Trazado 902799" d="M419.288,330.515a11.644,11.644,0,0,1,2.287-.09,4.394,4.394,0,0,1,2.859,1.776,3.549,3.549,0,0,1,.542,2.859c-.331,1.6-1.324,2.378-2.588,3.25a5.539,5.539,0,0,1-.993.09,4.613,4.613,0,0,1-3.491-1.445,3.9,3.9,0,0,1-.843-2.859C417.211,332.411,418.084,331.6,419.288,330.515Z" transform="translate(-7056.219 -2719.905)" fill="#fefefe"/>
      <path id="Trazado_902800" data-name="Trazado 902800" d="M858.835,150.907c-3.581-4.665-6.26-10.5-6.471-16.462-.271-7.644,3.1-14.867,8.306-20.375,10.955-11.557,27.838-16.4,43.338-16.7,16.462-.3,33.526,4.153,45.625,15.77,5.748,6.079,9.811,13.182,9.661,21.789-.151,7.975-4.183,15.138-9.871,20.555-4.243,4.063-9.239,6.711-14.536,9.119,1.535,6.32,3.792,13.152,4.183,19.652l-2.077-.06c-2.438-1.986-5.116-3.7-7.614-5.6-4.063-3.1-8.035-6.32-12.189-9.3a93.492,93.492,0,0,1-17.877.722C883.453,168.814,869.339,163.1,858.835,150.907Z" transform="translate(-7360.518 -2557)" fill="#4abd8e"/>
      <path id="Trazado_902801" data-name="Trazado 902801" d="M956.7,203.86c.6-.03,1.2-.06,1.806-.06a4.249,4.249,0,0,1,3.25,1.535,4.034,4.034,0,0,1,1.023,3.19c-.211,1.776-1.294,2.8-2.618,3.852-.391.03-.782.09-1.2.09a5.1,5.1,0,0,1-3.792-1.5,4.134,4.134,0,0,1-1.083-3.13C954.265,205.967,955.348,204.974,956.7,203.86Z" transform="translate(-7431.63 -2631.411)" fill="#fefefe"/>
      <path id="Trazado_902802" data-name="Trazado 902802" d="M1073.992,203.713a11.285,11.285,0,0,1,2.468.06,4.613,4.613,0,0,1,2.588,1.866,4.019,4.019,0,0,1,.572,3.25c-.421,1.866-1.445,2.678-2.979,3.642a13.688,13.688,0,0,1-1.565-.12,5.128,5.128,0,0,1-3.371-2.107,3.967,3.967,0,0,1-.6-3.28C1071.494,205.368,1072.637,204.585,1073.992,203.713Z" transform="translate(-7513.347 -2631.324)" fill="#fefefe"/>
      <path id="Trazado_902803" data-name="Trazado 902803" d="M1015.807,203.885a11.4,11.4,0,0,1,2.679.06,4.864,4.864,0,0,1,2.8,2.077,3.842,3.842,0,0,1,.452,2.919c-.421,1.776-1.6,2.618-3.04,3.491h-1.445a4.519,4.519,0,0,1-3.431-1.685,4.007,4.007,0,0,1-.782-3.22C1013.28,205.751,1014.393,204.849,1015.807,203.885Z" transform="translate(-7472.799 -2631.437)" fill="#fefefe"/>
      <path id="Trazado_902804" data-name="Trazado 902804" d="M538.587,1483.99c7.223-10.443,23.655-26.484,35.483-31.39v4.063c-.06,7.795-.752,16.432,5.237,22.451a20.466,20.466,0,0,0,3.16,2.648,33.641,33.641,0,0,0,4.544,2.257c4.544.933,26.063,1.023,30.577-.03a57.875,57.875,0,0,0,7.223-.03,28.348,28.348,0,0,1,1.535-5.9,10.64,10.64,0,0,1,1.384-2.407c5.748-7.012,18.358-7.313,26.725-6.952,3.491.151,7.313.722,10.774.361l.331-.03a21.642,21.642,0,0,0,11.105,2.648c-.241,3.431.873,9.962-1.384,12.52,13.934.692,28.831.03,42.916.03h17.816a75.231,75.231,0,0,0,9.751-.181,13.405,13.405,0,0,1,3.16-5.146c5.658-5.929,16.733-13.3,25.07-13.483,3.04-.06,7.223.873,9.45,3.04.241-.211.482-.452.722-.692.9-1.083,2.2-3.371,2.046-4.815a3.882,3.882,0,0,0,.512-.452,2.9,2.9,0,0,0,.843-2.528c1.023-.06,1.384.361,2.137,1.053,4.063,3.7,8.367,5.447,13.693,6.681a3.2,3.2,0,0,1,.181,1.836c1.083,2.8,3.551,11.5,2.769,14.3,1.866.211,5.839.692,7.373-.271.752.12,1.234.361,1.926.03a6.812,6.812,0,0,0,4.875.422c.06-.03.151-.06.211-.091.9.151,1.324.361,2.137-.09a3.492,3.492,0,0,0,2.588-.06,51.691,51.691,0,0,0,10.774.3c6.922.752,38.974-.873,41.893.662a4.058,4.058,0,0,1,1.956,2.678,4.5,4.5,0,0,1-.542,3.341,3.522,3.522,0,0,1-2.317,1.866c-3.882.9-9.149.271-13.152.271H834.515l-117.974-.12-261.2.12-89.715.06-25.732-.03c-5.116.03-10.263.3-15.349.15a10.694,10.694,0,0,1-5.538-1.324,3.509,3.509,0,0,1-1.625-2.227,4.849,4.849,0,0,1,1.083-3.7,6.269,6.269,0,0,1,3.762-1.6c4.394-.572,9.3,0,13.784.03l26-.06,10.2.06,26.394-.03,76.593.03c4.966,0,30.547.722,33.526-.361h.211C518.724,1484.471,528.776,1483.749,538.587,1483.99Z" transform="translate(-6986.52 -3504.379)" fill="#747faf"/>
      <path id="Trazado_902805" data-name="Trazado 902805" d="M983.714,1483.99c7.223-10.443,23.655-26.484,35.483-31.39v4.063c-.06,7.795-.752,16.432,5.237,22.451a20.464,20.464,0,0,0,3.16,2.648,33.639,33.639,0,0,0,4.545,2.257c-4.876.692-76.5.361-78.038-.181C963.851,1484.471,973.9,1483.749,983.714,1483.99Z" transform="translate(-7431.646 -3504.379)" fill="#b6d8f6"/>
      <path id="Trazado_902806" data-name="Trazado 902806" d="M1340.535,1515.133a10.637,10.637,0,0,1,1.384-2.408c5.748-7.012,18.358-7.313,26.725-6.952,3.491.15,7.313.722,10.774.361l.331-.03a21.641,21.641,0,0,0,11.105,2.649c-.241,3.431.873,9.962-1.384,12.52-4.966,1.324-10.232.993-15.319.993-8.547-.03-17.124-.421-25.611.662-2.227.3-5.177.963-7.4.542-.993-.181-1.655-1.6-2.137-2.378A28.4,28.4,0,0,1,1340.535,1515.133Z" transform="translate(-7700.709 -3541.481)" fill="#f3a290"/>
      <path id="Trazado_902807" data-name="Trazado 902807" d="M1782.563,1476.787c1.023-.06,1.384.361,2.137,1.053,4.063,3.7,8.367,5.447,13.694,6.681a3.2,3.2,0,0,1,.18,1.836c1.083,2.8,3.551,11.5,2.769,14.3-1.625.933-12.73.542-15.018.12a27.733,27.733,0,0,1-7.734,0c-2.167.933-10.383.512-12.791.03a14.041,14.041,0,0,1-4.033.572c-3.28,2.047-13.784.933-17.756.391a12.865,12.865,0,0,1-3.31-.9,13.4,13.4,0,0,1,3.16-5.146c5.658-5.929,16.733-13.3,25.07-13.483,3.04-.06,7.223.873,9.45,3.04.241-.211.481-.451.722-.692.9-1.083,2.2-3.37,2.046-4.815a3.889,3.889,0,0,0,.512-.451A2.776,2.776,0,0,0,1782.563,1476.787Z" transform="translate(-7981.515 -3521.283)" fill="#f6b792"/>
      <path id="Trazado_902808" data-name="Trazado 902808" d="M1810.9,1551.235c12.61-6.049,14.717-1.685,27.026-1.776a3.759,3.759,0,0,1-2.468,1.174,27.757,27.757,0,0,1-7.734,0c-2.167.933-10.383.511-12.791.03A16.5,16.5,0,0,1,1810.9,1551.235Z" transform="translate(-8030.588 -3571.083)" fill="#f3a290"/>
      <path id="Trazado_902809" data-name="Trazado 902809" d="M1824.3,1554.51c4.725-.722,8.186-1.685,12.79-.03C1834.924,1555.413,1826.708,1554.992,1824.3,1554.51Z" transform="translate(-8039.956 -3574.96)" fill="#0b1247"/>
      <path id="Trazado_902810" data-name="Trazado 902810" d="M1894.9,1521.8a5.025,5.025,0,0,0,.9-.241c4.063-1.324,6.711-9.48,8.517-13.031l.331-.03c1.083,2.8,3.551,11.5,2.769,14.3-1.625.933-12.731.542-15.018.12A3.456,3.456,0,0,0,1894.9,1521.8Z" transform="translate(-8087.561 -3543.456)" fill="#0b1247"/>
      <path id="Trazado_902811" data-name="Trazado 902811" d="M1520.7,189.421a28.629,28.629,0,0,1,13.182-6.41c5.508-.963,11.617-.482,17.215-.451l28.771.06h27.959c5.507,0,11.226-.3,16.733.271a28.531,28.531,0,0,1,19.562,10.383c5.327,6.8,5.718,13.994,5.808,22.21a67.694,67.694,0,0,1-.3,9.57,26.582,26.582,0,0,1-10.293,17.546,24.926,24.926,0,0,1-14.386,5.146c-7.915,0-71.356-.12-71.958.331-2.2-1.174-11.767-.391-14.867-.512a31.166,31.166,0,0,1-17.425-8.126,28.08,28.08,0,0,1-8.758-20.284C1511.787,207.328,1511.967,198.48,1520.7,189.421Z" transform="translate(-7821.581 -2616.46)" fill="#78b3e8"/>
      <path id="Trazado_902812" data-name="Trazado 902812" d="M1649.88,279.341a7.951,7.951,0,0,1,2.8.03,5.36,5.36,0,0,1,3.461,2.889,4.219,4.219,0,0,1,.12,3.31,5.32,5.32,0,0,1-3.4,3.07,7.354,7.354,0,0,1-1.625.06,4.265,4.265,0,0,1-3.13-1.6,4.807,4.807,0,0,1-.9-3.611C1647.382,281.448,1648.406,280.485,1649.88,279.341Z" transform="translate(-7916.127 -2684.14)" fill="#fefefe"/>
      <path id="Trazado_902813" data-name="Trazado 902813" d="M1722.4,279.381a5.958,5.958,0,0,1,3.762,0,5.553,5.553,0,0,1,3.13,3.25,4.223,4.223,0,0,1-.211,3.31,5.02,5.02,0,0,1-3.25,2.468c-.421.241-.271.241-.722.271a4.022,4.022,0,0,1-3.491-.813,5.743,5.743,0,0,1-1.535-4.394C1720.177,281.608,1721.171,280.615,1722.4,279.381Z" transform="translate(-7967.103 -2684.029)" fill="#fefefe"/>
      <path id="Trazado_902814" data-name="Trazado 902814" d="M1796.436,279.392a6.218,6.218,0,0,1,4.364.181,5.724,5.724,0,0,1,2.709,3.16,4.681,4.681,0,0,1-.3,3.491,5.121,5.121,0,0,1-3.19,2.5,2.342,2.342,0,0,1-1.2.241,4.419,4.419,0,0,1-3.281-1.053,6.248,6.248,0,0,1-1.384-4.695C1794.3,281.438,1795.172,280.566,1796.436,279.392Z" transform="translate(-8018.863 -2684.041)" fill="#fefefe"/>
      <path id="Trazado_902815" data-name="Trazado 902815" d="M663.068,275.3c10.5,12.189,24.618,17.907,40.508,19.111a93.489,93.489,0,0,0,17.877-.722c4.183,2.979,8.126,6.2,12.189,9.3,2.5,1.9,5.176,3.642,7.614,5.6-6.35.06-17.335-.783-23.083.813a14.3,14.3,0,0,0-6.681,3.943,15.756,15.756,0,0,0-3.912,7.1c-1.535,6.17-.482,24.137-.512,31.54-13.964,1.806-28.2,4.153-42.284,4.755-.271-2.378-.6-4.755-.963-7.133-12.52,5.116-24.889.241-36.476-4.6-2.167-.9-5.387-2.739-7.674-2.889l-.241.572c-7.945,9.33-17.425,14.988-29.734,15.92-1.986.151-14.416-.241-14.807-.06l-.241.632c-1.114-3.642-.632-8.547-.451-12.369.241-1.746.632-3.491.963-5.237a41.669,41.669,0,0,1,1.174-4.213,44.839,44.839,0,0,1-4.033-9.691,36.563,36.563,0,0,0,12.279-8.276,33.123,33.123,0,0,0,10.232-24.437,4.4,4.4,0,0,0,.542,1.354c.3.451.662.361,1.174.421C605.315,292.334,653.979,275.872,663.068,275.3Z" transform="translate(-7164.75 -2681.393)" fill="#eff5fa"/>
      <path id="Trazado_902816" data-name="Trazado 902816" d="M615.466,406.884c2.558-5.176,6.139-9.871,11.8-11.8,14.025-4.815,23.264,11.256,40,7.072a22.2,22.2,0,0,0,10.624-5.989c-.06,5.658-.993,10.172-4.033,15.018a32.154,32.154,0,0,0,8.126-1.2,27.688,27.688,0,0,1-9.63,19.532,31.172,31.172,0,0,1-4.725,3.22c-12.52,5.116-24.889.241-36.476-4.6-2.167-.9-5.387-2.739-7.674-2.889l-.241.572c-7.945,9.33-17.425,14.988-29.734,15.921-1.986.15-14.416-.241-14.807-.06l-.241.632c-1.114-3.642-.632-8.547-.451-12.369.241-1.746.632-3.491.963-5.237a41.692,41.692,0,0,1,1.174-4.213c2.8-7.1,6.651-13.392,13.9-16.613a19.419,19.419,0,0,1,15.288-.421A35.122,35.122,0,0,1,615.466,406.884Z" transform="translate(-7168.551 -2764.494)" fill="#3c3668"/>
      <path id="Trazado_902817" data-name="Trazado 902817" d="M648.454,488.7a17.1,17.1,0,0,1,3.7.482c.843.211,1.414.271,1.866,1.053a56.453,56.453,0,0,0-20.856,10.413c-1.6,1.264-3.31,2.438-4.966,3.612a36.581,36.581,0,0,1,4.093-6.17C636.627,492.913,641.653,489.332,648.454,488.7Z" transform="translate(-7203.827 -2830.57)" fill="#41439a"/>
      <path id="Trazado_902818" data-name="Trazado 902818" d="M729.765,468.628c16.372-1.354,24.558,9.45,39.154,11.226-.9.181-1.866.271-2.769.421-14.927-1.174-24.769-10.654-41.05-10.533C726.665,469.41,728.23,469.019,729.765,468.628Z" transform="translate(-7271.564 -2816.456)" fill="#41439a"/>
      <path id="Trazado_902819" data-name="Trazado 902819" d="M632.131,461.438c4.153-.331,6.23-.03,9.781,2.227a24.068,24.068,0,0,0-4.875.662c-8.7,2.227-13.754,8.186-18.117,15.619-1.083,2.227-1.956,4.635-2.919,6.922a36.278,36.278,0,0,1,3.7-15.078A19.494,19.494,0,0,1,632.131,461.438Z" transform="translate(-7195.298 -2811.433)" fill="#41439a"/>
      <path id="Trazado_902820" data-name="Trazado 902820" d="M734.335,438.7c10.353-.12,17.756,6.5,26.243,11.346a65.475,65.475,0,0,0,9.721,4.334,46.726,46.726,0,0,1-9.811-.933c-15.86-5.6-17.937-12.67-37.288-11.527A27.8,27.8,0,0,1,734.335,438.7Z" transform="translate(-7270.237 -2795.614)" fill="#41439a"/>
      <path id="Trazado_902821" data-name="Trazado 902821" d="M233.968,541.706a60.908,60.908,0,0,1,7.765-9.149,72.246,72.246,0,0,1,15.078-11.226c16.793-9.6,31.63-8.908,50.32-8.728-.181,3.792-.662,8.728.451,12.369,2.859,13.633,10.8,24.889,16.583,37.288-3.01,8.848-5.327,18-8.1,26.966l-4.665,2.107c-12.791,5.026-31.179,10.684-41.2,19.893a36.359,36.359,0,0,0-8.637,12.309c-5.176,11.767-2.618,23.5-.09,35.513l3.672,17.335c.722,3.491,2.227,8.126,2.107,11.617a169.151,169.151,0,0,0-25.491-20.284l-1.083-.843a95.007,95.007,0,0,1-8.336-4.695,104.679,104.679,0,0,0-17.576-7.915l-.15-.241c-.03-6.892-.692-13.814-.692-20.736.03-16.793,2.949-33.1,7.765-49.116-5.026.06-10.714.6-15.65-.271a15.838,15.838,0,0,1-9.45-4.484c-4.334-4.244-6.29-10.684-6.29-16.643,0-5.989,1.776-12.279,6.139-16.552a15.316,15.316,0,0,1,6.922-3.913C209.651,540.683,226.655,541.676,233.968,541.706Z" transform="translate(-6897.715 -2847.22)" fill="#dae9f9"/>
      <path id="Trazado_902822" data-name="Trazado 902822" d="M429.5,746.9c3.461.09,6.651-.662,10.052-.9,1.746,5.3,3.311,10.714,5.237,15.951C439.793,756.864,434.646,751.9,429.5,746.9Z" transform="translate(-7064.927 -3010.434)" fill="#2e54b0"/>
      <path id="Trazado_902823" data-name="Trazado 902823" d="M324.8,856a10.262,10.262,0,0,1,4.544.933A8.856,8.856,0,0,1,334.1,862.1a8.712,8.712,0,0,1-.482,6.832c-1.445,2.859-3.642,4.033-6.591,5.026a10.625,10.625,0,0,1-5.538-1.144,9.531,9.531,0,0,1-4.6-5.9,8.353,8.353,0,0,1,.963-6.44C319.439,857.861,321.937,856.657,324.8,856Z" transform="translate(-6986.015 -3087.324)" fill="#b6d8f6"/>
      <path id="Trazado_902824" data-name="Trazado 902824" d="M233.968,608.739l19.2-.06c4.665-.03,9.931-.6,14.476.421a16.032,16.032,0,0,1,7.825,4.183c4.364,4.334,6.139,11.105,6.139,17.094,0,6.14-1.746,12.911-6.23,17.335a8.9,8.9,0,0,1-3.04,2.107c-3.4.211-6.591.993-10.052.9-18.749.451-37.5-.12-56.248.211a15.838,15.838,0,0,1-9.45-4.484c-4.334-4.243-6.29-10.684-6.29-16.643,0-5.989,1.776-12.279,6.139-16.552a15.316,15.316,0,0,1,6.922-3.912C209.651,607.715,226.655,608.708,233.968,608.739Z" transform="translate(-6897.715 -2914.253)" fill="#78b3e8"/>
      <path id="Trazado_902825" data-name="Trazado 902825" d="M333.579,666.2c.361.03.3.03.722.09a3.954,3.954,0,0,1,2.889,1.9,3.516,3.516,0,0,1,.271,2.859c-.512,1.5-1.535,2.046-2.889,2.648-.271-.06-.542-.12-.843-.181a4.119,4.119,0,0,1-2.859-1.956,3.234,3.234,0,0,1-.181-2.739C331.2,667.4,332.345,666.862,333.579,666.2Z" transform="translate(-6995.701 -2954.65)" fill="#fefefe"/>
      <path id="Trazado_902826" data-name="Trazado 902826" d="M287.288,666.3c.451,0,.9,0,1.354.03A3.653,3.653,0,0,1,291.5,667.9a3.221,3.221,0,0,1,.572,2.648c-.3,1.595-1.264,2.317-2.5,3.19-1.475-.06-2.739-.211-3.762-1.415a3.259,3.259,0,0,1-.782-2.648C285.211,668.046,286.084,667.263,287.288,666.3Z" transform="translate(-6963.916 -2954.72)" fill="#fefefe"/>
      <path id="Trazado_902827" data-name="Trazado 902827" d="M377.951,666.3h.482a4.484,4.484,0,0,1,3.762,1.414,3.348,3.348,0,0,1,.9,2.618c-.151,1.625-1.114,2.408-2.317,3.31-1.565.06-2.8.09-4-1.114a3.441,3.441,0,0,1-.993-2.678A5.185,5.185,0,0,1,377.951,666.3Z" transform="translate(-7027.372 -2954.72)" fill="#fefefe"/>
      <path id="Trazado_902828" data-name="Trazado 902828" d="M510.9,497.872l.241-.572c2.257.15,5.508,1.986,7.674,2.889,11.587,4.845,23.956,9.721,36.476,4.6.361,2.378.692,4.725.963,7.133,14.085-.632,28.32-2.949,42.284-4.755-.03,7.494-.933,24.8.542,31a16.687,16.687,0,0,0,4.484,8.156,16.966,16.966,0,0,0,8.637,4.544c8.066,1.445,20.435.6,28.831.6l55.255-.09c4.424-.03,12.49-.813,16.492-.03,3.581,4.364,7.464,8.547,10.925,13-9.691,13.543-18.569,27.206-29.433,39.876-6.982,8.126-14.356,15.921-21.639,23.775-4.936,5.357-10.563,10.714-14.3,17a25.683,25.683,0,0,0-3.431,17.245c1.053,6.741,4.695,11.918,9.871,16.161-2.317,1.5-3.973,2.889-4.635,5.748a13.281,13.281,0,0,0,.782,6.922c1.053,3.13,2.528,6.109,3.762,9.179,3.732,9.39-.692,14.416-6.711,21.157-1.6,1.866-4.033,4.364-3.852,7.012a4.1,4.1,0,0,0,1.746,2.859c4.906,3.912,12.64,3.551,13.723,11.346,1.384,9.811-9.57,8.517.331,25.22l-24.407.03c-2.468-.03-6.832-.662-9.029.361-1.535,2.528-1.354,8.066-.692,10.864a2.859,2.859,0,0,0,.993,1.866c2.317.421,4.695-.241,7.042-.181v4c-11.828,4.936-28.26,20.976-35.483,31.39-9.811-.241-19.863.482-29.614-.181h-.211c-2.949,1.114-28.561.361-33.526.361l-76.593-.03c-.3-5.6-5.237-31.66-4.6-33.647-3.04-1.053-7.373-.813-10.624-1.384a131.4,131.4,0,0,1-15.89-4.213c-.241-2.016-.181-4.093-.271-6.109l.06-1.9c-1.836-1.384-4.093-2.016-5.507-3.973-3.25-4.575,1.174-26.6,2.137-33.135.12-.843.15-1.715.211-2.558.873-7.464,1.715-15.138,4.033-22.331l-3.22-10.323c-.9-3.25-1.956-6.5-2.949-9.721a8.275,8.275,0,0,1-2.979-.211,14.826,14.826,0,0,0-1.174-2.408c-.9-2.167-1.144-4.815-1.866-7.1.12-3.491-1.354-8.126-2.107-11.617l-3.672-17.3c-2.558-12.008-5.116-23.745.09-35.513a36.357,36.357,0,0,1,8.637-12.309c10.022-9.209,28.41-14.867,41.261-19.863l4.665-2.107c2.739-8.969,5.086-18.117,8.1-26.966-5.778-12.4-13.724-23.685-16.583-37.288l.241-.632c.391-.181,12.851.211,14.807.06C493.472,512.859,502.952,507.2,510.9,497.872Z" transform="translate(-7056.218 -2836.581)" fill="#f3a290"/>
      <path id="Trazado_902829" data-name="Trazado 902829" d="M678.3,1258.843c7.464-2.708,15.258-4.785,22.842-7.163l53.209-15.981c0,1.836-.572,5.507.09,7.072-.572,1.084-.15,2.558-.03,3.762-9.751,2.558-19.412,5.357-29.072,8.246-3.762,1.144-8.1,2.047-11.707,3.582-2.2-.692-4.755-.3-7.042-.211C700.48,1258.392,683.266,1260.258,678.3,1258.843Z" transform="translate(-7238.849 -3352.756)" fill="#0b705f"/>
      <path id="Trazado_902830" data-name="Trazado 902830" d="M468.682,1194.5c3.01,8.667,7.975,25.671,12.76,32.774a23.371,23.371,0,0,0,8.968,7.975c8.035,3.943,15.078,1.384,22.963-1.144,4.334-1.384,8.667-2.8,13.092-4.033,4.966,1.415,22.18-.451,28.32-.662,2.287-.09,4.845-.482,7.042.211l-46.136,13.663c-7.253,2.167-14.476,4.665-21.759,6.681.151,4.364.271,8.7.211,13.062-9.149-1.324-17.907-2.618-26.364-6.471-1.836-1.384-4.093-2.016-5.507-3.973-3.25-4.574,1.174-26.6,2.137-33.135.12-.843.151-1.715.211-2.558C465.522,1209.337,466.365,1201.663,468.682,1194.5Z" transform="translate(-7087.015 -3323.956)" fill="#187e61"/>
      <path id="Trazado_902831" data-name="Trazado 902831" d="M817.37,1034.513c3.28-.331,11.707-2.287,14.265.09a6.808,6.808,0,0,1,1.294,2.438c.15,5.778-3.913,16.282-5.538,22.24-7.915,2.257-16.041,4.063-23.835,6.591.993-3.581,4.334-12.158,2.618-15.469a2.6,2.6,0,0,0-.662-.752,2.332,2.332,0,0,0-2.167.542c-3.521,2.408-11.948,16.492-15.168,20.856-9.209,1.144-18.448,2.408-27.688,3.431l-6.29.782c2.5-6.952,8.487-27.116,11.858-31.931a11.48,11.48,0,0,1,4.815-4.063c4.183-1.776,22.9-2.137,29.223-3.25l.241-.03c3.371-.331,6.772-.6,10.142-.9C812.8,1034.994,815.113,1034.693,817.37,1034.513Z" transform="translate(-7291.907 -3211.369)" fill="#747faf"/>
      <path id="Trazado_902832" data-name="Trazado 902832" d="M817.44,1034.513c3.281-.331,11.707-2.287,14.265.09a6.807,6.807,0,0,1,1.294,2.438c-4.063-.361-8.367.331-12.429.722l-18.81,1.806c-8.186.783-17.576.993-25.581,2.5a7.154,7.154,0,0,0-3.4,1.535c-3.912,3.13-10.112,24.859-12.189,30.848l-6.29.782c2.5-6.952,8.487-27.116,11.858-31.931a11.476,11.476,0,0,1,4.815-4.063c4.183-1.776,22.9-2.137,29.223-3.25l.241-.03c3.371-.331,6.771-.6,10.142-.9C812.866,1034.994,815.183,1034.693,817.44,1034.513Z" transform="translate(-7291.977 -3211.369)" fill="#eff5fa"/>
      <path id="Trazado_902833" data-name="Trazado 902833" d="M954.533,913c5.116,2.528,10.443,4.665,15.74,6.832,3.19,1.324,6.922,2.5,9.811,4.424-1.715,6.591-2.979,13.332-4.484,19.953l-10.172,43.969c-1.926,8.1-3.31,17.847-6.892,25.34a19.018,19.018,0,0,1-7.644,8.427,20.908,20.908,0,0,1-15.951,1.9c-1.384-.361-2.709-.843-4.063-1.294l-.15-1.6c-.15-1.174-.542-2.648.03-3.762-.662-1.6-.09-5.237-.09-7.072,2.769-.662,5.447-1.475,8.156-2.317a51.6,51.6,0,0,0,8.547-5c1.023-.782,3.13-2.317,3.28-3.642-1.535-.632-7.765,2.649-10.955,2.618,3.431-1.083,13.272-4.274,15.108-7.1a3.244,3.244,0,0,0,.421-2.678c-1.986-.512-12.4,4.243-15.62,4.845l-.03-.181.331.151c.542-1.746,16.312-4.695,19.321-10.383.361-.662.271-.662.03-1.384-2.739-1.174-19.592,5.9-23.535,6.832,5.387-3.642,13.242-3.642,18.6-7.073a3.886,3.886,0,0,0,2.016-2.588,2.712,2.712,0,0,0-.391-2.046c-3.19-.331-16.131,4.424-20.676,5.237,4.123-2.2,11.707-3.732,16.372-5.327,1.324-.451,3.882-1.324,4.454-2.739.211-.512.03-.632-.151-1.083-1.745-1.414-3.1-1.324-5.237-1.2,1.625-5.989,5.658-16.462,5.538-22.24a7.311,7.311,0,0,0-1.294-2.438c-2.558-2.377-10.985-.421-14.265-.09l-.06-.692c2.378-4.394,3.912-9.54,5.688-14.235C949.025,927.957,952.065,920.524,954.533,913Z" transform="translate(-7415.105 -3127.174)" fill="#e56962"/>
      <path id="Trazado_902834" data-name="Trazado 902834" d="M938.623,1228a28.347,28.347,0,0,1-1.836,7.313c-2.077.693-4.153,1.354-6.23,2.107-.662-1.6-.09-5.237-.09-7.073C933.236,1229.685,935.914,1228.873,938.623,1228Z" transform="translate(-7414.966 -3347.374)" fill="#0b705f"/>
      <path id="Trazado_902835" data-name="Trazado 902835" d="M679.014,1271.7l.151,1.6c.722,11.256,2.558,22.451,3.28,33.707a16.748,16.748,0,0,1-3.22,1.565c-5.538,1.806-10.714,4.033-16.4,5.447-28.169,6.952-63.471,7.4-92.212,2.919.03-4.364-.06-8.7-.211-13.061,7.283-1.986,14.506-4.514,21.759-6.681l46.076-13.633c3.612-1.535,7.915-2.438,11.707-3.581C659.6,1277.057,669.264,1274.288,679.014,1271.7Z" transform="translate(-7163.423 -3377.922)" fill="#37a27e"/>
      <path id="Trazado_902836" data-name="Trazado 902836" d="M509.694,1402.567c28.741,4.484,64.043,4.033,92.212-2.919,5.688-1.414,10.864-3.641,16.4-5.447.3,2.2.572,4.364,1.053,6.531l3.672,28.019c.6,4.695,1.475,9.54,1.776,14.265-2.949,1.114-28.561.361-33.526.361l-76.593-.03c-.3-5.6-5.237-31.66-4.6-33.647-3.04-1.053-7.373-.812-10.624-1.384a131.4,131.4,0,0,1-15.89-4.213c-.241-2.016-.181-4.093-.271-6.109l.06-1.9C491.787,1399.948,500.545,1401.242,509.694,1402.567Z" transform="translate(-7102.536 -3463.555)" fill="#41439a"/>
      <path id="Trazado_902837" data-name="Trazado 902837" d="M830.01,1488.1l.181.211-.12.692c-3.28,3.732-21.729,16.432-26.364,17.245a5.434,5.434,0,0,1-.722-1.114,2.08,2.08,0,0,1-.06-1.535C804.128,1500.288,825.556,1489.876,830.01,1488.1Z" transform="translate(-7325.885 -3529.196)" fill="#0b1247"/>
      <path id="Trazado_902838" data-name="Trazado 902838" d="M509.624,1402.567c28.741,4.484,64.043,4.033,92.213-2.919,5.688-1.414,10.864-3.641,16.4-5.447.3,2.2.572,4.364,1.053,6.531a125.738,125.738,0,0,1-15.951,6.019c-21.729,6.2-45.926,6.019-68.347,4.966-8.186-.391-16.974-.512-25.009-2.047-3.04-1.053-7.373-.812-10.624-1.384a131.417,131.417,0,0,1-15.89-4.213c-.241-2.016-.181-4.093-.271-6.109l.06-1.9C491.717,1399.948,500.475,1401.242,509.624,1402.567Z" transform="translate(-7102.466 -3463.555)" fill="#0b1247"/>
      <path id="Trazado_902839" data-name="Trazado 902839" d="M425.757,871.136c.12-3.491-1.354-8.126-2.107-11.617l-3.672-17.335c-2.558-12.008-5.116-23.745.09-35.513a36.359,36.359,0,0,1,8.637-12.309c10.022-9.209,28.41-14.867,41.261-19.863a44.308,44.308,0,0,0,26.394,21.97c7.735,2.378,17,3.25,24.407-.632a11.59,11.59,0,0,0,6.019-6.862,12.037,12.037,0,0,0-.211-7.494c24.2,8.1,29.855,9.57,41.622,33.225a183.712,183.712,0,0,1,13.423,38.1l.06.692c-2.257.181-4.575.481-6.832.542-3.4.3-6.771.572-10.142.9l-.241.03c-6.32,1.083-25.04,1.475-29.223,3.25a11.7,11.7,0,0,0-4.815,4.063c-3.371,4.815-9.39,24.979-11.858,31.931-5.748.9-29.764,3.581-33.647,5.146-.331.271-.241.271-.6.421A140.248,140.248,0,0,1,467.861,904a4.679,4.679,0,0,1-2.378-.391l-.03-.331c5.056-1.715,10.744-2.618,15.981-3.852-1.445-7.343-3.22-14.626-5-21.909-12.46,6.561-27.567,12.249-41.712,13.031-.9-3.25-1.956-6.5-2.949-9.721a8.275,8.275,0,0,1-2.979-.211,14.828,14.828,0,0,0-1.174-2.408C426.72,876.072,426.48,873.394,425.757,871.136Z" transform="translate(-7056.218 -3030.356)" fill="#37a27e"/>
      <path id="Trazado_902840" data-name="Trazado 902840" d="M891.482,925.968l-.331-.3.15-.09a2.463,2.463,0,0,1-.512-1.414,124.067,124.067,0,0,0-1.2-14.115c-1.264-11.436-2.979-22.632-5.086-33.948,6.049,16.252,11.767,32.473,17.124,48.965C898.254,925.336,894.853,925.607,891.482,925.968Z" transform="translate(-7382.993 -3101.38)" fill="#0b705f"/>
      <path id="Trazado_902841" data-name="Trazado 902841" d="M578.251,942.721c-2.107-15.921-5.387-31.63-8.938-47.31-1.2-5.357-2.8-10.654-3.912-16.011,9.119,20.976,15.589,42.856,21.277,64.976a65.976,65.976,0,0,1-3.581,6.35c.933,3.972,3.641,19.562,5.507,21.97-.331.271-.241.271-.6.421a140.287,140.287,0,0,1-16.462,4.213,4.677,4.677,0,0,1-2.378-.391l-.03-.331c5.056-1.715,10.744-2.618,15.981-3.852-1.445-7.343-3.22-14.626-5-21.909C579.575,948.138,578.883,945.429,578.251,942.721Z" transform="translate(-7159.927 -3103.687)" fill="#0b705f"/>
      <path id="Trazado_902842" data-name="Trazado 902842" d="M466,1101.236c4.033-.873,8.306-1.144,12.369-1.9a130.946,130.946,0,0,0,30.366-9.54c.632,2.709,1.324,5.417,1.866,8.156-12.4,6.531-27.507,12.219-41.652,13C468.046,1107.677,466.993,1104.456,466,1101.236Z" transform="translate(-7090.442 -3250.766)" fill="#e56962"/>
      <path id="Trazado_902843" data-name="Trazado 902843" d="M624.882,497.872l.241-.572c2.257.15,5.508,1.986,7.674,2.889,11.587,4.845,23.956,9.721,36.476,4.6.361,2.378.692,4.725.963,7.133,14.085-.632,28.32-2.949,42.284-4.755-.03,7.494-.933,24.8.542,31a16.687,16.687,0,0,0,4.484,8.156,16.966,16.966,0,0,0,8.637,4.544c8.066,1.445,20.435.6,28.831.6l55.255-.09c4.424-.03,12.49-.813,16.492-.03,3.581,4.364,7.464,8.547,10.925,13C828,577.9,819.118,591.559,808.254,604.229,801.271,612.355,793.9,620.15,786.615,628c-4.936,5.357-10.563,10.714-14.3,17a25.683,25.683,0,0,0-3.431,17.245c1.053,6.741,4.695,11.918,9.871,16.161-2.317,1.5-3.973,2.889-4.635,5.748a13.281,13.281,0,0,0,.782,6.922c1.053,3.13,2.528,6.109,3.762,9.179,3.732,9.39-.692,14.416-6.711,21.157-1.6,1.866-4.033,4.364-3.852,7.012a4.1,4.1,0,0,0,1.746,2.859c4.906,3.912,12.64,3.551,13.723,11.346,1.384,9.811-9.57,8.517.331,25.22l-24.407.03c-2.468-.03-6.832-.662-9.029.361-1.535,2.528-1.354,8.066-.692,10.864a2.859,2.859,0,0,0,.993,1.866c2.317.421,4.695-.241,7.042-.181v4c-11.828,4.936-28.26,20.976-35.483,31.39-9.811-.241-19.863.482-29.614-.181h-.211c-.271-4.725-1.144-9.57-1.776-14.265l-3.672-28.019c-.482-2.167-.752-4.334-1.053-6.531a21.209,21.209,0,0,0,3.22-1.565c-.692-11.256-2.528-22.451-3.28-33.707,1.354.421,2.709.933,4.063,1.294a20.908,20.908,0,0,0,15.951-1.9A18.525,18.525,0,0,0,713.6,722.9c3.581-7.494,5-17.245,6.892-25.34l10.172-43.969c1.5-6.651,2.769-13.362,4.484-19.953-2.889-1.9-6.591-3.1-9.811-4.424-5.3-2.167-10.624-4.3-15.74-6.832-2.438,7.554-5.508,14.988-8.337,22.391-1.776,4.695-3.31,9.841-5.688,14.235a179.7,179.7,0,0,0-13.423-38.1c-11.767-23.655-17.425-25.1-41.622-33.225a12.036,12.036,0,0,1,.211,7.494,11.589,11.589,0,0,1-6.019,6.862c-7.4,3.882-16.673,3.04-24.407.632a44.308,44.308,0,0,1-26.394-21.97l4.665-2.107c2.739-8.968,5.086-18.117,8.1-26.966-5.778-12.4-13.724-23.685-16.583-37.288l.241-.632c.391-.181,12.851.211,14.807.06C607.457,512.859,616.937,507.2,624.882,497.872Z" transform="translate(-7170.204 -2836.581)" fill="#dae9f9"/>
      <path id="Trazado_902844" data-name="Trazado 902844" d="M971.04,1324.6a11.5,11.5,0,0,1,3.792.6,8.041,8.041,0,0,1,4.574,4.3,8.3,8.3,0,0,1-.03,6.621c-1.234,2.769-3.19,4.033-5.929,5.116a10.812,10.812,0,0,1-4.875-.782,8.416,8.416,0,0,1-4.394-5.116,8.2,8.2,0,0,1,.662-6.35C966.224,1326.466,968.361,1325.352,971.04,1324.6Z" transform="translate(-7438.443 -3414.901)" fill="#b6d8f6"/>
      <path id="Trazado_902845" data-name="Trazado 902845" d="M900.472,740.837a13.9,13.9,0,0,1,6.38.572,11.541,11.541,0,0,1,6.5,6.2,10.978,10.978,0,0,1,0,8.667c-1.475,3.4-4.063,5.327-7.4,6.681a12.855,12.855,0,0,1-7.072-.512,11.034,11.034,0,0,1-6.049-5.989,11.456,11.456,0,0,1-.15-8.7C894.152,744.057,896.92,742.342,900.472,740.837Z" transform="translate(-7388.161 -3006.746)" fill="#b6d8f6"/>
      <path id="Trazado_902846" data-name="Trazado 902846" d="M1019.329,808.565l20.164-11.767c3.7-2.137,7.494-4.725,11.436-6.32a7.537,7.537,0,0,1,4.214-.662c1.444.933,2.137,3.7,2.979,3.882,1.776.391,3.13-1.2,5.116.06a1.627,1.627,0,0,1,.843,1.174,11.673,11.673,0,0,1-.03,1.776c1.655,2.046,4.514,1.053,4.183,4.815-.12,1.354-1.9,2.408-2.016,3.341-.271,2.137,2.919,3.16,1.445,6.2a11.894,11.894,0,0,1-2.829,3.431c-3.852,3.461-8.427,6.38-12.58,9.48-6.019,4.514-11.888,9.209-18,13.6a5.262,5.262,0,0,1-.873.542c-2.889-1.9-6.591-3.1-9.811-4.424-5.3-2.167-10.624-4.3-15.74-6.832-.271-5.477-2.137-31.9-.451-35.693l.662-.6a4.131,4.131,0,0,1,3.01,1.956C1014.514,796.918,1016.921,803.449,1019.329,808.565Z" transform="translate(-7468.405 -3041.007)" fill="#f3a290"/>
      <path id="Trazado_902847" data-name="Trazado 902847" d="M1110.05,1200.892l-.06-.181c-2.227-8.607-7.7-8.367-11.527-14.747a10.655,10.655,0,0,1-.993-8.246,15.231,15.231,0,0,1,6.621-9.179,9.2,9.2,0,0,1,7.163-.993c7.644,2.077,18.238,15.349,22.09,22.18-1.6,1.866-4.033,4.364-3.852,7.012a4.1,4.1,0,0,0,1.745,2.859c4.906,3.912,12.64,3.551,13.724,11.346,1.384,9.811-9.57,8.517.331,25.22l-24.408.03c-.151-.271-.3-.542-.421-.813-3.431-6.591-11.857-7.072-15.62-13.091C1100.9,1216.09,1108.515,1207.754,1110.05,1200.892Z" transform="translate(-7531.588 -3304.887)" fill="#64daeb"/>
      <path id="Trazado_902848" data-name="Trazado 902848" d="M624.882,497.872l.241-.572c2.257.15,5.507,1.986,7.674,2.889,11.587,4.845,23.956,9.721,36.476,4.6.361,2.378.692,4.725.963,7.133a42.386,42.386,0,0,1,.6,7.554l-.12.512c.9,2.378-.361,5.748.722,7.795,2.558.963,4.575,1.776,5.839,4.364a6.024,6.024,0,0,1,.3,4.936,7.353,7.353,0,0,1-4.183,4.033,12.7,12.7,0,0,1-3.491.752c-1.5,7.915-3.22,16.372-10.293,21.247-6.2,4.274-13.994,4.6-21.247,4.514a112.691,112.691,0,0,0,.451,11.918c.3,1.9.542,6.711,1.715,8.126a12.036,12.036,0,0,1,.211,7.494,11.589,11.589,0,0,1-6.019,6.862c-7.4,3.882-16.673,3.04-24.407.632a44.308,44.308,0,0,1-26.394-21.97l4.665-2.107c2.739-8.968,5.086-18.117,8.1-26.966-5.778-12.4-13.724-23.685-16.583-37.288l.241-.632c.391-.181,12.851.211,14.807.06C607.457,512.859,616.937,507.2,624.882,497.872Z" transform="translate(-7170.204 -2836.581)" fill="#f3a290"/>
      <path id="Trazado_902849" data-name="Trazado 902849" d="M654.5,645.3l.391.09c1.023.211,4.725,0,5.056.391a5.632,5.632,0,0,1-3.581,1.5,10.269,10.269,0,0,1-2.468-.632Z" transform="translate(-7221.793 -2940.04)" fill="#e56962"/>
      <path id="Trazado_902850" data-name="Trazado 902850" d="M828.987,600.9a2.7,2.7,0,0,1,.9.512c1.083,1.083,4.875,6.35,5.267,7.855a6.486,6.486,0,0,1,0,1.324,5.087,5.087,0,0,1-2.317-1.655C830.733,606.708,828.867,604.06,828.987,600.9Z" transform="translate(-7344.183 -2909.003)" fill="#e56962"/>
      <path id="Trazado_902851" data-name="Trazado 902851" d="M858.341,561.828c-1.535.482-3.4-.873-5.056-.993a11.854,11.854,0,0,1-3.25-.542,2.093,2.093,0,0,1-1.535-1.535l.451-.752a5.552,5.552,0,0,1,4.243-.722c2.528.482,3.882,2.016,5.237,4.063Z" transform="translate(-7357.827 -2878.418)" fill="#00000c"/>
      <path id="Trazado_902852" data-name="Trazado 902852" d="M767.286,556.551a14.339,14.339,0,0,1,1.986-.151,5.392,5.392,0,0,1,4.033,1.535c0,.6.15.662-.3,1.144-1.354,1.445-4.093,1.053-5.929,1.053-1.565.421-3.25,1.144-4.755.391l-.12-.692C763.554,557.875,765.179,557.333,767.286,556.551Z" transform="translate(-7297.5 -2877.895)" fill="#0b1247"/>
      <path id="Trazado_902853" data-name="Trazado 902853" d="M655.96,595.5a2.594,2.594,0,0,1,.482.03,3.822,3.822,0,0,1,2.979,1.5,5.15,5.15,0,0,1,.813,4.334,3.2,3.2,0,0,1-1.445,2.287l-.813-.391c-.873-1.324-.662-3.07-.662-4.6a3.1,3.1,0,0,0-2.317.421c-.752,1.2-.632,2.558-.662,3.912l-.451.331-.752-.391a2.371,2.371,0,0,1-.542-2.047A8.455,8.455,0,0,1,655.96,595.5Z" transform="translate(-7220.843 -2905.228)" fill="#cb3336"/>
      <path id="Trazado_902854" data-name="Trazado 902854" d="M854.895,586.6a4.422,4.422,0,0,1,1.9.993,5.135,5.135,0,0,1,1.444,3.4,6.748,6.748,0,0,1-1.926,5.237,3.519,3.519,0,0,1-1.956-.782,4.926,4.926,0,0,1-1.384-3.341A7.518,7.518,0,0,1,854.895,586.6Z" transform="translate(-7360.941 -2899.006)" fill="#00000c"/>
      <path id="Trazado_902855" data-name="Trazado 902855" d="M781.187,587.8a4.9,4.9,0,0,1,2.287.391,4.093,4.093,0,0,1,1.776,2.8,8.74,8.74,0,0,1-1.535,6.26,3.956,3.956,0,0,1-2.137-.181,3.527,3.527,0,0,1-1.6-2.257A9.4,9.4,0,0,1,781.187,587.8Z" transform="translate(-7309.745 -2899.845)" fill="#00000c"/>
      <path id="Trazado_902856" data-name="Trazado 902856" d="M785.567,651.615a12.631,12.631,0,0,1-.9-1.806,4.5,4.5,0,0,1-.361-3.461c.873-.451,1.114-.271,2.047-.06a18.406,18.406,0,0,0-.542,2.558,12.792,12.792,0,0,0,7.885,6.049,10.8,10.8,0,0,0,6.681-.331,1.49,1.49,0,0,1,0,.632,2.678,2.678,0,0,1-1.2,1.655c-1.475.993-3.943.752-5.6.361A12.444,12.444,0,0,1,785.567,651.615Z" transform="translate(-7312.801 -2940.577)" fill="#e56962"/>
      <path id="Trazado_902857" data-name="Trazado 902857" d="M790.411,646.9c1.083-.06,15.62,2.287,16.492,2.648a3.073,3.073,0,0,1,.181,2.618c-.6,1.384-1.926,1.9-2.618,3.04a10.8,10.8,0,0,1-6.681.331,12.791,12.791,0,0,1-7.885-6.049A14.609,14.609,0,0,1,790.411,646.9Z" transform="translate(-7316.863 -2941.156)" fill="#fefefe"/>
      <path id="Trazado_902858" data-name="Trazado 902858" d="M705.4,711.4a58.517,58.517,0,0,0,20.555,5.929,112.692,112.692,0,0,0,.451,11.918C717.2,725.124,710.546,720.4,705.4,711.4Z" transform="translate(-7257.793 -2986.247)" fill="#cb3336"/>
      <path id="Trazado_902859" data-name="Trazado 902859" d="M624.882,499.2c.03,12.128-5.688,18.629-12.159,28.049-1.264-2.378-2.648-4.424-5.417-5.176a7.4,7.4,0,0,0-5.688.873,10.009,10.009,0,0,0-4.454,6.41,13.161,13.161,0,0,0,1.685,10.022,12.774,12.774,0,0,0,4.063,3.762l-.6,1.354a66.575,66.575,0,0,1-5.628,8.457c-5.778-12.4-13.724-23.685-16.583-37.288l.241-.632c.391-.181,12.851.211,14.807.06C607.457,514.188,616.937,508.53,624.882,499.2Z" transform="translate(-7170.204 -2837.91)" fill="#0b1247"/>
      <path id="Trazado_902860" data-name="Trazado 902860" d="M1066.074,138.332c32.353-8.668,70-6.531,99.345,10.443,3.581,2.077,7.1,4.213,10.624,6.38-8.728,9.029-8.908,17.907-8.7,29.734a28.079,28.079,0,0,0,8.758,20.284c4.906,4.665,10.8,7.1,17.425,8.126,3.1.12,12.67-.662,14.867.512.6-.451,64.043-.331,71.958-.331-1.776,1.083-11.346.391-13.9.331,1.986,1.806,3.25,4.875,4.484,7.223a181.214,181.214,0,0,1,11.677,29.193c2.107,6.832,3.822,13.874,6.441,20.525,1.144,2.949,5.688,9.48,6.139,11.316a11.143,11.143,0,0,1-2.287,2.889l.03.3c.271,2.107-.361,5.628,1.625,6.952.963.662,2.588.451,3.7.421a57.369,57.369,0,0,0,6.44-.12c9.45,6.892,21.609,10.864,32.232,15.65,7.674,3.431,15.469,7.193,22.391,12.038,20.5,14.416,32.353,37.318,36.175,61.756.873,5.658,2.618,21.007.572,26.153-3.31,1.926-8.186,2.769-11.827,4.033l-.873.391a140.2,140.2,0,0,0-32.052,17.937,205.081,205.081,0,0,0-18.87,16.914c-2.648,2.8-8.126,10.112-10.714,12.1,1.414,2.408,2.016,6.019,2.648,8.728a83.755,83.755,0,0,1-.391,41.2c-1.114,4.153-6.049,12.73-6.32,14.3-6.741,7.674-8.878,10.925-19.682,12.971.12,1.715-2.167,6.561-3.22,8.035a3.477,3.477,0,0,1-.843.782c-5.357-1.234-9.661-2.979-13.694-6.681-.752-.692-1.113-1.113-2.137-1.053a2.983,2.983,0,0,1-.843,2.528c-.211.211-.3.271-.512.451.15,1.445-1.144,3.732-2.047,4.815a3.937,3.937,0,0,1-.722.692c-2.257-2.167-6.41-3.1-9.45-3.04-8.337.181-19.442,7.554-25.07,13.483a13.78,13.78,0,0,0-3.16,5.146,75.233,75.233,0,0,1-9.751.181h-17.816c-14.085,0-28.952.662-42.916-.03,2.257-2.528,1.144-9.059,1.384-12.52a21.484,21.484,0,0,1-11.105-2.648l-.331.03c-3.461.361-7.283-.211-10.774-.361-8.4-.361-20.976-.09-26.725,6.952a9.62,9.62,0,0,0-1.384,2.408,28.339,28.339,0,0,0-1.535,5.9,64.224,64.224,0,0,1-7.223.03c-4.514,1.053-26.032.963-30.577.03a42.573,42.573,0,0,1-4.544-2.257,20.474,20.474,0,0,1-3.16-2.648c-5.989-6.019-5.3-14.657-5.237-22.451v-8.066c-2.348-.03-4.725.6-7.042.181a2.932,2.932,0,0,1-.993-1.866c-.662-2.8-.843-8.306.692-10.865,2.2-1.023,6.561-.391,9.029-.361l24.407-.03c-9.9-16.7,1.053-15.409-.331-25.22-1.083-7.795-8.818-7.434-13.724-11.346a3.979,3.979,0,0,1-1.745-2.859c-.181-2.648,2.257-5.146,3.852-7.012,5.989-6.711,10.443-11.767,6.711-21.157-1.234-3.07-2.708-6.049-3.762-9.179a13.284,13.284,0,0,1-.782-6.922c.662-2.859,2.318-4.243,4.635-5.748-5.267-4.213-8.878-9.39-9.932-16.131a25.683,25.683,0,0,1,3.431-17.245c3.732-6.32,9.36-11.677,14.3-17,7.283-7.855,14.656-15.65,21.639-23.775,10.864-12.67,19.743-26.333,29.433-39.876-3.461-4.454-7.343-8.637-10.925-13-4.033-.782-12.068,0-16.492.03l-55.255.09c-8.4,0-20.766.873-28.832-.6a17.086,17.086,0,0,1-8.637-4.544,16.686,16.686,0,0,1-4.484-8.156c-1.475-6.2-.572-23.5-.542-31,.03-7.4-1.023-25.37.512-31.54a15.757,15.757,0,0,1,3.912-7.1,14.708,14.708,0,0,1,6.681-3.943c5.748-1.565,16.733-.752,23.083-.813l2.077.06c-.391-6.5-2.648-13.332-4.183-19.652,5.3-2.438,10.262-5.056,14.536-9.119,5.688-5.417,9.721-12.58,9.871-20.555C1075.916,151.484,1071.853,144.381,1066.074,138.332Z" transform="translate(-7476.959 -2582.165)" fill="url(#linear-gradient)"/>
      <path id="Trazado_902861" data-name="Trazado 902861" d="M1591.271,398.563c3.1.12,12.67-.662,14.867.512-5.9,6.741-12.279,13.092-18.238,19.743C1589.044,412.076,1590.007,405.3,1591.271,398.563Z" transform="translate(-7874.701 -2767.458)" fill="#41439a"/>
      <path id="Trazado_902862" data-name="Trazado 902862" d="M1324.327,189.214a13.011,13.011,0,0,1,6.681.873,10.992,10.992,0,0,1,5.808,6.41,10.877,10.877,0,0,1-.452,8.517c-1.6,3.13-4.3,4.785-7.524,5.839a13.928,13.928,0,0,1-5.989-.6,10.417,10.417,0,0,1-5.929-5.538,11.126,11.126,0,0,1-.09-8.728C1318.278,192.434,1320.926,190.629,1324.327,189.214Z" transform="translate(-7684.621 -2621.159)" fill="#b6d8f6"/>
      <path id="Trazado_902863" data-name="Trazado 902863" d="M1549.967,557.4c-3.07-5.417-5.989-10.774-6.531-17.094-.933-10.714,2.317-22.391,9.269-30.637a26.35,26.35,0,0,1,19.171-9.871,7.038,7.038,0,0,1-1.114,2.408L1570.1,502a17.039,17.039,0,0,0-5.056,11.918c-.06,1.234.181,4.394,1.023,5.237a1.648,1.648,0,0,0,.843.512l-.12.15a19.281,19.281,0,0,0-11.858,9.33c-3.882,6.591-4.936,14.085-5,21.609A61.334,61.334,0,0,1,1549.967,557.4Z" transform="translate(-7843.509 -2838.329)" fill="#1a1f74"/>
      <path id="Trazado_902864" data-name="Trazado 902864" d="M1406.763,386.6c3.521-.15,7.1-.06,10.624-.03,5.959,1.264,11.166,4.153,14.536,9.36a16.99,16.99,0,0,1,2.378,7.735c.873,8.547.211,17.726.211,26.364,0,8.066.873,26.454-.632,33.255a13.542,13.542,0,0,1-6.169,8.306,17.644,17.644,0,0,1-8.758,2.558c-.09,7.554-.241,15.138,0,22.662-2.919-3.22-5.658-6.561-8.427-9.9-3.461-4.454-7.343-8.637-10.925-13,4.514.211,9.36.662,13.6-1.234a15.641,15.641,0,0,0,8.126-8.517,17.679,17.679,0,0,0,1.083-4.966c.572-8.487.12-17.3.181-25.822.06-9.45.632-19.231.03-28.621a20.985,20.985,0,0,0-1.445-7.193C1418.44,391.6,1412.571,388.74,1406.763,386.6Z" transform="translate(-7743.071 -2759.14)" fill="#f8b23f"/>
      <path id="Trazado_902865" data-name="Trazado 902865" d="M1511.526,718.5c.151,1.114.331,3.822,1.114,4.6l-.271.9c2.016,7.644,4.183,14.386,11.376,18.659,3.972,2.347,8.4,3.341,12.911,3.973.3,2.588.451,5.387.993,7.945.12,1.956.843,6.561-.632,8.036a1.655,1.655,0,0,1-.271.211c-5.748,2.769-11.2,6.049-16.884,8.848l-1.083.873c-6.38,3.461-12.881,7.735-17.786,13.152-6.38-4.3-11.828-9.179-13.513-17.064-1.535-7.223.752-13.874,4.635-19.893,2.829-5.417,7.524-9.992,11.226-14.837C1507.042,729.184,1509.329,724.038,1511.526,718.5Z" transform="translate(-7804.167 -2991.21)" fill="#3c3668"/>
      <path id="Trazado_902866" data-name="Trazado 902866" d="M1502.677,811.2c.572,6.651.9,16.522,6.441,21.157,2.618,2.2,5.146,1.535,8.246,1.836,1.5.241,2.979.361,4.484.451a4.385,4.385,0,0,1-1.745,1.083c-.03.331-.091.451.06.752l-1.083.873c-6.38,3.461-12.881,7.735-17.786,13.152-6.38-4.3-11.828-9.179-13.513-17.064-1.535-7.223.752-13.874,4.635-19.893.813,2.2-1.5,6.5-1.776,9.059-.6,5.778,1.2,14.777,7.1,17.485a8.51,8.51,0,0,0,4.574.632c.482-.9.03-2.077-.241-3.01C1499.156,828.114,1499.367,820.68,1502.677,811.2Z" transform="translate(-7804.376 -3056.011)" fill="#1a1f74"/>
      <path id="Trazado_902867" data-name="Trazado 902867" d="M1579.368,781.7a31.881,31.881,0,0,1-5.9-6.8,23.894,23.894,0,0,1-2.979-7.765c-1.2-5.839-1.957-24.949-.662-30.336,2.017,7.644,4.183,14.386,11.376,18.659,3.973,2.347,8.4,3.341,12.911,3.973.3,2.588.452,5.387.993,7.945.12,1.956.843,6.561-.632,8.036a1.664,1.664,0,0,1-.271.211c-5.748,2.769-11.2,6.049-16.883,8.848a1.073,1.073,0,0,1-.06-.752,4.383,4.383,0,0,0,1.745-1.083,44.4,44.4,0,0,1-4.484-.451Z" transform="translate(-7861.595 -3004.002)" fill="#0b1247"/>
      <path id="Trazado_902868" data-name="Trazado 902868" d="M1215.262,1036.947c5.508-.782,10.563-1.2,14.175-5.959,5.447-7.133,3.943-18.99,14.988-20.676,4.936-.752,10.263,1.114,14.145,4.093,2.979,2.257,5.447,5.537,5.929,9.33.542,4.364-1.535,8.457-4.183,11.767-5.387,6.711-13.9,11.617-12.821,21.428.181,1.655.752,3.792,2.2,4.785a3.678,3.678,0,0,0,2.739.632,6.932,6.932,0,0,0,2.648-1.354,125.652,125.652,0,0,1-6.109,12.46c1.655,5.267,4.033,11.406,1.234,16.7-1.234,2.377-3.461,3.7-5.688,5.026a28.166,28.166,0,0,0-6.019,4.3c-6.471,6.741-5.327,18.238-5.327,26.905l-12.791-.03c-9.9-16.7,1.053-15.409-.331-25.22-1.083-7.795-8.818-7.434-13.724-11.346a3.979,3.979,0,0,1-1.746-2.859c-.181-2.648,2.257-5.146,3.852-7.012,5.989-6.711,10.443-11.767,6.711-21.157-1.234-3.07-2.709-6.049-3.762-9.179a13.282,13.282,0,0,1-.782-6.922C1211.289,1039.836,1212.944,1038.451,1215.262,1036.947Z" transform="translate(-7606.735 -3195.083)" fill="#10b79c"/>
      <path id="Trazado_902869" data-name="Trazado 902869" d="M1882.5,695.8a4.534,4.534,0,0,1,1.836.783c3.461,2.528,6.621,5.6,9.931,8.306,3.521,2.889,7.344,5.538,11.105,8.1,9.872,6.681,20.164,12.76,30.607,18.509,9.3,5.116,19.351,10.052,27.929,16.342a15.134,15.134,0,0,1,3.942,4.123,16.024,16.024,0,0,1,2.2,12.429,19.349,19.349,0,0,1-3.521,7.193c-4.394,5.869-9.9,11.226-14.777,16.763L1927.1,816.152c-2.739,3.07-6.32,8.126-9.571,10.323a3.385,3.385,0,0,1-1.083.421c.06-3.16-11.918-26.785-14.356-29.674l.331-.12a40.155,40.155,0,0,0,22.18-20.886,33.97,33.97,0,0,0,2.739-18.418c-2.889-21.428-23.324-23.414-34.64-37.77a44.014,44.014,0,0,1-8.457-16.884A60.636,60.636,0,0,0,1882.5,695.8Z" transform="translate(-8080.64 -2975.342)" fill="#b6d8f6"/>
      <path id="Trazado_902870" data-name="Trazado 902870" d="M1595.295,483.1c14.626-2.859,31.359-.993,43.939,7.464,10.925,7.343,16.823,18.719,19.261,31.359.662,3.431,2.979,22.03,2.347,24.347.9,2.317,1.174,4.906,1.776,7.343a44.016,44.016,0,0,0,8.457,16.884c11.316,14.356,31.751,16.342,34.64,37.77a34.253,34.253,0,0,1-2.739,18.418,40.154,40.154,0,0,1-22.18,20.886l-.331.12a2.187,2.187,0,0,0-.12-.421c-4.093-10.142-26.755-36.235-36.987-40-.481-1.234-15.289-11.2-17.3-12.129-.12-.361-.211-.722-.331-1.114-1.174-3.732-1.324-15.048-3.341-17.245a2.969,2.969,0,0,0,.331-1.114c.211-1.836-.421-5.989-1.5-7.373-2.979,5.327-12.73,10.082-18.539,11.737a39.662,39.662,0,0,1-11.135,1.234c-4.514-.632-8.938-1.625-12.911-3.973-7.223-4.243-9.39-11.015-11.376-18.659l.271-.9c-.782-.752-.963-3.461-1.113-4.6l.241-.06a20.649,20.649,0,0,0-1.143-8.126c.241-2.167,0-4.514.03-6.711.06-7.524,1.114-15.018,5-21.609a19.281,19.281,0,0,1,11.858-9.33l.12-.151a1.381,1.381,0,0,1-.843-.512c-.843-.843-1.083-4-1.023-5.237a17.04,17.04,0,0,1,5.056-11.918l.662.211a6.783,6.783,0,0,0,1.114-2.408A19.531,19.531,0,0,1,1595.295,483.1Z" transform="translate(-7859.043 -2825.779)" fill="url(#linear-gradient-2)"/>
      <path id="Trazado_902871" data-name="Trazado 902871" d="M1634.4,490.153a20.849,20.849,0,0,1,7.915-4.153c-2.047,2.588-6.651,2.378-7.975,5.869,1.144,0,1.866-1.234,2.979-1.053-.09.782-.511,1.023-1.053,1.565l.963.752c-.12,1.445-1.745,3.01-2.378,4.334-2.107,4.334-.391,6.952,1.384,10.864.963,2.137,1.866,4.273,2.769,6.44-3.7-5.748-7.343-14.536-5.929-21.458.09-.451.09-.391.181-.752A6.583,6.583,0,0,0,1634.4,490.153Z" transform="translate(-7906.063 -2828.682)" fill="#3c3668"/>
      <path id="Trazado_902872" data-name="Trazado 902872" d="M1667.065,559.743a2.645,2.645,0,0,1,1.655.241c2.769,1.806,7.253,10.594,10.172,13.754,2.648,2.859,6.17,5.086,9.239,7.434v.572a9.121,9.121,0,0,1-2.558.09,17.722,17.722,0,0,1-12.821-6.711C1669.141,570.848,1666.583,565.431,1667.065,559.743Z" transform="translate(-7930 -2880.214)" fill="#41439a"/>
      <path id="Trazado_902873" data-name="Trazado 902873" d="M1808.7,537.7h1.414c5.056,2.8,9.45,12.58,11.406,17.937,1.294,3.581,4.364,13.784,2.829,17.064l-.09.06-.512-.15C1818.391,564.334,1809.452,547.391,1808.7,537.7Z" transform="translate(-8029.05 -2864.823)" fill="#41439a"/>
      <path id="Trazado_902874" data-name="Trazado 902874" d="M1761.7,546.057a3.172,3.172,0,0,1,2.979.752c5.237,4.153,16.041,25.491,16.372,32.172.06,1.053-.03,1.083-.722,1.806-.3.271-.451.241-.843.331a7.466,7.466,0,0,1-1.926-1.294C1769.766,572.722,1762.151,556.591,1761.7,546.057Z" transform="translate(-7996.196 -2870.622)" fill="#41439a"/>
      <path id="Trazado_902875" data-name="Trazado 902875" d="M1582.683,564.794c.963-.271,1.384-.6,2.348-.211,2.137,4.183,4.424,8.668,7.734,12.068,1.836,1.9,10.774,8.667,11.2,9.631,8.156,2.859,14.566,4.665,23.2,5.538a12.712,12.712,0,0,1,3.281,5.417,1.455,1.455,0,0,1-.03.722c3.28-1.5,5.357-3.4,9.179-2.077a8.748,8.748,0,0,1,4.936,4.725,12.026,12.026,0,0,1,.181,9.36,12.908,12.908,0,0,1-6.862,7.1c-3.521,1.445-6.561.692-10.052-.331-.181,2.648-4.364,7.4-6.29,9.239-2.979,5.327-12.73,10.082-18.539,11.737a39.661,39.661,0,0,1-11.135,1.234c-4.514-.632-8.938-1.625-12.911-3.973-7.223-4.243-9.39-11.015-11.376-18.659l.271-.9c-.782-.752-.963-3.461-1.114-4.6l.241-.06a20.644,20.644,0,0,0-1.144-8.126c.241-2.167,0-4.514.03-6.711.06-7.524,1.114-15.018,5-21.609a19.281,19.281,0,0,1,11.858-9.33v-.181Z" transform="translate(-7859.252 -2883.49)" fill="#f6b792"/>
      <path id="Trazado_902876" data-name="Trazado 902876" d="M1780.3,703.3a6,6,0,0,1,2.2.331,5.147,5.147,0,0,1,2.468,1.956l-.241.933a2.105,2.105,0,0,1-.18,1.535l-.632-.09C1782.557,706.55,1780.812,705.2,1780.3,703.3Z" transform="translate(-8009.198 -2980.585)" fill="#955271"/>
      <path id="Trazado_902877" data-name="Trazado 902877" d="M1780.3,689.646c.662-.933,1.324-1.926,2.016-2.829.993-1.324,2.678-2.919,4.364-3.04a3.889,3.889,0,0,1,2.979,1.234l-.21,1.234a4.809,4.809,0,0,0-3.852.421,7.033,7.033,0,0,0-3.1,3.31A5.9,5.9,0,0,0,1780.3,689.646Z" transform="translate(-8009.198 -2966.93)" fill="#9b4c5c"/>
      <path id="Trazado_902878" data-name="Trazado 902878" d="M1615.4,692.6c.662.391.662.421.963,1.144-.331,2.2-1.535,4.244-2.528,6.2,1.324.241,2.618.241,3.611,1.144l-.211,1.264a7.493,7.493,0,0,1-3.642-.361,4.331,4.331,0,0,1-.963-1.144C1611.847,698.138,1614.135,694.857,1615.4,692.6Z" transform="translate(-7891.877 -2973.105)" fill="#955271"/>
      <path id="Trazado_902879" data-name="Trazado 902879" d="M1787.6,695.205a7.033,7.033,0,0,1,3.1-3.31,4.81,4.81,0,0,1,3.852-.421c.241,1.083.421,1.6-.241,2.588-.933,1.384-2.678,1.655-3.672,2.739-.331.361-.451.933-.812,1.324l.241-.933A5.036,5.036,0,0,0,1787.6,695.205Z" transform="translate(-8014.301 -2972.159)" fill="#e56962"/>
      <path id="Trazado_902880" data-name="Trazado 902880" d="M1669.295,676.609a4.672,4.672,0,0,1,2.227.211,3.067,3.067,0,0,1,1.294,4.514,3.351,3.351,0,0,1-2.317,1.475h-.061a2.846,2.846,0,0,1-2.107-.692,3.423,3.423,0,0,1-.632-1.926A4.629,4.629,0,0,1,1669.295,676.609Z" transform="translate(-7930.485 -2961.899)" fill="#00000c"/>
      <path id="Trazado_902881" data-name="Trazado 902881" d="M1581.443,675.8a4.672,4.672,0,0,1,2.739,1.836,3.137,3.137,0,0,1,.421,2.678,4.592,4.592,0,0,1-2.377,2.709,5.061,5.061,0,0,1-2.8-1.6,3.212,3.212,0,0,1-.6-2.648A4.844,4.844,0,0,1,1581.443,675.8Z" transform="translate(-7868.305 -2961.361)" fill="#00000c"/>
      <path id="Trazado_902882" data-name="Trazado 902882" d="M1668.2,642.12a9.414,9.414,0,0,1,3.311-.03,12.516,12.516,0,0,1,7.073,4.665c.241.391.06.662-.03,1.083l-.993.421c-3.04-2.378-6.47-2.287-9.691-3.943C1667.57,643.294,1667.781,643.083,1668.2,642.12Z" transform="translate(-7930.505 -2937.703)" fill="#0b1247"/>
      <path id="Trazado_902883" data-name="Trazado 902883" d="M1576.062,639.9a5.119,5.119,0,0,1,3.852,1.414c-1.083,1.746-5.6,2.5-7.524,3.672l-.391.241a4.337,4.337,0,0,1-2.408,1.174l-.391-.632a4.4,4.4,0,0,1,.692-1.836C1571.487,641.435,1573.263,640.5,1576.062,639.9Z" transform="translate(-7861.628 -2936.265)" fill="#0b1247"/>
      <path id="Trazado_902884" data-name="Trazado 902884" d="M1568.811,715c2.348-1.053,3.852-2.016,6.5-.963a3.711,3.711,0,0,1,2.137,2.016,3.843,3.843,0,0,1-.12,2.889,3.291,3.291,0,0,1-1.565,1.625c-2.287.451-3.973-.963-6.049-.9-.782-.752-.963-3.461-1.114-4.6Z" transform="translate(-7861.209 -2987.775)" fill="#e56962"/>
      <path id="Trazado_902885" data-name="Trazado 902885" d="M1681.477,710.275a6.774,6.774,0,0,1,3.792-.06,4.9,4.9,0,0,1,2.678,2.408,3.135,3.135,0,0,1,.03,2.648,4.724,4.724,0,0,1-3.04,2.468,3.305,3.305,0,0,1-1.023.3,4.431,4.431,0,0,1-3.4-.9,4.376,4.376,0,0,1-1.114-3.19C1679.43,712.171,1680.273,711.419,1681.477,710.275Z" transform="translate(-7938.664 -2985.242)" fill="#e56962"/>
      <path id="Trazado_902886" data-name="Trazado 902886" d="M1621.69,564.794c.963-.271,1.384-.6,2.347-.211,2.137,4.183,4.424,8.668,7.735,12.068,1.836,1.9,10.774,8.667,11.2,9.631a4.011,4.011,0,0,1-2.588.06c-9.48-3.16-14.867-13-18.78-21.428Z" transform="translate(-7898.259 -2883.49)" fill="#f3a290"/>
      <path id="Trazado_902887" data-name="Trazado 902887" d="M1608.568,736.5c6.621.361,13.182.421,19.8.271a4.686,4.686,0,0,1,.12.632c.181,2.077-1.836,4.394-3.04,5.9-2.347,2.077-4.635,3.4-7.825,3.371a9.368,9.368,0,0,1-6.651-2.859A9.872,9.872,0,0,1,1608.568,736.5Z" transform="translate(-7889.14 -3003.793)" fill="#fefefe"/>
      <path id="Trazado_902888" data-name="Trazado 902888" d="M1055.441,385.258l68.106-.03c6.32,0,22.391-.873,27.628.211-3.521,0-7.1-.09-10.624.03,5.809,2.137,11.647,4.966,14.416,10.895a20.985,20.985,0,0,1,1.444,7.193c.6,9.39.03,19.2-.03,28.621-.06,8.517.391,17.335-.181,25.822a17.452,17.452,0,0,1-1.083,4.966,15.642,15.642,0,0,1-8.126,8.517c-4.213,1.9-9.089,1.445-13.6,1.234-4.033-.782-12.068,0-16.492.03l-55.255.09c-8.4,0-20.766.873-28.831-.6a17.087,17.087,0,0,1-8.637-4.544,16.686,16.686,0,0,1-4.484-8.156c-1.475-6.2-.572-23.5-.542-31,.03-7.4-1.023-25.37.512-31.54a15.757,15.757,0,0,1,3.912-7.1,14.709,14.709,0,0,1,6.681-3.942c5.748-1.565,16.733-.752,23.083-.813Z" transform="translate(-7476.889 -2758.006)" fill="#fccb64"/>
      <path id="Trazado_902889" data-name="Trazado 902889" d="M1111.613,501.7c5.176,0,10.744-.542,15.86-.06a3.444,3.444,0,0,1,2.679,1.144,2.625,2.625,0,0,1-.662,1.986c-2.227,1.053-29.855.421-34.4.421-3.973.03-14.747.662-17.937-.241a2.594,2.594,0,0,1-1.053-1.716l.572-.752C1079.832,501,1106.225,501.727,1111.613,501.7Z" transform="translate(-7516.929 -2839.473)" fill="#fefefe"/>
      <path id="Trazado_902890" data-name="Trazado 902890" d="M1078.114,581.539c18.358.752,36.957.181,55.375.181,6.29,0,13.092-.542,19.321-.03a2.981,2.981,0,0,1,2.107.873,3.418,3.418,0,0,1-.15,2.5h-50.922c-7.855,0-16.041.512-23.866.03a2.548,2.548,0,0,1-2.137-.782A4.616,4.616,0,0,1,1078.114,581.539Z" transform="translate(-7518.071 -2895.42)" fill="#fefefe"/>
      <path id="Trazado_902891" data-name="Trazado 902891" d="M1077.731,542.3l59.619.271,31.359.03c3.01,0,6.079-.241,9.089-.181a3.74,3.74,0,0,1,2.648.9,3.865,3.865,0,0,1-.241,2.528c-7.4.391-14.957.06-22.391.06l-43.277.03-24.769.03c-3.491,0-7.554.451-10.985-.03a1.854,1.854,0,0,1-1.625-.993A5.028,5.028,0,0,1,1077.731,542.3Z" transform="translate(-7517.658 -2868.038)" fill="#fefefe"/>
      <path id="Trazado_902892" data-name="Trazado 902892" d="M1081.03,461.655c10.955.06,96.335-.572,98.623.391.722.3.752.482,1.023,1.174a2.186,2.186,0,0,1-.3.843c-.662.993-1.174.963-2.287,1.083l-68.136.03-21.639-.03c-2.618,0-5.237.271-7.855.181a4.778,4.778,0,0,1-2.949-.993,2.433,2.433,0,0,1,.03-2.047C1078.563,461.475,1079.827,461.655,1081.03,461.655Z" transform="translate(-7517.767 -2811.56)" fill="#fefefe"/>
      <path id="Trazado_902893" data-name="Trazado 902893" d="M1295.639,781.871a39.664,39.664,0,0,0,11.135-1.234c5.808-1.655,15.529-6.41,18.539-11.737,1.114,1.384,1.715,5.538,1.5,7.373a4.745,4.745,0,0,1-.331,1.114c2.017,2.2,2.167,13.513,3.341,17.245.12.361.211.722.331,1.113,2.016.933,16.823,10.895,17.3,12.128,10.232,3.762,32.894,29.855,36.987,40a1.722,1.722,0,0,1,.12.421c2.438,2.889,14.446,26.514,14.356,29.674,1.866,2.347,9.029,22.842,8.908,25.762,1.415,2.408,2.016,6.019,2.648,8.728a83.753,83.753,0,0,1-.391,41.2c-1.114,4.153-6.049,12.73-6.32,14.3-6.741,7.674-8.878,10.925-19.682,12.971.12,1.715-2.167,6.561-3.22,8.035a3.471,3.471,0,0,1-.843.782c-5.357-1.234-9.661-2.979-13.693-6.681-.752-.692-1.114-1.113-2.137-1.053a2.983,2.983,0,0,1-.843,2.528c-.211.211-.3.271-.512.451.151,1.445-1.144,3.732-2.047,4.815a3.933,3.933,0,0,1-.722.692c-2.257-2.167-6.41-3.1-9.45-3.04-8.336.181-19.442,7.554-25.07,13.483a13.782,13.782,0,0,0-3.16,5.146,75.253,75.253,0,0,1-9.751.181h-17.817c-14.085,0-28.952.662-42.916-.03,2.257-2.528,1.144-9.059,1.384-12.52a21.485,21.485,0,0,1-11.105-2.648l-.331.03c-3.461.361-7.283-.211-10.774-.361-8.4-.361-20.976-.09-26.725,6.952a9.616,9.616,0,0,0-1.385,2.408,28.344,28.344,0,0,0-1.535,5.9,64.169,64.169,0,0,1-7.223.03c-4.514,1.053-26.032.963-30.577.03a42.539,42.539,0,0,1-4.544-2.257,20.47,20.47,0,0,1-3.16-2.648c-5.989-6.019-5.3-14.656-5.237-22.451V970.63c-2.348-.03-4.725.6-7.042.181a2.931,2.931,0,0,1-.993-1.866c-.662-2.8-.843-8.306.692-10.864,2.2-1.023,6.561-.391,9.029-.361l24.407-.03,12.791.03c-.03-8.667-1.144-20.164,5.327-26.905a27.721,27.721,0,0,1,6.019-4.3c2.227-1.324,4.454-2.679,5.688-5.026,2.8-5.327.421-11.436-1.234-16.7a129.03,129.03,0,0,0,6.109-12.46c3.521-4.063,7.524-8.186,13.212-8.607a9.838,9.838,0,0,1,7.223,2.257c2.829,2.438,3.792,5.778,4.544,9.3,1.866-5.357,2.468-11.737,3.641-17.3,4.093-19.713,8.7-40,19.953-57.061,4.906-5.417,11.406-9.691,17.786-13.152l1.083-.873c5.688-2.829,11.135-6.109,16.883-8.848a1.658,1.658,0,0,0,.271-.211c1.475-1.475.752-6.079.632-8.036A68.574,68.574,0,0,1,1295.639,781.871Z" transform="translate(-7563.119 -3026.442)" fill="#f8b23f"/>
      <path id="Trazado_902894" data-name="Trazado 902894" d="M1670,948.9c.452-.873,1.023-2.287,1.986-2.679a2.624,2.624,0,0,1,2.5.151,3.057,3.057,0,0,1,.451,2.588,1.067,1.067,0,0,1-.12.271l-.211.813c-.482.451-.722.843-1.445.843C1671.866,950.891,1670.873,949.837,1670,948.9Z" transform="translate(-7932.093 -3150.228)" fill="#e66c22"/>
      <path id="Trazado_902895" data-name="Trazado 902895" d="M1484.775,1258.337a12.278,12.278,0,0,1,5.237.09l.662.542a2.45,2.45,0,0,1-1.686,1.475,15.18,15.18,0,0,1-4.063.481,51.607,51.607,0,0,0-11.226,3.25A35.247,35.247,0,0,1,1484.775,1258.337Z" transform="translate(-7794.87 -3368.412)" fill="#bf3a0c"/>
      <path id="Trazado_902896" data-name="Trazado 902896" d="M1916.084,1251.655a14.494,14.494,0,0,1,4.7.3c1.234.331,4.033,1.053,4.665,2.107-2.437.662-5.477-.181-8.035-.06a44.253,44.253,0,0,0-5.929.963,35.554,35.554,0,0,1-9.179,2.8C1907.476,1254.785,1909.824,1252.528,1916.084,1251.655Z" transform="translate(-8094.481 -3363.866)" fill="#e66c22"/>
      <path id="Trazado_902897" data-name="Trazado 902897" d="M1881.364,1450c.09.03.15.06.241.09,3.431,1.475,6.109,4.183,9.781,5.417,1.926.662,7.464.632,8.607,1.5.12,1.716-2.167,6.561-3.22,8.036a3.477,3.477,0,0,1-.843.782c-5.357-1.234-9.66-2.979-13.693-6.681-.752-.692-1.113-1.114-2.137-1.053C1880.551,1455.989,1881.966,1452.016,1881.364,1450Z" transform="translate(-8078.962 -3502.562)" fill="#e66c22"/>
      <path id="Trazado_902898" data-name="Trazado 902898" d="M1854.384,1203.4a8.167,8.167,0,0,1,.993.662c1.775,2.287,5.869,16.823,6.591,20.465a4.71,4.71,0,0,1,.03,2.949c-.331,1.956-7.193,17.485-8.427,18.539-.3-1.776-5.237-7.825-6.771-9.119,2.8-1.445,6.019-1.414,8.607-3.491l.18-.361c.572-1.354-.692-9.39-.812-11.376C1854.564,1217.545,1855.467,1206.349,1854.384,1203.4Z" transform="translate(-8055.684 -3330.177)" fill="#dae9f9"/>
      <path id="Trazado_902899" data-name="Trazado 902899" d="M1642.1,992.888c1.114-5.026,5.026-37.559,6.742-39,.421-.361.9-.181,1.444-.151l.211.572c.843.9,1.866,1.986,3.22,1.986.722,0,.933-.361,1.445-.843l.211-.813a5.845,5.845,0,0,1,3.13.692c0,.09.03.181.03.271.151,1.565-5.237,33.376-6.2,36.9a3.348,3.348,0,0,1-.692,1.234C1648.57,993.189,1645.23,993.159,1642.1,992.888Z" transform="translate(-7912.589 -3155.599)" fill="#fefefe"/>
      <path id="Trazado_902900" data-name="Trazado 902900" d="M1667.07,978.92a11.663,11.663,0,0,1,1.445-.12,3.2,3.2,0,0,1,2.257,1.264,2.38,2.38,0,0,1,.391,2.227,3.132,3.132,0,0,1-2.016,1.776,3.67,3.67,0,0,1-1.414.211,1.939,1.939,0,0,1-1.144-1.234C1666.017,981.539,1666.468,980.3,1667.07,978.92Z" transform="translate(-7929.524 -3173.172)" fill="#e66c22"/>
      <path id="Trazado_902901" data-name="Trazado 902901" d="M1655.223,1046.6a5.675,5.675,0,0,1,2.2,1.023,2.647,2.647,0,0,1,.993,1.926c.09,1.354-.933,2.317-1.776,3.25a5.206,5.206,0,0,1-2.5-1.264,2.762,2.762,0,0,1-.782-2.317C1653.478,1048.075,1654.441,1047.322,1655.223,1046.6Z" transform="translate(-7920.446 -3220.567)" fill="#e66c22"/>
      <path id="Trazado_902902" data-name="Trazado 902902" d="M1660.506,1013.848a7.24,7.24,0,0,1,1.144,0,2.966,2.966,0,0,1,2.348,1.144,2.4,2.4,0,0,1,.482,2.227,3.374,3.374,0,0,1-2.016,1.986,3.023,3.023,0,0,1-1.986-.151,3.235,3.235,0,0,1-1.114-2.347A3.81,3.81,0,0,1,1660.506,1013.848Z" transform="translate(-7924.646 -3197.656)" fill="#e66c22"/>
      <path id="Trazado_902903" data-name="Trazado 902903" d="M1782.985,1030.2c4.845,3.852,16.583,31.359,19.351,38.281,1.2,3.009,5.3,11.045,4.093,13.844,1.083,2.919.151,14.145.361,18.3.09,1.956,1.354,10.022.813,11.376l-.181.361c-2.558,2.077-5.808,2.046-8.607,3.491-5.869-.03-12.339,2.588-18.689,2.5l.09-.181c.09-.181.211-.361.3-.542,1.324-2.859,1.745-16.312.722-19.322a6.957,6.957,0,0,1-2.919,1.415l-.12-.12c.993-1.625,5.026-3.611,6.681-5,6.531-5.327,11.617-13.242,12.4-21.759,1.114-11.918-5.327-20.435-9.48-30.878C1786.326,1038.266,1785.513,1033.24,1782.985,1030.2Z" transform="translate(-8007.729 -3209.103)" fill="#e66c22"/>
      <path id="Trazado_902904" data-name="Trazado 902904" d="M1353.191,1265.4c-1.083,6.049-2.227,12.1-3.551,18.118-1.685,7.674-4.334,16.1-3.912,24.016a21.363,21.363,0,0,0,3.641,11.045c1.956,2.8,5.959,6.32,9.45,6.862a1.232,1.232,0,0,0,.331.03l.572.542c-.361,3.461-.993,7.494,1.384,10.383a14.574,14.574,0,0,0,1.866,1.746l-.331.03c-3.461.361-7.283-.211-10.774-.361-8.4-.361-20.977-.09-26.725,6.952a9.618,9.618,0,0,0-1.384,2.408,28.346,28.346,0,0,0-1.535,5.9,64.253,64.253,0,0,1-7.223.03,23.661,23.661,0,0,0,8.066-6.561c4.213-7.223,2.769-20.134,2.769-28.591,1.866.09,4.845.572,6.561,0a1.6,1.6,0,0,0,1.053-1.053c1.053-2.287,1.053-7.765.12-10.112-.482-1.174-1.445-1.354-2.5-1.806-.843-1.625-2.107-3.672-1.655-5.538.933-3.882,8.968-4.213,12.128-5.989,9.119-5.146,3.612-13.995,5.688-21.458C1348.165,1268.74,1350.362,1266.995,1353.191,1265.4Z" transform="translate(-7683.932 -3373.518)" fill="#b6d8f6"/>
      <path id="Trazado_902905" data-name="Trazado 902905" d="M1485.623,1014.2c-6.14,16.372-10.2,30.607-4.635,47.761,2.167,6.711,4.966,13.3,6.8,20.1,1.926,7.193,2.077,14.446,3.25,21.729a54.632,54.632,0,0,0,5.778,1.6,87.9,87.9,0,0,0-6.561,10.834,113.31,113.31,0,0,0-13.122,39.7l-.3,1.5c-.241,2.558-.331,5.237-.752,7.765a21.483,21.483,0,0,1-11.105-2.648,12.818,12.818,0,0,1-1.866-1.746c-2.408-2.919-1.776-6.952-1.384-10.383l-.572-.542a1.92,1.92,0,0,1-.181-1.415c1.2-.241,2.257.331,3.4.692,1.415-.09,2.709.331,4.183,0,1.535-.331,2.648-1.746,3.4-3.04,6.14-10.714,5.477-32.082,4.966-44.15-.15-3.7-.03-7.945-.963-11.5a16.517,16.517,0,0,0,4.063-.481,2.392,2.392,0,0,0,1.685-1.475l-.662-.542a13.321,13.321,0,0,0-5.236-.09C1473.464,1062.443,1471.388,1036.8,1485.623,1014.2Z" transform="translate(-7785.937 -3197.918)" fill="#e66c22"/>
      <path id="Trazado_902906" data-name="Trazado 902906" d="M1470.5,1471.1a93.936,93.936,0,0,0,13.332,4.213l-.3,1.5C1478.505,1475.855,1474.051,1475.313,1470.5,1471.1Z" transform="translate(-7792.634 -3517.312)" fill="#bf3a0c"/>
      <path id="Trazado_902907" data-name="Trazado 902907" d="M1626.576,1317.2c6.32.09,12.821-2.528,18.689-2.5,1.535,1.294,6.44,7.343,6.771,9.119.421,1.5-.361,3.25-.752,4.725-2.829,10.654-1.806,17.485,4.966,26.183.211.271.151.241.271.662.632,2.047-.813,5.989-1.324,8.066a2.983,2.983,0,0,1-.843,2.528c-.211.211-.3.271-.512.451-2.468-4.785-2.588-9.059-6.38-13.814-16.191-20.314-64.224-23.595-88.962-26.334a87.918,87.918,0,0,1,6.561-10.834c17.335,3.672,36.355,3.732,54.021,2.558C1620.948,1317.92,1624.951,1318.04,1626.576,1317.2Z" transform="translate(-7854.149 -3407.981)" fill="#0b1247"/>
      <path id="Trazado_902908" data-name="Trazado 902908" d="M1321.508,1159.027c3.521-4.063,7.524-8.186,13.212-8.607a9.838,9.838,0,0,1,7.223,2.257c2.829,2.438,3.792,5.778,4.544,9.3-.993,7.7-2.949,15.288-4.033,22.993-2.829,1.625-5.026,3.341-5.959,6.621-2.107,7.464,3.431,16.312-5.688,21.458-3.16,1.806-11.2,2.137-12.129,5.989-.452,1.9.813,3.912,1.655,5.538-6.832-.391-13.784-.181-20.646-.181-.03-8.667-1.144-20.164,5.327-26.905a27.729,27.729,0,0,1,6.019-4.3c2.227-1.324,4.454-2.678,5.688-5.026,2.8-5.327.421-11.436-1.234-16.7A127.927,127.927,0,0,0,1321.508,1159.027Z" transform="translate(-7673.165 -3293.117)" fill="#0b705f"/>
      <path id="Trazado_902909" data-name="Trazado 902909" d="M1610.647,781.871a39.665,39.665,0,0,0,11.135-1.234c5.808-1.655,15.529-6.41,18.539-11.737,1.114,1.384,1.716,5.538,1.5,7.373a4.751,4.751,0,0,1-.331,1.114c2.016,2.2,2.167,13.513,3.34,17.245.12.361.211.722.331,1.113,2.016.933,16.823,10.895,17.3,12.128l.12.512c-.6,2.016-22.481,22.331-25.28,23.926-1.023-1.806-14.235-10.533-16.613-11.286-4.424-1.384-18.388,8.487-22.782,10.985-1.565-8.1-2.949-16.312-5.116-24.257l1.083-.873c5.688-2.829,11.135-6.109,16.884-8.848a1.658,1.658,0,0,0,.271-.211c1.475-1.475.753-6.079.632-8.036C1611.1,787.288,1610.978,784.459,1610.647,781.871Z" transform="translate(-7878.127 -3026.442)" fill="#fefefe"/>
      <path id="Trazado_902910" data-name="Trazado 902910" d="M1651.5,781.871a39.664,39.664,0,0,0,11.135-1.234c5.809-1.655,15.529-6.41,18.539-11.737,1.114,1.384,1.716,5.538,1.5,7.373a4.757,4.757,0,0,1-.331,1.114c2.016,2.2,2.167,13.513,3.34,17.245.121.361.211.722.331,1.113a42.972,42.972,0,0,1-21.789,21.789,22.7,22.7,0,0,1-2.528.873c-.09-.12-.18-.211-.271-.331a20.915,20.915,0,0,0-3.431-2.588c-4.424-3.19-6.982-6.5-6.741-12.159.06-1.535.3-3.04.482-4.544.03-.361,0-.271-.121-.722a1.655,1.655,0,0,0,.271-.211c1.475-1.475.752-6.079.632-8.036C1651.956,787.288,1651.835,784.459,1651.5,781.871Z" transform="translate(-7918.984 -3026.442)" fill="#f6b792"/>
      <path id="Trazado_902911" data-name="Trazado 902911" d="M1652.1,781.871a39.665,39.665,0,0,0,11.135-1.234c5.808-1.655,15.529-6.41,18.539-11.737,1.114,1.384,1.715,5.538,1.5,7.373a4.734,4.734,0,0,1-.331,1.114c-4.394,6.26-13.061,10.684-20.435,12.008a44.563,44.563,0,0,1-9.39.421C1652.551,787.288,1652.431,784.459,1652.1,781.871Z" transform="translate(-7919.58 -3026.442)" fill="#e56962"/>
      <path id="Trazado_902912" data-name="Trazado 902912" d="M1152.245,1395.865l24.407-.03,12.791.03c6.862,0,13.814-.211,20.646.181,1.053.452,2.016.632,2.5,1.806.963,2.347.933,7.825-.12,10.112a1.667,1.667,0,0,1-1.053,1.053c-1.715.572-4.695.06-6.561,0,.03,8.427,1.445,21.368-2.769,28.591a23.663,23.663,0,0,1-8.066,6.561c-4.514,1.053-26.032.963-30.577.03a42.6,42.6,0,0,1-4.544-2.257,20.476,20.476,0,0,1-3.16-2.648c-5.989-6.019-5.3-14.656-5.237-22.451v-8.066c-2.347-.03-4.725.6-7.042.181a2.932,2.932,0,0,1-.993-1.866c-.662-2.8-.843-8.307.692-10.865C1145.413,1395.2,1149.747,1395.8,1152.245,1395.865Z" transform="translate(-7562.979 -3464.558)" fill="#e56962"/>
      <path id="Trazado_902913" data-name="Trazado 902913" d="M1170.4,1439.3c18.117.3,36.235-.151,54.352.241.03,8.427,1.445,21.368-2.769,28.591a23.661,23.661,0,0,1-8.066,6.561c-4.514,1.053-26.033.963-30.577.03a42.562,42.562,0,0,1-4.544-2.257c4.695-.572,9.992-.09,14.777-.12,5.869-.03,12.068-.271,16.432-4.755,5.327-5.477,4.815-13.182,4.755-20.224l-44.361.03v-8.1Z" transform="translate(-7582.85 -3495.082)" fill="#cb3336"/>
      <path id="Trazado_902914" data-name="Trazado 902914" d="M1152.245,1395.865l24.407-.03,12.791.03c6.862,0,13.814-.211,20.646.181,1.053.452,2.016.632,2.5,1.806.963,2.347.933,7.825-.12,10.112a1.667,1.667,0,0,1-1.053,1.053c-1.715.572-4.695.06-6.561,0-18.087-.391-36.235.06-54.352-.241-2.347-.03-4.725.6-7.042.181a2.932,2.932,0,0,1-.993-1.866c-.662-2.8-.843-8.307.692-10.865C1145.413,1395.2,1149.747,1395.8,1152.245,1395.865Z" transform="translate(-7562.979 -3464.558)" fill="#f8b23f"/>
      <path id="Trazado_902915" data-name="Trazado 902915" d="M1509.168,1392.9a113.715,113.715,0,0,1,13.122-39.7c24.738,2.739,72.771,6.049,88.962,26.333,3.792,4.785,3.912,9.029,6.38,13.814.151,1.445-1.144,3.732-2.046,4.815a3.929,3.929,0,0,1-.722.692c-2.257-2.167-6.41-3.1-9.45-3.04-8.336.181-19.442,7.554-25.07,13.483a13.78,13.78,0,0,0-3.16,5.146,75.209,75.209,0,0,1-9.751.181h-17.816c-14.085,0-28.952.662-42.916-.03,2.257-2.528,1.144-9.059,1.384-12.52.421-2.5.512-5.206.752-7.765Z" transform="translate(-7817.939 -3434.894)" fill="#3c3668"/>
    </g>
  </g>
</svg>
