<svg xmlns="http://www.w3.org/2000/svg" xmlns:xlink="http://www.w3.org/1999/xlink" width="716" height="397" viewBox="0 0 716 397">
  <defs>
    <clipPath id="clip-path">
      <path id="Rectángulo_405225" data-name="Rectángulo 405225" d="M20,0H716a0,0,0,0,1,0,0V397a0,0,0,0,1,0,0H20A20,20,0,0,1,0,377V20A20,20,0,0,1,20,0Z" transform="translate(-5987 -4010.162)" fill="#fff"/>
    </clipPath>
  </defs>
  <g id="Enmascarar_grupo_1099795" data-name="Enmascarar grupo 1099795" transform="translate(5987 4010.162)" clip-path="url(#clip-path)">
    <g id="Grupo_1113994" data-name="Grupo 1113994" transform="translate(-1239.403 -2850.302)">
      <path id="Trazado_903114" data-name="Trazado 903114" d="M4294.779,29.85h.539c5.086,1.346,10.258,2.3,15.429,3.223,3,.535,5.858,1.545,8.823,2.164,5.353,2.21,11.114,3.138,16.476,5.367a149.228,149.228,0,0,1,36.438,21.336,109.642,109.642,0,0,1,24.714,28,94.738,94.738,0,0,1,10.732,25.623c.157.585-.093,1.391.589,1.672.877.362,1.241-.549,1.681-1.02a53.417,53.417,0,0,1,16.367-12.425,70.3,70.3,0,0,1,21.557-6.091,107.882,107.882,0,0,1,17.642-1.007,183.388,183.388,0,0,1,28.87,3.7,165.591,165.591,0,0,1,37.914,13.135,157.5,157.5,0,0,1,32.044,20.448,23.947,23.947,0,0,1,2.351,2.566c-1.222,1.107-2.732.791-4.112.675a53.36,53.36,0,0,1-18.921-4.9,67.424,67.424,0,0,0-8.933-3.745,14.742,14.742,0,0,0-14.235,2.4c-1.206.937-1.907.866-2.8-.416-2.522-3.631-9.624-4.85-13.209-2.321a5.137,5.137,0,0,0-2.112,4.944c.212,2.913.168,2.93-2.551,2.637a5.829,5.829,0,0,0-5.668,2.373,5.263,5.263,0,0,0-.307,6.087,4.742,4.742,0,0,1,.1,5.249c-1.772,3.17-.746,5.271,2.741,6.229,1.01.278,1.879.6,2.229,1.682.815,2.523,2.759,2.822,4.98,2.476a53.187,53.187,0,0,0,5.784-1.275c.927-.252,1.891-.723,2.811.063a5.913,5.913,0,0,1,.333,3.946,13.539,13.539,0,0,0-.382,2.57c-.568,3.873-.592,7.855-2.223,11.519a1.89,1.89,0,0,0,.616,2.573,6.607,6.607,0,0,1,2.138,4.2,49.018,49.018,0,0,0,2.854,9.75c1.172,2.674,3.191,3.82,6.08,4.022,2.449.171,4.944-.828,7.344.305.74,1.516.5,3.088.284,4.66-.372,2.97-.629,5.95-.908,8.929-.16,1.711-.046,3.615-2,4.577a40.8,40.8,0,0,0-15.187,4.168,17.908,17.908,0,0,0-9.029,9.872c-3.87,9.779-5.4,20.041-6.119,30.459a103.4,103.4,0,0,0-.528,12.346c-.631,6.122-.422,12.331-1.924,18.36-1.075,1.683-2.424,1.293-3.606.278-1.96-1.684-3.282-3.648-2.677-6.513.473-2.238,1.076-4.519.476-6.85a8.688,8.688,0,0,0-.285-1.574c-1.557-3.528-.7-6.59,1.715-9.381a2.681,2.681,0,0,0,.41-.689c.379-.876,1.258-1.892.471-2.7-.874-.9-1.759.173-2.582.615-1.047.563-1.991,1.875-3.325.956-1.179-.812-1.076-2.268-.817-3.461.607-2.8-.079-5.5-.336-8.241a7.649,7.649,0,0,1-.019-3.179c.893-2.071,2.354-3.81,3.357-5.826,3.44-6.919,2.933-13.721-.564-20.408a39.12,39.12,0,0,0-5.533-8.27c-6.975-7.672-8.905-16.882-8.951-26.888a64.966,64.966,0,0,0-4.614-24.463,26.017,26.017,0,0,0-23.933-16.314c-9.868-.178-19.453,1.8-29.057,3.627a15.54,15.54,0,0,0-7.239,3.415c-4.74,4.035-5.086,9.882-.854,14.435a8.431,8.431,0,0,1,1.676,2.093,21.359,21.359,0,0,1,.093,9.194c-.636,1.057.714,1.589.679,2.492.164,5.66.074,11.337,1.4,16.9a2.53,2.53,0,0,1-.539,1.213c-1.9,1.867-1.008,4.568-1.99,6.711a34.854,34.854,0,0,0,.611,17.1,5.824,5.824,0,0,1,.4,2.608,2.293,2.293,0,0,1-1.85,1.745,32.432,32.432,0,0,0-9.166,4.385,2.011,2.011,0,0,1-1.53.364,7.615,7.615,0,0,1-1.5-7.7c.82-2.548,2.037-4.99,2-7.758a9.124,9.124,0,0,0-.126-1.873c-.18-.8-.417-1.689-1.41-1.706-1.106-.019-1.15.959-1.23,1.749-.118,1.158-.063,2.327-.07,3.49a3.1,3.1,0,0,1-2.726,3.424c-6.4,1.159-9.709,5.388-11.736,11.238-1.936,5.59-2.174,11.4-2.924,17.161-.4,4.681.519,9.282.9,13.9a260.524,260.524,0,0,1,.951,26.806,97.439,97.439,0,0,0,1.637,20.561c1.4,4.788,3.354,9.227,7.957,11.849,2.115,1.205,4.354,2.042,6.867,1.356a17.549,17.549,0,0,0,8.162-3.429c.476-.4,1.14-.978,1.8-.121.467,1.386-.361,2.415-.976,3.492-7.1,12.438-13.1,25.324-16.323,39.373-2.919,12.713-3.152,25.553-2.332,38.5,1.278,20.162,6.857,39.331,13,58.393.4,1.226,1.261,2.459.4,3.84h-59.822c-.719-.9-.416-1.865-.172-2.826a325.319,325.319,0,0,0,7.651-40.19,203.765,203.765,0,0,0,.5-45.922,94.767,94.767,0,0,0-11.8-37.923c-.777-1.375-1.995-2.587-1.883-4.359a2.646,2.646,0,0,1,.583-1.2c3.9-4.266,5.653-9.509,6.8-15.016a253.326,253.326,0,0,0,4.109-30.374c.341-4.03.286-8.062.6-12.083a95.132,95.132,0,0,0-.541-22.148,12.338,12.338,0,0,1-.315-2.914c.341-1.38,1.6-1.563,2.654-1.99,6.548-2.652,8.572-8.885,4.865-14.94-1.323-2.161-3.269-3.8-4.717-5.866-2.8-3.987-2.786-6.962.329-10.745a61.061,61.061,0,0,0,4.422-5.758c3.928-6.125,3.419-13.856-2.982-19.026-3.785-3.056-8.179-5.182-12.054-8.1-3.425-2.58-5.977-5.7-6.542-10.08a27.175,27.175,0,0,0-3.539-10.088,3.529,3.529,0,0,1-.688-2.534,2.171,2.171,0,0,0-.243-2.3c-2.227-2.628-2.452-5.917-3.039-9.054-.94-5.024-4.863-8.314-9.822-8.081-3.514.165-6.946-.542-10.435-.295-4.321.306-8.459,1.548-12.674,2.377a38.547,38.547,0,0,1-7.185.847,5.108,5.108,0,0,1-5.493-5.007,7.8,7.8,0,0,0-.849-3.342c-1.375-2.452-.994-3.047,1.864-3.165a5.531,5.531,0,0,1,1.07.079,2.963,2.963,0,0,1,.791.265c2.872,2.6,6.037,3.022,9.644,1.256a4.229,4.229,0,0,1,2.313-.441,3.839,3.839,0,0,1,1.22.356c3.1.131,6.076,1.483,9.254.8,1.739-.375,3.53-.109,5.3-.256a52.027,52.027,0,0,1,6.969.194,10.582,10.582,0,0,0,5.643.1c6.71-.3,13.443-.3,20.1-1.33,6.407-.994,12.682-2.332,18.235-6.029,12.9-8.584,16.3-28.218,5.458-40.419-6.106-6.872-13.848-10.254-22.642-11.84-4.009-.723-8.046-.5-12.078-.593-1.4-.063-2.508-.925-3.772-1.364-2.324-.806-3.109-2.453-3.37-4.911-.58-5.465-.008-10.913-.165-16.391a9.3,9.3,0,0,1-3.032,7c-1.569,1.48-2.712,1.94-4.643.763-2.831-1.725-2.459-1.42-3.766,1.61-1.988,4.61-2.856,9.731-6.527,13.667-1.44,1.545-2.466,3.673-3.826,5.44a4.571,4.571,0,0,1-1.214,1.42c-1.307.723-2.581,2.071-4.157,1.4-1.632-.7-1.136-2.482-1.143-3.851q-.064-14.275-.011-28.55a33.05,33.05,0,0,0-.75-7.475c-.633-2.792-1.234-5.626-.587-8.529.473-2.123-.068-3.725-2.324-4.449-.693-.222-1.512-.591-1.459-1.383.068-1.027,1.124-.985,1.877-1.162A24.777,24.777,0,0,1,4294.779,29.85Z" transform="translate(-8658.93 -1185.264)" fill="#e4f3fd"/>
      <path id="Trazado_903115" data-name="Trazado 903115" d="M3132.571,108.848c-.629.006-1.261-.028-1.884.031-.578.055-1.365-.3-1.643.5-.207.6.364.974.748,1.308a3.546,3.546,0,0,1,1.143,2.874c.078,4.36,1.448,5.265,5.822,5.191,5.137-.087,9.9-1.819,14.866-2.6,2.568-.406,5.21-1.13,7.917-.333a7.5,7.5,0,0,0,4.186.142c2.792-.746,5.742.123,8.059,1.286a10.466,10.466,0,0,1,4.353,5.317,14.957,14.957,0,0,1,.639,3.407c.415,2.829.918,5.586,2.946,7.845.725.807,1.15,1.955-.419,2.578-.965.083-1.427-.646-1.945-1.243-5.657-6.527-13.109-9.585-21.4-10.835a42.675,42.675,0,0,0-23.458,2.811,24.167,24.167,0,0,0-9.364,6.621,8.886,8.886,0,0,1-3.5,2.4c-11.223,4.832-16.249,14.309-14.07,26.341a48.627,48.627,0,0,0,3.514,11c.581,1.315,1.074,2.665,1.661,3.975,2.326,5.2,1.7,10.125-1.217,14.9a48.464,48.464,0,0,0-3.837,7.095c-1.7,4.225-1.1,8.257.7,12.25a2.789,2.789,0,0,1-.629,2.005c-6.23,7.909-8.631,17.389-11.04,26.866-.968,5.046-2.278,10.023-2.964,15.123a6.167,6.167,0,0,1-.885,2.757c-1.214.995-2.234.051-3.187-.449-5.011-2.628-10.275-4.726-15.289-7.344a5.715,5.715,0,0,0-4.111-.846c-2.065,1.259-.962,2.885-.318,4.235,2.618,5.492,5.157,11.021,7.7,16.548a37.617,37.617,0,0,1,2.308,5.137c.986,3.416,3.6,5.365,6.283,7.289-.43,6.781,2.785,11.209,8.844,13.886a57.652,57.652,0,0,0,14.125,4.187c1.368.222,2.956.126,3.522,1.889-.355,2.559-1.973,4.571-3.02,6.821a109.408,109.408,0,0,0-9.534,35.83,75.755,75.755,0,0,0-.482,9.087c-.387,25.818,4.9,50.7,12.342,75.235.754,2.485,1.468,4.983,2.288,7.449a3.661,3.661,0,0,1,.243,2.861h-63.055c-1.045-1.212-.843-2.7-.845-4.111-.021-9.5.086-19.009-.03-28.512a507.3,507.3,0,0,0-4.553-60.523c-.93-11.306-2.438-22.555-3.059-33.9-.365-6.68-.341-13.4-1.391-20.044a6.321,6.321,0,0,1,.279-3.435c1.165-1.551,2.577-.77,3.893-.341a23.166,23.166,0,0,0,13.233.8c5.822-1.507,7.784-4.69,6.466-10.6a97.417,97.417,0,0,0-3.269-10.242,184.483,184.483,0,0,1-7.24-26.7c-1.132-5.916-.745-11.985-.244-17.948a77.64,77.64,0,0,0-.573-18.2c-1.2-7.956-4.478-11.172-12.407-12.7-3.785-.727-7.628-1.038-11.46-1.438-1.832-.54-3.709-.278-5.566-.313-3.768-.071-4.482-.848-4.174-4.642a14.4,14.4,0,0,1,.449-2.348,11.636,11.636,0,0,1,1.046-4.363c1.122-1.1,2.39-.4,3.553-.184,3.327.613,5.962-.247,7.967-3.093a24.855,24.855,0,0,0,3.272-6.145,53.557,53.557,0,0,1,2.34-5.425c.8-1.689,1.8-3.045,3.768-3.51,1.768-.417,1.94-1.558,1.186-3.079-.587-1.184-1.805-2.057-1.775-3.548a1.741,1.741,0,0,1,.71-1.371c2.069-.7,1.9-2.225,1.4-3.867-.174-1.251-.327-2.5.565-3.577a3.315,3.315,0,0,0,1.414-3.407c-.1-3.171.526-6.317.269-9.489a3.575,3.575,0,0,1,1.611-1.707c3.939-2.818,4.569-5.744,2.1-9.8-.422-.693-1.029-1.4-.656-2.2,1.463-3.162.471-6.059-.821-8.948a6.328,6.328,0,0,0-5.3-4.639c-2.175-.4-4.43-.558-5.554-3.11-.539-1.224-1.7-.429-2.552.06-3.291,1.892-5.519.82-6.2-3a22.818,22.818,0,0,1-.168-4.03q-.005-29.75.018-59.5a36.355,36.355,0,0,0-.987-8.792c-1.08-4.415-4.371-6.488-8.869-5.442-1.216.283-2.356.934-3.655.8-.524-.053-1.13-.124-1.284-.761-.117-.483.266-.825.581-1.128a15.508,15.508,0,0,1,3.565-2.393,149.222,149.222,0,0,1,25.357-10.311c6.391-2.025,12.985-3.138,19.455-4.793,5.291-1.291,10.7-1.9,16.075-2.667.917-.132,1.806-.1,2.249-1.105h55.51c1.826,1.806,4.266,1.257,6.44,1.556a40.546,40.546,0,0,1,6.495,1.14c-1.872,1-4.07.662-6.023,1.345.141.677.607.7,1.041.792,2.808.564,3.965,1.785,3.26,4.389a16.137,16.137,0,0,0,.278,8.462,39.1,39.1,0,0,1,.9,10.108c.005,8.97-.031,17.941.044,26.911.009,1.115-.806,3.083.746,3.212,1.328.111,2.929-.949,4.046-2.142,2.278-2.435,3.032-6.008,5.994-7.957a2.839,2.839,0,0,0,.8-1.636,28.35,28.35,0,0,1,2.674-6.871,10.6,10.6,0,0,0,1.4-4.829c.072-2.174,1.063-2.511,2.844-1.217.884.642,2.167.595,2.787,1.729a.735.735,0,0,0,1.173.039c.966-2.153,4.088-2.746,3.954-5.752-.068-1.52.436-3.065.8-5.326,1.336,3.381,1.783,6.22,1.129,8.955-1.017,4.25.673,8.353.224,12.534a1.314,1.314,0,0,0,.819,1.3c1.842.859,3.553,2.044,5.636,2.316-.066,1.168-1.036,1.1-1.775,1.21-11.733,1.738-19.973,8.368-25.823,18.367a55.721,55.721,0,0,1-4.242,6.232c-5.5,7.017-12.9,9.2-21.491,8.637-10.286-.676-20.427-3.089-30.819-2.487-6.427.372-12.667,1.447-18.4,4.569-9.47,5.158-13.844,13.7-15.767,23.849-1.563,8.249-.356,16.288,2.034,24.187,2.632,8.7,10.716,22.963,17.086,30.374a52.522,52.522,0,0,1,1.154-20.157c2.894-10.905,7.933-20.584,16.566-28.112,6.3-5.5,13.506-8.78,22.032-8.68,2.245.026,4.493-.059,6.735.037C3130.965,107.674,3132.223,107.358,3132.571,108.848Z" transform="translate(-7512.31 -1158.661)" fill="#eaf6fd"/>
      <path id="Trazado_903116" data-name="Trazado 903116" d="M1585.19,41.329c-4.438,1.955-9.3,2.26-13.911,3.606a155.223,155.223,0,0,0-21.42,7.648A88.428,88.428,0,0,0,1538.4,58.52a4.284,4.284,0,0,0-1.785,1.52c1.175.408,2.114-.15,3.121-.539,5.562-2.151,9.658.238,11.109,6a37.377,37.377,0,0,1,.933,9.3q-.014,30.163,0,60.325a9.959,9.959,0,0,0,.433,3.708c.989,2.571,2.423,3.029,4.484,1.322,2.367-1.96,3.465-1.679,4.332,1.08.412,1.312,1.682,1.271,2.645,1.351,2.948.246,5.487,1.086,7.17,3.734.472.742,1.381,1.316.342,2.247-1.032.338-1.668-.455-2.42-.874-3.429-1.913-6.915-2.44-10.492-.439a2.422,2.422,0,0,1-3.158-.269c-4.253-3.664-10.841-2.734-14.361,1.949-.378.5-.665,1.068-1.034,1.575-1.306,1.8-1.941,1.907-3.24.173-1.932-2.579-4.393-2.873-7.194-2a17.24,17.24,0,0,0-5.441,2.9c-3.143,2.442-3.838,5.054-2.121,8.715.685,1.461.355,2.134-1.081,2.576a28.6,28.6,0,0,0-4.785,1.788,8.4,8.4,0,0,0-4.891,8c-.061,6.185,2.125,11.8,4.231,17.42,2.271,6.058,4.632,12.065,5.341,18.565.305,4.284-.8,8.3-2.311,12.241-1.032,2.684-3.565,2.617-5.789,3.106a132.043,132.043,0,0,0-14.73,2.711c-9.918,1.685-17.529,6.861-22.187,15.727-9.105,17.335-16.5,35.365-20.828,54.547-.905,6.435-2.421,12.837-1.427,19.393,1.227,8.094,4.245,11.3,12.215,13.248,1.389.339,2.8.58,4.2.858.974.193,1.968.367,2.286,1.544-.239,5.391-1.562,10.635-2.121,15.987-.847,8.116-1.656,16.231-1.864,24.394a24.875,24.875,0,0,0,.417,5.359c-.1,5.289-.145,10.6-.54,15.852-.4,5.282-.495,10.578-.753,15.853-.439,8.955-.951,17.912-1.325,26.873-.461,11.026-1.011,22.041-1.078,33.081-.016,2.62.086,5.4-1.312,7.857h-33.414c-1.049-1.211-.855-2.7-.858-4.115-.021-9.429-.153-18.861.025-28.287.233-12.3-.38-24.594-.708-36.879-.365-13.708-1.13-27.422-2.435-41.089-.187-1.958.259-3.957-.383-5.884-.738-10.429-1.771-20.837-2.474-31.272-.258-3.831-.3-7.684-.845-11.5a13.962,13.962,0,0,1,0-4.276c.294-1.526,1.468-2.115,2.758-2.617,2.993-1.166,6.067-2.129,8.978-3.493,1-.47,2.663-.7,2.562-1.991-.106-1.353-1.774-1.145-2.846-1.459a27.726,27.726,0,0,0-8.728-1.033c-1.333.041-2.724,0-3.532-1.4-1.329-7.864-1.86-15.829-3.043-23.714-1.277-8.511-2.653-17-4.052-25.5a158.671,158.671,0,0,0-5.209-20.569c-.224-.509-.409-1.035-.6-1.556a17.027,17.027,0,0,0-1.7-3.854c-3.48-6.714-9.326-10.395-16.264-12.678-2.075-.56-2.951-2.043-3.175-4.059-.232-2.1-.543-4.182-.771-6.278-.013-.426-.042-.852-.027-1.278.241-3.782.309-3.834,3.961-2.958.523.125,1.043.267,1.572.362,4.626.83,6.4.121,8.566-4.021a49.69,49.69,0,0,0,4.317-12.115c.415-1.84,1.018-3.335,3.116-3.92,1.825-.509,1.314-1.815.578-2.984-.991-1.573-2.407-2.956-2.213-5.046a6.164,6.164,0,0,0-.541-3.329,13.715,13.715,0,0,1,.254-3.012c.475-.984-.168-1.826-.36-2.728-.242-3.5-1.585-6.805-1.754-10.314,2.733-3.363,5.875-6.121,10.329-6.924a3.053,3.053,0,0,1,1.591,1.741c5.144,10.314,13.894,15.531,24.836,17.828,6.408,1.345,12.864,2.472,19.227,4.028,12.547,3.069,17.547,10.864,18.479,22.669.156,1.972-.675,3.863-.531,6.065,9.882-9.827,18.371-20.335,22.252-33.864a34.461,34.461,0,0,0,1.69-11.394,6.438,6.438,0,0,1,1.825-4.871c5.168-5.768,9.017-12.24,10.649-19.935a32.452,32.452,0,0,0,.076-13.331c-1.724-8.467-7.356-13.5-15.136-16.426a59.116,59.116,0,0,0-11.135-3.093c-.9-.15-2.07.031-2.419-1.258a5.3,5.3,0,0,0,4.589-2A160.688,160.688,0,0,1,1525.477,63.2c16.8-9.924,34.687-17.192,53.947-20.83C1581.344,42.009,1583.172,41.154,1585.19,41.329Z" transform="translate(-6036.109 -1195.666)" fill="#f0f8fd"/>
      <path id="Trazado_903117" data-name="Trazado 903117" d="M7274.592,1336.11c.774,6.778,6.3,10.905,9.262,16.476,5.843,10.983,10.506,22.287,12.333,34.693a92.7,92.7,0,0,1,1.447,15.965c-.365,13.326-2.6,26.316-9.01,38.24-1.233,2.293-1,3.947.373,6.124a164.38,164.38,0,0,1,16.276,34.621,184.44,184.44,0,0,1,7.959,33.538,199.806,199.806,0,0,1,1.64,38.842,197.178,197.178,0,0,1-4.824,34.917,205.135,205.135,0,0,1-11.934,35.822,232.864,232.864,0,0,1-14.939,27.623h-22.1c-.98-1.338-.143-2.591.221-3.837,5.185-17.753,10.261-35.534,13.9-53.686a108.013,108.013,0,0,0,2.342-26.214c-.676-14.719-4.884-28.061-15.716-38.688a3.661,3.661,0,0,1-1.514-2.74c.943-3.23.669-6.6.885-9.879.75-11.424,3.375-22.5,5.694-33.639,2.632-12.635,5.654-25.187,7.2-38.033,1.26-10.456.879-20.735-2.458-30.8-1.709-5.254-4.611-9.488-9.977-11.605-2.449-1.071-5.084-.489-7.612-.86a104.469,104.469,0,0,0-10.514-2.26,8.241,8.241,0,0,0-2.121-.312,2.605,2.605,0,0,1-2.756-2.4,59.61,59.61,0,0,1-.609-18.95c2.123-4.636,6.168-7.076,10.553-9.064,5-2.268,9.9-4.657,13.658-8.842.918-1.023,1.854-2.029,1.5-3.542-.384-1.622.456-2.329,1.849-2.683a9.9,9.9,0,0,0,2.528-.886c2.685-1.531,3.231-4.1,1.377-6.559-.27-.358-.6-.667-.894-1-2.277-2.593-2.021-3.432,1.251-4.127,2.573-.547,3.595-1.638,4.009-4.315C7273.98,1337.352,7273.932,1336.6,7274.592,1336.11Z" transform="translate(-11348.757 -2371.355)" fill="#dcf0fd"/>
      <path id="Trazado_903118" data-name="Trazado 903118" d="M774.716,1887.379c7.083,2.106,12.876,5.829,16.063,12.817a1.389,1.389,0,0,1-1.062,1.641c-2.284.8-3.052,2.681-3.36,4.784-1.622,11.073-2.754,22.131-1.979,33.4.681,9.905.176,19.878.157,29.822,0,1.914-1.1,3.363-1.817,4.976-1.713,4.094-5.592,5.663-9.134,7.411-6.726,3.318-6.687,1.514-4.078,9.746.4,1.277.909,2.527,1.249,3.82.485,1.841,1.39,2.277,3.111,1.35a38.286,38.286,0,0,1,6.2-2.519c.992-.328,2.017-.861,3.066-.1.351,1.583-.95,2.171-1.835,2.97-1.049.947-2.028,1.957-1.434,3.467,2.05,5.212,2.142,10.747,2.354,16.174.294,7.509.756,15.076-.874,22.537-.44,2.017-.8,4.056.033,6.095a1.811,1.811,0,0,1-.261,1.794c-3.111,1.733-6.593,1.3-9.931,1.679-2.3.263-4.648-.433-6.923.317-1.34.595-1.234,1.816-1.338,2.98-.652,7.362-1.746,14.619-5.308,21.252-1.274,2.372-2.534,4.778-4.679,6.51-1.523,1.23-1.368,2.776-1.087,4.416q2.5,14.587,5.3,29.121c2.179,11.365,4.162,22.764,6.259,34.142.174.945.55,1.934-.146,2.85h-1.078a4.956,4.956,0,0,1-1.165-2.669c-4.527-24.231-9.418-48.4-13.334-72.738a184.432,184.432,0,0,1-2.434-24.052c-.055-1.935-.84-2.712-2.683-2.889-2.764-.265-5.517-.645-8.284-.883-1.07-.092-2.2-.082-2.727-1.306-.162-4.75.946-9.4,1.15-14.125.177-4.106.672-8.206,1.2-12.287.215-1.665-.412-1.447-1.6-1.281-3.978.558-7.908,1.589-11.976,1.344a81.108,81.108,0,0,1-11.43-1.1c-.616-.077-1.285-.3-1.317-1.1a1.4,1.4,0,0,1,1.112-1.368c2.53-.779,3.18-2.848,3.835-5.078,4.6-15.659,8.652-31.5,14.634-46.717,4.571-11.627,7.82-23.666,11.556-35.552,1.421-4.521,2.757-9.112,3.782-13.722,1.055-4.744-.976-9.131-3.548-13.143a17.55,17.55,0,0,1-1.592-2.489c-.215-.5-.422-1.109.094-1.48.5-.359,1.048-.012,1.458.33,1.822,1.515,2.959,3.583,4.365,5.438.724.955,1.29,2.72,2.574,2.314,1.072-.339.444-2.077.486-3.189.111-2.953-.155-5.919.45-8.855.362-1.757-.332-3.3-1.025-4.9-.657-1.518-2.051-3-.968-4.9,1.368-.127,2.037.954,2.905,1.688,6.177,5.22,13.267,6.737,21.112,5.226C771.347,1890.851,772.946,1888.991,774.716,1887.379Z" transform="translate(-5419.516 -2869.218)" fill="#193271"/>
      <path id="Trazado_903119" data-name="Trazado 903119" d="M6208.416,3092.172H6190.63a3.572,3.572,0,0,1-.571-3.06c1.739-13.965,3.386-27.948,4.449-41.977a214.236,214.236,0,0,0,.333-30.346,189.645,189.645,0,0,0-5.81-36.585,145.827,145.827,0,0,0-6.64-18.469c-.939-2.254-2.988-3.821-3.823-6.14a1.451,1.451,0,0,1,.106-.891c1.091-.9,2.361-.675,3.586-.489,1.521.231,2.179-.425,2.2-1.878.06-4.442.6-8.955-2.458-12.833a3.536,3.536,0,0,1-.816-3.5,3.169,3.169,0,0,1,2.251-1.31c2.728-.53,4.06-2.258,4.657-4.876.456-2,1.041-3.969,1.479-5.978.22-1.008.251-2.182,1.433-2.708a1.16,1.16,0,0,1,.981.333c3.509,4.022,8.008,3.771,12.629,2.9.893-.168,1.911-.61,2.584.035,1.222,1.17,1.828-.1,2.683-.429,1.34,1.21.807,2.826.951,4.3a79.2,79.2,0,0,1-2.469,18.615c-1.423,5.786-4.393,10.376-9.98,12.921-1.535.7-1.772,1.448-.687,2.829,10.629,13.514,14.517,29.327,15.887,46.076.558,6.817.516,13.62.416,20.424-.131,8.868-1.043,17.7-1.829,26.532q-1.249,14.053-2.494,28.106C6209.426,3086.577,6209.732,3089.509,6208.416,3092.172Z" transform="translate(-10387.173 -3810.558)" fill="#356cb7"/>
      <path id="Trazado_903120" data-name="Trazado 903120" d="M6370.21,3164.963c-.113-6.107.88-12.134,1.349-18.2.923-11.968,2.044-23.921,2.989-35.887a182.559,182.559,0,0,0,.021-30.088c-1.35-15.668-5.012-30.57-14.54-43.5-1-1.362-2.088-2.662-3.3-4.2,10.286-2.764,12.522-11.012,14.011-19.766a102.065,102.065,0,0,0,1.217-12.027c1.437.237,1.011,1.478,1.159,2.316.9,5.048,2.1,10,4.752,14.448,2.7,4.535,6.549,7.51,11.944,8.162a12.227,12.227,0,0,0,7.285-1.3c.713-.175,1.458-.609,2.048.242a23.3,23.3,0,0,1,.216,8.777,16.249,16.249,0,0,0,.274,6.1,7.356,7.356,0,0,1-1.282,3.5c-5.652,9.76-8.066,20.433-9.031,31.543-1.122,12.907-.289,25.776.478,38.66.939,15.76,2.707,31.426,4.843,47.059.187,1.372.782,2.824-.179,4.173Z" transform="translate(-10548.968 -3883.349)" fill="#dff1fd"/>
      <path id="Trazado_903121" data-name="Trazado 903121" d="M5730.565,3245.6h-22.1a4.141,4.141,0,0,1-1.259-4.178,73.359,73.359,0,0,0,.4-11.02c.03-4.216.095-8.42.458-12.634.424-4.918-.721-9.827-.471-14.779.569-11.286.133-22.588.158-33.876.026-12.378-.167-24.769-.06-37.15.058-6.624.5-13.26.694-19.89.128-4.282.618-8.594-.206-12.88a8.688,8.688,0,0,0-1.091-3.28,5.509,5.509,0,0,1,1.47-5.55c1.8-.84,2.672.491,3.492,1.622,1.576,2.177,3.145,4.359,4.8,6.476,1.391,1.78,2.93,3.411,5.3,3.877a34.867,34.867,0,0,0,8.915,5.053,1.712,1.712,0,0,1,1.376,1.976c-.79,6.745-2.865,13.366-2.113,20.25,1.114,10.183-.082,20.431.984,30.617.469,4.474-.637,8.926-.564,13.418.033,2.057.147,4.12.062,6.181-.076,1.863-.736,3.313-2.637,3.945-2.1.553-2.7,2.049-2.737,4.057-.087,4.861.736,9.64,1.288,14.435,1.493,12.985,2.844,25.986,4.515,38.95C5731.436,3242.716,5731.649,3244.277,5730.565,3245.6Z" transform="translate(-9958.906 -3963.989)" fill="#52b3de"/>
      <path id="Trazado_903122" data-name="Trazado 903122" d="M5477.041,3145.871c2.7,3.033,2.252,6.852,2.021,10.333-.193,2.9-.105,5.806-.268,8.7-.967,17.2-.771,34.422-.585,51.636.057,5.346-.427,10.684-.076,16.024.475,7.227-.112,14.451-.045,21.678.036,3.764.688,7.526.489,11.238-.424,7.881-.322,15.759-.506,23.637-.056,2.384-.9,4.751.058,7.126h-10.24c-2.814-9.342-5.937-18.586-8.428-28.031a176.283,176.283,0,0,1-5.995-55.313,112.984,112.984,0,0,1,11.039-41.813,174.8,174.8,0,0,1,8.488-16.192,3.95,3.95,0,0,0,.787-2.514c-.227-1.464,1.009-2.427,1.266-3.726.149-.337.33-.658.5-.982C5476.053,3147.076,5475.756,3145.813,5477.041,3145.871Z" transform="translate(-9728.565 -4014.626)" fill="#57c2e6"/>
      <path id="Trazado_903123" data-name="Trazado 903123" d="M3947.2,3926a305.273,305.273,0,0,1-12.385-47.186,184.147,184.147,0,0,1-3.153-38.462c1.086-1.066,2.483-.9,3.805-.9,9.042-.013,18.085-.043,27.126,0,6.411.408,6.4.409,7.3,6.825a22.253,22.253,0,0,1,.17,5.632c-1.029,8.939-.452,17.863-.04,26.807.238,5.172-.226,10.374-.374,15.553a200.906,200.906,0,0,0,1.3,27.879c.148,1.34.417,2.686-.579,3.848Z" transform="translate(-8346.921 -4644.389)" fill="#2e59a3"/>
      <path id="Trazado_903124" data-name="Trazado 903124" d="M1552.414,3513.65c.891,5.847,1.052,11.758,1.459,17.643,2.212,32.033,2.4,64.116,2.193,96.206-.006.9.022,1.792.035,2.687h-16.168c-1.338-2.463-1.3-5.208-1.325-7.853-.115-12.284-.894-24.544-1.266-36.818-.274-9.034-.443-18.1-1.417-27.108-.142-1.317.122-3.454-1.784-3.3-1.788.141-1.505,2.238-1.4,3.581.652,8.4,1.144,16.812,1.774,25.213.658,8.758,1.333,17.516,1.911,26.28.377,5.724,1.026,11.428,1.217,17.165.033.978.3,1.976-.4,2.844h-8.623c-1.728-3.1-1.838-6.57-1.871-9.921-.152-15.333-.287-30.671.012-46,.217-11.109-.311-22.2-.158-33.307.063-4.553-1.3-9.054-1.006-13.652.046-1.8,1.512-1.74,2.685-1.976a88.227,88.227,0,0,0,17.4-5.3C1548.687,3518.736,1551.872,3517.573,1552.414,3513.65Z" transform="translate(-6162.233 -4348.573)" fill="#2c54a1"/>
      <path id="Trazado_903125" data-name="Trazado 903125" d="M7128.348,3538.729h-12.934a37.479,37.479,0,0,1-.585-9.872,110.178,110.178,0,0,0-.135-14.743c-.529-9.418.087-18.808-.242-28.212-.385-10.989-1.156-22.031.434-33.032a43.426,43.426,0,0,0-.055-11.534c-.155-1.92,1-3.416,1.647-5.079,2.854-6.673,5.829-13.3,8.5-20.051.525-1.33,1-2.743,2.669-3.117,2-.068,4.022-.488,5.967.359a71.108,71.108,0,0,1,9.9,29.281,130.137,130.137,0,0,1-.6,28.386c-2.52,21.873-7.815,43.185-13.117,64.494A5.888,5.888,0,0,1,7128.348,3538.729Z" transform="translate(-11236.506 -4257.114)" fill="#18306f"/>
      <path id="Trazado_903126" data-name="Trazado 903126" d="M7270.72,3537.508c2.115-8.755,4.278-17.5,6.331-26.269,2.864-12.231,5.259-24.567,7-37a149.613,149.613,0,0,0,1.647-21.85c-.106-13.322-2.136-26.325-9.526-37.881a1.532,1.532,0,0,1-.069-1.932,2.065,2.065,0,0,1,1.624-.822,89.924,89.924,0,0,1,11.254.007,1.969,1.969,0,0,1,1.6.851c8.883,8.375,14.662,18.439,16.669,30.565a93.554,93.554,0,0,1-.168,31.061c-3.533,20.893-9.567,41.166-15.5,61.461-.172.59-.26,1.205-.387,1.809Z" transform="translate(-11378.878 -4255.893)" fill="#0d215a"/>
      <path id="Trazado_903127" data-name="Trazado 903127" d="M5934.633,3353.3a2.4,2.4,0,0,0,2.184-2.854c-.391-6.155.734-12.305.42-18.4-.447-8.69.029-17.386-.515-26.042-.422-6.718-.786-13.353.613-19.985.375-1.781,1.469-3.461.635-5.436-.335-.795.722-1.135,1.037-1.748a2.645,2.645,0,0,1,2.543-.211,17.447,17.447,0,0,0,9.954-.46c1.921-.587,3.95-1.189,5.833.252q-.011.241-.025.483c.409,8.319.2,16.68,1.74,24.921a19.1,19.1,0,0,1,.178,3.761c-.1,7.8-.015,15.606-.023,23.409-.015,14.082-.969,28.139-1.247,42.22-.252,12.725-.975,25.447-.9,38.187.009,1.5.261,3.083-.841,4.385h-15.09c-1.219-1.718-1.171-3.786-1.235-5.691-.376-11.187-1.629-22.31-2.367-33.469-.4-5.977-.845-11.96-1.482-17.926C5935.846,3356.782,5934.563,3355.235,5934.633,3353.3Z" transform="translate(-10165.7 -4134.168)" fill="#489ed4"/>
      <path id="Trazado_903128" data-name="Trazado 903128" d="M4536.809,3900.068h-19.94a27.814,27.814,0,0,1-1.357-8.145c.011-4.747-.2-9.495.432-14.237.574-4.3-.4-8.58-.481-12.881-.3-15.606.96-31.172,1.115-46.765.032-3.236.042-3.236-3.124-3.362a5.441,5.441,0,0,1-2.865-.569.714.714,0,0,1-.22-.9c1.716-1.133,3.652-.461,5.48-.669,9.249-.363,18.5-.776,27.717-1.607a5.517,5.517,0,0,1,3.386.471,3.863,3.863,0,0,1,.971,2.709,146.894,146.894,0,0,1,.612,29.493c-1.091,17.269-4.84,34.041-9.212,50.7C4538.793,3896.323,4538.772,3898.645,4536.809,3900.068Z" transform="translate(-8872.396 -4618.454)" fill="#26488c"/>
      <path id="Trazado_903129" data-name="Trazado 903129" d="M2541.726,3839.207h-14.551c-.8-1.208-.258-2.446-.035-3.649,1.6-8.65,3.544-17.233,4.985-25.918,1.158-6.977.813-13.967.461-20.944a143.16,143.16,0,0,1,.026-17.472,86.7,86.7,0,0,0-.852-21.469,4.1,4.1,0,0,0-2.079-2.961c-.906-.546-1.958-1-2.088-2.272.842-1.039,1.947-.609,2.949-.459,3.315.5,6.62,1.06,9.919,1.665,3.963-.125,7.847.634,11.759,1.052,8.1.865,16.246,1.065,24.352,1.823a31.142,31.142,0,0,0,10.363.071,6.719,6.719,0,0,1,2.889-.054c1.673.623,1.491,1.8.468,2.671-4.089,3.477-3.845,8.025-3.315,12.651a41.326,41.326,0,0,1,.287,4.56c.024,6.976-.587,13.948-.415,20.913a146.322,146.322,0,0,0,1.83,19.8c.661,4.076,1.029,8.187,1.573,12.277a7.863,7.863,0,0,1-.232,4.506c-.527.635-.946.294-1.216-.217a9.994,9.994,0,0,1-1.113-3.3c-1.728-12.62-4.359-25.07-7.115-37.493a115.765,115.765,0,0,0-5.275-16.929,24.806,24.806,0,0,0-4.014-6.655c-3.232-3.953-7.6-4.484-12.224-3.646-2.205.4-3,2.444-3.464,4.408-1.229,5.239-2.049,10.555-2.877,15.869a79.97,79.97,0,0,0-1.038,8.522c-.742,1.109-.578,2.421-.793,3.641-2.688,15.179-5.064,30.412-7.79,45.584A5.58,5.58,0,0,1,2541.726,3839.207Z" transform="translate(-7071.33 -4557.593)" fill="#183170"/>
      <path id="Trazado_903130" data-name="Trazado 903130" d="M2790.482,3909.7c-1.045-3.146.374-6.144.687-9.185a123.445,123.445,0,0,1,2.305-13.4c1.547-7.151,8.036-9.664,14.346-5.732,3.776,2.353,5.857,6.008,7.406,9.932,4.01,10.156,6.326,20.774,8.24,31.495,1.219,6.828,2.641,13.621,3.839,20.453.371,2.114.441,4.273,1.487,6.216,1.667,4.151,3.043,8.351,2.159,12.928h-25.869c-1.781-2.2-1.861-5-2.577-7.545q-5.749-20.419-11.686-40.783C2790.412,3912.673,2789.592,3911.234,2790.482,3909.7Z" transform="translate(-7310.436 -4680.793)" fill="#0d215a"/>
      <path id="Trazado_903131" data-name="Trazado 903131" d="M4292.279,3834.47h7.985c-1.091,1.754-.908,3.4-.866,5.029.2,7.786-.355,15.566-.715,23.32a201.8,201.8,0,0,0-.2,23.86c.638,8.794-.542,17.486-.246,26.231.089,2.635,1.746,5.134.61,7.837h-21.019c-.422-4.873-.934-9.74-1.408-14.6a123.278,123.278,0,0,1-.029-16.651c.049-1.267-.272-2.442-.208-3.684.154-3.028.551-6.127.406-9.068-.375-7.579.005-15.18-.748-22.747a17.79,17.79,0,0,1,.6-5.27c.812-3.864.081-7.635-.5-11.415-.257-1.665-1.116-2.672-3.071-2.273a12.442,12.442,0,0,1-2.682-.022c.482-1.48,1.8-1.263,2.88-1.3,3.009-.089,6.022-.09,9.033-.019,2.386.146,4.776.02,7.164.079C4290.31,3833.8,4291.412,3833.64,4292.279,3834.47Z" transform="translate(-8654.378 -4639.133)" fill="#2b5097"/>
      <path id="Trazado_903132" data-name="Trazado 903132" d="M6168.486,3429.357c0-7.53-.229-15.07.051-22.589.49-13.131.931-26.256,1.159-39.4.146-8.373,1-16.746.952-25.146-.031-5.305-.158-10.617.031-15.916.25-7-1.141-13.84-1.615-20.765-.244-3.558.33-7.155-.551-10.689-.248-1,.685-1.595,1.061-2.383,6.39,7.243,8.589,16.4,11.128,25.284a164.393,164.393,0,0,1,5.707,36.12c.371,6.637.565,13.268.293,19.867-.329,8-.835,16.018-1.919,23.988-1.009,7.413-1.528,14.891-2.295,22.337-.319,3.1-1.07,6.15-1.067,9.288Z" transform="translate(-10377.963 -4147.742)" fill="#4394ce"/>
      <path id="Trazado_903133" data-name="Trazado 903133" d="M6703.067,3537.347q-3.729-24.617-5.419-49.458c-.674-9.761-1.073-19.529-1.046-29.316.044-16.3,2.535-31.987,11.291-46.149a1.951,1.951,0,0,1,1.621-.821c4.192-.089,8.394-.524,12.566.267,1.522,1.046.988,2.509.713,3.866-1.007,4.961-2.3,9.856-3.513,14.768-2.847,11.6-5.829,23.172-9.586,34.526a117.438,117.438,0,0,0-2.613,22.083c-.031,2.766-.819,5.489-.4,8.289.495,3.3,1.015,3.87,4.339,4.374a11.328,11.328,0,0,1,3.678.671,6.669,6.669,0,0,1,3.2,5.878q-.12,13.6.545,27.175c.065,1.327.159,2.72-.827,3.849Z" transform="translate(-10857.573 -4255.732)" fill="#264a90"/>
      <path id="Trazado_903134" data-name="Trazado 903134" d="M3174.979,3857.765c-.638-3.615-1.282-7.229-1.909-10.846-.119-.688-.169-1.388-.25-2.082-.1-5.8-1.112-11.49-1.854-17.217-.537-4.149-.8-8.334-1.407-12.472-.7-4.772.281-9.579-.5-14.336-.384-2.347.5-4.6.568-6.93.168-5.471-.48-10.9-.551-16.358-.04-3.145.745-6.005,3.641-7.9.636-.417,2.135-1.3-.016-1.909a1.266,1.266,0,0,1,1.331-1.087,72.3,72.3,0,0,0,11.819-2.309,1.658,1.658,0,0,1,1.042.163c1.372,7.037,1.949,14.177,2.635,21.3,2.259,23.423,2.511,46.907,1.952,70.412a10.217,10.217,0,0,0,.2,1.576Z" transform="translate(-7654.461 -4576.151)" fill="#1f3a78"/>
      <path id="Trazado_903135" data-name="Trazado 903135" d="M961.917,3644.07c4.06.526,8.109,1.176,12.184,1.518,1.721.145,2.245.617,2.3,2.364a244.491,244.491,0,0,0,4.5,37.471q5.758,31.063,11.591,62.113a8.235,8.235,0,0,1,.062,1.073H974.221c-1.892-10.391-3.874-20.767-5.655-31.177-3.309-19.331-6.764-38.65-7.244-58.334A112.36,112.36,0,0,1,961.917,3644.07Z" transform="translate(-5649.876 -4466.995)" fill="#377dc8"/>
      <path id="Trazado_903136" data-name="Trazado 903136" d="M1337.659,3651.337c1.124,2.877.486,5.945.988,8.921,1.287,7.623.557,15.354.591,23.038q.131,29.1-.031,58.2c-.033,4.5,1.044,8.846,1.138,13.3H1322.56a89.849,89.849,0,0,1-.868-10.952q0-38.221.025-76.443c.007-3.691-.74-7.328-.6-11.007.084-2.157-1.831-2.415-2.914-3.47.826-.768,1.854-.483,2.794-.471a76.5,76.5,0,0,0,14.487-1.142A1.563,1.563,0,0,1,1337.659,3651.337Z" transform="translate(-5973.963 -4473.184)" fill="#2c5fb0"/>
      <path id="Trazado_903137" data-name="Trazado 903137" d="M2220.85,3789.917c.378-10.829.677-21.661,1.15-32.486.982-22.464,2.058-44.925,3.094-67.386a2.354,2.354,0,0,1,2.028-.416c3.225.66,6.46,1.274,9.666,2.027a2.24,2.24,0,0,1,1.68,1.193c2.937,4.589,2.651,9.816,2.481,14.84-.41,12.1.084,24.177.645,36.252.168,3.615-.532,7.145-.52,10.734.036,10.557.032,21.115.518,31.665a4.687,4.687,0,0,1-.8,3.578Z" transform="translate(-6793.569 -4508.303)" fill="#26488d"/>
      <path id="Trazado_903138" data-name="Trazado 903138" d="M6893.113,3812.135c-.051-10.463-.944-20.915-.5-31.381.1-2.43-1.685-3.621-2.74-5.311.951-.9,2.184-.626,3.31-.787,2.769-.4,5.174-1.377,6.636-3.968.809-1.434,1.083-2.676-.865-3.422-1.88-.721-2.653-2.2-2.9-4.14a114.024,114.024,0,0,1-.256-19.53c4.647-9.463,9.913-18.611,14.478-28.121.323-.673.612-1.561,1.685-1.429,1.021,4.16.777,8.4.349,12.56-.874,8.469-1.363,16.91-.413,25.4.386,3.443-.3,6.885.02,10.366.756,8.163-.19,16.356.231,24.576.242,4.72,1.088,9.707-.059,14.609-.552,2.357.691,4.917.442,7.448a6.733,6.733,0,0,1-.561,3.129Z" transform="translate(-11033.067 -4530.521)" fill="#203c7d"/>
      <path id="Trazado_903139" data-name="Trazado 903139" d="M2407.233,3821.772c.36-3.324-.822-6.589-.5-9.879.724-7.5-.291-14.969-.093-22.459.1-3.664.759-7.334.515-10.951-.55-8.139-.066-16.295-.582-24.4a131.783,131.783,0,0,1,.055-14.875,85.837,85.837,0,0,0-.534-10.413,4.153,4.153,0,0,0-1.408-2.54c-.471-.471-.877-.983-.047-1.513a33.876,33.876,0,0,1,11.271,1.3.8.8,0,0,1,.526.84c.277.337.49.865.84.982,2.876.967,3.957,2.87,4.292,5.941a117.167,117.167,0,0,1,.38,21.37,118.546,118.546,0,0,0,.179,16.082c.417,6.582.724,13.237-.323,19.836-1.634,10.3-3.887,20.47-5.944,30.683Z" transform="translate(-6960.011 -4540.158)" fill="#223f80"/>
      <path id="Trazado_903140" data-name="Trazado 903140" d="M4798.51,3891.609a340.742,340.742,0,0,0,8.157-34.561,193.205,193.205,0,0,0,3.114-41.556c-.121-4.087-.682-8.16-1.042-12.24.3-.192-.134-.022.179-.2,2.3-1.314,10.734-1.994,13.259-1.069,1.128,5.567,1.178,11.221,1.292,16.861.493,24.222-3.643,47.83-9.542,71.2-.13.516-.219,1.042-.328,1.563Z" transform="translate(-9134.098 -4609.994)" fill="#0f2460"/>
      <path id="Trazado_903141" data-name="Trazado 903141" d="M1190.624,3672.882c3.766.1,3.682.146,3.835,4.07,1.161,29.779.208,59.569.512,89.353.029,2.816,1.372,5.633.007,8.449h-4.85q-2.943-15.871-5.886-31.743-3.191-17.232-6.371-34.466c-.379-2.057-.269-3.585,1.731-5.277,4-3.38,5.714-8.38,7.188-13.269a57.776,57.776,0,0,0,2.246-15.027C1189.068,3673.855,1188.941,3672.705,1190.624,3672.882Z" transform="translate(-5846.381 -4493.14)" fill="#316dbb"/>
      <path id="Trazado_903142" data-name="Trazado 903142" d="M2699.167,4207.359c3.534,12.475,7.112,24.937,10.582,37.429,1.409,5.073,3.117,10.072,4.019,15.279h-24.252q4.337-25.74,8.673-51.479C2698.29,4208,2698.177,4207.241,2699.167,4207.359Z" transform="translate(-7219.121 -4978.453)" fill="#eef8fd"/>
      <path id="Trazado_903143" data-name="Trazado 903143" d="M1599.634,4025.537c-.8-6.825-1.156-13.685-1.637-20.536-.613-8.718-1.414-17.423-2.075-26.138-.432-5.7-.77-11.4-1.133-17.107-.2-3.12-.426-6.241-.516-9.365-.045-1.566.213-3.239,2.27-3.332,2.271-.1,2.424,1.666,2.557,3.332.631,7.936.815,15.891,1.157,23.84.419,9.744.6,19.5,1.114,29.229.356,6.69.219,13.407.959,20.077Z" transform="translate(-6224.628 -4743.922)" fill="#1c3a81"/>
      <path id="Trazado_903144" data-name="Trazado 903144" d="M5902.558,4101.27c2.94,2.793,2.312,6.6,2.663,10.039.876,8.58,1.475,17.188,2.15,25.787.411,5.235.987,10.471,1.057,15.712.048,3.669.7,7.281.63,10.941h-3.772c.069-6.272-1.281-12.406-1.839-18.619-.446-4.967-1.176-9.908-1.68-14.871-.846-8.338-2.332-16.612-2.46-25.022C5899.271,4102.956,5899.992,4101.379,5902.558,4101.27Z" transform="translate(-10133.626 -4882.135)" fill="#366fbe"/>
      <path id="Trazado_903145" data-name="Trazado 903145" d="M1731.474,599.57a122.063,122.063,0,0,1,12.717,3.243c14.811,5.145,19.15,16.575,16.695,30.447-1.455,8.224-5.678,15.021-11.18,21.114a4.082,4.082,0,0,0-1.428,3.013c.3,12.543-4.831,23.149-11.961,33a100.1,100.1,0,0,1-13.776,15.283c.523-3.922,1.051-7.364.6-10.924-1.231-9.634-6.67-16.227-16.119-18.622-5.814-1.474-11.692-2.77-17.6-3.769-13.168-2.226-23.663-8.091-29.5-20.688.838-2.185,3.017-2.027,4.707-2.466,1.767-.459,1.9-1.04,1.195-2.575a13.93,13.93,0,0,0-6.508-6.562c-.819-.431-2-.469-2.19-1.724.456-6.274,1.032-12.5,4.16-18.185,5.459-9.926,14.484-14.923,24.85-17.916,13.718-3.96,27.716-4.6,41.853-2.914C1729.141,599.464,1730.31,599.491,1731.474,599.57Z" transform="translate(-6281.7 -1701.559)" fill="#38e1fd"/>
      <path id="Trazado_903146" data-name="Trazado 903146" d="M627.531,1874.446a13.583,13.583,0,0,0,2.169,5.545,4.048,4.048,0,0,1,.549,3.352c-.789,4.273-.378,8.572-.506,12.858-.018.584.274,1.372-.5,1.65-.575.207-.906-.428-1.33-.727-2.347-1.655-3.29-4.416-5.109-6.493a9.545,9.545,0,0,0-3.045-2.736c.916,1.389,1.469,2.235,2.029,3.077,3.863,5.816,5.775,11.7,2.868,18.794-2.217,5.409-3.227,11.305-4.9,16.949q-4.827,16.315-10.738,32.274a289.876,289.876,0,0,0-9.474,30.121c-1.248,4.932-2.966,9.744-4.317,14.653-.667,2.425-2.852,2.646-4.658,3.671,4.109,1.362,8.412,1.051,12.418,2.309-6.611.805-13.032.136-19-2.954-2.84-1.471-5.022-3.712-5.512-7.128.238-3.2-.552-6.421.228-9.6.208-.848.12-2.185,1.026-2.3,1.34-.174.865,1.51,1.68,2.254,1.942-4.66,2.854-9.651,4.676-14.349,3.014-7.772,5.76-15.672,8.164-23.634,2.667-8.831,5.432-17.642,7.922-26.532,2.225-7.944,5.086-15.7,7.148-23.694,1.386-5.372,2.944-10.733,3.171-16.34a8.022,8.022,0,0,1,1.062-3.024,80.544,80.544,0,0,1,13.132-9.257C627.346,1873.352,627.956,1873.555,627.531,1874.446Z" transform="translate(-5302.175 -2859.017)" fill="#1e3b7d"/>
      <path id="Trazado_903147" data-name="Trazado 903147" d="M1066.845,1000.852c4.364,1.73,8.014,4.229,9.778,8.854.609,1.6.794,2.5-1.53,2.577a8.806,8.806,0,0,0-5.453,1.9c-3.762,1.439-6.75,4.045-9.824,6.521a5.552,5.552,0,0,1-3.186,2.317c-5.5,2.136-11.05,1.876-16.648.466a7.068,7.068,0,0,0-2.536-.622c-.18.538.2.86.393,1.232,2.527,4.906,2.185,7.4-1.584,11.357a20.951,20.951,0,0,1-4.724,3.96c-1.436.815-2.563.814-3.7-.68-2-2.62-3.7-3.182-5.655-2.24-2.276,1.093-3.182,3.49-2.4,6.455.993,3.781,3.524,6.116,7.059,7.55.876.356,2.369.32,1.836,2.025a11.731,11.731,0,0,1-8.42,5.913c-1.322-4.975-3.823-9.421-6.25-13.9-2.729-5.032-5.527-10.026-6.6-15.758-2.335-12.512,7.012-29.45,21.316-30.968a30.574,30.574,0,0,1,10.891,1.176,44.561,44.561,0,0,0,13.833,1.412A62.946,62.946,0,0,1,1066.845,1000.852Z" transform="translate(-5691.424 -2064.07)" fill="#0c2059"/>
      <path id="Trazado_903148" data-name="Trazado 903148" d="M606.383,1973.8a111.687,111.687,0,0,1-5.608,26.569c-2.436,7.477-4.048,15.244-6.805,22.589-3.085,8.218-4.781,16.808-7.686,25.085-3.34,9.511-7.189,18.889-9.619,28.723-.57,2.306-1.485,4.527-2.347,7.1-1.188-1.45-1.086-3-1.516-4.391-1.708,3.74-.124,7.831-1.495,11.548-1.557-5.539-.578-11.125-.2-16.683.117-1.741-.03-3.574.738-5.245a.89.89,0,0,1,.444.587c.12-.426-.175-.682-.394-.97.6-7.342,2.247-14.5,3.762-21.683,3.351-15.87,7.119-31.634,12.978-46.807,3.347-8.668,7.475-16.893,14.3-23.447C604.027,1975.726,605.23,1974.79,606.383,1973.8Z" transform="translate(-5295 -2950.381)" fill="#23458a"/>
      <path id="Trazado_903149" data-name="Trazado 903149" d="M1108.052,1598.937a23.507,23.507,0,0,0,8.012-5.871.465.465,0,0,1,.7.127c.616,1.08.392,2.274.447,3.427a15.952,15.952,0,0,0,11.141,14.682,4.923,4.923,0,0,1,2.117,1.116c.224,1.768.49,3.531.66,5.3.218,2.271.683,4.337,3.3,5.012-.927,3.122-3.479,4.3-6.283,4.754-8.318,1.358-15.849-.333-22.132-6.285-.451-.427-.951-.8-1.428-1.2q-.423-.633-.844-1.266C1108.045,1612.759,1109.133,1606.084,1108.052,1598.937Z" transform="translate(-5779.231 -2604.575)" fill="#fd9974"/>
      <path id="Trazado_903150" data-name="Trazado 903150" d="M584.913,3005.52c1.31.719,1.4,1.654.288,3.3l-.337-2.921A.251.251,0,0,1,584.913,3005.52Z" transform="translate(-5308.023 -3887.188)" fill="#1e3b7d"/>
      <path id="Trazado_903151" data-name="Trazado 903151" d="M6729.548,1098.414c.478,5.182-.5,6.239-7.2,7.521,1.411,2.589,4.981,4.154,3.975,7.7-1,3.516-4.1,4.149-7.5,4.672,1.841,3.012-.045,4.875-1.931,6.674-3.825,3.65-8.561,5.816-13.262,8.04-3.917,1.853-7.67,3.936-9.822,7.975a1.041,1.041,0,0,1-1.065-.674,59.606,59.606,0,0,0-4.127-8.145c-.981-1.72.192-2.384,1.616-2.9a10.3,10.3,0,0,0,6.926-6.972,4.976,4.976,0,0,0-.389-4.155c-1.179-1.964-2.724-2.063-3.867-.076a9.573,9.573,0,0,1-5.641,4.683c-1.841.566-3.58.6-4.935-1a3.988,3.988,0,0,1-.4-4.8c1.53-2.434,1.1-4.152-.829-6.118-1.776-1.807-1.625-4.242-1.152-6.625.423-2.13.1-2.4-2.022-1.856-2.1.542-3.944,1.717-5.958,2.486a8.35,8.35,0,0,1-6.048.364,5.16,5.16,0,0,0-5.048.707c-1.024.655-2.09,1.46-3.473,1.156-3.3.767-6.494,2.076-9.956,2.093-2.176.011-4.043-.414-3.981-3.157.026-1.166-.725-.955-1.418-1.046-4.609-.61-6.1-4.159-3.446-8.116.485-.723,1.478-1.141.529-2.449-2.3-3.178-2.379-6.008-.609-8.394,1.834-2.474,4.85-3.207,8.382-2.04-.563-5.974.531-8.059,4.787-9.117,5.936-1.477,10.359.271,12.152,4.9,6.3-5.776,13.224-5.331,20.3-1.867,8.724,4.272,17.708,7.379,27.59,7.058,1.047.186,2.1.349,3.14.561,2.868.583,4.327,2.139,4.212,4.926-.053,1.287.13,1.71,1.463,1.687C6725.037,1092.03,6727.74,1094.6,6729.548,1098.414Z" transform="translate(-10803.712 -2133.658)" fill="#0f2460"/>
      <path id="Trazado_903152" data-name="Trazado 903152" d="M4518.127,35.25c-5.485-1.04-11-1.946-16.437-3.194-1.814-.417-3.66-.639-5.466-1.086a3.914,3.914,0,0,1-2.35-1.106C4502.086,31.089,4510.319,32.216,4518.127,35.25Z" transform="translate(-8857.487 -1185.276)" fill="#eaf6fd"/>
      <path id="Trazado_903153" data-name="Trazado 903153" d="M3631.306,592.494c-8.689-1.329-17.163-.969-24.932,3.684-10.578,6.336-16.849,16-20.911,27.369a58.545,58.545,0,0,0-3.075,16.82c-.162,3.15.444,6.34.242,9.794-1.455-1.944-2.985-3.837-4.35-5.842-5.513-8.094-10.7-16.393-13.685-25.8-3.885-12.253-4.364-24.434,1.454-36.343,4.564-9.343,12.318-14.454,22.206-16.559,8.327-1.773,16.709-1.428,25.11-.239,5.484.776,11.008,1.461,16.536,1.693,9.025.378,16.135-3.236,21.036-11.017,2.764-4.388,5.365-8.884,9.084-12.628a33.591,33.591,0,0,1,20.185-9.707,5.553,5.553,0,0,0,1.219-.464c7.3-.25,14.478.306,21.344,3.106,12.024,4.9,19.932,13.325,20.429,26.645.422,11.316-5.031,22.009-17.677,27.279-6,2.5-12.391,3.3-18.83,3.927-4.835.469-9.668.31-14.5.527a14.115,14.115,0,0,1-5.339-.03l-7.518-.055a14.819,14.819,0,0,0-5.545-.116c-3.1.355-6.012-.86-9.052-.945l-1.032-.016c-2.959-.167-5.927.356-8.89-.216a7.116,7.116,0,0,1-3.017-.859l-.247-.026Z" transform="translate(-8011.044 -1642.307)" fill="#fee396"/>
      <path id="Trazado_903154" data-name="Trazado 903154" d="M4008.337,1421.39c-3.013-4.242-2.879-8.759-.885-13.273a77.74,77.74,0,0,1,4.032-7.292,13.985,13.985,0,0,0,.971-13.142,113.9,113.9,0,0,1-4.378-10.981,31.174,31.174,0,0,1-1.185-14.1c1.3-8.249,6.249-13.719,13.662-17.084a16.374,16.374,0,0,0,5.183-3.66c4.937-5.121,11.248-7.527,18.142-8.591,9.471-1.461,18.592-.474,27.239,3.908a32.557,32.557,0,0,1,10.376,8.756,28.323,28.323,0,0,1,4.751,12.695c.374,4,2.9,6.718,5.912,8.917,3.979,2.9,8.3,5.343,12.2,8.348,6.83,5.274,7.953,13.134,3.162,20.277-1.1,1.635-2.339,3.177-3.577,4.711-4.145,5.136-4.105,7.424.265,12.409.828.944,1.688,1.867,2.429,2.875,5.776,7.855,2.975,15.621-6.476,18.013-1.278-.519-1.362-1.816-1.745-2.85-2-5.4-5.891-7.863-11.565-7.653-2.578.1-5.183-.325-7.729.4-7.051.311-14.135.952-20.85-2.077-2.76-1.3-5.494-2.657-7.408-5.152a10.67,10.67,0,0,1-2.322-6.183c-.025-3.7-.239-7.408.658-11.047,1.769-7.9,4.72-15.422,7.441-23.022,1.99-5.559-1.2-10.125-7.175-10.541-.985-.068-1.978.024-2.957-.108s-2.141-.3-2.093-1.594c.043-1.137,1.036-1.589,2.062-1.8,1.655-.337,3.187.251,4.75.69-.768-3.3-3.245-5.1-6.829-4.6a74.443,74.443,0,0,1-10.745.332,7.7,7.7,0,0,1-6.318-2.768c.148,3.237-.169,6.339.254,9.433a3.618,3.618,0,0,1,.06.827c-.031.624-.173,1.235-.251,1.855-.33,2.6-.33,2.613,2.417,2.464a4.024,4.024,0,0,1,1.848.165c1.282.549,2.6,1.294,2.24,2.891-.372,1.639-1.917,1.259-3.133,1.178-1.3-.087-2.6-1.455-3.816-.541-1.3.974-.99,2.774-1.253,4.234-.766,4.267.64,8.1,2.532,11.811.518,1.017,1.4,1.889,1.289,3.161-3.388,2.369-5.736,1.482-7.2-2.723,1.471,4.188,2.838,4.755,7.545,3.131a1.456,1.456,0,0,1,1.12.659c1.631,2.794,4.3,4.18,7.138,5.36a2.726,2.726,0,0,1,1.782,1.507,21.2,21.2,0,0,1-.71,5.947c-.43,3.977-2.6,5.967-6.641,6.23-2.476.161-4.865,1.057-7.314,1.517a46.823,46.823,0,0,0-14.668,5.5A2.544,2.544,0,0,1,4008.337,1421.39Z" transform="translate(-8414.5 -2368.201)" fill="#0f2460"/>
      <path id="Trazado_903155" data-name="Trazado 903155" d="M6696.438,2158.425l-14.6.074c-1.53-1.466-.87-3.318-.839-5.034.062-3.366.211-6.731.324-10.1a78.993,78.993,0,0,1-.667-10.682c-.335-7.913-1.5-15.714-2.506-23.534-.768-5.969-1.6-11.906-1.432-17.943.041-1.421.169-3.088-2.143-2.763-2.244-.31-4.394,1.3-6.669.338a147.5,147.5,0,0,1,4.82-38.006c2.65-9.929,9.031-15.55,18.712-17.943,2.521-.623,5.024-1.367,7.672-1.093.695.7.585,1.653.811,2.508,1.191,4.5,3.941,7.789,8.445,8.924,4.568,1.151,8.228-.9,10.963-4.594a16.406,16.406,0,0,0,2.434-4.777c1.142-3.578,1.117-3.585,4.877-3.2,3.467.49,6.956.885,10.216,2.3.072.764-.467,1.146-1,1.449-6.867,3.863-10.52,10.361-13.821,17.07-5.063,10.291-7.917,21.32-10.424,32.445-5.265,23.359-8.942,47.022-13.493,70.518C6697.838,2155.805,6698.042,2157.515,6696.438,2158.425Z" transform="translate(-10831.519 -3001.809)" fill="#fec940"/>
      <path id="Trazado_903156" data-name="Trazado 903156" d="M5662.744,1330.392c-7.276-5.731-6.366-14.682,1.9-18.9,4-2.041,8.352-2.635,12.707-3.22,5.862-.788,11.648-2.18,17.605-2.222,17.174-.122,27.064,7.817,30.949,24.61,1.835,7.931,2.218,15.989,2.534,24.054a27.592,27.592,0,0,0,5.516,15.46c2.211,3.05,4.571,6.006,6.587,9.18,7,11.025,6.633,19.182-1.154,29.753-1.728-.392-1.586-2.046-2.175-3.21-1.4-7.711-6.3-12.246-13.45-14.655a29.543,29.543,0,0,0-7.1-1.443c-3.64-.681-7.32-.361-10.981-.48-7.061-.016-10.667-3.083-11.832-10.066a19.776,19.776,0,0,1-.495-4.242c.092-2.406.486-4.782.752-7.17.133-1.2.328-2.53,1.718-3.107.895.03.788.774.981,1.339,1.065,3.115,2.871,4.485,5.429,4.156,2.275-.293,3.9-2.595,4-5.621a6.532,6.532,0,0,0-1.122-4.193c-.109-.2-.308.3-.042.053.04-.036.093.033.183.2a7,7,0,0,1-.078,7.41,4.1,4.1,0,0,1-6.961.576c-1.889-2.262-2.027-4.871-1.333-7.609.308-1.048.647-2.246,1.6-2.729,2.474-1.256,2.208-3.509,2.67-5.694.553-2.618-.606-4.179-2.111-5.969-3.436-4.087-4.494-9.14-5.014-14.256-.217-2.135-.831-2.872-3.027-3a32.077,32.077,0,0,1-19.748-8.206c-2-1.76-2.613-1.7-4.361.327a15.091,15.091,0,0,0-2.692,5.809C5663.87,1328.409,5663.846,1329.661,5662.744,1330.392Z" transform="translate(-9914.354 -2344.055)" fill="#0f2460"/>
      <path id="Trazado_903157" data-name="Trazado 903157" d="M4479.89,3363.529l-13.438,1.268q-13.883.793-27.767,1.576c-1.156.064-2.319-.01-3.479-.021-1.783-.958-3.667-.5-5.5-.3-.689.078-1.378.315-2.1.337-3.058.095-2.989.1-3-2.887a15.119,15.119,0,0,0-1.465-5.977,19.364,19.364,0,0,1-1.361-10.794c.7-4.887.015-9.866.808-14.749a27.528,27.528,0,0,0,.21-10.41,2.294,2.294,0,0,1,1.36-2.895c2.675.163,4.846,1.72,7.21,2.706,6.233,2.6,12.585,4.672,19.392,4.915a22.165,22.165,0,0,0,12.781-3.363c.725-.452,1.434-1.147,2.44-.7a98.038,98.038,0,0,1,13.771,38.624C4479.873,3361.74,4479.846,3362.64,4479.89,3363.529Z" transform="translate(-8791.811 -4171.539)" fill="#a93a51"/>
      <path id="Trazado_903158" data-name="Trazado 903158" d="M6864.694,1428.579c-2.34-.192-3.456.315-4.194,3.15-1.531,5.881-5.425,9.938-10.913,10.388-6.778.556-12.482-5.218-12.423-12.4,1.919-.824,1.34-2.649,1.552-4.093.435-2.951.7-5.926,1.037-8.892,6.756-.223,12.442-4.056,14.346-16.846-1.665,7.421-7.76,12.585-14.267,12.085-.968.169-1.93.422-2.9.494-8.326.62-10.2-.683-12.45-8.723-.554-1.978-.907-4.01-1.4-6.005-.3-1.2-.323-2.7-1.58-3.275-1.963-.906-1.778-2.072-.984-3.678,1.71-3.458,1.322-7.368,2.215-11.009a1.079,1.079,0,0,1,.5-.565c.491-.3,1.38-.214,1.394-.956s-1-.511-1.36-.984q0-2.038,0-4.076c1.7-.979,3.425-1.924,5.1-2.95a1.972,1.972,0,0,1,2.246-.162c2.788,1.657,5.516,1.008,8.208-.258a21.393,21.393,0,0,1,5.987-2.311c1.67-.237,2.955-.2,1.925,2.178a6.641,6.641,0,0,0,1.9,8.251c1.433,1.24,1.97,2.289.54,4-1.369,1.635-2.226,3.734-.521,5.6s3.784,1,5.7.1a7.4,7.4,0,0,0,3.835-3.958c.43-1.037.946-1.933,2.319-1.813a3.361,3.361,0,0,1,2.788,1.822c1.719,3,.234,7.882-3.2,10.415a13.873,13.873,0,0,1-5.949,2.469,55.878,55.878,0,0,1,5.542,10.538c-1,4.5-.355,9.039-.2,13.559.05,1.5.431,2.993.532,4.5.148,2.211,1,3.462,3.456,3.022C6863.834,1428.129,6864.28,1428.442,6864.694,1428.579Z" transform="translate(-10969.573 -2399.783)" fill="#fda27d"/>
      <path id="Trazado_903159" data-name="Trazado 903159" d="M4316.459,2768.754c-8.364,6.222-17.447,5.573-26.746,2.785a96.4,96.4,0,0,1-14.815-6.041,8.207,8.207,0,0,1-2.807-.721c-2.824-1.753-5.668-3.492-9.232-3.069a1.294,1.294,0,0,1-.942-.464c-.032-1.285.968-.95,1.546-1.139a30.777,30.777,0,0,1-5.135-2.454c-1.545-.841-1.914-1.991-.82-3.5a44.3,44.3,0,0,0,5.173-9.9c.412-1.048.952-1.924,2.231-1.994,4.663.693,9.184,2.087,13.847,2.774a134.247,134.247,0,0,0,17.048,2.657,45.567,45.567,0,0,0,13.03.93,7.641,7.641,0,0,0,6.3-4.407c2.719-5.081,3.486-10.679,4.227-16.258a94.184,94.184,0,0,0,1.153-14.95,4.043,4.043,0,0,1,.847-3.027,2.359,2.359,0,0,1,.811-.5c2.255-.271,4.533-.826,6.663.514.17,10.049-1.159,19.979-2.453,29.907-.531,4.073-1.234,8.128-2,12.164C4323.2,2758.295,4320.995,2764.086,4316.459,2768.754Z" transform="translate(-8642.295 -3618.055)" fill="#fe6a65"/>
      <path id="Trazado_903160" data-name="Trazado 903160" d="M5524.779,2183.481a23.747,23.747,0,0,1,9.677-5.211c.814-.223,1.787-.173,2.375-.983,3-1.227,6.067-.793,9.137-.425a54.963,54.963,0,0,0,10.513,11.011,1.569,1.569,0,0,1,.47,1.226c.131,2.937-.968,5.617-1.738,8.365-1.891,6.745-2.488,13.73-3.817,20.578-.853,4.392-1.679,8.784-2.237,13.225-.215,1.71-1.143,2.347-2.817,1.733a5.615,5.615,0,0,1-2.126-1.73c-2.337-4.547-5.861-6.178-11.113-5.923-8.7.423-7.752,1.026-10.589-7.417-1.941-5.776-2.9-11.789-4.228-17.715a6.58,6.58,0,0,1,1.092-4.491,45.084,45.084,0,0,0,2.8-4.322C5523.645,2188.958,5523.163,2185.874,5524.779,2183.481Z" transform="translate(-9787.59 -3134.412)" fill="#51bde3"/>
      <path id="Trazado_903161" data-name="Trazado 903161" d="M5711.36,1458.361c.745-3.515,1.444-7.052,3.961-9.851,1.467-1.632,2.592-2.308,4.7-.259a29.671,29.671,0,0,0,20.395,8.4c2.006.06,2.654.493,2.86,2.635.6,6.2,1.7,12.3,6.756,16.75a2.712,2.712,0,0,1,.63,2.5c-.107,1.43-.331,2.856-.354,4.286-.025,1.527-.212,2.734-1.984,3.3-1.257.4-1.63,1.82-2.248,2.9-.816.814-.429,2.081-1.108,2.949a38.514,38.514,0,0,1-11.278,7.909c-2.937,1.241-6.053,1.3-9.178,1.21a6.9,6.9,0,0,1-5.777-2.851c-.41-.527-.84-1.039-1.211-1.6-1.139-2.114-2.164-4.288-3.248-6.431-.432-.854-1.036-1.7-.624-2.756a45.166,45.166,0,0,1-1.559-17.789c2.183-1.632,4.27.389,6.857.161-.816-1.655-2.03-1.5-3.319-1.43-1.356.069-2.929,1.142-4-.645C5711.308,1464.624,5712.039,1461.472,5711.36,1458.361Z" transform="translate(-9962.971 -2472.024)" fill="#fd9f79"/>
      <path id="Trazado_903162" data-name="Trazado 903162" d="M6541.352,2648.647c3.1-.962,3.358-.849,3.2,2.225-.471,9.107,1.423,17.986,2.5,26.941a222.1,222.1,0,0,1,1.786,23.8,5.2,5.2,0,0,1-.485,2.611l-1.53.539c-1.036.512-1.553-.148-1.841-.944-4.173-11.528-11.932-21.029-17.83-31.58a9.923,9.923,0,0,1-1.5-4.826c-.176-2.616-1.974-4.551-2.869-6.863-.625-1.615-2.116-3.312-.763-4.979,1.391-1.715,3.585-1.194,5.535-.988a2.511,2.511,0,0,1,.958.461c.777,2.693,0,5.3-.444,7.924-.51,2.991,2.29,6.04,5.24,5.661,4.525-2.728,5.7-7.153,6.322-11.993C6539.971,2653.945,6539.8,2651.091,6541.352,2648.647Z" transform="translate(-10698.549 -3562.66)" fill="#eb4d54"/>
      <path id="Trazado_903163" data-name="Trazado 903163" d="M5365.322,2497.055c-1.765-4.5-1.874-9.269-2.029-13.975-.315-9.578.149-19.176-.658-28.745-.451-5.346-.966-10.687-1.431-16.032-.115-1.317-.469-2.688.54-3.857,2.285-1.291,4.669-.785,7.046-.393,1.523.919,1.91,2.538,2.345,4.058,1.691,5.919,3.361,11.846,5.246,17.706.773,2.4,0,4.164-1.7,5.74a2.92,2.92,0,0,0-.3,3.858,4.908,4.908,0,0,1,.774,2.224c-.346,3.432-2.513,6.3-2.941,9.721-.776,6.186-3.113,11.917-5.276,17.7C5366.617,2495.906,5366.311,2496.752,5365.322,2497.055Z" transform="translate(-9644.888 -3367.898)" fill="#4fbae2"/>
      <path id="Trazado_903164" data-name="Trazado 903164" d="M5407.49,2830.142c2.74-6.86,5.379-13.751,6.482-21.114a21.421,21.421,0,0,1,2.139-6.019,5.7,5.7,0,0,0,.572-2.558,10.316,10.316,0,0,1,5.2,6.242c1.169,5.575,2.636,11.069,3.264,16.774a36.43,36.43,0,0,1-2.318,18.348,1.9,1.9,0,0,0-.133,1.3c-3.882,1.014-7-.607-9.716-3.074A17.821,17.821,0,0,1,5407.49,2830.142Z" transform="translate(-9687.055 -3700.985)" fill="#49a2d7"/>
      <path id="Trazado_903165" data-name="Trazado 903165" d="M5376.016,2071.055l-7.429-.064c.077-7.313,1.139-14.413,4.4-21.069a12.96,12.96,0,0,1,9.974-7.349c2.313-.391,3.042-1.43,2.808-3.58-.116-1.065-.065-2.148-.1-3.223-.035-1.152.111-2.2,1.535-2.4a2.173,2.173,0,0,1,2.589,1.807,11.381,11.381,0,0,1-.063,5.586,11.717,11.717,0,0,1-1.033,3.043c-1.943,3.312-1.223,6.5.217,9.7-.4,2.859-.48,5.8-2.147,8.326-.54-.046-1.313-1.116-1.529.294a21.965,21.965,0,0,1-1.166,3.716c-.431,1.358-1.342,2.578-1.179,4.107C5381.156,2072.053,5379,2072.4,5376.016,2071.055Z" transform="translate(-9651.73 -3004.442)" fill="#fda07a"/>
      <path id="Trazado_903166" data-name="Trazado 903166" d="M6440.419,2418.723c-1.426.045-2.854.056-4.278.143-1.785.108-2.718.8-1.771,2.733,1.215,2.477,2.308,5.018,3.628,7.435.442.809.65,1.4.16,2.165a14.359,14.359,0,0,1-2.732,5.129c-.8.947-1.687,1.6-3.011,1.151-1.541-.812-2.119-2.4-2.916-3.766a38.475,38.475,0,0,1-5.027-17.654,11.343,11.343,0,0,1,3.484-9.262c3.415-3.189,4.06-6.95,3.244-11.279a24.508,24.508,0,0,1-.648-5.325c.074-2.22,1.135-2.807,3.311-1.985l1.635,3.183a61.153,61.153,0,0,1,.555,14.921c1.978-.506,2.935-1.734,4.162-2.5.849-.531,1.816-1.053,2.733-.328.873.69.363,1.635.108,2.488a11.89,11.89,0,0,1-2.352,4.194,4.9,4.9,0,0,0-.808,5.682A11.851,11.851,0,0,1,6440.419,2418.723Z" transform="translate(-10610.462 -3326.344)" fill="#fd9f7a"/>
      <path id="Trazado_903167" data-name="Trazado 903167" d="M4824.8,2350.261l-7.049-.01c-1.153-1.292-.766-2.882-.769-4.357a87.571,87.571,0,0,0-3.439-25.651c-1.535-5.027-1.905-5.4-7.205-5.813-1.129-.088-2.361.146-3.251-.866a33.767,33.767,0,0,1,10.664-.346c4.664.543,7.447,3.541,9.006,7.807.4,1.09.77,2.19,1.154,3.286a105.279,105.279,0,0,1,1.3,23.043A6.788,6.788,0,0,1,4824.8,2350.261Z" transform="translate(-9138.25 -3258.336)" fill="#fe9a44"/>
      <path id="Trazado_903168" data-name="Trazado 903168" d="M5705.438,1966.35c1.443,1.57,3,2.914,5.334,2.78a6.254,6.254,0,0,0,2.355.171c3.833.029,3.826.021,3.336,3.839-.1.791-.306,1.555-.475,2.329a15.264,15.264,0,0,1-2.475,6.393c-1.33,2.054-3.147,2.553-5.447,1.685l-9.36.015c-2.466-6.285-2.608-12.781-1.721-19.363.042-.315.345-.6.526-.892a.706.706,0,0,1,1.119.235C5700.05,1966.585,5702.5,1967.027,5705.438,1966.35Z" transform="translate(-9949.468 -2940.688)" fill="#0f2460"/>
      <path id="Trazado_903169" data-name="Trazado 903169" d="M5556.694,2901.73c-.265-.044-.531-.083-.795-.132-.578-.109-.362-.3-.17-.692,4.182-8.4,3.311-17.139,1.572-25.9a51.789,51.789,0,0,0-2.1-8.567,1.084,1.084,0,0,1,.308-1.434,3.672,3.672,0,0,1,2.265,1.73c3.148,4.07,6.39,8.066,9.509,12.159a6.18,6.18,0,0,1,1.32,3.153,16.011,16.011,0,0,1,.075,1.791c-.126,3.248.387,6.538-.692,9.715.06,1.551-.926,2.63-1.716,3.8A14.567,14.567,0,0,1,5556.694,2901.73Z" transform="translate(-9821.052 -3759.601)" fill="#346abb"/>
      <path id="Trazado_903170" data-name="Trazado 903170" d="M6658.2,2653.319c-.637,4.986-.825,10.066-2.581,14.837-.935,2.538-2.423,4.731-5.469,5.14q.817-9.492,1.634-18.986C6653.905,2653.869,6655.965,2653.024,6658.2,2653.319Z" transform="translate(-10815.396 -3567.332)" fill="#fd766f"/>
      <path id="Trazado_903171" data-name="Trazado 903171" d="M7035.324,1717.862a26.751,26.751,0,0,0,8.618-3.625,11.174,11.174,0,0,0,4.7-7.261,4.579,4.579,0,0,1,1.1-2.676c.667,8.943-3.8,16.451-10.989,18.584-1.2.357-2.415.79-3.515-.26Q7035.285,1720.243,7035.324,1717.862Z" transform="translate(-11165.066 -2705.672)" fill="#f96d5b"/>
      <path id="Trazado_903172" data-name="Trazado 903172" d="M5721.483,1886.89l4.477,9.193c-1.513,2.255-3.9,2.239-5.029-.2a9.837,9.837,0,0,1,.017-8.445Z" transform="translate(-9970.803 -2871.466)" fill="#1e2858"/>
      <path id="Trazado_903173" data-name="Trazado 903173" d="M4323.95,1177.659a55.18,55.18,0,0,1,11.906,1.075,3.512,3.512,0,0,0-2.406.794C4331.273,1181.417,4325.282,1180.137,4323.95,1177.659Z" transform="translate(-8703.195 -2227.469)" fill="#eaf6fd"/>
      <path id="Trazado_903174" data-name="Trazado 903174" d="M5709.94,1668.682a6.776,6.776,0,0,0,4.192-.147,2.806,2.806,0,0,1,3.594.979,1.908,1.908,0,0,1,.121,2.277c-.595.736-1.129-.088-1.646-.264a16.543,16.543,0,0,0-5.8-.932C5710.029,1670.01,5708.875,1669.614,5709.94,1668.682Z" transform="translate(-9961.281 -2672.961)" fill="#182143"/>
      <path id="Trazado_903175" data-name="Trazado 903175" d="M5709.715,1892.8c0,2.3-.065,4.606.042,6.9a2.856,2.856,0,0,0,2.012,2.84,2.332,2.332,0,0,0,2.958-1.094c.371.271.792.5.814,1.046-3.017,1.781-4.431,1.508-6.454-1.22-.465-.627-.979-1.217-1.471-1.824a33.433,33.433,0,0,1,.463-4.218C5708.3,1894.3,5708.231,1892.967,5709.715,1892.8Z" transform="translate(-9959.571 -2876.833)" fill="#c3cfdd"/>
      <path id="Trazado_903176" data-name="Trazado 903176" d="M4464.59,1189.65a142.506,142.506,0,0,1,14.6,1.061c-2.136.1-4.285-.169-6.4.486a3.119,3.119,0,0,1-2.352-.133,4.222,4.222,0,0,0-4.052-.4C4465.622,1190.908,4464.712,1190.821,4464.59,1189.65Z" transform="translate(-8830.896 -2238.368)" fill="#eaf6fd"/>
      <path id="Trazado_903177" data-name="Trazado 903177" d="M6849.36,1470.893c.88.1,2.318-1.223,2.511.615.243,2.309-1.911,1.419-3.042,1.889A2.342,2.342,0,0,1,6849.36,1470.893Z" transform="translate(-10995.676 -2493.406)" fill="#27325e"/>
      <path id="Trazado_903178" data-name="Trazado 903178" d="M4704.98,1201.79l5.339.03A6.365,6.365,0,0,1,4704.98,1201.79Z" transform="translate(-9049.172 -2249.392)" fill="#eaf6fd"/>
      <path id="Trazado_903179" data-name="Trazado 903179" d="M3967.406,3268.018c5.113-.908,8.834,2.272,12.916,4.4a1.622,1.622,0,0,0-1.029,1.974c1.071,3.689.643,7.334-.018,11.022-.971,5.418-.124,10.953-1.018,16.409a16.025,16.025,0,0,0,1.471,8.857c1.1,2.59,2.525,5.291,1.074,8.437,2.994.673,5.934-.808,8.908-.347.578.09,1.913-.65,1.4,1.016l-5.261.111c-3.433.569-6.917-.187-10.35.392-3.98.433-8.013-.273-11.975.566l-31.069.086a107.827,107.827,0,0,1,6.7-37.24,84.722,84.722,0,0,1,6.777-14.555c.7-1.449,2.045-1.367,3.245-1.167,5.009.834,9.955.148,14.912-.434C3965.238,3267.407,3966.407,3267.13,3967.406,3268.018Z" transform="translate(-8347.718 -4124.97)" fill="#c13b50"/>
      <path id="Trazado_903180" data-name="Trazado 903180" d="M2995.09,2077.138a59.7,59.7,0,0,1,11.719,1.343c8.679,1.75,12.335,6.276,13.075,15.531a95.328,95.328,0,0,1,.078,17.432c-1.333,12.88,1.823,25.051,5.594,37.146.637,2.045,1.241,4.1,1.859,6.15.43,2.272-1.2,2.622-2.539,2.035-6.021-2.636-12.677-3.841-18.037-7.986a27.372,27.372,0,0,1-4.648-5.145,19.663,19.663,0,0,1-3.547-13.183,18.257,18.257,0,0,0-3.24-12.185c-1.944-2.827-2.648-5.777-1.449-9.118a4.288,4.288,0,0,0-.738-4.442c-.2,5.661-4.864,7.275-7.472,10.53-.967.519-1.548,1.489-2.435,2.1-.866.595-1.691,1.531-2.878.9a2.869,2.869,0,0,1-1.385-3c.281-2.954.066-5.913.234-8.864.214-3.732.12-7.516,2.043-10.95.7-1.242.259-2.638.122-3.967-.258-2.5.33-4.578,2.6-6.031a5.377,5.377,0,0,0,2.641-4.131c-1.454,2.351-3.045,4.447-6.057,4.622-1.8.1-3.6.247-5.071-1.129a1.13,1.13,0,0,1,.857-1.2,25.007,25.007,0,0,0,8.1-5.527,3.663,3.663,0,0,1,2.869-1.121C2989.948,2077.1,2992.529,2076.739,2995.09,2077.138Z" transform="translate(-7478.844 -3044.029)" fill="#feb13f"/>
      <path id="Trazado_903181" data-name="Trazado 903181" d="M2738.369,1220.061c-1.262-10.5-6.882-19.685-9.07-29.912-2.11-9.865.184-13.722,9.873-16.4l1.038-.286c-2.944-5.378-1.989-8.729,3.38-12.029,5.92-3.638,9.518-3.164,13.031,1.929a13.148,13.148,0,0,1,6.1-6.595c3.434-1.639,6.918-2.042,10.252.086,2.452,1.565,2.315,1.531,5.064.582,4.377-1.512,8.192-.075,11.623,2.729a7.121,7.121,0,0,1,1.192,8.2,1.742,1.742,0,0,0,.1,1.947c3.551,5.274,2.464,8.973-3.427,11.977-1.265.983-2.727.8-4.133.585a44.143,44.143,0,0,1-8.6-2.081,21.886,21.886,0,0,0-6.5-1.552c-2.335-.11-3.265.621-3.214,2.88.068,3-.8,5.123-3.757,6.383-1.847.787-2.766,2.711-3.828,4.383-1.484,2.335-1.927,2.337-3.664.32-2.021-2.347-3.988-3.061-6.074-2.206a6.4,6.4,0,0,0-3.685,6.31c.378,3.794,2.556,6.371,5.8,8.187,1.212.679,2.751,1.159,2.48,3.068-1.627,6.277-6.4,9.31-11.936,11.542A2.076,2.076,0,0,1,2738.369,1220.061Z" transform="translate(-7254.589 -2207.269)" fill="#d84d52"/>
      <path id="Trazado_903182" data-name="Trazado 903182" d="M3912.876,2230.725a40.655,40.655,0,0,1,16.66-6.581,1.246,1.246,0,0,1,1.872.913c1.007,3.842,3.962,6.054,6.793,8.392a2.443,2.443,0,0,1-.415,3.395c-3.933,3.813-4.65,8.75-4.716,13.83a41.205,41.205,0,0,1-1.126,10.635c-.975,3.507-.228,7.111-.365,10.66-.279,7.215.218,14.46-.891,21.646a3.3,3.3,0,0,0,1.665,3.389c.85.6,1.955,1.056,1.738,2.434-.734,1.036-1.763.714-2.659.444a98.525,98.525,0,0,1-11.059-3.81c-.9-.392-1.773-.863-2.009-1.958,1.039-3.022.232-5.339-2.6-6.929a2.313,2.313,0,0,1-.915-1.3c-.7-7.09-1.876-14.128-2.24-21.248a2.264,2.264,0,0,0-2.434-2.5c-2.22-.161-4.437-.424-6.645-.7-1.187-.147-2.875-.132-2.63-2.19,2.266-9.747,4.72-19.415,11.317-27.374A7.568,7.568,0,0,0,3912.876,2230.725Z" transform="translate(-8319.04 -3177.536)" fill="#fece42"/>
      <path id="Trazado_903183" data-name="Trazado 903183" d="M3815.094,2969.481c.213,1.468,1.549,1.672,2.554,2.021,4.163,1.442,8.238,3.184,12.6,3.984,2.719.3,5.557.252,7.557,2.622-1.264.08-1.169,1.23-1.468,1.985a37.165,37.165,0,0,1-5.152,9.688c-1.093,1.37-.78,1.928.584,2.58,2.081,1,4.119,2.079,6.3,3.19-1.056.7-2.207-.011-2.959.83-5.139.5-10.249,1.352-15.447,1.108-2-.094-4.021-1.124-6.021.017-.968-.983-2.271-.842-3.475-1.047-6.457-1.1-12.726-2.767-18.2-6.549a11.584,11.584,0,0,1-4.9-12.358c1.9-1.272,4.072-1.2,6.214-1.269,2.6-.086,5.2.174,7.789-.293,1.724-.311,2.688-.968,1.746-2.89-.816-1.665.007-2.738,1.438-3.506C3807.843,2967.665,3811.463,2967.938,3815.094,2969.481Z" transform="translate(-8215.428 -3853.333)" fill="#fd9e79"/>
      <path id="Trazado_903184" data-name="Trazado 903184" d="M3144.271,3100.181c-4.5,2.069-9.413,2.37-14.192,3.233l-2.591.127a12.7,12.7,0,0,1-5.467-.1c.309-1.3,1.444-1.294,2.363-1.286,2.32.021,2.812-1.248,2.831-3.261.027-2.8-.628-5.53-.562-8.319.35-14.893-.86-29.766-.565-44.659.059-2.955-.724-5.877-.519-8.854.086-1.247-.052-2.524.609-3.668,1.088-1.342,2.17-.493,2.992.217a68.9,68.9,0,0,0,9.982,7.112c.7.413,1.364.947.8,1.933.6,9.814,1.23,19.627,1.808,29.442C3142.312,3081.483,3143.924,3090.776,3144.271,3100.181Z" transform="translate(-7611.836 -3911.852)" fill="#fea140"/>
      <path id="Trazado_903185" data-name="Trazado 903185" d="M2897.633,1435.691c.286-1.481-.909-1.753-1.834-2.233a11.98,11.98,0,0,1-6.181-6.433c-1.422-3.835.01-8.064,3.183-9.54,3.07-1.429,5.733-.2,8.364,3.942,1.24-.967,1.712-2.447,2.564-3.647.941-1.326,1.925-2.709,3.547-3.165,2.432-.685,2.787-2.4,2.762-4.544-.046-3.974,1.245-5.109,5.16-4.417a14.561,14.561,0,0,1,5.1,1.487c2.553,3.567,2.276,4.965-1.406,7.338-1.032.665-2.3,1.073-2.8,2.365-.444,1.608-3.066,1.8-2.588,4.009a4.4,4.4,0,0,0,1.23,2.316,3.178,3.178,0,0,1,.759,2.748c-.772,2.758-.638,5.837-2.927,8.087a6.2,6.2,0,0,0-1.806,4.326c-.053,1.409.536,1.945,1.9,1.7a1.813,1.813,0,0,1,1.326.649,9.53,9.53,0,0,0,5.362,3.363c1.781.434,3.244.077,3.65-2.047.214-.751.382-1.513.61-2.26.866-1.748.713-4.462,3.948-3.929.852.14.849-.71.666-1.353-.292-1.022-.778-1.979-1.077-3-.249-.85-.614-2.038.482-2.283,1.457-.326.981,1.024,1.056,1.817a.656.656,0,0,0,.272.428c.234,1.576,1.628,2.487,2.208,3.9.731,1.781.635,3.033-1.518,3.268-2.05.224-3.052,1.436-3.789,3.2-1.34,3.2-2.647,6.432-4.236,9.512-2.72,5.268-5.3,6.443-11.049,5.417-.7-.125-1.383-.33-2.073-.5a1.078,1.078,0,0,1-.768.15c-5.012-1.4-10.45-8.033-10.81-13.176A23.177,23.177,0,0,1,2897.633,1435.691Z" transform="translate(-7400.314 -2434.327)" fill="#fdc3a2"/>
      <path id="Trazado_903186" data-name="Trazado 903186" d="M3108.2,2831.479c-.87-2.141-3.254-2.226-4.783-3.5-2.64-2.2-5.446-4.209-8.182-6.3-3.5-3.245-6.788-6.635-8.182-11.391.978-2.228,3.174-1.81,4.936-2.514a64.542,64.542,0,0,0,7.783-4.027,10.578,10.578,0,0,0,4.073-3.634,26.928,26.928,0,0,0,11.4,8.529c3.651,1.39,7.44,2.4,10.938,4.219,1.263.656,2.271.069,2.473-1.472a59.185,59.185,0,0,1,3.631,10.887c1.239,5.423-1.464,9.371-7.047,10.711a24.463,24.463,0,0,1-14.219-.963C3110.111,2831.7,3109.248,2831.118,3108.2,2831.479Z" transform="translate(-7580.087 -3700.678)" fill="#fd926b"/>
      <path id="Trazado_903187" data-name="Trazado 903187" d="M3643.106,2727.518a8.337,8.337,0,0,1-3.461-.168,9.815,9.815,0,0,0-6.542.63c-1.794.747-3.131,1.434-1.118,3.567,1.143,1.211.615,2.645-1.138,2.967a47.207,47.207,0,0,1-5.594.513c-3.389.212-6.781.377-10.173.561-2.927-.705-4.655-2.588-5.876-5.318-3.535-7.9-7.288-15.7-10.873-23.576-.772-1.7-2.067-3.687.747-4.937,4.784.811,8.728,3.622,12.99,5.623,5.26,2.468,10.743,4.458,15.825,7.3a4.5,4.5,0,0,0,1.838.321,27.879,27.879,0,0,1,10.172,5c.567.419,1.142.828,1.7,1.258C3644.538,2723.516,3644.686,2724.141,3643.106,2727.518Z" transform="translate(-8043.44 -3611.37)" fill="#a2daf7"/>
      <path id="Trazado_903188" data-name="Trazado 903188" d="M2773.16,1734.05q-.008,4.074-.016,8.148c-1.593-.768-.277-2.175-.774-3.012a31.3,31.3,0,0,0,1.27,9.631c1.449,4.991,4.414,8.68,9.7,10.043-1.2,6.39-1.2,6.372,5.122,6.493,1.212.023,2.485-.258,3.623.442-5.279-.4-10.126.059-13.877,4.674-1.22,1.5-3.675,2-5.564,2.953a1.449,1.449,0,0,1-.812.67c-5.17,1.013-10.453,1.648-15.025-1.548-4.086-2.857-5.237-7.277-4.7-12.143,4.528-.112,5.868-3.183,6.582-6.953a34.688,34.688,0,0,0,.933-7.969C2765.765,1743.6,2770.827,1740.441,2773.16,1734.05Z" transform="translate(-7275.841 -2732.687)" fill="#fdae88"/>
      <path id="Trazado_903189" data-name="Trazado 903189" d="M3135.682,1447.973c-.871-.322-.214-1.582-1.334-1.962-.416,1.83.926,3.094,1.3,4.592.189.757.83,1.5.322,2.254-.533.79-1.463.59-2.184.305-1.456-.575-1.976-.056-1.935,1.382.025.883-.787,1.354-1.077,2.086-2.09,1.359-4.154.165-6.218-.09-1.059-.131-2.086-.481-3.136-.694a1.486,1.486,0,0,0-1.945,1.284c-1.991.794-2.8.138-2.726-2.011.045-1.3.094-2.666.987-3.537,2.132-2.081,2.779-4.783,3.6-7.45.565-1.843.559-3.506-1.1-4.854-.67-.546-1.553-1.178-.209-1.985.483-1.488,1.822-1.15,2.908-1.378,1.677-.351,3.573-.052,5.056-1.6-1.9-1.482-3.974-.038-5.777-.714a2.041,2.041,0,0,1,1.29-2.141c3.564-1.535,5.826-3.594,3.526-7.763,4.267,1.039,8.468,2.471,12.957,2.212.792,3.443-.065,6.864-.138,10.3-1.792.421-1.448,1.841-1.452,3.1-1.115,1.1-.392,2.493-.606,3.737a8.615,8.615,0,0,0-1.511,3.794A1.19,1.19,0,0,0,3135.682,1447.973Z" transform="translate(-7607.045 -2450.88)" fill="#fdceae"/>
      <path id="Trazado_903190" data-name="Trazado 903190" d="M3879.555,2634.463c-3.5-1-6.37-3.456-9.927-4.331-2.919-1.24-6.01-2.16-8.345-4.488a176.589,176.589,0,0,1,3.666-18.1c.532,1.524,1.938,1.406,3.113,1.541,2.385.274,4.785.486,7.184.564,1.618.052,2.138.75,2.2,2.3a148.21,148.21,0,0,0,2.023,18.813A24.067,24.067,0,0,1,3879.555,2634.463Z" transform="translate(-8283.092 -3525.826)" fill="#fda882"/>
      <path id="Trazado_903191" data-name="Trazado 903191" d="M3621.511,1961.651a8.912,8.912,0,0,1-17.823-.069,8.922,8.922,0,1,1,17.823.069Z" transform="translate(-8049.193 -2930.835)" fill="#fed574"/>
      <path id="Trazado_903192" data-name="Trazado 903192" d="M2981.514,1798.374c-1.791,1.257-3.135-.112-4.319-.987a16.954,16.954,0,0,1-6.888-13.061c-.149-2.116-.024-4.251-.024-6.759,1.007,1.52-.021,3.064,1.034,4.145.236,4.292,3.1,6.928,6.1,9.39a41.617,41.617,0,0,0,4.78,2.985Q2981.853,1796.23,2981.514,1798.374Z" transform="translate(-7474.013 -2772.2)" fill="#f77861"/>
      <path id="Trazado_903193" data-name="Trazado 903193" d="M3638.66,2709.787l8.344,4.488a5.3,5.3,0,0,1-2.364-.3q-14.259-6.829-28.535-13.62c1.787-.449,3.314.245,4.875,1C3626.859,2704.2,3632.765,2706.981,3638.66,2709.787Z" transform="translate(-8060.467 -3609.97)" fill="#6db5e1"/>
      <path id="Trazado_903194" data-name="Trazado 903194" d="M3324.92,1637.755c-.715-1.75-.719-3.217,1.511-3.794C3327.728,1636.374,3327.438,1637.1,3324.92,1637.755Z" transform="translate(-7795.685 -2641.805)" fill="#27272f"/>
      <path id="Trazado_903195" data-name="Trazado 903195" d="M3342.156,1558.858c-.832-.732-1.409-1.492-.672-2.661.592-.938,1.253-1.083,2.124-.439C3343.624,1557.026,3344.4,1558.649,3342.156,1558.858Z" transform="translate(-7810.803 -2570.439)" fill="#d04941"/>
      <path id="Trazado_903196" data-name="Trazado 903196" d="M2549.747,2020.49c.584.161.786.413.712,1.133-.707,6.789,4.069,13.05,12.126,12.487,2.569-.179,5.166.038,7.7-.6,1.432.011,2.755.7,4.234.56,2.479-.24,4.588-.936,5.336-3.629.327-1.177.9-2.208,2.2-1.586,1.267.606.512,1.777.018,2.541-.762,1.18-1.3,2.6-2.72,3.238-2.49,1.117-3.1,3.279-2.522,5.586a6.934,6.934,0,0,1-.718,5.631c-2,3.185-.967,6.739-1.473,10.094-.4,2.638.238,5.35-.34,8.028-.2.9.055,2.281.992,2.573,1.471.458,2.1-1.348,3.3-1.812.574-.223-.11-2.138,1.405-1.027.822,1.006.389,2.05.018,3.036a31.539,31.539,0,0,0-1.919,12.346c.177,5.159-.509,10.35.63,15.475a27.91,27.91,0,0,0,1.557,5.386c.352.791.861,1.612.268,2.523,2.142,4.161,5.562,7.408,8.08,11.3-1.112,2.592-.778,5.369-.472,7.959.869,7.342.02,14.694.49,22.014.634,9.847.346,19.7.571,29.545.061,2.656.412,5.327.513,8.007.076,2.018-.573,2.756-2.6,2.6-1.109-.088-2.339-.4-3.379.4-1.585.686-3.209.352-4.827.182-12.245-.525-24.442-1.616-36.614-3.02-1.844-.861-1.8-2.15-.53-3.37a6.971,6.971,0,0,0,1.979-4.795,211.747,211.747,0,0,0,1.33-21.634,48.4,48.4,0,0,1,1.942-13.9c.868-2.953-.489-6.022.722-9.018.583-1.442-1.512-1.074-2.16-1.81-.223-1.6,1.08-1.325,1.892-1.415,5.083-.563,10.152-1.177,15.18-2.162,3.687-.722,6.226-2.576,7.346-6.24,1.178-3.853,1.983-7.829,4.112-11.358a3.31,3.31,0,0,0-.393-3.814c-1.026-1.292-2.309-.516-3.448-.06a35.867,35.867,0,0,1-9.9,2.388c-3.362.325-4.033-.623-3.083-3.888.172-.591.569-1.129.451-1.793-2.073-.084-2.987.436-3.985,2.551a32.653,32.653,0,0,0-2.509,6.813,5.54,5.54,0,0,1-5.423,4.765,84.065,84.065,0,0,1-16.109-.128,1.2,1.2,0,0,1-.609-.654c.641-5.236,2.217-10.4,1.454-15.745a136.112,136.112,0,0,1-1.008-18.26,38.066,38.066,0,0,1,4.05-17.938c2.92-5.7,4.749-11.6,4.142-18.085a4.845,4.845,0,0,1,.348-2.639,2.76,2.76,0,0,0,1.182-3.83c-.817-2.022-.317-4.243-.726-6.356-.311-1.608-.834-2.832-2.474-3.483-.95-.377-2.053-.905-1.378-2.347A68.387,68.387,0,0,1,2549.747,2020.49Z" transform="translate(-7073.482 -2992.776)" fill="#feb83f"/>
      <path id="Trazado_903197" data-name="Trazado 903197" d="M2301.538,3167.8c.628.005,1.259-.026,1.884.023,1.636.128,2.461.843,1.334,2.4a4.432,4.432,0,0,0-.6,4.278,8.849,8.849,0,0,1-.574,5.781c-1.551,3.709-.23,7.739-1.8,11.331-.576,1.321.4,2.426.321,3.674-.374,6.046-.62,12.1-1.423,18.115-.343,2.571-.186,5.121-2.842,6.731-1.712,1.039,1.214,1.39.538,2.4l-12.416-1.969c-3.083-1.128-6.381-1.016-9.563-1.579-.775-.137-1.414-.724-2.233-.562l-13.1-2.837c-1.007-2.892-.476-5.877-.325-8.787a260.9,260.9,0,0,1,4.251-36.845c.61-1.313,1.78-.925,2.8-.88,6.594.3,13.14-.384,19.694-.916,3.347-.237,6.676-.664,10.017-.957C2298.894,3167.077,2300.328,3166.688,2301.538,3167.8Z" transform="translate(-6829.543 -4033.843)" fill="#fec441"/>
      <path id="Trazado_903198" data-name="Trazado 903198" d="M2161.894,2050.59c.035.669.255,1.391.933,1.467,3.167.358,3.556,2.766,3.827,5.162.267,2.363,0,4.737,1.031,7.064.541,1.226-.207,2.452-2.011,1.952-.093-.086-.185-.172-.279-.256-.437-2.316-.827-4.654-2.8-6.289a3.19,3.19,0,0,1-.76-1.284c-.349-1.473-1.769-2.067-2.269-2.835a10.646,10.646,0,0,1,1.818,2.2c3.237,5.033,4.1,10.577,3.811,16.458-.185,3.781-1.581,7.144-3.028,10.5-3.462,8.024-8.317,15.28-12.763,22.76-3.3,5.551-7.023,10.863-9.416,16.92a3.281,3.281,0,0,1-1.625,2.062c-2.708.3-5.275-.5-7.892-.956-3.152-.552-6.335-.936-9.474-1.561-1.43-.285-2.908-.686-2.35-2.745,1.81-10.581,5.749-20.49,9.7-30.381,3.257-8.146,6.494-16.306,10.817-23.979C2144.224,2057.878,2151.612,2052.226,2161.894,2050.59Z" transform="translate(-6700.662 -3020.107)" fill="#fecd41"/>
      <path id="Trazado_903199" data-name="Trazado 903199" d="M1487.831,3056.439l-2.172-.024c-2.025-3.92-.293-7.822.1-11.714a109.969,109.969,0,0,0,.036-20.619c-.307-3.554.183-7.26-1.241-10.6-1.673-3.919-1.394-6.935,2.664-9.023a.468.468,0,0,0,.006-.86c.066-1.186,1.087-1.342,1.879-1.591,6.384-2.01,12.8-3.92,19.169-5.976a2.609,2.609,0,0,1,2.563.048q1.74,23.639,3.48,47.279c.515,3.213-1.2,4.677-3.967,5.928a81.729,81.729,0,0,1-21.615,6.657A3.128,3.128,0,0,0,1487.831,3056.439Z" transform="translate(-6124.135 -3878.286)" fill="#223f80"/>
      <path id="Trazado_903200" data-name="Trazado 903200" d="M1143.478,1279.658l-.2-.007h-.2c.528-1.448-.722-1.036-1.332-1.246a11.521,11.521,0,0,1-8.157-9.436,5.473,5.473,0,0,1,3.484-6.246c2.556-.9,4.841-.081,6.218,2.709.824,1.671,1.63,1.337,2.656.569a39.641,39.641,0,0,0,3.721-3.071c4.872-4.675,5.13-6.641,1.8-12.387-.343-.591-.936-1.089-.805-2.1,8.1,3.034,16.135,3.87,23.977-.657.7,3.534,2.253,6.925,1.771,10.655-1.949,1.183.232,1.4.484,2.068a8.207,8.207,0,0,1-.349,3.455,3.708,3.708,0,0,0,.684,3.261c-.29,2.059,1.286,3.224,2.256,4.67,1.892,2.819,1.753,3.529-1.5,4.287-1.6.374-1.641,1.466-1.906,2.51-1.168,4.6-2.4,9.2-4.723,13.368-2.367,4.242-4.38,5.052-9.106,4.116a7.09,7.09,0,0,1-1.818-.458c-2.53-1.28-3.307-.3-2.982,2.214-.189.019-.472-.005-.482-.108-.339-3.49-3.428-4.125-5.729-5.634-4.087-2.681-7.333-5.961-7.221-11.35A1.589,1.589,0,0,0,1143.478,1279.658Z" transform="translate(-5806.236 -2291.159)" fill="#fb926e"/>
      <path id="Trazado_903201" data-name="Trazado 903201" d="M1514,2130.923c-.477-.268-.672-.719-.258-1.077,1.961-1.693,1.812-3.939,1.8-6.2-.032-8.351,0-16.7-.019-25.054-.01-4.114-.7-8.187-.571-12.325a202.422,202.422,0,0,1,2.346-24.212c.349-2.3.875-5.153,4.375-5.164.3,0,.6-.6.894-.923a8.742,8.742,0,0,1,1.748,3.775c-.445.577-.11.88.4,1.122,3,7.3,4.506,14.982,5.9,22.7,2.883,15.97,4.948,32.054,6.777,48.172-2.312,1.769-5.137.879-7.689,1.436a9.458,9.458,0,0,1-4.516-.235c-2.561-.719-3.341-2.55-2.127-4.941a18.621,18.621,0,0,1,1.767-2.35c.495-.684.852-1.464.221-2.2a1.5,1.5,0,0,0-2.189-.054c-1.621,1.37-3.672,2.222-4.858,4.129A8.229,8.229,0,0,1,1514,2130.923Z" transform="translate(-6151.307 -3024.985)" fill="#223f80"/>
      <path id="Trazado_903202" data-name="Trazado 903202" d="M2100.979,2818.21c-.075,1.463,1.02,1.788,2.079,1.965,5.981,1,11.971,1.948,17.959,2.913.73.615.578,1.457.544,2.246-.138,3.225,1.427,5.446,4.1,7.019a30.193,30.193,0,0,0,10.688,3.384c.865.142,1.817,0,2.512.733l.532.089a9.86,9.86,0,0,0,3.956.212c1.627-.029,2.129.754,1.775,2.155a42.483,42.483,0,0,0-.92,9.806c-.036,2.2-1.705,2.692-3.209,3.422a107.852,107.852,0,0,1-20.771.844,2.993,2.993,0,0,0-1.779.224c-1.793-.885-3.8-.778-5.69-1.233-9.282-2.24-13.244-6.7-13.638-16.28A64.174,64.174,0,0,1,2100.979,2818.21Z" transform="translate(-6682.99 -3717.11)" fill="#fdb18b"/>
      <path id="Trazado_903203" data-name="Trazado 903203" d="M1367.809,2782.157c2.671-2.668,4.88-5.816,8.062-7.948,1.052-.705,2.36-1.626,3.559-.514,1.283,1.191.862,2.567-.234,3.791-1.218,1.36-3.289,2.632-2.166,4.722,1.072,1.995,3.429,1.605,5.36,1.5,2.941-.155,5.873-.492,8.809-.75,3.972.282,8.016-.126,11.868,1.29.494.182,1.076.127,1.564.317.967.378,2.3.5,2.475,1.749.192,1.388-1.188,1.664-2.11,2.049-3.617,1.509-7.275,2.923-10.92,4.364-.816.323-1.766.4-2.259,1.287-7.876,2.488-15.877,4.584-23.611,7.519a35.337,35.337,0,0,0-9.368,3.729c-1.374.8-2.128.85-2.651-.952-1.023-3.526-2.242-7-3.435-10.472-.525-1.53-.229-2.37,1.4-3.067,4.367-1.866,8.721-3.814,12.368-6.974C1367.045,2783.347,1367.706,2782.96,1367.809,2782.157Z" transform="translate(-6005.114 -3676.22)" fill="#f98864"/>
      <path id="Trazado_903204" data-name="Trazado 903204" d="M1973.429,2173.7a10.154,10.154,0,0,1,10.185,10.3,10.339,10.339,0,0,1-10.027,10.018,10.069,10.069,0,0,1-10.292-10.181A10.34,10.34,0,0,1,1973.429,2173.7Z" transform="translate(-6559.708 -3131.891)" fill="#3bdffa"/>
      <path id="Trazado_903205" data-name="Trazado 903205" d="M1242.11,1594.21a1.448,1.448,0,0,1,1.08,1.386c.221,5.507,3.643,8.841,8.09,11.121,2.583,1.324,4.719,2.567,4.792,5.77q.018.535.037,1.07c-7.63-.564-13.9-8.138-13.97-16.122Q1242.126,1595.822,1242.11,1594.21Z" transform="translate(-5904.868 -2605.711)" fill="#fa735b"/>
      <path id="Trazado_903206" data-name="Trazado 903206" d="M1577.586,1364.436a3.563,3.563,0,0,1-.788-.091c-.74-.257-2.115.287-2.008-1.087.117-1.5,1.41-.9,2.312-.889C1577.727,1362.948,1578.109,1363.586,1577.586,1364.436Z" transform="translate(-6206.938 -2395.083)" fill="#121734"/>
      <path id="Trazado_903207" data-name="Trazado 903207" d="M1590.21,1426.9c-2.106-.691-2.621-1.718-.686-3.261C1590.922,1424.484,1590.517,1425.7,1590.21,1426.9Z" transform="translate(-6219.227 -2450.835)" fill="#2f2b38"/>
      <path id="Trazado_903208" data-name="Trazado 903208" d="M1616.452,2098.122c-.7.3-1.626.871-1.872-.291-.233-1.1.927-.621,1.476-.832Q1616.254,2097.559,1616.452,2098.122Z" transform="translate(-6243.044 -3062.246)" fill="#193271"/>
      <path id="Trazado_903209" data-name="Trazado 903209" d="M6939.382,2181.283c1.641-6.314,2.563-12.769,3.738-19.174,3.979-21.7,7.528-43.482,12.97-64.883,2.407-9.467,5.485-18.695,10.307-27.275,3.3-5.871,7.208-11.092,13.4-14.194,2.751-.046,5.571-.649,8.115,1a9.692,9.692,0,0,0-.388,2.651c.981,9.521-.915,18.783-2.82,27.989a592.35,592.35,0,0,1-16.887,62.1c-5.606,17.342-11.429,34.617-18.569,51.41a6.974,6.974,0,0,1-1.017,1.892,1.564,1.564,0,0,1-.787.392c-3.642-.368-7.09-1.583-10.614-2.464a1.817,1.817,0,0,1-1.369-1.154c1.2-5.215,2.406-10.427,3.579-15.647C6939.237,2183.059,6939.274,2182.163,6939.382,2181.283Z" transform="translate(-11074.464 -3024.667)" fill="#fe6868"/>
      <path id="Trazado_903210" data-name="Trazado 903210" d="M7071.47,2214.009c1.724-4.49,3.5-8.961,5.162-13.472,4.46-12.069,8.771-24.185,12.754-36.428,4.889-15.032,9.5-30.141,13.373-45.457,2.859-11.3,5.785-22.6,7.032-34.25.52-4.866,1.285-9.708.416-14.588-.212-1.191.052-1.7,1.2-1.8a15.653,15.653,0,0,1,9.706,11.218c1.31,3.827.266,7.652-.136,11.442-.92,8.683-3.288,17.072-5.652,25.44-5.636,19.948-12.312,39.554-19.557,58.969-1.78,4.682-3.478,9.4-5.282,14.072a12.545,12.545,0,0,1-1.234,2.676,4.126,4.126,0,0,1-.587.574c-2.117,3.142-3.054,6.819-4.617,10.214-1.942,4.222-3.747,8.507-5.611,12.765C7075.955,2215.74,7073.494,2215.972,7071.47,2214.009Z" transform="translate(-11197.958 -3035.933)" fill="#e64b4f"/>
      <path id="Trazado_903211" data-name="Trazado 903211" d="M7264.876,2285.96c2.446-6.989,4.959-13.954,7.325-20.97,5.73-17,11.43-34,15.556-51.489a116.966,116.966,0,0,0,3.09-23.536c2.86,5.87,3.382,12.246,3.584,18.582.383,12-2,23.711-4.431,35.394-2.75,13.243-6.01,26.383-8.077,39.763a129.087,129.087,0,0,0-1.325,16.613c-.029,1.189.02,2.362-1.2,3.061l-14.48-.036-6.515-.2c.031-.141.063-.282.094-.424a2.406,2.406,0,0,1,.907-.543c3.886-.985,3.864-.987,4.292-5.1C7264.078,2293.368,7264.526,2289.669,7264.876,2285.96Z" transform="translate(-11367.69 -3146.659)" fill="#f98846"/>
      <path id="Trazado_903212" data-name="Trazado 903212" d="M1139.626,3697.881c-1.266-4.486-1.565-8.861-2.093-13.169-.682-5.574-1.53-11.151-1.409-16.81.032-1.506.332-1.979,1.938-1.832,3.466.317,6.975-.079,10.435.576.811.154,1.723.059,1.685,1.217C1149.819,3678.829,1148.477,3689.462,1139.626,3697.881Z" transform="translate(-5808.622 -4486.948)" fill="#3373c0"/>
      <path id="Trazado_903213" data-name="Trazado 903213" d="M6092.625,2202.68c3.886-.206,7.775-.482,11.612.49,6.346,2.347,8.589,7.668,9.912,13.661,1.269,5.75.221,11.438-.721,17.064-1.8,10.774-4.273,21.42-6.72,32.066a4.611,4.611,0,0,1-1.354,2.852c-1.288,2.186-1.437,4.719-1.85,7.1-.8,4.6-3.252,7.058-7.864,7.431a2.083,2.083,0,0,1-1.43-1.461c-1.258-3.656-4.011-4.921-7.621-4.883-2.013-.605-2.333-2.192-2.482-4.006-.365-4.46.591-8.789,1.513-13.056,1.632-7.549,2.922-15.156,4.324-22.743,1.156-6.26,2.58-12.475,3.044-18.859.249-3.417.523-6.8-.218-10.177a4.189,4.189,0,0,1,.141-2.9,1.029,1.029,0,0,0-.516-1.554C6092.192,2203.3,6092.052,2202.909,6092.625,2202.68Z" transform="translate(-10301.354 -3158.023)" fill="#4390d1"/>
      <path id="Trazado_903214" data-name="Trazado 903214" d="M6304.818,2275.631c2.022-9.415,4.026-18.834,6.075-28.243a92.5,92.5,0,0,0,2.465-18.8,23.414,23.414,0,0,0-4.227-13.889c-1.439-2.061-3.8-2.939-5.431-4.716,8.586,1,15.843,4.057,19.558,12.607a8.016,8.016,0,0,1,.963,4.11c-2.294-.466-2.925.693-2.593,2.71.452,2.741.848,5.481,1.037,8.262a7.548,7.548,0,0,1-2.475,6.532c-4.437,3.96-5.223,8.847-4.211,14.456,1.128,6.258,3.072,12.081,7.294,16.969a1.973,1.973,0,0,1-.06,2.542c-.25.823.374,2.007-.492,2.462s-1.278-.638-1.776-1.2c-.876-1-1.74-.37-2.65-.044-3.534,1.264-6.975.295-10.359-.641C6306.444,2278.336,6305.732,2276.8,6304.818,2275.631Z" transform="translate(-10500.818 -3164.84)" fill="#2b5db0"/>
      <path id="Trazado_903215" data-name="Trazado 903215" d="M5835.655,3008.488c3.659-.589,5.632.4,7.288,3.7.475.944.895,1.914,1.34,2.872a4.7,4.7,0,0,0,1.064,3c3.67,4.4,2.739,9.615,2.764,14.678.006,1.43-.825,1.61-1.923,1.545-1.519-.09-3.037-.194-4.555-.292a9.017,9.017,0,0,0-4.755.261,18.956,18.956,0,0,1-13.574.158c-3.565-1.656-7.436-2.79-10.152-5.906-1.669-2.489-2.8-5.351-5.285-7.28a1.832,1.832,0,0,1-.351-2.452,2.406,2.406,0,0,1,2.553-1.126c3.545.547,7.143.172,10.672.67a24.939,24.939,0,0,0,4.786.278c2.139-.048,4.277.073,6.414.048.085-.008.174-.012.263-.015,1.84-.063,3.99.387,5.033-1.609.952-1.822-.737-3.092-1.532-4.534C5835,3011.2,5833.537,3009.837,5835.655,3008.488Z" transform="translate(-10049.997 -3889.737)" fill="#f98962"/>
      <path id="Trazado_903216" data-name="Trazado 903216" d="M6515.819,2867.5q.03-1.271.06-2.542c1.875-.049,2.275-1.744,3.155-2.875.758-.973,1.4-2.039,2.088-3.063.4,4.025,3.125,6.917,5.061,10.167,3.965,6.652,8.249,13.112,11.9,19.953a31.5,31.5,0,0,1,2.1,5.194c.252.781.282,1.866,1.515,1.93-4.826,2.924-9.524,1.771-13.989-.729-4.751-2.662-6.994-7.311-8.722-12.208-1.283-3.635-1.8-7.461-2.574-11.219C6516.193,2870.573,6516.478,2868.975,6515.819,2867.5Z" transform="translate(-10693.424 -3754.163)" fill="#fe766e"/>
      <path id="Trazado_903217" data-name="Trazado 903217" d="M5537.323,2769.11q-6.7-.341-13.4-.685c-.714-.037-1.426-.158-2.14-.173-.791-.016-1.767-.184-2.126.726s.433,1.522,1.049,2a10.131,10.131,0,0,1,4.4,7.369c-2.964.131-4.323-2.191-5.872-4.039-1.7-2.025-3.093-4.3-4.663-6.437-.622-.844-1.229-1.776-2.451-1.865a31.507,31.507,0,0,1-3.213-4.243c-1.417-3.737-4.5-6.31-6.693-9.51-1.746-2.55-3.857-4.85-5.806-7.26l-4.827-5.938c-.482-1.945-2.956-3.685-.607-5.92a133.572,133.572,0,0,1,15.313-.16c2.252.034,3.738,1.559,5.18,3.059,6.447,8.24,12.4,16.854,18.665,25.236,1.393,1.863,3.078,3.536,4.161,5.587C5535,2768.193,5536.929,2767.57,5537.323,2769.11Z" transform="translate(-9761.955 -3639.582)" fill="#72a0d4"/>
      <path id="Trazado_903218" data-name="Trazado 903218" d="M5695.76,3047.3c1.674.958,3,2.181,3.213,4.243-1.209,1.383-1.44,3.108-1.691,4.826-.831.449-.243,1.588-1.007,2.069-.825-3.178.1-6.448-.512-9.637Q5695.761,3048.052,5695.76,3047.3Z" transform="translate(-9948.805 -3925.125)" fill="#b3def2"/>
      <path id="Trazado_903219" data-name="Trazado 903219" d="M5695.535,3063.63c.96,3.171.306,6.428.511,9.638l-.537.638Q5695.522,3068.767,5695.535,3063.63Z" transform="translate(-9948.577 -3939.952)" fill="#72a0d4"/>
      <path id="Trazado_903220" data-name="Trazado 903220" d="M6923.737,3654.95l6.969,1.381q-.791,2.034-1.583,4.067a11.342,11.342,0,0,0-.909,1.3q-6.99,13.608-13.963,27.224c-.115.224-.381.37-.576.552-1.8.307-3.5.253-4.775-1.333a2.942,2.942,0,0,1,.312-2.326c4.458-9.577,8.671-19.261,12.834-28.968a4.076,4.076,0,0,1,1.177-1.768A4.231,4.231,0,0,0,6923.737,3654.95Z" transform="translate(-11050.225 -4476.874)" fill="#2d60b4"/>
      <path id="Trazado_903221" data-name="Trazado 903221" d="M4400.36,3837.092c3.417-.966,6.9-.3,10.349-.392q-.121.2-.232.414Z" transform="translate(-8772.575 -4641.776)" fill="#a93a51"/>
      <path id="Trazado_903222" data-name="Trazado 903222" d="M3070.55,3801.347l4.827-.183,5.374.162A23.036,23.036,0,0,1,3070.55,3801.347Z" transform="translate(-7565.101 -4609.638)" fill="#1f3a78"/>
      <path id="Trazado_903223" data-name="Trazado 903223" d="M6808.847,3991.567c1.4,1,3.23.638,4.688,1.462a108.091,108.091,0,0,0,.336,20.7,3.059,3.059,0,0,0,2.637,2.941c2.2.511,2.66,2.394,1.314,4.292a9.9,9.9,0,0,1-10.133,4.294,3.179,3.179,0,0,0-.8.1c-1.782-.126-3.564-.243-5.344-.381-1.922-.148-2.831-1.186-2.938-3.128a128.248,128.248,0,0,1,.98-21.145,65.195,65.195,0,0,1,1.947-11.345C6804.337,3988.888,6806.593,3990.229,6808.847,3991.567Z" transform="translate(-10950.085 -4780.427)" fill="#fc9d79"/>
      <path id="Trazado_903224" data-name="Trazado 903224" d="M6838.966,3656.67c-2.6-.191-4.813-1.679-7.311-2.216,3.716-11.191,6.6-22.617,9.55-34.023l12,3.3c-1.368,4.83-3.705,9.271-5.662,13.858C6844.8,3644,6841.835,3650.316,6838.966,3656.67Z" transform="translate(-10980.204 -4445.531)" fill="#4eb7df"/>
      <path id="Trazado_903225" data-name="Trazado 903225" d="M4521.92,2298.019c2.3.161,4.6.18,6.907.494,2.111.287,2.844,1.391,3.443,3.114,3.73,10.732,4.6,21.828,4.314,33.078l0,.041c-3.049,1.3-6.279,1.253-9.5,1.288s-3.35.168-3.974,3.394c-1.837,9.5-3.471,19.051-6.663,28.232a16.6,16.6,0,0,1-1.607,3.686c-.976,1.5-2.217,2.318-4.068,1.693a70.916,70.916,0,0,1-17.335-2.729,5.882,5.882,0,0,1,.441-2.1c2.761-6.474,2.793-13.448,3.723-20.254,1.419-10.387,1.879-20.86,2.792-31.291.4-4.556.32-9.1.694-13.635.2-2.474-1.46-3.231-3.131-4.125-.264-2.053.543-3.162,2.713-3.066C4507.526,2298.766,4514.741,2298.221,4521.92,2298.019Z" transform="translate(-8857.088 -3242.79)" fill="#fdb440"/>
      <path id="Trazado_903226" data-name="Trazado 903226" d="M4211.938,1587.666c-.936-3.325-.161-6.733-.805-10.672,5.34,4.6,11.153,3.188,16.774,2.9,2.559-.13,5.063-.261,7.159,1.5,1.5,1.263,1.526,3.381,3.223,5.172-3.357-.716-6.127-2.908-9.223-.3,1.724,1.189,3.5.845,5.039.8,4.5-.141,6.469,3.3,8.963,5.967.675.721.2,1.936-.105,2.857-1.113,3.31-2.187,6.64-3.485,9.878-2,5-3.188,10.248-4.871,15.343-3.155,2.327-6.56,3.508-10.489,2.293-3.8-1.554-7.336-3.467-9.571-7.124-.251-.217-.668-.314-.569-.786-2.74-4.688-5.246-9.443-4.3-15.175.029-.177.038-.357.069-.534.868-5,.86-4.972,5.742-3.476.982.3,2.394.716,2.784-.612.354-1.2-.857-1.824-1.915-2.179a4.086,4.086,0,0,0-1.322-.155c-1.3.013-3.243,1.176-3.718.1a5.831,5.831,0,0,1,.667-5.114c1.809-1.669,4.121-1.679,6.363-1.92C4215.978,1585.64,4214.094,1587.355,4211.938,1587.666Z" transform="translate(-8599.25 -2590.079)" fill="#fcab85"/>
      <path id="Trazado_903227" data-name="Trazado 903227" d="M4245.514,2142.5c-1.414.455-1.861,1.909-2.875,2.777-1.757,2.176-4.419,2.125-6.793,2.591a28.735,28.735,0,0,1-9.862,0,8.761,8.761,0,0,1-5.435-2.551,11.987,11.987,0,0,1-6.267-6.648c-.374-1.031-.382-2.344-1.851-2.606,2.408-.59,4.8-1.564,7.227-1.682,3.966-.193,5.973-2.029,6.385-5.854,2.8-1.231,5.859-1,8.784-1.534.993-.181,1.61.454,1.616,1.6a13.976,13.976,0,0,0,.147,3.691C4237.4,2137.567,4241.145,2140.305,4245.514,2142.5Z" transform="translate(-8601.935 -3089.446)" fill="#fdab85"/>
      <path id="Trazado_903228" data-name="Trazado 903228" d="M4370.928,2068.405a2.26,2.26,0,0,1-.366-.69c-.531-4.278-.546-4.36-4.623-3.36a24.934,24.934,0,0,1-5.559.3q.379-2.873.76-5.744c3.674.048,7.064-1.2,10.489-2.292A74.368,74.368,0,0,0,4370.928,2068.405Z" transform="translate(-8736.272 -3025.578)" fill="#f6786a"/>
      <path id="Trazado_903229" data-name="Trazado 903229" d="M4579.228,1883.888c1.123,1.157,1.175,2.668,1.811,3.886,1.363,2.612,3.4,3.874,5.233,3.158,2.154-.843,3.021-2.993,2.37-5.874a1.733,1.733,0,0,1-.09-.529c.113-1.065-1.812-2.505-.455-2.863,1.461-.385,1.553,1.84,1.875,3.022a7.034,7.034,0,0,1-.465,5.244c-1.073,2.011-2.721,3.095-5.071,2.59C4581.265,1891.841,4578.574,1887.461,4579.228,1883.888Z" transform="translate(-8934.898 -2866.682)" fill="#e8ebee"/>
      <path id="Trazado_903230" data-name="Trazado 903230" d="M4236.26,1671.7c3.207-2.641,6.4-2.93,8.592-.47a26.536,26.536,0,0,0-8.545,1.163Q4236.284,1672.044,4236.26,1671.7Z" transform="translate(-8623.571 -2674.111)" fill="#1f203b"/>
      <path id="Trazado_903231" data-name="Trazado 903231" d="M4185.874,1948.454l.57.786c-3.779,2.824-8.188.289-7.908-5.558,1.1,1.717.911,3.706,2.317,4.789C4182.5,1949.739,4184.2,1949.377,4185.874,1948.454Z" transform="translate(-8571.147 -2923.033)" fill="#bcc5d6"/>
      <path id="Trazado_903232" data-name="Trazado 903232" d="M5855.035,2067.433l-.3.923c-.262,2.886-2.5,4.444-4.332,6.193-4.224,4.033-9.308,5.07-14.923,3.843-1.041-.228-2.138-.429-2.662-1.567-4.342-2.93-8.279-6.237-10.455-11.19,3.889.348,5.41-2.192,6.447-5.3.305-.915.556-1.849.833-2.774a2.643,2.643,0,0,1,1.974-.682,18.956,18.956,0,0,0,9.932-2.858c.594-.381,1.245-.786,1.954-.174a51.413,51.413,0,0,0,.876,5.829C5845.846,2065.209,5848.491,2067.064,5855.035,2067.433Z" transform="translate(-10063.765 -3022.776)" fill="#fd9670"/>
      <path id="Trazado_903233" data-name="Trazado 903233" d="M5870.186,1944.735c-4.247,2.63-8.776,4.206-13.86,3.714.011-.178.011-.357.032-.534.194-1.592.977-3.423.446-4.716-.706-1.72-2.879-.271-4.323-.784-.249-.089-.488-.2-.732-.306,8.429.906,14.4-3.907,20.365-8.743.649.257.617.56.061.9C5870.208,1937.507,5870.811,1941.238,5870.186,1944.735Z" transform="translate(-10090.444 -2913.667)" fill="#f76a5a"/>
      <path id="Trazado_903234" data-name="Trazado 903234" d="M6073.181,1883.255q-.03-.449-.061-.9c.39-.95.393-2.1,1.435-2.708-.119,1.505-.59,2.978-.218,4.527.542,2.26,1.5,4.069,4.142,4.181,2.569.109,3.53-1.646,4.216-3.734.914-2.783-.487-4.972-2.095-7.435a6.834,6.834,0,0,1,2.655,8.348c-.928,2.725-2.724,4.1-5.076,3.9C6075.707,1889.213,6073.726,1886.766,6073.181,1883.255Z" transform="translate(-10291.45 -2862.657)" fill="#ccced3"/>
      <path id="Trazado_903235" data-name="Trazado 903235" d="M6881.285,1680.27c1.2.123,2.256-.212,2.519,1.053.266,1.282-.545,1.789-1.6,2q-3.531.716-7.077,1.358c-1.639.3-2.215-.826-2.575-2.1-.26-.919-.047-1.573,1.118-1.578,1.338-.005,2.683-.02,4.013-.154S6880.313,1680.432,6881.285,1680.27Z" transform="translate(-11017.246 -2683.854)" fill="#fbf9f9"/>
      <path id="Trazado_903236" data-name="Trazado 903236" d="M6951.047,1453.292c-2.222-2.4-4.577-2.143-6.869-2.215-1.223-.039-2.7.111-2.593-1.8.088-1.658,1.362-1.886,2.661-1.978C6947.835,1447.042,6950.584,1449.152,6951.047,1453.292Z" transform="translate(-11080.017 -2472.295)" fill="#182058"/>
      <path id="Trazado_903237" data-name="Trazado 903237" d="M6836.639,1595.45c.541,2.016-4.966,2.457-.8,5-1.266.344-2.3.552-2.875-.469-.521-.93.242-1.72.851-2.3C6834.644,1596.881,6835.265,1595.728,6836.639,1595.45Z" transform="translate(-10981.232 -2606.837)" fill="#eb5745"/>
      <path id="Trazado_903238" data-name="Trazado 903238" d="M6962.275,1558.151c-.989-.14-1.16-.82-1.154-1.543.008-1.007.209-2.068,1.463-2.061.875.005.938.943.953,1.624A1.782,1.782,0,0,1,6962.275,1558.151Z" transform="translate(-11097.76 -2569.696)" fill="#282433"/>
      <path id="Trazado_903239" data-name="Trazado 903239" d="M6855.568,1547.464c-.829-.224-.766-.893-.714-1.513.061-.734.24-1.574,1.13-1.549.956.026.989.892.888,1.62S6856.464,1547.4,6855.568,1547.464Z" transform="translate(-11001.244 -2560.484)" fill="#2c3a4c"/>
      <path id="Trazado_903240" data-name="Trazado 903240" d="M4222.2,2326.129c7.369,3.356,14.73,2.55,22.09-.036,3.73.26,4.669,1.506,3.922,5.189a2.62,2.62,0,0,0-.131,1.056c1.277,5.189-.365,10.282-.693,15.387-.575,8.954-1,17.941-2.427,26.837-.786,4.91-1.038,9.9-1.763,14.826-.4,2.717-2.021,5.136-2.382,7.915-.026.2-.576.323-.882.482-4.771-.328-9.3-1.9-13.967-2.745-2.371-1.3-5.226-1.207-7.557-2.623a1.44,1.44,0,0,0-.9-1.51c-3.1-1.011-3.843-3.109-2.849-6.03a17.853,17.853,0,0,0,.521-5.836c.018-6.019.7-12.1.3-18.029-.442-6.685,1.929-12.945,1.494-19.6-.3-4.537.977-9.263,4.943-12.464C4223.109,2328,4222.671,2327.12,4222.2,2326.129Z" transform="translate(-8603.589 -3270.265)" fill="#fec241"/>
      <path id="Trazado_903241" data-name="Trazado 903241" d="M4681.87,2757.1c2.957.159,3.665-2.144,4.434-4.21,3.347-8.982,4.967-18.4,6.819-27.752.1-.524.194-1.051.309-1.573.928-4.219.931-4.164,5.433-4.266,2.942-.067,5.88-.323,8.819-.494a5.641,5.641,0,0,0-.528,3.126,111.331,111.331,0,0,1-3.25,26.145,23.729,23.729,0,0,1-2.912,6.6c-1.825,3.017-5.065,3.984-8.113,3.775C4689.221,2758.2,4685.4,2758.569,4681.87,2757.1Z" transform="translate(-9028.188 -3626.851)" fill="#fe9774"/>
      <path id="Trazado_903242" data-name="Trazado 903242" d="M5831.4,2217.529c8.923,3.042,15.418.843,20.8-7.032.342-.5.745-.959,1.119-1.437.821-.263,1.839-1.056,2.438-.14.523.8-.655,1.307-1.139,1.889a1.663,1.663,0,0,0-.341,1.7c1.746,6.5.488,12.981-.547,19.369-1.664,10.269-3.76,20.469-5.714,30.689-.918,4.8-2.253,9.535-2.154,14.486.04,2-.52,4.254,2.141,5.173-1.05,1.525-.075,2.676.725,3.845,1.073,1.569,2.966,3.027,1.748,5.157-1.231,2.153-3.573,1.923-5.71,1.832-2.2.1-3.426-1.106-4.684-2.828-6.143-8.408-12.078-16.96-17.925-25.573-.646-.952-1.886-1.835-1.1-3.315,1.053.463,2.07,1,2.179-.927.333-5.885,1.893-11.578,2.813-17.373.878-5.53,1.565-11.1,3.094-16.518C5829.979,2223.554,5830.652,2220.531,5831.4,2217.529Z" transform="translate(-10062.344 -3163.48)" fill="#4aa3d9"/>
      <path id="Trazado_903243" data-name="Trazado 903243" d="M5474.6,2463.159c-2.361-2.976-5.529-3.39-9.112-3.334-3.8.059-7.658.7-11.421-.447,2.364-1.908,2.311-4.042,1.354-6.838-2.265-6.618-4.089-13.387-6.09-20.1,2.249-.66,4.813.658,6.884-1.1,1.438,3.495,1.713,7.276,2.575,10.908.954,4.02,2.344,7.875,3.522,11.808a2.7,2.7,0,0,0,3.186,2.137c2.233-.146,4.523.208,6.716-.127,5.384-.823,8.018,2.26,9.98,6.515-1.1,1.814-3.646,2.483-5.992,1.556A15.679,15.679,0,0,1,5474.6,2463.159Z" transform="translate(-9725.044 -3365.83)" fill="#386dbc"/>
      <path id="Trazado_903244" data-name="Trazado 903244" d="M5724.01,2771.513c2.579.445,5.2,1.415,7.593-.577l1.563,1.118c2.349,4.818,5.8,8.914,8.8,13.3,3.762,5.491,7.895,10.733,11.543,16.295.96,1.463,2.283,1.385,3.365,2.125l-7.053-.058c-3.992-.214-4.957-3.926-6.8-6.315C5736.488,2788.921,5730.319,2780.164,5724.01,2771.513Z" transform="translate(-9974.457 -3674.185)" fill="#5081c6"/>
      <path id="Trazado_903245" data-name="Trazado 903245" d="M5536.345,2329.279c-.279-1.344.434-2.556.526-3.856.05-.7-.433-1.865.638-1.957.89-.076,1.464.813,1.53,1.8A15.71,15.71,0,0,1,5536.345,2329.279Z" transform="translate(-9803.997 -3267.875)" fill="#e4544b"/>
      <path id="Trazado_903246" data-name="Trazado 903246" d="M5801.36,1832.747c.544.228,1.843-.237.926,1.246a16.018,16.018,0,0,1-2.475,2.624c-2.82,2.792-7.7,3.245-10.191.948-.593-.742-1.215-1.463-1.774-2.229-1.1-1.513-.522-2.092,1.165-2.008a2.61,2.61,0,0,1,1.936-.71,74.661,74.661,0,0,0,8.443-.447A2.321,2.321,0,0,1,5801.36,1832.747Z" transform="translate(-10031.908 -2821.754)" fill="#f54b54"/>
      <path id="Trazado_903247" data-name="Trazado 903247" d="M5781.615,1801.133a56.793,56.793,0,0,1-12.348.58c-1.539-.712-4.66-.226-3.463-3.232,1.067-2.681,2.8.114,4.182.293a42.042,42.042,0,0,0,9.341.068c1.332-.122,2.665-.238,4-.309.751-.041,1.489.071,1.51,1.071s-.659,1.139-1.447,1.122A2.288,2.288,0,0,0,5781.615,1801.133Z" transform="translate(-10012.163 -2790.14)" fill="#faf6f4"/>
      <path id="Trazado_903248" data-name="Trazado 903248" d="M5916.408,1674.815c-2.326-.526-3.99-1.173-5.789-.26-1.271.645-2.135-.512-3.022-1.208a.814.814,0,0,1-.128-1.36,2.9,2.9,0,0,1,2.924-.915C5912.546,1671.75,5914.833,1672.3,5916.408,1674.815Z" transform="translate(-10140.755 -2675.399)" fill="#1e1f35"/>
      <path id="Trazado_903249" data-name="Trazado 903249" d="M5923.108,1593.325a17.91,17.91,0,0,0-8.265-2.8c-.661-.087-1.714.181-1.727-.793-.014-1.09,1-1.421,1.946-1.386C5918.646,1588.475,5921.235,1590.311,5923.108,1593.325Z" transform="translate(-10146.167 -2600.381)" fill="#25294c"/>
      <path id="Trazado_903250" data-name="Trazado 903250" d="M5730.84,1581.473a8.057,8.057,0,0,1,6.8-3.379c.863-.021,1.836.364,1.814,1.548-.024,1.332-1.1.926-1.794.9A19.157,19.157,0,0,0,5730.84,1581.473Z" transform="translate(-9980.658 -2591.077)" fill="#27254c"/>
      <path id="Trazado_903251" data-name="Trazado 903251" d="M5808.177,1881.748c3.565,1.5,6.927.8,10.191-.948.279,1.577-1.042,1.761-1.985,2.172-2.4,1.046-4.856,1.615-7.423.555C5808.127,1883.183,5807.112,1882.924,5808.177,1881.748Z" transform="translate(-10050.465 -2865.936)" fill="#f0e2d0"/>
      <path id="Trazado_903252" data-name="Trazado 903252" d="M5792.583,1679.53c-.69,3.479-2.014,6.561-5.6,8.049A26.713,26.713,0,0,0,5792.583,1679.53Z" transform="translate(-10031.641 -2683.182)" fill="#e15d50"/>
      <path id="Trazado_903253" data-name="Trazado 903253" d="M3055.5,2419.157a32.55,32.55,0,0,1-3.289-16.058c.171-5.71-.437-11.454,1.031-17.1.494-1.9,1.739-3.56,1.7-5.609a15.95,15.95,0,0,1,4.294-4.281,5.9,5.9,0,0,0,2.729-5.265c.007-.656.11-1.371.808-1.548.908-.231,1.2.581,1.5,1.222a4.348,4.348,0,0,1,.15,3.663c-1.73,3.762-.436,6.918,1.659,10a14.938,14.938,0,0,1,2.856,9.856,24.327,24.327,0,0,0,3.246,14.858,3.392,3.392,0,0,1-1.933,3.208c-3.177,1.971-6.775,3.187-9.751,5.5-.07.055-.172.173-.206.156C3058.266,2416.728,3057.021,2418.41,3055.5,2419.157Z" transform="translate(-7548.435 -3309.456)" fill="#feaa83"/>
      <path id="Trazado_903254" data-name="Trazado 903254" d="M3136.289,1764.84c-.3-.578-1.4-.8-.9-1.713.43-.793,1.3-.519,1.947-.43,3.429.472,6.723,1.788,10.254,1.643a3.535,3.535,0,0,1-.521,2.066c-3.452,1.677-6.578.527-9.646-1.114Z" transform="translate(-7623.859 -2758.59)" fill="#faf7f5"/>
      <path id="Trazado_903255" data-name="Trazado 903255" d="M3147.265,1523.91c1.531-.928,3.234-.739,4.9-.736.881,0,1.953-.1,2.077,1.106a1.925,1.925,0,0,1-1.878,2.154c-1.489.224-3,.332-4.5.472a5.034,5.034,0,0,0-2.794.7c-.99-.1-.822-.637-.481-1.252C3145.215,1525.241,3146.428,1524.782,3147.265,1523.91Z" transform="translate(-7632.095 -2541.194)" fill="#c63c43"/>
      <path id="Trazado_903256" data-name="Trazado 903256" d="M3158.74,1792.09c3.2.488,6.344,1.5,9.647,1.114.023,2.205-1.187,2.929-3.232,2.783C3162.633,1795.807,3159.586,1794,3158.74,1792.09Z" transform="translate(-7645.178 -2785.387)" fill="#fa7c6b"/>
      <path id="Trazado_903257" data-name="Trazado 903257" d="M3187.3,1644.1c-.263-1.394.609-1.988,1.779-2.05,1.1-.058,1.478.758,1.5,1.8.026,1.318-.532,2.048-1.886,2.032C3187.547,1645.862,3187.131,1645.21,3187.3,1644.1Z" transform="translate(-7671.072 -2649.146)" fill="#131a32"/>
      <path id="Trazado_903258" data-name="Trazado 903258" d="M2538.977,2883.573c3.515-1.847,2.176-5.329,2.629-8.149.266-1.657.04-3.406.75-5,.648-1.456.113-1.915-1.362-1.965-1.208-.042-2.523.474-3.619-.479,4.649-.012,9.3,0,13.946-.045,4.568-.042,5.543-.821,6.885-5.035.649-2.039,1.437-4.036,2.222-6.029a5.151,5.151,0,0,1,2.721-3.173c1.047-.437,2.167-1.455,3.2-.459,1,.962-.373,1.69-.737,2.508-1.347,3.026-.9,3.846,2.256,3.545a33.481,33.481,0,0,0,10.305-2.593c1.258-.551,2.6-1.215,3.652.147,1.072,1.387,1.648,3.534.762,4.708-2.436,3.232-3,7.055-4.126,10.684-1.542,4.986-3.7,6.609-8.68,7.689-5.572,1.207-11.283,1.248-16.813,2.557Z" transform="translate(-7080.975 -3748.53)" fill="#fea47e"/>
      <path id="Trazado_903259" data-name="Trazado 903259" d="M2352.88,2203.549c-4.2.281-8.131-.972-11.893-2.542-4.719-1.97-7.037-5.542-5.947-10.839,2-6.5,5.963-11.962,9.351-17.724,5.065-8.615,10.7-16.9,14.559-26.2a25.3,25.3,0,0,0-1.4-23.285,6.818,6.818,0,0,1-.42-1.26c1.044-1.339,1.144.22,1.649.537a1.157,1.157,0,0,0,.541,1.076,15.119,15.119,0,0,1,2.7,6.993l.008.011c1.074,8.8-1.584,16.735-5.454,24.449-1.86,3.708-2.379,7.8-2.639,11.908-.548,8.678.969,17.274,1.025,25.921A28.979,28.979,0,0,1,2352.88,2203.549Z" transform="translate(-6897.012 -3084.191)" fill="#fd9d42"/>
      <path id="Trazado_903260" data-name="Trazado 903260" d="M2604.274,2151.515l-2.7-6.993A7.227,7.227,0,0,1,2604.274,2151.515Z" transform="translate(-7139.27 -3105.397)" fill="#feb83f"/>
      <path id="Trazado_903261" data-name="Trazado 903261" d="M2551.052,2086.607c-.606,0-.819-1.215-1.648-.537q-1.318-1.485-2.635-2.97a.613.613,0,0,1-.052-.925c.281-.294.825-.365.875-.019C2547.9,2084.327,2550.708,2084.508,2551.052,2086.607Z" transform="translate(-7089.287 -3048.559)" fill="#feb83f"/>
      <path id="Trazado_903262" data-name="Trazado 903262" d="M1448.349,1592.045a28.812,28.812,0,0,1-8.479-2.254c-.784-.368-1.84-.723-1.454-1.882.336-1.008,1.369-.741,2.1-.6a75.81,75.81,0,0,0,8.187,1.2c.937.076,2.548-.223,2.344,1.73C1450.864,1591.977,1449.723,1592.133,1448.349,1592.045Z" transform="translate(-6083.04 -2599.317)" fill="#faf8f6"/>
      <path id="Trazado_903263" data-name="Trazado 903263" d="M1401.35,1344.727a7.074,7.074,0,0,1,7.337-3.534c.959.2,1.721.578,1.57,1.741-.142,1.094-.9,1.1-1.787,1.028a18.687,18.687,0,0,0-3.459-.078A30.747,30.747,0,0,0,1401.35,1344.727Z" transform="translate(-6049.458 -2375.855)" fill="#191b4b"/>
      <path id="Trazado_903264" data-name="Trazado 903264" d="M1452.019,1439.375c-1.36.03-1.655-.725-1.686-1.539-.035-.913.214-1.852,1.375-1.828,1.04.022,1.125.928,1.188,1.727C1452.963,1438.6,1452.787,1439.321,1452.019,1439.375Z" transform="translate(-6093.932 -2462.063)" fill="#101634"/>
      <path id="Trazado_903265" data-name="Trazado 903265" d="M7265.8,3233.46c.389.222.9.458.8.959-.88,4.45-.917,8.991-1.5,13.472-.234,1.809-1.087,2.673-3.011,2.355a16.96,16.96,0,0,0-2.675-.033Q7262.609,3241.837,7265.8,3233.46Z" transform="translate(-11368.614 -4094.159)" fill="#faaa46"/>
      <path id="Trazado_903266" data-name="Trazado 903266" d="M4288.2,1899.657c-2.128-1.277-4.046-2.747-4.815-5.266a14.878,14.878,0,0,1,10.729-.165c1.568.023,3.137.069,4.705.061.877,0,1.083.339.712,1.1C4297.164,1899.159,4291.945,1901.126,4288.2,1899.657Z" transform="translate(-8666.364 -2877.293)" fill="#e43b45"/>
      <path id="Trazado_903267" data-name="Trazado 903267" d="M4279.163,1872.39l-10.73.166c-.937-.253-1.781-.659-1.437-1.827a1.974,1.974,0,0,1,2.022-1.469q8.738,0,17.476.02c.535,0,1.2-.005,1.16.748a1.851,1.851,0,0,1-1.6,1.893c-1.146.146-2.326-.017-3.488.037C4281.427,1872.009,4280.229,1871.708,4279.163,1872.39Z" transform="translate(-8651.409 -2855.457)" fill="#faf7f6"/>
      <path id="Trazado_903268" data-name="Trazado 903268" d="M4444.2,1752.585a12.392,12.392,0,0,0-4.8,1.62,1.931,1.931,0,0,1-2.89-1.014c-.544-1.288.934-1.532,1.681-1.808C4440.354,1750.581,4442.3,1751.525,4444.2,1752.585Z" transform="translate(-8805.289 -2748.152)" fill="#181c3f"/>
      <path id="Trazado_903269" data-name="Trazado 903269" d="M4329.693,1920.188c4.549.626,8.147-1.271,11.33-4.27.129.207.417.488.36.611-1.488,3.244-8.426,5.9-11.7,4.5C4329.067,1920.767,4328.707,1920.462,4329.693,1920.188Z" transform="translate(-8707.854 -2897.824)" fill="#ecdee2"/>
    </g>
  </g>
</svg>
