<svg xmlns="http://www.w3.org/2000/svg" xmlns:xlink="http://www.w3.org/1999/xlink" width="120" height="120" viewBox="0 0 120 120">
  <defs>
    <filter id="Trazado_900496" x="0" y="0" width="120" height="120" filterUnits="userSpaceOnUse">
      <feOffset input="SourceAlpha"/>
      <feGaussianBlur stdDeviation="3" result="blur"/>
      <feFlood flood-color="#fff" flood-opacity="0.659"/>
      <feComposite operator="in" in2="blur"/>
      <feComposite in="SourceGraphic"/>
    </filter>
  </defs>
  <g id="Grupo_1112901" data-name="Grupo 1112901" transform="translate(-1263.051 -643)">
    <g transform="matrix(1, 0, 0, 1, 1263.05, 643)" filter="url(#Trazado_900496)">
      <path id="Trazado_900496-2" data-name="Trazado 900496" d="M51,0A51,51,0,1,1,0,51,51,51,0,0,1,51,0Z" transform="translate(9 9)" fill="#017e6d"/>
    </g>
    <g id="Grupo_1112589" data-name="Grupo 1112589" transform="translate(1287.552 670)">
      <g id="Grupo_1112547" data-name="Grupo 1112547" transform="translate(48.388 0.975)">
        <path id="Trazado_900643" data-name="Trazado 900643" d="M364.633,26a9.251,9.251,0,1,0-9.247-9.251A9.269,9.269,0,0,0,364.633,26Z" transform="translate(-355.386 -7.501)" fill="#22a6fe" fill-rule="evenodd"/>
      </g>
      <g id="Grupo_1112548" data-name="Grupo 1112548" transform="translate(54.587 0.975)">
        <path id="Trazado_900644" data-name="Trazado 900644" d="M406.107,7.5a9.251,9.251,0,1,1-2.946,18.019,9.254,9.254,0,0,0-.1-17.508A9.317,9.317,0,0,1,406.107,7.5Z" transform="translate(-403.06 -7.5)" fill="#0182fc" fill-rule="evenodd"/>
      </g>
      <g id="Grupo_1112549" data-name="Grupo 1112549" transform="translate(51.67 11.857)">
        <path id="Trazado_900645" data-name="Trazado 900645" d="M384.148,91.184a5.987,5.987,0,0,0-3.518,5.437,9.241,9.241,0,0,0,11.928,0,5.987,5.987,0,0,0-3.518-5.437Z" transform="translate(-380.63 -91.184)" fill="#fd4755" fill-rule="evenodd"/>
      </g>
      <g id="Grupo_1112550" data-name="Grupo 1112550" transform="translate(53.732 4.912)">
        <path id="Trazado_900646" data-name="Trazado 900646" d="M396.484,41.678a3.9,3.9,0,1,0,3.9-3.9A3.9,3.9,0,0,0,396.484,41.678Z" transform="translate(-396.484 -37.774)" fill="#ffe5c1" fill-rule="evenodd"/>
      </g>
      <g id="Grupo_1112551" data-name="Grupo 1112551" transform="translate(56.652 4.912)">
        <path id="Trazado_900647" data-name="Trazado 900647" d="M418.945,37.9a3.908,3.908,0,0,1,1.467,6.822h0a3.839,3.839,0,0,1-1.467.736,3.819,3.819,0,0,0,.982.127,3.9,3.9,0,0,0,0-7.808A3.778,3.778,0,0,0,418.945,37.9Z" transform="translate(-418.941 -37.775)" fill="#fed1a3" fill-rule="evenodd"/>
      </g>
      <g id="Grupo_1112552" data-name="Grupo 1112552" transform="translate(58.681 11.857)">
        <path id="Trazado_900648" data-name="Trazado 900648" d="M434.544,91.9A8.375,8.375,0,0,1,437.4,97.94a9.227,9.227,0,0,0,2.065-1.32,5.987,5.987,0,0,0-3.518-5.437A3.856,3.856,0,0,1,434.544,91.9Z" transform="translate(-434.544 -91.183)" fill="#e41e2b" fill-rule="evenodd"/>
      </g>
      <g id="Grupo_1112553" data-name="Grupo 1112553" transform="translate(3.474 47.059)">
        <path id="Trazado_900649" data-name="Trazado 900649" d="M19.246,380.389A9.251,9.251,0,1,0,10,371.138,9.269,9.269,0,0,0,19.246,380.389Z" transform="translate(-10 -361.887)" fill="#22a6fe" fill-rule="evenodd"/>
      </g>
      <g id="Grupo_1112554" data-name="Grupo 1112554" transform="translate(9.674 47.059)">
        <path id="Trazado_900650" data-name="Trazado 900650" d="M60.721,361.887a9.251,9.251,0,1,1-2.946,18.019,9.254,9.254,0,0,0-.1-17.5A9.211,9.211,0,0,1,60.721,361.887Z" transform="translate(-57.674 -361.887)" fill="#0182fc" fill-rule="evenodd"/>
      </g>
      <g id="Grupo_1112555" data-name="Grupo 1112555" transform="translate(6.757 57.941)">
        <path id="Trazado_900651" data-name="Trazado 900651" d="M38.758,445.57a5.983,5.983,0,0,0-3.515,5.437,9.241,9.241,0,0,0,11.928,0,5.987,5.987,0,0,0-3.518-5.437Z" transform="translate(-35.243 -445.57)" fill="#fd4755" fill-rule="evenodd"/>
      </g>
      <g id="Grupo_1112556" data-name="Grupo 1112556" transform="translate(8.819 50.996)">
        <path id="Trazado_900652" data-name="Trazado 900652" d="M51.1,396.064a3.9,3.9,0,1,0,3.9-3.9A3.9,3.9,0,0,0,51.1,396.064Z" transform="translate(-51.098 -392.16)" fill="#ffe5c1" fill-rule="evenodd"/>
      </g>
      <g id="Grupo_1112557" data-name="Grupo 1112557" transform="translate(11.739 50.996)">
        <path id="Trazado_900653" data-name="Trazado 900653" d="M73.559,392.285a3.908,3.908,0,0,1,0,7.562,3.984,3.984,0,0,0,.982.123,3.9,3.9,0,1,0-.978-7.685Z" transform="translate(-73.555 -392.162)" fill="#fed1a3" fill-rule="evenodd"/>
      </g>
      <g id="Grupo_1112558" data-name="Grupo 1112558" transform="translate(13.768 57.941)">
        <path id="Trazado_900654" data-name="Trazado 900654" d="M89.158,446.291a8.374,8.374,0,0,1,2.851,6.035,9.311,9.311,0,0,0,2.065-1.319,5.987,5.987,0,0,0-3.518-5.437A3.924,3.924,0,0,1,89.158,446.291Z" transform="translate(-89.158 -445.57)" fill="#e41e2b" fill-rule="evenodd"/>
      </g>
      <g id="Grupo_1112559" data-name="Grupo 1112559" transform="translate(48.96 47.103)">
        <path id="Trazado_900655" data-name="Trazado 900655" d="M369.034,380.724a9.251,9.251,0,1,0-9.247-9.251A9.265,9.265,0,0,0,369.034,380.724Z" transform="translate(-359.788 -362.222)" fill="#22a6fe" fill-rule="evenodd"/>
      </g>
      <g id="Grupo_1112560" data-name="Grupo 1112560" transform="translate(55.163 47.102)">
        <path id="Trazado_900656" data-name="Trazado 900656" d="M410.533,362.221a9.251,9.251,0,1,1-2.942,18.023,9.256,9.256,0,0,0-.1-17.508A9.209,9.209,0,0,1,410.533,362.221Z" transform="translate(-407.489 -362.221)" fill="#0182fc" fill-rule="evenodd"/>
      </g>
      <g id="Grupo_1112561" data-name="Grupo 1112561" transform="translate(52.243 57.985)">
        <path id="Trazado_900657" data-name="Trazado 900657" d="M388.55,445.9a5.992,5.992,0,0,0-3.518,5.441,9.252,9.252,0,0,0,11.928,0,5.989,5.989,0,0,0-3.515-5.441Z" transform="translate(-385.032 -445.905)" fill="#fdb440" fill-rule="evenodd"/>
      </g>
      <g id="Grupo_1112562" data-name="Grupo 1112562" transform="translate(54.304 51.039)">
        <path id="Trazado_900658" data-name="Trazado 900658" d="M400.886,396.4a3.9,3.9,0,1,0,3.9-3.9A3.9,3.9,0,0,0,400.886,396.4Z" transform="translate(-400.886 -392.495)" fill="#ffe5c1" fill-rule="evenodd"/>
      </g>
      <g id="Grupo_1112563" data-name="Grupo 1112563" transform="translate(57.228 51.039)">
        <path id="Trazado_900659" data-name="Trazado 900659" d="M423.371,392.619a3.907,3.907,0,0,1,0,7.562,3.955,3.955,0,0,0,.978.123,3.9,3.9,0,0,0,0-7.808A3.962,3.962,0,0,0,423.371,392.619Z" transform="translate(-423.371 -392.496)" fill="#fed1a3" fill-rule="evenodd"/>
      </g>
      <g id="Grupo_1112564" data-name="Grupo 1112564" transform="translate(59.254 57.984)">
        <path id="Trazado_900660" data-name="Trazado 900660" d="M438.947,446.625a8.372,8.372,0,0,1,2.855,6.039,9.288,9.288,0,0,0,2.062-1.319,5.989,5.989,0,0,0-3.515-5.441A3.911,3.911,0,0,1,438.947,446.625Z" transform="translate(-438.947 -445.904)" fill="#fe9900" fill-rule="evenodd"/>
      </g>
      <g id="Grupo_1112565" data-name="Grupo 1112565" transform="translate(4.047 0.975)">
        <path id="Trazado_900661" data-name="Trazado 900661" d="M23.648,26A9.251,9.251,0,1,0,14.4,16.752,9.267,9.267,0,0,0,23.648,26Z" transform="translate(-14.402 -7.501)" fill="#22a6fe" fill-rule="evenodd"/>
      </g>
      <g id="Grupo_1112566" data-name="Grupo 1112566" transform="translate(10.25 0.975)">
        <path id="Trazado_900662" data-name="Trazado 900662" d="M65.147,7.5A9.251,9.251,0,1,1,62.2,25.519a9.255,9.255,0,0,0-.1-17.508A9.3,9.3,0,0,1,65.147,7.5Z" transform="translate(-62.104 -7.5)" fill="#0182fc" fill-rule="evenodd"/>
      </g>
      <g id="Grupo_1112567" data-name="Grupo 1112567" transform="translate(7.329 11.857)">
        <path id="Trazado_900663" data-name="Trazado 900663" d="M43.164,91.184a5.987,5.987,0,0,0-3.518,5.437,9.241,9.241,0,0,0,11.928,0,5.987,5.987,0,0,0-3.518-5.437Z" transform="translate(-39.646 -91.184)" fill="#fdb440" fill-rule="evenodd"/>
      </g>
      <g id="Grupo_1112568" data-name="Grupo 1112568" transform="translate(9.391 4.912)">
        <path id="Trazado_900664" data-name="Trazado 900664" d="M55.5,41.678a3.9,3.9,0,1,0,3.9-3.9A3.9,3.9,0,0,0,55.5,41.678Z" transform="translate(-55.5 -37.774)" fill="#ffe5c1" fill-rule="evenodd"/>
      </g>
      <g id="Grupo_1112569" data-name="Grupo 1112569" transform="translate(12.315 4.912)">
        <path id="Trazado_900665" data-name="Trazado 900665" d="M77.985,37.9a3.9,3.9,0,0,1,0,7.558,3.791,3.791,0,0,0,.978.127,3.9,3.9,0,0,0,0-7.808A3.8,3.8,0,0,0,77.985,37.9Z" transform="translate(-77.985 -37.775)" fill="#fed1a3" fill-rule="evenodd"/>
      </g>
      <g id="Grupo_1112570" data-name="Grupo 1112570" transform="translate(14.34 11.857)">
        <path id="Trazado_900666" data-name="Trazado 900666" d="M93.56,91.9a8.392,8.392,0,0,1,2.855,6.039,9.286,9.286,0,0,0,2.062-1.32,5.987,5.987,0,0,0-3.518-5.437A3.856,3.856,0,0,1,93.56,91.9Z" transform="translate(-93.56 -91.183)" fill="#fe9900" fill-rule="evenodd"/>
      </g>
      <g id="Grupo_1112571" data-name="Grupo 1112571" transform="translate(18.174 16.254)">
        <path id="Trazado_900667" data-name="Trazado 900667" d="M140.329,159.6a17.3,17.3,0,1,0-17.29-17.3A17.33,17.33,0,0,0,140.329,159.6Z" transform="translate(-123.039 -124.997)" fill="#f8f2f0" fill-rule="evenodd"/>
      </g>
      <g id="Grupo_1112572" data-name="Grupo 1112572" transform="translate(29.898 36.403)">
        <path id="Trazado_900668" data-name="Trazado 900668" d="M213.2,284.742l4.569,4.109a1.5,1.5,0,0,0,1.993,0l4.569-4.109c-.424-.12-.852-.228-1.264-.344-.967-.261-1.221-1.508-1.42-1.91-.231-.723-.685-2.666-1.04-2.536a4.734,4.734,0,0,1-3.681,0c-.355-.131-.744,1.528-1.04,2.536-.2.4-.453,1.649-1.42,1.91C214.055,284.513,213.627,284.622,213.2,284.742Z" transform="translate(-213.203 -279.944)" fill="#fed1a3" fill-rule="evenodd"/>
      </g>
      <g id="Grupo_1112573" data-name="Grupo 1112573" transform="translate(25.195 41.201)">
        <path id="Trazado_900669" data-name="Trazado 900669" d="M177.037,321.885v1.225a17.279,17.279,0,0,0,20.536,0v-1.225c0-3.418-2.326-4.379-4.7-5.046l-4.569,2.679a1.5,1.5,0,0,1-1.993,0l-4.569-2.679C179.363,317.506,177.037,318.467,177.037,321.885Z" transform="translate(-177.037 -316.839)" fill="#fd4755" fill-rule="evenodd"/>
      </g>
      <g id="Grupo_1112574" data-name="Grupo 1112574" transform="translate(28.112 26.909)">
        <path id="Trazado_900670" data-name="Trazado 900670" d="M199.467,212.375c0,2.331,1.931,5.187,4.471,6.6a7.677,7.677,0,0,0,1.04.479,4.734,4.734,0,0,0,3.681,0,7.686,7.686,0,0,0,1.04-.479c2.54-1.41,4.471-4.267,4.471-6.6v-2.247c-1.9-.606-2.533-3.653-4.587-3.124a13.5,13.5,0,0,1-2.764.616,13.5,13.5,0,0,1-2.764-.616c-2.054-.529-2.259,2.175-4.587,3.124v2.247Z" transform="translate(-199.467 -206.935)" fill="#ffe5c1" fill-rule="evenodd"/>
      </g>
      <g id="Grupo_1112575" data-name="Grupo 1112575" transform="translate(28.112 21.808)">
        <path id="Trazado_900671" data-name="Trazado 900671" d="M206.818,167.7c-3.678.062-7.351,2.831-7.351,8.294,2.975-.21,2.533-2.483,4.587-1.954a13.5,13.5,0,0,0,2.764.616,13.5,13.5,0,0,0,2.764-.616c2.054-.529,1.612,1.744,4.587,1.954C214.17,170.534,210.5,167.765,206.818,167.7Z" transform="translate(-199.467 -167.703)" fill="#6d80aa" fill-rule="evenodd"/>
      </g>
      <g id="Grupo_1112576" data-name="Grupo 1112576" transform="translate(33.21 28.068)">
        <path id="Trazado_900672" data-name="Trazado 900672" d="M244.362,219.892c0,2.639-2.478,5.952-5.511,7.076l-.181.065c.138.062.275.116.413.167a4.734,4.734,0,0,0,3.681,0,7.684,7.684,0,0,0,1.04-.479c2.54-1.41,4.471-4.267,4.471-6.6v-2.247c-2.688-.189-2.587-2.063-4.054-2.034a10.935,10.935,0,0,1,.141,1.8v2.251Z" transform="translate(-238.67 -215.842)" fill="#fed1a3" fill-rule="evenodd"/>
      </g>
      <g id="Grupo_1112577" data-name="Grupo 1112577" transform="translate(33.909 21.808)">
        <path id="Trazado_900673" data-name="Trazado 900673" d="M244.047,167.892a7.462,7.462,0,0,1,4.851,6.072c1.467-.029,1.366,1.845,4.054,2.034,0-5.463-3.674-8.232-7.351-8.294A7.494,7.494,0,0,0,244.047,167.892Z" transform="translate(-244.047 -167.703)" fill="#49679b" fill-rule="evenodd"/>
      </g>
      <g id="Grupo_1112578" data-name="Grupo 1112578" transform="translate(38.757 41.201)">
        <path id="Trazado_900674" data-name="Trazado 900674" d="M285.32,323.738v1.146a17.032,17.032,0,0,0,2.982-1.773v-1.225c0-3.418-2.326-4.379-4.7-5.046l-2.272,1.334C283.055,318.631,285.32,319.073,285.32,323.738Z" transform="translate(-281.327 -316.84)" fill="#e41e2b" fill-rule="evenodd"/>
      </g>
      <g id="Grupo_1112579" data-name="Grupo 1112579" transform="translate(31.764 38.946)">
        <path id="Trazado_900675" data-name="Trazado 900675" d="M228.371,299.5a4.712,4.712,0,0,1-.819,1.559c.235.116.478.221.721.312a6.372,6.372,0,0,0,4.25.457c.268-.058.377-.21.551.123a2.159,2.159,0,0,0,1.46,1.145l2.283-1.341c-.424-.12-.852-.228-1.264-.344-.967-.261-1.221-1.508-1.42-1.91a7.672,7.672,0,0,1-1.04.479,4.734,4.734,0,0,1-3.681,0c-.138-.051-.275-.105-.413-.167C228.784,299.717,228.577,299.612,228.371,299.5Z" transform="translate(-227.552 -299.5)" fill="#ffbc85" fill-rule="evenodd"/>
      </g>
      <g id="Grupo_1112580" data-name="Grupo 1112580" transform="translate(32.196 16.254)">
        <path id="Trazado_900676" data-name="Trazado 900676" d="M230.868,125.3a17.314,17.314,0,0,1,12.018,26.081,4.345,4.345,0,0,1,1.518,3.6v1.225a17.3,17.3,0,0,0-13.536-30.91Z" transform="translate(-230.868 -124.996)" fill="#eee1dc" fill-rule="evenodd"/>
      </g>
      <g id="Grupo_1112581" data-name="Grupo 1112581" transform="translate(3.699 28.557)">
        <path id="Trazado_900677" data-name="Trazado 900677" d="M21.72,224.6a5,5,0,1,0-5,5A5,5,0,0,0,21.72,224.6Z" transform="translate(-11.727 -219.608)" fill="#80d261" fill-rule="evenodd"/>
      </g>
      <g id="Grupo_1112582" data-name="Grupo 1112582" transform="translate(57.236 28.557)">
        <path id="Trazado_900678" data-name="Trazado 900678" d="M423.427,224.6a5,5,0,1,1,5,5A5,5,0,0,1,423.427,224.6Z" transform="translate(-423.427 -219.608)" fill="#80d261" fill-rule="evenodd"/>
      </g>
      <g id="Grupo_1112583" data-name="Grupo 1112583" transform="translate(30.467 55.338)">
        <path id="Trazado_900679" data-name="Trazado 900679" d="M222.573,425.555a5,5,0,1,1-5,5A5,5,0,0,1,222.573,425.555Z" transform="translate(-217.577 -425.555)" fill="#80d261" fill-rule="evenodd"/>
      </g>
      <g id="Grupo_1112584" data-name="Grupo 1112584" transform="translate(30.467 1.776)">
        <path id="Trazado_900680" data-name="Trazado 900680" d="M222.573,23.654a5,5,0,1,0-5-5A5,5,0,0,0,222.573,23.654Z" transform="translate(-217.577 -13.66)" fill="#80d261" fill-rule="evenodd"/>
      </g>
      <g id="Grupo_1112585" data-name="Grupo 1112585" transform="translate(7.021 28.557)">
        <path id="Trazado_900681" data-name="Trazado 900681" d="M37.57,219.8a5,5,0,0,1-.293,9.515,5,5,0,1,0,.293-9.515Z" transform="translate(-37.277 -219.607)" fill="#4fc122" fill-rule="evenodd"/>
      </g>
      <g id="Grupo_1112586" data-name="Grupo 1112586" transform="translate(33.79 1.776)">
        <path id="Trazado_900682" data-name="Trazado 900682" d="M243.421,13.852a5,5,0,0,1-.294,9.515,5,5,0,1,0,1.692-9.708h-.036A4.953,4.953,0,0,0,243.421,13.852Z" transform="translate(-243.127 -13.66)" fill="#4fc122" fill-rule="evenodd"/>
      </g>
      <g id="Grupo_1112587" data-name="Grupo 1112587" transform="translate(60.558 28.557)">
        <path id="Trazado_900683" data-name="Trazado 900683" d="M452.589,224.508a5,5,0,0,1-3.612,4.807,5,5,0,1,0,.294-9.516A5,5,0,0,1,452.589,224.508Z" transform="translate(-448.977 -219.607)" fill="#4fc122" fill-rule="evenodd"/>
      </g>
      <g id="Grupo_1112588" data-name="Grupo 1112588" transform="translate(33.79 55.338)">
        <path id="Trazado_900684" data-name="Trazado 900684" d="M246.74,430.457a5,5,0,0,1-3.612,4.8,4.921,4.921,0,0,0,1.674.29,5,5,0,1,0-1.38-9.8A5,5,0,0,1,246.74,430.457Z" transform="translate(-243.128 -425.556)" fill="#4fc122" fill-rule="evenodd"/>
      </g>
      <path id="Trazado_900685" data-name="Trazado 900685" d="M58.207,46.127a10.172,10.172,0,0,0-6.5,2.338l-2.67-2.7A18.211,18.211,0,0,0,53.7,34.528h2.639a5.971,5.971,0,1,0,0-1.951H53.7a18.226,18.226,0,0,0-.5-3.394.975.975,0,0,0-1.894.466,16.351,16.351,0,0,1-4.647,15.764c-.415-3.826-3.708-4.71-6.156-5.366l-.489-.132c-.191-.051-.347-.309-.468-.578,2.432-1.667,4.239-4.508,4.239-6.989V30.1a9.454,9.454,0,0,0-2.581-6.861,8.228,8.228,0,0,0-5.729-2.408h-.033a8.427,8.427,0,0,0-3.437.8.975.975,0,0,0,.835,1.763,6.235,6.235,0,0,1,8.922,5.473,3.187,3.187,0,0,1-.922-.73,2.636,2.636,0,0,0-2.86-.933c-.381.1-.7.185-.985.26a6.959,6.959,0,0,1-1.536.325,6.959,6.959,0,0,1-1.536-.325c-.28-.075-.6-.162-.986-.26a2.635,2.635,0,0,0-2.86.933,3.184,3.184,0,0,1-.923.73,7.533,7.533,0,0,1,1.049-3.117.975.975,0,0,0-1.656-1.031A10.023,10.023,0,0,0,27.137,30.1v2.247c0,2.481,1.808,5.322,4.239,6.989-.121.268-.278.526-.471.578l-.485.131c-2.448.656-5.741,1.54-6.156,5.366A16.317,16.317,0,1,1,49.543,25.3l.007.012c.051.084.1.173.149.261l.044.079a.975.975,0,1,0,1.7-.951l-.041-.075c-.06-.107-.12-.216-.182-.319a18.321,18.321,0,0,0-2.178-2.97l2.719-2.747A10.19,10.19,0,0,0,64.153,18.1a.978.978,0,0,0,.155-.135,10.222,10.222,0,1,0-14.031-.646l-2.614,2.642a18.161,18.161,0,0,0-11.225-4.65V12.665a5.972,5.972,0,1,0-1.951,0v2.641a18.189,18.189,0,0,0-11.225,4.661l-2.631-2.633a10.221,10.221,0,1,0-14.013.627.978.978,0,0,0,.155.135,10.191,10.191,0,0,0,12.369.508l2.74,2.742a18.206,18.206,0,0,0-4.659,11.231H14.586a5.974,5.974,0,1,0,0,1.951h2.638a18.21,18.21,0,0,0,4.66,11.233l-2.664,2.663A10.241,10.241,0,1,0,20.6,49.8l2.663-2.662q.351.316.718.615a5.676,5.676,0,0,0,.735.566A18.154,18.154,0,0,0,34.488,51.8v2.641a5.972,5.972,0,1,0,1.951,0V51.8a18.154,18.154,0,0,0,9.771-3.481.978.978,0,0,0,.183-.134q.657-.492,1.266-1.041l2.67,2.7a10.208,10.208,0,0,0,1.188,14.231.978.978,0,0,0,.19.165,10.2,10.2,0,0,0,13,0,.982.982,0,0,0,.19-.165,10.22,10.22,0,0,0-6.689-17.948Zm4.025-16.595a4.022,4.022,0,1,1-4.021,4.02A4.025,4.025,0,0,1,62.232,29.533ZM57.634,18.5a8.225,8.225,0,0,1-4.965-1.661,5.014,5.014,0,0,1,2.449-3.846,4.866,4.866,0,0,0,5.032,0A5.014,5.014,0,0,1,62.6,16.84,8.225,8.225,0,0,1,57.634,18.5ZM54.707,8.816a2.927,2.927,0,1,1,2.927,2.929A2.931,2.931,0,0,1,54.707,8.816Zm-5.344,1.41a8.271,8.271,0,1,1,14.881,4.969,6.989,6.989,0,0,0-2.624-3.572,4.877,4.877,0,1,0-7.971,0,6.99,6.99,0,0,0-2.624,3.571,8.235,8.235,0,0,1-1.661-4.969ZM31.442,6.772A4.021,4.021,0,1,1,35.464,10.8,4.025,4.025,0,0,1,31.442,6.772ZM13.293,18.5A8.225,8.225,0,0,1,8.328,16.84a5.014,5.014,0,0,1,2.449-3.846,4.866,4.866,0,0,0,5.032,0,5.015,5.015,0,0,1,2.449,3.846A8.225,8.225,0,0,1,13.293,18.5ZM10.366,8.816a2.927,2.927,0,1,1,2.927,2.929A2.931,2.931,0,0,1,10.366,8.816Zm6.913,2.807a4.877,4.877,0,1,0-7.971,0,6.989,6.989,0,0,0-2.624,3.572,8.271,8.271,0,1,1,13.219,0A6.989,6.989,0,0,0,17.279,11.623ZM8.7,37.576a4.022,4.022,0,1,1,4.021-4.024A4.027,4.027,0,0,1,8.7,37.576Zm4.025,27.009a8.225,8.225,0,0,1-4.965-1.661A5.012,5.012,0,0,1,10.2,59.078a4.866,4.866,0,0,0,5.033,0,5.013,5.013,0,0,1,2.45,3.845A8.225,8.225,0,0,1,12.721,64.585ZM9.794,54.9a2.927,2.927,0,1,1,2.927,2.929A2.931,2.931,0,0,1,9.794,54.9Zm9.536,6.379a6.987,6.987,0,0,0-2.623-3.573,4.877,4.877,0,1,0-7.974,0,6.985,6.985,0,0,0-2.622,3.574,8.271,8.271,0,1,1,13.22,0Zm9.757-28.93v-1.41A4.577,4.577,0,0,0,31.476,29.5c.458-.468.517-.528.98-.409.374.1.692.182.968.256a7.889,7.889,0,0,0,2.04.392,7.883,7.883,0,0,0,2.04-.392c.275-.074.594-.159.967-.256.462-.119.522-.059.98.409a4.577,4.577,0,0,0,2.388,1.438v1.41c0,2.279-2.323,5.216-4.877,6.162a3.783,3.783,0,0,1-3,0c-2.551-.945-4.874-3.882-4.874-6.161Zm9.645,9.068-2.765,1.621-.038.024c-.452.294-.478.294-.93,0l-.038-.024-2.766-1.622a3.139,3.139,0,0,0,.9-1.152c.062.025.124.051.187.074a5.7,5.7,0,0,0,4.361,0c.063-.024.126-.05.189-.075a3.14,3.14,0,0,0,.9,1.153Zm.753,18.916a4.021,4.021,0,1,1-4.021-4.02A4.027,4.027,0,0,1,39.485,60.333Zm5.272-13.37a16.269,16.269,0,0,1-18.586,0v-.717c0-2.446,1.337-3.293,3.6-3.989l4.182,2.452a2.435,2.435,0,0,0,3.016,0l4.182-2.452c2.266.7,3.6,1.543,3.6,3.989Zm13.45,17.665a8.225,8.225,0,0,1-4.965-1.661,5.016,5.016,0,0,1,2.449-3.846,4.867,4.867,0,0,0,5.033,0,5.014,5.014,0,0,1,2.448,3.847,8.225,8.225,0,0,1-4.965,1.661ZM55.28,54.943a2.927,2.927,0,1,1,2.927,2.929A2.931,2.931,0,0,1,55.28,54.943Zm9.536,6.379a6.986,6.986,0,0,0-2.622-3.575,4.878,4.878,0,1,0-7.974,0A6.989,6.989,0,0,0,51.6,61.323a8.271,8.271,0,1,1,13.219,0Z"/>
    </g>
  </g>
</svg>
