<svg id="Grupo_1112880" data-name="Grupo 1112880" xmlns="http://www.w3.org/2000/svg" width="95.333" height="95.334" viewBox="0 0 95.333 95.334">
  <g id="Grupo_1112878" data-name="Grupo 1112878" transform="translate(1.538 1.538)">
    <g id="Grupo_1112860" data-name="Grupo 1112860" transform="translate(43.054 69.178)">
      <path id="Trazado_901084" data-name="Trazado 901084" d="M270.68,367.919h0a9.529,9.529,0,0,1-4.851,1.543v4.623a1.537,1.537,0,0,1-1.538,1.538H242.763a1.537,1.537,0,0,1-1.538-1.538v-4.613h-3.46a5.746,5.746,0,0,1-2.295-.476A21.1,21.1,0,0,0,232,370.465v7.241c4.4,2.421,13.079,4.068,23.065,4.068,14.437,0,26.14-3.442,26.14-7.688C281.2,371.561,277.068,369.321,270.68,367.919Z" transform="translate(-232 -367.919)" fill="#dfb28b"/>
    </g>
    <g id="Grupo_1112861" data-name="Grupo 1112861" transform="translate(0 61.505)">
      <path id="Trazado_901085" data-name="Trazado 901085" d="M17.226,355.677A9.226,9.226,0,0,1,8,346.452v-8.565a9.226,9.226,0,0,1,8.307-9.18L23.376,328H34.14l8.524.775a9.226,9.226,0,0,1,8.39,9.187v8.49a9.226,9.226,0,0,1-9.226,9.226v3.075h-24.6Z" transform="translate(-8 -328)" fill="#b4dd7f"/>
    </g>
    <g id="Grupo_1112862" data-name="Grupo 1112862" transform="translate(43.054 43.054)">
      <path id="Trazado_901086" data-name="Trazado 901086" d="M241.226,251.989H244.3v7.688h-6.535A5.766,5.766,0,0,1,232,253.911v-12.3a9.614,9.614,0,0,1,9.61-9.61h5.766l.419,1.676a5.909,5.909,0,0,0,5.732,4.475H242.763a1.537,1.537,0,0,0-1.538,1.538Z" transform="translate(-232 -232)" fill="#e6e9ed"/>
    </g>
    <g id="Grupo_1112863" data-name="Grupo 1112863" transform="translate(64.581 43.054)">
      <path id="Trazado_901087" data-name="Trazado 901087" d="M361.152,258.124a9.53,9.53,0,0,1-4.851,1.543c-.127.008-.256.01-.384.01h-2.691v-7.688H356.3v-12.3a1.537,1.537,0,0,0-1.538-1.538H344a5.907,5.907,0,0,0,5.732-4.475l.419-1.676h5.766a9.614,9.614,0,0,1,9.61,9.61v8.457a9.6,9.6,0,0,1-4.375,8.057Z" transform="translate(-344 -232)" fill="#e6e9ed"/>
    </g>
    <g id="Grupo_1112864" data-name="Grupo 1112864" transform="translate(52.28 49.204)">
      <path id="Trazado_901088" data-name="Trazado 901088" d="M304.218,285.527c.129,0,.258,0,.384-.01v4.623a1.537,1.537,0,0,1-1.538,1.538H281.538A1.537,1.537,0,0,1,280,290.14v-4.613h5.382a3.844,3.844,0,0,0,0-7.688H280v-12.3A1.537,1.537,0,0,1,281.538,264h21.527a1.537,1.537,0,0,1,1.538,1.538v12.3H299.22a3.844,3.844,0,0,0,0,7.688h5Z" transform="translate(-280 -264)" fill="#969faa"/>
    </g>
    <g id="Grupo_1112865" data-name="Grupo 1112865" transform="translate(67.656 63.043)">
      <path id="Trazado_901089" data-name="Trazado 901089" d="M366.151,336v7.688h-2.306a3.844,3.844,0,0,1,0-7.688Z" transform="translate(-360 -336)" fill="#f0d0b4"/>
    </g>
    <g id="Grupo_1112866" data-name="Grupo 1112866" transform="translate(55.355 63.043)">
      <path id="Trazado_901090" data-name="Trazado 901090" d="M298.306,336a3.844,3.844,0,0,1,0,7.688H296V336Z" transform="translate(-296 -336)" fill="#f0d0b4"/>
    </g>
    <g id="Grupo_1112867" data-name="Grupo 1112867" transform="translate(39.069 75.344)">
      <path id="Trazado_901091" data-name="Trazado 901091" d="M264.459,400v9.226c0,4.246-12.391,7.688-27.677,7.688-11.465,0-21.3-1.936-25.5-4.7l-.01-.013a9.213,9.213,0,0,0,3.984-7.592v-.992c4.4,2.42,13.08,4.067,23.065,4.067C252.755,407.688,264.459,404.246,264.459,400Z" transform="translate(-211.27 -400)" fill="#cf9e76"/>
    </g>
    <g id="Grupo_1112868" data-name="Grupo 1112868" transform="translate(4.613)">
      <path id="Trazado_901092" data-name="Trazado 901092" d="M68.9,11.075v6.151A3.074,3.074,0,0,1,65.828,20.3h-12.3L52.362,24.96a1.969,1.969,0,0,1-3.821,0L47.376,20.3h-12.3A3.074,3.074,0,0,1,32,17.226V11.075A3.074,3.074,0,0,1,35.075,8H65.828A3.074,3.074,0,0,1,68.9,11.075Z" transform="translate(-32 -8)" fill="#e6e9ed"/>
    </g>
    <g id="Grupo_1112869" data-name="Grupo 1112869" transform="translate(3.075 24.602)">
      <path id="Trazado_901093" data-name="Trazado 901093" d="M51.677,148.3h-12.3a3.074,3.074,0,0,0-3.075,3.075,3.071,3.071,0,0,0-3.075,3.075v.263a3.077,3.077,0,0,0,.9,2.176l2.174,2.174v7.688l-5.326-3.329A14.84,14.84,0,0,1,38.84,136H52.7a8.2,8.2,0,0,1,4.92,14.761l-2.87,2.153h-.012a5.567,5.567,0,0,0-3.064-4.613Z" transform="translate(-24 -136)" fill="#b27946"/>
    </g>
    <g id="Grupo_1112870" data-name="Grupo 1112870" transform="translate(70.731 26.14)">
      <path id="Trazado_901094" data-name="Trazado 901094" d="M388.3,144v19.48a9.576,9.576,0,0,0-6.535-2.566H376V156.3a11.13,11.13,0,0,0,5.918-7.688h1.77A4.613,4.613,0,0,0,388.3,144Z" transform="translate(-376 -144)" fill="#fcd770"/>
    </g>
    <g id="Grupo_1112871" data-name="Grupo 1112871" transform="translate(46.129)">
      <path id="Trazado_901095" data-name="Trazado 901095" d="M264.916,20.872l0,0-8.768,3.292a3.075,3.075,0,0,0-2,2.879v2.481h-1.538A4.614,4.614,0,0,0,248,34.14V26.452a18.452,18.452,0,0,1,36.9,0V34.14a4.614,4.614,0,0,0-4.613-4.613h-1.538v-1.9a3.075,3.075,0,0,0-2.695-3.05l-.974-.123A25.25,25.25,0,0,1,264.916,20.872Z" transform="translate(-248 -8)" fill="#fcd770"/>
    </g>
    <g id="Grupo_1112872" data-name="Grupo 1112872" transform="translate(46.129 26.14)">
      <path id="Trazado_901096" data-name="Trazado 901096" d="M260.3,156.3v4.613h-5.766A9.576,9.576,0,0,0,248,163.48V144a4.613,4.613,0,0,0,4.613,4.613h1.77A11.131,11.131,0,0,0,260.3,156.3Z" transform="translate(-248 -144)" fill="#fcd770"/>
    </g>
    <g id="Grupo_1112873" data-name="Grupo 1112873" transform="translate(61.505 53.817)">
      <ellipse id="Elipse_12215" data-name="Elipse 12215" cx="3.5" cy="3" rx="3.5" ry="3" transform="translate(-0.376 0.312)" fill="#69d6f4"/>
    </g>
    <g id="Grupo_1112874" data-name="Grupo 1112874" transform="translate(12.301 36.903)">
      <path id="Trazado_901097" data-name="Trazado 901097" d="M85.839,218.275V224.6H75.075V210.763L72.9,208.59a3.077,3.077,0,0,1-.9-2.176v-.263a3.071,3.071,0,0,1,3.075-3.075A3.074,3.074,0,0,1,78.151,200h12.3a5.566,5.566,0,0,1,3.064,4.613c.008.119.012.242.012.363v7.256a6.216,6.216,0,0,1-7.688,6.043Z" transform="translate(-72 -200)" fill="#f0d0b4"/>
    </g>
    <g id="Grupo_1112875" data-name="Grupo 1112875" transform="translate(76.649 21.527)">
      <path id="Trazado_901098" data-name="Trazado 901098" d="M408.56,120a4.613,4.613,0,0,1,0,9.226h-1.77a11.063,11.063,0,0,0,.233-2.264V120Z" transform="translate(-406.79 -120)" fill="#f0d0b4"/>
    </g>
    <g id="Grupo_1112876" data-name="Grupo 1112876" transform="translate(52.28 12.872)">
      <path id="Trazado_901099" data-name="Trazado 901099" d="M304.6,83.625v6.962a11.125,11.125,0,0,1-6.151,9.952v4.613l-.419,1.676a5.908,5.908,0,0,1-11.463,0l-.419-1.676v-4.613A11.125,11.125,0,0,1,280,90.587V81.144a3.076,3.076,0,0,1,2-2.879l8.768-3.292,0,0a25.25,25.25,0,0,0,10.168,3.583l.974.123a3.076,3.076,0,0,1,2.695,3.05Z" transform="translate(-280 -74.97)" fill="#f0d0b4"/>
    </g>
    <g id="Grupo_1112877" data-name="Grupo 1112877" transform="translate(46.129 21.527)">
      <path id="Trazado_901100" data-name="Trazado 901100" d="M254.383,129.226h-1.77a4.613,4.613,0,0,1,0-9.226h1.538v6.962A11.064,11.064,0,0,0,254.383,129.226Z" transform="translate(-248 -120)" fill="#f0d0b4"/>
    </g>
  </g>
  <g id="Grupo_1112879" data-name="Grupo 1112879" transform="translate(0)">
    <path id="Trazado_901101" data-name="Trazado 901101" d="M86.467,69.938a11.1,11.1,0,0,0,2.715-7.279V54.2a11.1,11.1,0,0,0-3.075-7.676V19.989a19.989,19.989,0,0,0-39.979,0V46.526A11.1,11.1,0,0,0,43.054,54.2V65.449a10.739,10.739,0,0,0-6.714-3.162l-7.125-.648v-3.21A7.765,7.765,0,0,0,36.9,50.673v-6.85l2.255-1.691A9.738,9.738,0,0,0,33.315,24.6H19.453a16.377,16.377,0,0,0-8.68,30.265l4.6,2.877v3.907l-5.684.569A10.73,10.73,0,0,0,0,72.93v8.565A10.778,10.778,0,0,0,9.226,92.147v3.187H36.9V92.147a10.678,10.678,0,0,0,3.709-1.258c4.921,2.718,14.729,4.445,25.507,4.445A77.98,77.98,0,0,0,86.1,93.026c6.126-1.7,9.233-4.029,9.233-6.918V76.882C95.334,73.41,91,71.249,86.467,69.938ZM33.828,50.673a4.682,4.682,0,0,1-6.776,4.188L25.29,53.98,23.914,56.73l1.762.881c.152.076.307.145.463.211v3.683H18.452V48.568l-2.625-2.625a1.527,1.527,0,0,1-.451-1.087v-.264a1.539,1.539,0,0,1,1.538-1.538h1.538V41.516a1.539,1.539,0,0,1,1.538-1.538h11.9a4,4,0,0,1,1.934,3.438ZM12.4,52.26a13.3,13.3,0,0,1,7.05-24.582H33.315a6.663,6.663,0,0,1,4,11.994l-1.051.788a7.029,7.029,0,0,0-.932-1.506,4.386,4.386,0,0,0-.853-7.288l-1.5-.75L31.6,33.666l1.5.75a1.313,1.313,0,0,1-.587,2.488H19.989a4.621,4.621,0,0,0-4.415,3.273A4.621,4.621,0,0,0,12.3,44.591v.264a4.583,4.583,0,0,0,1.351,3.262l1.724,1.724v4.277ZM43.054,81.495A7.7,7.7,0,0,1,36.9,89.028V75.981a3.687,3.687,0,0,1,1.087-2.625l-2.175-2.175a6.743,6.743,0,0,0-1.988,4.8V92.258H12.3V75.981a6.743,6.743,0,0,0-1.988-4.8L8.139,73.356a3.687,3.687,0,0,1,1.087,2.625V89.028a7.7,7.7,0,0,1-6.151-7.533V72.93A7.664,7.664,0,0,1,10,65.28l6.993-.7H27.608l8.454.768a7.651,7.651,0,0,1,6.992,7.657ZM86.108,54.2v8.457a8.082,8.082,0,0,1-8.073,8.073H76.882V66.118H79.32a3.687,3.687,0,0,1,2.625,1.087l2.175-2.175a6.735,6.735,0,0,0-4.163-1.958V52.28A3.079,3.079,0,0,0,76.882,49.2H72.149a7.446,7.446,0,0,0,1.193-2.565l.128-.511h4.565A8.082,8.082,0,0,1,86.108,54.2Zm-13.07,8.841a5.382,5.382,0,1,0,0,10.763h3.844v3.075H55.355V73.807H59.2a5.382,5.382,0,1,0,0-10.763H55.355V52.28H76.882V63.043Zm.769,3.075v4.613h-.769a2.306,2.306,0,0,1,0-4.613ZM58.43,70.731V66.118H59.2a2.306,2.306,0,0,1,0,4.613Zm21.527-36.9A6.111,6.111,0,0,0,83.032,33V44.241a11.076,11.076,0,0,0-5-1.187H73.807V40.888a12.571,12.571,0,0,0,5.573-7.06Zm-.022-3.075c.013-.241.022-.483.022-.726V24.6a3.075,3.075,0,0,1,0,6.151Zm-3.054-.726a9.537,9.537,0,0,1-5.3,8.577l-.85.425V44.4l-.373,1.492a4.371,4.371,0,0,1-8.48,0L61.505,44.4V39.028l-.85-.425a9.537,9.537,0,0,1-5.3-8.577V20.583a1.545,1.545,0,0,1,1-1.44l8.084-3.035a26.974,26.974,0,0,0,10.121,3.411l.976.122a1.54,1.54,0,0,1,1.347,1.526ZM49.2,19.989a16.914,16.914,0,1,1,33.828,0v2.365a6.111,6.111,0,0,0-3.075-.827v-.36a4.62,4.62,0,0,0-4.041-4.577l-.976-.122A23.928,23.928,0,0,1,61.055,9.676l-2.175,2.174A26.642,26.642,0,0,0,61.308,14l-6.035,2.266a4.634,4.634,0,0,0-2.993,4.319v.944a6.111,6.111,0,0,0-3.075.827ZM52.28,24.6v5.425c0,.243.008.485.022.726H52.28a3.075,3.075,0,1,1,0-6.151ZM49.2,33a6.111,6.111,0,0,0,3.075.827h.577a12.572,12.572,0,0,0,5.573,7.06v2.165H54.2a11.076,11.076,0,0,0-5,1.187ZM46.129,54.2A8.082,8.082,0,0,1,54.2,46.129h4.565l.128.511A7.446,7.446,0,0,0,60.088,49.2H55.355A3.079,3.079,0,0,0,52.28,52.28V63.073a6.735,6.735,0,0,0-4.163,1.958l2.175,2.175a3.687,3.687,0,0,1,2.625-1.087h2.439v4.613h-5A4.233,4.233,0,0,1,46.129,66.5ZM92.258,86.108c0,.7-1.459,2.421-6.98,3.955a74.875,74.875,0,0,1-19.16,2.2c-9.343,0-18.08-1.361-22.842-3.475a10.729,10.729,0,0,0,2.762-5.918c5.091,2.024,13.06,3.242,21.617,3.242,9.829,0,19.743-1.619,24.6-4.753Zm-24.6-3.075c-8.876,0-16.982-1.319-21.527-3.472V73.006c0-.189-.006-.377-.015-.564a7.261,7.261,0,0,0,4.244,1.365H52.28v3.075a3.079,3.079,0,0,0,3.075,3.075H76.882a3.079,3.079,0,0,0,3.075-3.075V73.637a11.059,11.059,0,0,0,3.575-1.286c6.388,1.489,8.726,3.508,8.726,4.531C92.258,79.028,83.809,83.032,67.656,83.032Z" transform="translate(0)"/>
    <path id="Trazado_901102" data-name="Trazado 901102" d="M28.613,15.376h11.1l.874,3.494a3.507,3.507,0,0,0,6.8,0l.874-3.494h11.1a4.618,4.618,0,0,0,4.613-4.613V4.613A4.618,4.618,0,0,0,59.366,0H28.613A4.618,4.618,0,0,0,24,4.613v6.151A4.618,4.618,0,0,0,28.613,15.376ZM27.075,4.613a1.539,1.539,0,0,1,1.538-1.538H59.366A1.539,1.539,0,0,1,60.9,4.613v6.151A1.539,1.539,0,0,1,59.366,12.3h-13.5l-1.456,5.823a.432.432,0,0,1-.838,0L42.115,12.3h-13.5a1.539,1.539,0,0,1-1.538-1.538Z" transform="translate(-19.387)"/>
    <path id="Trazado_901103" data-name="Trazado 901103" d="M72,32h3.075v3.075H72Z" transform="translate(-58.161 -25.849)"/>
    <path id="Trazado_901104" data-name="Trazado 901104" d="M104,32h3.075v3.075H104Z" transform="translate(-84.011 -25.849)"/>
    <path id="Trazado_901105" data-name="Trazado 901105" d="M136,32h3.075v3.075H136Z" transform="translate(-109.86 -25.849)"/>
    <path id="Trazado_901106" data-name="Trazado 901106" d="M168,32h3.075v3.075H168Z" transform="translate(-135.71 -25.849)"/>
    <path id="Trazado_901107" data-name="Trazado 901107" d="M321.908,164.746a3.438,3.438,0,0,1-6.151,0l-.162-.325-2.751,1.376.162.324a6.514,6.514,0,0,0,11.652,0l.162-.325-2.751-1.376Z" transform="translate(-252.714 -132.819)"/>
    <path id="Trazado_901108" data-name="Trazado 901108" d="M331.86,122.732l-1.883-.941,1.116-3.348-2.918-.973-1.959,5.878,4.268,2.134Z" transform="translate(-263.517 -94.892)"/>
    <path id="Trazado_901109" data-name="Trazado 901109" d="M324.613,280a4.613,4.613,0,1,0,4.613,4.613A4.618,4.618,0,0,0,324.613,280Zm0,6.151a1.538,1.538,0,1,1,1.538-1.538A1.539,1.539,0,0,1,324.613,286.151Z" transform="translate(-258.495 -226.183)"/>
  </g>
</svg>
