<svg xmlns="http://www.w3.org/2000/svg" xmlns:xlink="http://www.w3.org/1999/xlink" width="120" height="120" viewBox="0 0 120 120">
  <defs>
    <filter id="Trazado_900494" x="0" y="0" width="120" height="120" filterUnits="userSpaceOnUse">
      <feOffset input="SourceAlpha"/>
      <feGaussianBlur stdDeviation="3" result="blur"/>
      <feFlood flood-color="#fff" flood-opacity="0.659"/>
      <feComposite operator="in" in2="blur"/>
      <feComposite in="SourceGraphic"/>
    </filter>
  </defs>
  <g id="Grupo_1112903" data-name="Grupo 1112903" transform="translate(-1263.051 -929)">
    <g transform="matrix(1, 0, 0, 1, 1263.05, 929)" filter="url(#Trazado_900494)">
      <path id="Trazado_900494-2" data-name="Trazado 900494" d="M51,0A51,51,0,1,1,0,51,51,51,0,0,1,51,0Z" transform="translate(9 9)" fill="#017e6d"/>
    </g>
    <g id="Grupo_1112592" data-name="Grupo 1112592" transform="translate(1292.188 956.286)">
      <circle id="Elipse_12186" data-name="Elipse 12186" cx="25.807" cy="25.807" r="25.807" transform="translate(5.142 6.407)" fill="#ececec"/>
      <path id="Trazado_900686" data-name="Trazado 900686" d="M67.255,248.273a25.806,25.806,0,0,1-25.63-22.829,25.807,25.807,0,1,0,51.26,0A25.806,25.806,0,0,1,67.255,248.273Z" transform="translate(-36.306 -196.208)" fill="#b6c1ce"/>
      <path id="Trazado_900687" data-name="Trazado 900687" d="M397.418,19.37h0a3.97,3.97,0,0,1-3.97-3.97V13.414a3.97,3.97,0,0,1,3.97-3.97h0a3.97,3.97,0,0,1,3.97,3.97V15.4A3.97,3.97,0,0,1,397.418,19.37Z" transform="translate(-344.633 -7.007)" fill="#f9e0a6"/>
      <path id="Trazado_900688" data-name="Trazado 900688" d="M414.937,9.444a3.954,3.954,0,0,0-1.489.295,3.966,3.966,0,0,1,2.481,3.675V15.4a3.966,3.966,0,0,1-2.481,3.675,3.96,3.96,0,0,0,5.459-3.675V13.414A3.97,3.97,0,0,0,414.937,9.444Z" transform="translate(-362.151 -7.007)" fill="#eabd8c"/>
      <path id="Trazado_900689" data-name="Trazado 900689" d="M366.411,89.444,363.8,90.751a2.979,2.979,0,0,0-1.606,2.174l-.742,4.46h15.881l-.743-4.46a2.976,2.976,0,0,0-1.606-2.174l-2.613-1.307Z" transform="translate(-316.603 -77.082)" fill="#92e0c0"/>
      <path id="Trazado_900690" data-name="Trazado 900690" d="M431.04,90.751l-2.614-1.307h-2.978l2.409,1.445a5.262,5.262,0,0,1,2.554,4.511v1.984h2.978l-.743-4.46A2.978,2.978,0,0,0,431.04,90.751Z" transform="translate(-372.662 -77.082)" fill="#48c397"/>
      <path id="Trazado_900691" data-name="Trazado 900691" d="M45.418,19.37h0a3.97,3.97,0,0,1-3.97-3.97V13.414a3.97,3.97,0,0,1,3.97-3.97h0a3.97,3.97,0,0,1,3.97,3.97V15.4A3.97,3.97,0,0,1,45.418,19.37Z" transform="translate(-36.306 -7.007)" fill="#f9e0a6"/>
      <path id="Trazado_900692" data-name="Trazado 900692" d="M62.937,9.444a3.954,3.954,0,0,0-1.489.295,3.966,3.966,0,0,1,2.481,3.675V15.4a3.966,3.966,0,0,1-2.481,3.675A3.96,3.96,0,0,0,66.907,15.4V13.414A3.97,3.97,0,0,0,62.937,9.444Z" transform="translate(-53.824 -7.007)" fill="#eabd8c"/>
      <path id="Trazado_900693" data-name="Trazado 900693" d="M14.411,89.444,11.8,90.751a2.979,2.979,0,0,0-1.606,2.174l-.742,4.46H25.329l-.743-4.46a2.976,2.976,0,0,0-1.606-2.174l-2.613-1.307Z" transform="translate(-8.276 -77.082)" fill="#92e0c0"/>
      <path id="Trazado_900694" data-name="Trazado 900694" d="M79.04,90.751l-2.614-1.307H73.448l2.409,1.445A5.262,5.262,0,0,1,78.411,95.4v1.984h2.978l-.743-4.46A2.978,2.978,0,0,0,79.04,90.751Z" transform="translate(-64.335 -77.082)" fill="#48c397"/>
      <path id="Trazado_900695" data-name="Trazado 900695" d="M45.418,355.37h0a3.97,3.97,0,0,1-3.97-3.97v-1.985a3.97,3.97,0,0,1,3.97-3.97h0a3.97,3.97,0,0,1,3.97,3.97V351.4A3.97,3.97,0,0,1,45.418,355.37Z" transform="translate(-36.306 -301.32)" fill="#f9e0a6"/>
      <path id="Trazado_900696" data-name="Trazado 900696" d="M62.937,345.444a3.955,3.955,0,0,0-1.489.295,3.966,3.966,0,0,1,2.481,3.675V351.4a3.966,3.966,0,0,1-2.481,3.675,3.96,3.96,0,0,0,5.459-3.675v-1.985A3.97,3.97,0,0,0,62.937,345.444Z" transform="translate(-53.824 -301.32)" fill="#eabd8c"/>
      <path id="Trazado_900697" data-name="Trazado 900697" d="M14.411,425.444,11.8,426.751a2.979,2.979,0,0,0-1.606,2.174l-.742,4.46H25.329l-.743-4.46a2.976,2.976,0,0,0-1.606-2.174l-2.613-1.307Z" transform="translate(-8.276 -371.394)" fill="#92e0c0"/>
      <path id="Trazado_900698" data-name="Trazado 900698" d="M79.04,426.751l-2.614-1.307H73.448l2.409,1.445a5.262,5.262,0,0,1,2.554,4.511v1.984h2.978l-.743-4.46A2.978,2.978,0,0,0,79.04,426.751Z" transform="translate(-64.335 -371.394)" fill="#48c397"/>
      <path id="Trazado_900699" data-name="Trazado 900699" d="M397.418,355.37h0a3.97,3.97,0,0,1-3.97-3.97v-1.985a3.97,3.97,0,0,1,3.97-3.97h0a3.97,3.97,0,0,1,3.97,3.97V351.4A3.97,3.97,0,0,1,397.418,355.37Z" transform="translate(-344.633 -301.32)" fill="#f9e0a6"/>
      <path id="Trazado_900700" data-name="Trazado 900700" d="M414.937,345.444a3.955,3.955,0,0,0-1.489.295,3.966,3.966,0,0,1,2.481,3.675V351.4a3.966,3.966,0,0,1-2.481,3.675,3.96,3.96,0,0,0,5.459-3.675v-1.985A3.97,3.97,0,0,0,414.937,345.444Z" transform="translate(-362.151 -301.32)" fill="#eabd8c"/>
      <path id="Trazado_900701" data-name="Trazado 900701" d="M366.411,425.444l-2.614,1.307a2.979,2.979,0,0,0-1.606,2.174l-.742,4.46h15.881l-.743-4.46a2.976,2.976,0,0,0-1.606-2.174l-2.613-1.307Z" transform="translate(-316.603 -371.394)" fill="#92e0c0"/>
      <path id="Trazado_900702" data-name="Trazado 900702" d="M431.04,426.751l-2.614-1.307h-2.978l2.409,1.445a5.262,5.262,0,0,1,2.554,4.511v1.984h2.978l-.743-4.46A2.978,2.978,0,0,0,431.04,426.751Z" transform="translate(-372.662 -371.394)" fill="#48c397"/>
      <path id="Trazado_900703" data-name="Trazado 900703" d="M169.448,104.332V99.761a10.317,10.317,0,0,1,10.317-10.317h0a6.688,6.688,0,0,1,5.564,2.978h0a5.242,5.242,0,0,1,3.97,5.085v6.826Z" transform="translate(-148.424 -77.082)" fill="#d3a06c"/>
      <path id="Trazado_900704" data-name="Trazado 900704" d="M246.49,92.422a6.688,6.688,0,0,0-5.564-2.978,10.325,10.325,0,0,0-1.654.145,6.675,6.675,0,0,1,4.24,2.833,5.242,5.242,0,0,1,3.97,5.085v6.826h2.978V97.507A5.242,5.242,0,0,0,246.49,92.422Z" transform="translate(-209.585 -77.082)" fill="#b27946"/>
      <g id="Grupo_1112590" data-name="Grupo 1112590" transform="translate(21.024 24.273)">
        <path id="Trazado_900705" data-name="Trazado 900705" d="M298.441,191.4h0a2.978,2.978,0,0,0,2.978-2.978h0a2.978,2.978,0,0,0-2.978-2.978h-.993V191.4Z" transform="translate(-281.567 -185.444)" fill="#f9e0a6"/>
        <path id="Trazado_900706" data-name="Trazado 900706" d="M172.426,191.4h0a2.977,2.977,0,0,1-2.978-2.978h0a2.977,2.977,0,0,1,2.978-2.978h.993V191.4Z" transform="translate(-169.448 -185.444)" fill="#f9e0a6"/>
      </g>
      <path id="Trazado_900707" data-name="Trazado 900707" d="M158.237,294.921a5.954,5.954,0,0,0-4.558-4.2l-6.365-1.273h-5.955l-6.365,1.273a5.955,5.955,0,0,0-4.558,4.2l-.988,3.456h29.777Z" transform="translate(-113.387 -252.268)" fill="#fb5968"/>
      <path id="Trazado_900708" data-name="Trazado 900708" d="M242.327,280.906a5.954,5.954,0,0,0-4.558-4.2l-6.365-1.273v-1.985h-5.955v1.985l6.365,1.273a5.955,5.955,0,0,1,4.558,4.2l.988,3.456h5.955Z" transform="translate(-197.477 -238.253)" fill="#cd2c5a"/>
      <g id="Grupo_1112591" data-name="Grupo 1112591" transform="translate(24.001 21.295)">
        <path id="Trazado_900709" data-name="Trazado 900709" d="M225.448,268.422l2.978,4.963,2.978-4.963v-2.978h-5.955Z" transform="translate(-221.478 -252.541)" fill="#f9e0a6"/>
        <path id="Trazado_900710" data-name="Trazado 900710" d="M193.448,164.422v4.963a6.948,6.948,0,0,0,6.948,6.948h0a6.948,6.948,0,0,0,6.948-6.948v-4.963h0a11.91,11.91,0,0,1-7.146-2.382l-.794-.6-.872.872a7.188,7.188,0,0,1-5.083,2.105Z" transform="translate(-193.448 -161.444)" fill="#f9e0a6"/>
      </g>
      <path id="Trazado_900711" data-name="Trazado 900711" d="M242.907,182.356V187.7a6.948,6.948,0,0,1-5.459,6.784,6.938,6.938,0,0,0,8.437-6.784v-4.963A11.887,11.887,0,0,1,242.907,182.356Z" transform="translate(-207.988 -158.466)" fill="#eabd8c"/>
      <path id="Trazado_900712" data-name="Trazado 900712" d="M144.582,107.55l-5.567-1.114v-.179h-.135a7.963,7.963,0,0,0,3.863-5.038,3.973,3.973,0,0,0,3.22-3.895V90.5a6.224,6.224,0,0,0-4.353-5.943,7.662,7.662,0,0,0-6.173-3.112,11.322,11.322,0,0,0-11.31,11.31v4.571a3.973,3.973,0,0,0,3.22,3.895,7.958,7.958,0,0,0,3.863,5.038h-.135v.179l-5.567,1.114a6.92,6.92,0,0,0-5.317,4.9l-1.35,4.722h32.409l-1.349-4.722A6.921,6.921,0,0,0,144.582,107.55Zm-1.6-8.516V95.617a1.967,1.967,0,0,1,0,3.417Zm-7.548-15.605a5.68,5.68,0,0,1,4.738,2.536l.212.319.373.093a4.242,4.242,0,0,1,3.218,4.122v3.407a3.929,3.929,0,0,0-1.985-.552,10.987,10.987,0,0,1-6.552-2.184l-1.482-1.112-1.481,1.481a6.156,6.156,0,0,1-4.381,1.814,3.929,3.929,0,0,0-1.985.552V92.753A9.336,9.336,0,0,1,135.437,83.429Zm-9.325,13.9a1.979,1.979,0,0,1,.993-1.709v3.417A1.976,1.976,0,0,1,126.111,97.325Zm2.978,1.985V95.273a8.11,8.11,0,0,0,4.792-2.33l.264-.264.1.078A13,13,0,0,0,141,95.3V99.31a5.955,5.955,0,1,1-11.911,0Zm7.931,7.681-1.975,3.293-1.975-3.292a7.674,7.674,0,0,0,3.95,0Zm6.74,8.2-.8-3.218-1.925.48.685,2.737h-13.34l.684-2.737-1.925-.48-.8,3.218h-4.858L122.1,113a4.943,4.943,0,0,1,3.8-3.5l5.679-1.135,3.469,5.781,3.469-5.781,5.679,1.135a4.944,4.944,0,0,1,3.8,3.5l.626,2.192Z" transform="translate(-104.095 -70.074)"/>
      <rect id="Rectángulo_405156" data-name="Rectángulo 405156" width="1.985" height="1.985" transform="translate(51.793 31.221)"/>
      <rect id="Rectángulo_405157" data-name="Rectángulo 405157" width="1.985" height="1.985" transform="translate(47.823 31.221)"/>
      <rect id="Rectángulo_405158" data-name="Rectángulo 405158" width="1.985" height="1.985" transform="translate(43.853 31.221)"/>
      <rect id="Rectángulo_405159" data-name="Rectángulo 405159" width="1.985" height="1.985" transform="translate(16.061 31.221)"/>
      <rect id="Rectángulo_405160" data-name="Rectángulo 405160" width="1.985" height="1.985" transform="translate(12.09 31.221)"/>
      <rect id="Rectángulo_405161" data-name="Rectángulo 405161" width="1.985" height="1.985" transform="translate(8.12 31.221)"/>
      <path id="Trazado_900713" data-name="Trazado 900713" d="M59.459,54.712l-2.737-1.643a4.914,4.914,0,0,0,1.027-2.99V48.095a4.95,4.95,0,0,0-2.62-4.348A26.734,26.734,0,0,0,55.422,21.3H61.9L60.862,15.09a2.969,2.969,0,0,0-1.4-2.066L56.72,11.382a4.908,4.908,0,0,0,1.028-2.99V6.407a4.963,4.963,0,0,0-9.926,0V8.392a4.908,4.908,0,0,0,1.028,2.99l-.607.364a26.782,26.782,0,0,0-34.588,0l-.607-.364a4.919,4.919,0,0,0,1.027-2.991V6.407a4.963,4.963,0,1,0-9.926,0V8.392a4.908,4.908,0,0,0,1.028,2.99L2.441,13.024a2.969,2.969,0,0,0-1.4,2.065L0,21.3H6.475A26.739,26.739,0,0,0,6.77,43.746a4.95,4.95,0,0,0-2.62,4.348V50.08a4.908,4.908,0,0,0,1.028,2.99L2.441,54.712a2.969,2.969,0,0,0-1.4,2.065L0,62.983H18.224l-1.035-6.206a2.969,2.969,0,0,0-1.4-2.066l-2.737-1.643a4.943,4.943,0,0,0,.381-.59,26.761,26.761,0,0,0,35.041,0,5.024,5.024,0,0,0,.381.59l-2.737,1.643a2.969,2.969,0,0,0-1.4,2.065l-1.035,6.206H61.9l-1.035-6.206A2.965,2.965,0,0,0,59.459,54.712Zm-3.7-4.632a2.978,2.978,0,1,1-5.955,0V48.095a2.978,2.978,0,1,1,5.955,0ZM58.9,15.414l.649,3.9H46.017l.649-3.9a.988.988,0,0,1,.468-.687l3.31-1.986a4.767,4.767,0,0,0,4.682,0l3.31,1.986A.99.99,0,0,1,58.9,15.414Zm-9.1-9.008a2.978,2.978,0,1,1,5.955,0V8.392a2.978,2.978,0,1,1-5.955,0Zm-43.673,0a2.978,2.978,0,1,1,5.955,0V8.392a2.978,2.978,0,0,1-5.955,0V6.407ZM2.994,15.413a.988.988,0,0,1,.468-.687l3.31-1.986a4.767,4.767,0,0,0,4.682,0l3.31,1.986a.988.988,0,0,1,.468.688l.648,3.9H2.344ZM6.135,48.095a2.978,2.978,0,0,1,5.955,0V50.08a2.978,2.978,0,1,1-5.955,0V48.095Zm9.1,9.008.649,3.9H2.344l.649-3.9a.988.988,0,0,1,.468-.687l3.31-1.986a4.767,4.767,0,0,0,4.682,0l3.31,1.986A.99.99,0,0,1,15.232,57.1Zm15.717-.074a24.676,24.676,0,0,1-16.9-6.665c.006-.1.029-.186.029-.283V48.095a4.968,4.968,0,0,0-4.963-4.963c-.142,0-.275.03-.414.042a24.871,24.871,0,0,1-2.564-10.96A24.514,24.514,0,0,1,8.679,21.3h9.546L17.19,15.09a2.969,2.969,0,0,0-1.4-2.066l-.306-.184a24.711,24.711,0,0,1,30.939,0l-.306.184a2.969,2.969,0,0,0-1.4,2.065L43.673,21.3h9.546a24.513,24.513,0,0,1,2.544,10.918A24.871,24.871,0,0,1,53.2,43.173c-.139-.012-.272-.042-.414-.042a4.968,4.968,0,0,0-4.963,4.963V50.08c0,.1.023.188.029.283A24.676,24.676,0,0,1,30.949,57.028ZM46.017,61l.649-3.9a.988.988,0,0,1,.468-.687l3.31-1.986a4.767,4.767,0,0,0,4.682,0l3.31,1.986a.988.988,0,0,1,.468.688l.648,3.9Z"/>
    </g>
  </g>
</svg>
